<svg xmlns="http://www.w3.org/2000/svg" viewBox="0 0 90 90"><path d="M89.44,75.22C89.44,83.04,83.05,89.44,75.22,89.44L14.78,89.44C6.96,89.44,0.56,83.04,0.56,75.22L0.56,14.78C0.56,6.96,6.96,0.56,14.78,0.56L75.22,0.56C83.04,0.56,89.44,6.96,89.44,14.78L89.44,75.22Z" fill="#e3183c"/><path d="M6.81,16.27L6.81,73.73C6.81,78.95,11.05,83.19,16.27,83.19L73.73,83.19C78.95,83.19,83.19,78.95,83.19,73.73L83.19,16.27C83.19,11.05,78.95,6.81,73.73,6.81L16.27,6.81C11.05,6.81,6.81,11.05,6.81,16.27Z" fill="#7ed3f7"/><path d="M29.09,20.47L39.41,21.97L31.94,29.25L33.71,39.53L24.48,34.68L15.25,39.53L17.01,29.25L9.54,21.97L19.86,20.47L24.48,11.12Z" fill="#e6f5fa"/><path d="M73.3,16.82L77.9,17.49L74.57,20.74L75.35,25.33L71.24,23.16L67.12,25.33L67.9,20.74L64.57,17.49L69.18,16.82L71.24,12.65Z" fill="#e6f5fa"/><path d="M21.19,59.17L24.02,59.58L21.97,61.58L22.46,64.4L19.92,63.07L17.39,64.4L17.87,61.58L15.83,59.58L18.66,59.17L19.92,56.6Z" fill="#e6f5fa"/><path d="M30.85,60.46L28.35,47.78L31.94,23.69L65.12,26.07L65.12,60.46Z" fill="#e3183c"/><path d="M55.99,20.61L35.74,20.61C31.19,20.61,27.49,24.31,27.49,28.86L27.49,28.86L27.49,33.7L27.49,33.7C27.49,38.26,31.19,41.95,35.74,41.95L55.99,41.95C60.55,41.95,64.25,38.26,64.25,33.7L64.25,33.7L64.25,28.86L64.25,28.86C64.25,24.31,60.55,20.61,55.99,20.61Z" fill="#aa122d"/><path d="M57.68,14.2L34.06,14.2C28.74,14.2,24.43,18.51,24.43,23.82L24.43,23.82L24.43,29.47L24.43,29.47C24.43,34.78,28.74,39.09,34.06,39.09L57.68,39.09C63,39.09,67.31,34.78,67.31,29.47L67.31,29.47L67.31,23.82L67.31,23.82C67.31,18.51,63,14.2,57.68,14.2Z" fill="#e3183c"/><path d="M30.84,63.18L65.12,63.18L65.12,75.08C65.12,75.91,64.45,76.58,63.63,76.58L32.34,76.58C31.51,76.58,30.84,75.91,30.84,75.08L30.84,63.18L30.84,63.18Z" fill="#aa122d"/><path d="M30.84,59.72L65.12,59.72L65.12,73.12L30.84,73.12Z" fill="#e3183c"/><path d="M47.43,59.2C49.79,59.2,51.7,61.12,51.7,63.47L51.7,73.12L43.16,73.12L43.16,63.47C43.16,61.12,45.07,59.2,47.43,59.2Z" fill="#aa122d"/><path d="M52.2,69.66L42.11,64.49L41.71,63.24L53.05,68.01L53.45,69.26Z" fill="#e6f5fa"/><path d="M42.11,68.01L52.2,62.84L53.45,63.24L42.95,69.66L41.71,69.26Z" fill="#e6f5fa"/><path d="M41.05,81C41.05,81.51,41.47,81.92,41.98,81.92L41.98,81.92C42.49,81.91,42.91,81.49,42.9,80.98L42.81,72.77C42.81,72.26,42.39,71.85,41.88,71.85L41.88,71.85C41.36,71.86,40.95,72.28,40.96,72.79Z" fill="#e6f5fa"/><path d="M51.89,81C51.9,81.51,52.32,81.92,52.83,81.92L52.83,81.92C53.34,81.91,53.75,81.49,53.75,80.98L53.66,72.77C53.65,72.26,53.24,71.85,52.72,71.85L52.72,71.85C52.21,71.86,51.8,72.28,51.8,72.79Z" fill="#e6f5fa"/><path d="M34.63,29.51L34.63,29.51L41.17,51.17L34.63,57.71L28.09,36.04Z" fill="#aa122d"/><path d="M48.3,55.3C47.41,47.3,40.66,41.06,32.44,40.97L32.44,55.3Z" fill="#aa122d"/><path d="M32.27,29.51L32.27,29.51L38.81,51.17L32.27,57.71L25.74,36.04Z" fill="#e3183c"/><path d="M48.37,57.71C47.48,49.71,40.73,43.47,32.51,43.38L32.51,57.71Z" fill="#e3183c"/><path d="M71.59,47.24L78.84,48.3L73.59,53.41L74.83,60.64L68.35,57.23L61.86,60.64L63.1,53.41L57.85,48.3L65.1,47.24L68.35,40.67Z" fill="#e6f5fa"/></svg>