<svg xmlns="http://www.w3.org/2000/svg" viewBox="0 0 90 90"><path d="M0.55,75.22L0.55,14.78C0.55,6.96,6.95,0.56,14.77,0.56L75.21,0.56C83.04,0.56,89.44,6.95,89.44,14.78L89.44,75.22C89.81,82.6,83.36,89.07,75.21,89.45L14.77,89.45C6.95,89.45,0.55,83.04,0.55,75.22Z" fill="#585858"/><path d="M73.72,6.81C78.94,6.81,83.19,11.05,83.19,16.27L83.19,73.73C83.19,78.95,78.94,83.19,73.72,83.19L16.26,83.19C11.04,83.19,6.8,78.95,6.8,73.73L6.8,16.27C6.8,11.05,11.04,6.81,16.26,6.81L73.72,6.81Z" fill="#afafaf"/><path d="M36.83,14.3L36.83,14.3L37.07,14.53L42.03,19.48C47.65,19.93,52.87,22.26,56.73,26.06C61.42,30.66,63.89,37.23,63.89,45.05C63.89,48.37,62.45,53.44,61.4,57.14C61.14,58.04,60.9,58.86,60.74,59.5C66.08,60.96,66.07,64.68,66.05,68.95L66.05,70.4L25.41,70.4C25.41,70.4,25.41,69.6,25.41,69.6L25.41,68.95C25.4,64.67,25.39,60.96,30.72,59.5C31.58,53.84,36.55,49.82,39.56,47.38L39.64,47.32C40.82,46.36,42.02,45.31,42.85,44.11C43.27,43.49,43.57,42.86,43.76,42.19C44.22,40.6,43.55,39.08,42.96,38.15L42.09,39.16L42.08,39.17L42.06,39.19C40.61,40.71,37.59,43.88,34.1,43.89C31.71,43.9,31.05,44.94,30.13,46.38C29.71,47.04,29.27,47.72,28.64,48.32C28.36,48.6,27.95,48.63,27.68,48.63C26.27,48.63,22.19,47.55,20.51,46.12C18.86,44.71,18.7,42.21,20.14,40.41L24.8,33.85C26.22,31.79,26.67,30.43,27.24,28.71C27.48,28,27.75,27.2,28.11,26.28L28.17,26.11C28.51,25.25,29.01,23.95,30.6,22.64C32.04,21.45,32.92,20.56,33.45,19.31L34.03,16.55C34.32,15.29,35.41,14.3,36.5,14.3L36.83,14.3Z" fill="#585858"/><path d="M14.99,58.05L74.99,58.05L74.99,62.25L14.99,62.25Z" fill="#cfcfcf"/><path d="M14.99,58.05L19.49,58.05L19.49,70.4L14.99,70.4Z" fill="#cfcfcf"/><path d="M70.49,58.05L74.99,58.05L74.99,70.4L70.49,70.4Z" fill="#cfcfcf"/><path d="M46.83,56.49L26.59,56.49C29.22,53.98,32.78,52.42,36.71,52.42C40.64,52.42,44.2,53.98,46.83,56.49Z" fill="#fff"/><path d="M63.41,56.49L43.17,56.49C45.8,53.98,49.37,52.42,53.29,52.42C57.22,52.42,60.79,53.98,63.41,56.49Z" fill="#fff"/><path d="M61.43,57.11L45.16,57.11C47.48,55.54,50.28,54.63,53.29,54.63C56.31,54.63,59.11,55.54,61.43,57.11Z" fill="#cfcfcf"/><path d="M44.7,57.11L28.43,57.11C30.75,55.54,33.55,54.63,36.56,54.63C39.58,54.63,42.38,55.54,44.7,57.11Z" fill="#cfcfcf"/><path d="M24.62,56.49L65.39,56.49L65.39,58.06L24.62,58.06Z" fill="#8a8886"/></svg>