<svg xmlns="http://www.w3.org/2000/svg" viewBox="0 0 90 90"><path d="M75.22,89.44L14.78,89.44C6.96,89.44,0.56,83.04,0.56,75.22L0.56,14.78C0.56,6.96,6.96,0.56,14.78,0.56L75.22,0.56C83.04,0.56,89.44,6.96,89.44,14.78L89.44,75.22C89.44,83.04,83.04,89.44,75.22,89.44Z" fill="#312e2b"/><path d="M6.81,16.27L6.81,73.73C6.81,78.95,11.05,83.19,16.27,83.19L73.73,83.19C78.95,83.19,83.19,78.95,83.19,73.73L83.19,16.27C83.19,11.05,78.95,6.8,73.73,6.8L16.27,6.8C11.05,6.8,6.81,11.05,6.81,16.27Z" fill="#65625f"/><path d="M71.33,34.18L59.36,34.18L59.36,60.37C59.36,62.58,61.15,64.36,63.35,64.36L63.35,64.36C65.55,64.36,67.34,62.58,67.34,60.37L67.34,55.11L75.32,55.11L75.32,38.17C75.32,35.97,73.53,34.18,71.33,34.18Z" fill="#bcbec0"/><path d="M59.36,64.36L63.35,64.36C61.15,64.36,59.36,62.58,59.36,60.37Z" fill="#ededed"/><path d="M14.68,34.18L14.68,60.57C14.68,62.67,16.38,64.36,18.47,64.36L63.35,64.36L63.35,34.18L22.66,34.18Z" fill="#ededed"/><path d="M67.34,34.18L59.36,34.18L59.36,60.37C59.36,62.58,61.15,64.36,63.35,64.36L63.35,64.36C65.55,64.36,67.34,62.58,67.34,60.37L67.34,38.17C67.34,35.97,69.13,34.18,71.33,34.18L67.34,34.18Z" fill="#d1d3d4"/><path d="M14.68,28.15L59.36,28.15L59.36,41.84L14.68,41.84Z" fill="#ededed"/><path d="M33.97,53.91L19.77,53.91L19.77,51.69L33.97,51.69Z" fill="#65625f"/><path d="M33.97,58.54L19.77,58.54L19.77,56.32L33.97,56.32Z" fill="#65625f"/><path d="M33.97,48.84L19.77,48.84L19.77,46.62L33.97,46.62Z" fill="#65625f"/><path d="M54.26,53.91L40.07,53.91L40.07,51.69L54.26,51.69Z" fill="#65625f"/><path d="M54.26,58.54L40.07,58.54L40.07,56.32L54.26,56.32Z" fill="#65625f"/><path d="M54.26,48.84L40.07,48.84L40.07,46.62L54.26,46.62Z" fill="#65625f"/><path d="M54.26,41.13L19.77,41.13L19.77,34.56L54.26,34.56Z" fill="#65625f"/></svg>