<svg xmlns="http://www.w3.org/2000/svg" viewBox="0 0 90 90"><path d="M89.44,75.22C89.44,83.04,83.04,89.44,75.22,89.44L14.78,89.44C6.96,89.44,0.56,83.04,0.56,75.22L0.56,14.78C0.56,6.96,6.96,0.56,14.78,0.56L75.22,0.56C83.04,0.56,89.45,6.96,89.45,14.78L89.45,75.22Z" fill="#ee4552"/><path d="M16.27,6.81C11.05,6.81,6.8,11.05,6.8,16.27L6.8,73.73C6.8,78.95,11.05,83.19,16.27,83.19L73.73,83.19C78.95,83.19,83.19,78.95,83.19,73.73L83.19,16.27C83.19,11.05,78.95,6.81,73.73,6.81L16.27,6.81Z" fill="#7ed3f7"/><path d="M83.19,48.74C80.96,48.86,79.01,50.67,78.2,53.33C78.02,53.3,77.84,53.29,77.66,53.29C74.8,53.29,72.43,56.06,72.05,59.63C69.36,60.18,67.27,63.23,67.27,66.86C67.27,70.9,69.81,74.18,72.93,74.18L83.19,74.18L83.19,48.74Z" fill="#fff"/><path d="M80.78,62.54L76.92,38.42L12.1,38.42L9.22,58.45L22.22,58.45C24.27,58.45,25.94,60.13,25.94,62.2C25.94,64.06,27.43,65.57,29.28,65.57L55.47,65.63C56.27,65.64,56.94,65.01,57,64.2L57.01,63.96C57.07,63.15,57.74,62.52,58.54,62.52L69.42,62.54L80.78,62.54Z" fill="#ee4552"/><path d="M69.62,30.07C69.6,29.89,69.56,29.72,69.49,29.57C68.73,24.06,64.99,19.98,60.62,19.98C60.33,19.98,60.03,19.99,59.73,20.03C58.38,15.64,55.1,12.7,51.36,12.7C48.65,12.7,46.17,14.22,44.48,16.81C42.79,14.22,40.31,12.7,37.6,12.7C33.87,12.7,30.58,15.64,29.23,20.03C28.95,19.99,28.66,19.98,28.37,19.98C23.81,19.98,20.03,24.39,19.44,30.09C15.13,30.96,11.81,35.83,11.81,41.62C11.81,48.06,15.86,53.29,20.83,53.29L68.29,53.29C73.26,53.29,77.31,48.06,77.31,41.62C77.31,35.77,73.97,30.91,69.62,30.07Z" fill="#f48c8d"/><path d="M11.67,64.61C11.66,64.53,11.64,64.45,11.61,64.39C11.27,61.98,9.64,60.19,7.73,60.19C7.6,60.19,7.47,60.2,7.34,60.22C7.2,59.77,7.02,59.37,6.8,59L6.8,74.76L11.08,74.76C13.26,74.76,15.02,72.47,15.02,69.66C15.02,67.1,13.56,64.97,11.66,64.61Z" fill="#fff"/><path d="M37.51,76.65L37.51,46.26C37.51,44.94,38.58,43.87,39.9,43.87C41.22,43.87,42.29,44.94,42.29,46.26L42.29,76.65C42.29,77.97,41.22,79.04,39.9,79.04C38.58,79.04,37.51,77.97,37.51,76.65Z" fill="#0089bd"/><path d="M46.82,67.38L46.82,45.84C46.82,44.52,47.89,43.44,49.21,43.44C50.54,43.44,51.61,44.52,51.61,45.84L51.61,67.38C51.61,68.7,50.54,69.77,49.21,69.77C47.89,69.77,46.82,68.7,46.82,67.38Z" fill="#0089bd"/><path d="M11.81,41.62C11.81,48.06,15.85,53.29,20.83,53.29L68.29,53.29C73.26,53.29,77.31,48.06,77.31,41.62C77.31,40.61,77.2,39.63,77.02,38.69L12.1,38.69C11.91,39.63,11.81,40.61,11.81,41.62Z" fill="#5c9abe"/><path d="M72.27,38.82L72.27,17.97C72.27,16.65,73.34,15.58,74.67,15.58C75.99,15.58,77.06,16.65,77.06,17.97L77.06,38.82C77.06,40.14,75.99,41.22,74.67,41.22C73.34,41.22,72.27,40.14,72.27,38.82Z" fill="#f48c8d"/><path d="M51.81,33.86L37.3,33.86L33.85,36.39L33.85,44.02L44.56,51.86L55.26,44.02L55.26,36.39Z" fill="#ee4552"/><path d="M72.27,20.94L72.27,38.82C72.27,40.14,73.34,41.21,74.67,41.21C75.99,41.21,77.06,40.14,77.06,38.82L77.06,20.94L72.27,20.94Z" fill="#5c9abe"/></svg>