<svg xmlns="http://www.w3.org/2000/svg" viewBox="0 0 90 90"><path d="M0.56,75.22C0.56,83.04,6.96,89.45,14.78,89.45L75.22,89.45C83.04,89.45,89.45,83.04,89.45,75.22L89.45,14.78C89.45,6.95,83.05,0.56,75.22,0.56L14.78,0.56C6.96,0.56,0.56,6.96,0.56,14.78L0.56,75.22Z" fill="#52b0dc"/><path d="M83.2,16.27L83.2,73.73C83.2,78.95,78.95,83.19,73.73,83.19L16.27,83.19C11.05,83.19,6.81,78.95,6.81,73.73L6.81,16.27C6.81,11.05,11.05,6.81,16.27,6.81L73.73,6.81C78.95,6.81,83.2,11.05,83.2,16.27Z" fill="#0381b8"/><path d="M46.26,24.78C46.25,24.78,46.24,24.78,46.23,24.78L46.29,24.78C46.28,24.78,46.27,24.78,46.26,24.78Z" fill="#7eadca"/><path d="M29.85,38.19C29.58,38.19,29.34,38.36,29.24,38.61L25.08,49.41L13.52,50.03C13.25,50.05,13.02,50.22,12.94,50.48C12.85,50.73,12.93,51.01,13.14,51.18L22.13,58.48L19.15,69.67C19.08,69.93,19.18,70.2,19.39,70.36C19.6,70.51,19.9,70.52,20.12,70.38L29.85,64.09L39.57,70.38C39.79,70.52,40.08,70.52,40.3,70.36C40.51,70.2,40.61,69.93,40.54,69.68L37.56,58.48L46.55,51.18C46.75,51.01,46.84,50.73,46.75,50.48C46.67,50.22,46.44,50.05,46.17,50.03L34.61,49.41L30.45,38.61C30.36,38.36,30.11,38.19,29.85,38.19Z" fill="#fed853"/><path d="M29.85,38.84L25.53,50.03L13.55,50.68L22.86,58.24L19.77,69.84L20.02,69.68C34.46,56.32,31.89,44.13,31.89,44.13Z" fill="#fffabe"/><path d="M29.85,38.83L29.85,38.84L33.83,49.18L34.16,50.03L35.07,50.08L46.14,50.68L37.54,57.67L36.84,58.25L37.07,59.13L39.92,69.84L30.61,63.82L29.85,63.32L29.08,63.82L19.77,69.84L22.62,59.13L22.86,58.25L22.15,57.67L13.55,50.67L24.62,50.08L25.53,50.03L25.86,49.18L29.85,38.84C29.85,38.84,29.85,38.84,29.85,38.84M29.85,37.42C29.26,37.42,28.74,37.78,28.53,38.33L24.54,48.67L13.47,49.26C12.89,49.29,12.39,49.68,12.21,50.24C12.02,50.8,12.2,51.41,12.66,51.77L21.26,58.76L18.4,69.47C18.25,70.04,18.47,70.64,18.94,70.98C19.19,71.16,19.48,71.25,19.77,71.25C20.04,71.25,20.31,71.18,20.54,71.02L29.85,65L39.15,71.02C39.38,71.18,39.65,71.25,39.92,71.25C40.21,71.25,40.5,71.16,40.75,70.98C41.22,70.64,41.43,70.04,41.28,69.48L38.43,58.77L47.03,51.77C47.48,51.41,47.66,50.8,47.48,50.24C47.3,49.68,46.8,49.3,46.21,49.26L35.15,48.67L31.17,38.33C30.96,37.78,30.43,37.43,29.85,37.43L29.85,37.43Z" fill="none" stroke="#f3c536" stroke-width="2" stroke-linecap="butt" stroke-linejoin="miter"/><path d="M70.56,60.48L72.78,57.1L68.1,39.43C68.1,39.43,67.4,37.57,66.82,39.55L63.66,49.05L55.94,49.05C55.94,49.05,53.72,40.71,53.72,40.71C53.72,40.71,53.08,36.22,51.85,40.54L46.83,57.68L49.16,60.48L70.5,60.48C70.5,60.48,70.56,60.48,70.56,60.48Z" fill="#5c8cb1"/><path d="M72.66,64.15L75.35,43.98L70.15,53.71C70.09,53.84,70.01,53.96,69.92,54.06L67.58,56.63C67.38,56.84,67.11,56.97,66.82,56.98C66.74,56.99,66.66,56.99,66.58,56.98C66.2,56.88,65.89,56.6,65.77,56.22L59.92,42.64L54.07,56.22C53.93,56.57,53.63,56.83,53.26,56.92C53.18,56.93,53.1,56.93,53.02,56.92C52.71,56.92,52.42,56.8,52.2,56.57L49.92,54.06C49.82,53.96,49.75,53.84,49.69,53.71L44.25,43.28L47.18,64.09C47.47,64.91,49.81,70.8,59.8,70.85L59.92,70.85C59.92,70.85,59.92,70.91,59.92,70.91C69.86,70.91,72.31,65.02,72.66,64.15Z" fill="#80a6c5"/><path d="M75.76,42.05C75.84,42.24,75.88,42.44,75.88,42.64L72.95,64.38C72.95,64.56,70.62,71.38,59.92,71.38L59.92,72.14C59.92,72.14,59.8,71.38,59.8,71.38C48.99,71.38,46.83,64.38,46.83,64.27L43.79,42.64C43.72,42.46,43.74,42.27,43.84,42.11C44.02,42.11,44.2,42.11,44.43,42.64L50.16,53.83L53.26,57.21L59.86,41.82L59.92,41.65L59.92,41.76C59.92,41.76,66.64,57.21,66.64,57.21L69.86,53.6L75.7,42.17C75.74,42.11,75.78,42.05,75.82,42L75.76,42.06Z" fill="#b9d0e1"/><path d="M53.31,56.58L59.16,41.47C59.19,41.37,59.23,41.27,59.27,41.18L59.39,41.06C59.46,40.83,59.67,40.67,59.92,40.66C60.15,40.7,60.34,40.85,60.44,41.06C60.46,41.1,60.48,41.14,60.5,41.18C60.57,41.27,60.62,41.37,60.68,41.47L66.51,56.99L69.61,53.47L75.29,43.98C74.24,49.81,70.26,67.53,66.52,70.21C64.36,70.55,62.17,71.11,59.98,71.15L59.8,71.15C57.61,71.11,55.42,70.55,53.25,70.21C49.51,67.53,45.6,49.81,44.49,43.98L50.68,53.31Z" fill="#e4e8ec"/><path d="M53.37,55.87L59.16,42C59.98,39.9,60.68,42,60.68,42L66.46,55.87L66.46,56.28C66.46,63.1,65.3,67.94,63.42,71.32C62.23,71.52,61.01,71.62,59.8,71.61C58.66,71.61,57.53,71.51,56.41,71.32C54.19,66.63,53.14,61.46,53.37,56.28L53.37,55.87Z" fill="#fff"/><path d="M72.25,60.48C72.25,60.48,70.09,64.38,59.8,64.38C49.51,64.38,47.53,60.48,47.53,60.48" fill="none" stroke="#000000" stroke-width="2" stroke-linecap="butt" stroke-linejoin="miter"/><path d="M59.86,43.05L65.53,56.34L66.35,58.2L67.69,56.69L70.03,54.18L70.15,54.06L70.26,53.89L75.06,44.74L72.43,64.21C72.14,65.03,69.68,70.85,59.92,70.85L59.8,70.85C49.98,70.8,47.64,64.97,47.35,64.21L44.55,44.1L49.57,53.89L49.63,54.07L49.75,54.18L52.03,56.69L53.43,58.2L54.25,56.34L59.92,43.05M59.92,40.6C59.74,40.6,59.45,40.83,59.16,41.53L53.14,55.87L50.8,53.36L45.19,42.35C44.84,41.65,44.43,41.35,44.02,41.35C43.96,41.36,43.91,41.37,43.85,41.39C43.26,41.55,42.92,42.16,43.08,42.75L46.18,64.5C46.18,64.5,48.35,72.13,59.86,72.19L59.98,72.19C71.43,72.19,73.77,64.5,73.77,64.5L76.58,42.75C76.69,42.17,76.34,41,75.82,41C75.58,41,75.29,41.24,75,41.82L69.15,53.31L66.82,55.81L60.62,41.47C60.62,41.47,60.33,40.6,59.86,40.6L59.92,40.6Z" fill="none" stroke="#7eadca" stroke-width="2" stroke-linecap="butt" stroke-linejoin="miter"/><path d="M21.21,29.12L14.65,29.12L14.65,27.15L21.21,27.15Z" fill="#000000"/><path d="M22.33,23L17.66,18.39L19.04,16.99L23.71,21.6Z" fill="#000000"/><path d="M68.79,27.15L75.35,27.15L75.35,29.12L68.79,29.12Z" fill="#000000"/><path d="M66.29,21.6L70.96,16.99L72.34,18.39L67.67,23Z" fill="#000000"/><path d="M23.71,34.37L19.04,38.98L17.66,37.58L22.33,32.97Z" fill="#000000"/><path d="M67.67,32.97L72.34,37.58L70.96,38.98L66.29,34.37Z" fill="#000000"/><path d="M44.05,50.77L26.72,28.87C26.56,28.6,26.51,28.29,26.58,27.99C26.65,27.69,26.84,27.43,27.11,27.27L36.03,17.93C36.21,17.82,36.42,17.77,36.63,17.77L53.39,17.77C53.6,17.77,53.8,17.83,53.98,17.94L62.9,27.29C63.16,27.45,63.35,27.7,63.42,28C63.49,28.3,63.45,28.62,63.28,28.88L46.01,50.77C45.8,51.11,45.43,51.32,45.03,51.32L45.03,51.32C44.63,51.32,44.26,51.11,44.05,50.77Z" fill="#68a2d2"/><path d="M44.05,50.77L26.72,28.87C26.56,28.6,26.51,28.29,26.58,27.99C26.65,27.69,26.84,27.43,27.11,27.27L36.03,17.93C36.21,17.82,36.42,17.77,36.63,17.77L53.39,17.77C53.6,17.77,53.8,17.83,53.98,17.94L62.9,27.29C63.16,27.45,63.35,27.7,63.42,28C63.49,28.3,63.45,28.62,63.28,28.88L46.01,50.77C45.8,51.11,45.43,51.32,45.03,51.32L45.03,51.32C44.63,51.32,44.26,51.11,44.05,50.77Z" fill="#68a2d2"/><path d="M41.87,35.76C41.87,35.76,38.19,39.81,37.13,41.01C36.06,42.21,35.11,44.16,35.73,44.89C36.14,45.37,40.37,50.69,43.27,53.43C44.84,54.91,45.86,54.77,47.37,53.25C48.89,51.74,59.13,40.07,59.13,40.07L41.87,35.76Z" fill="#000000"/><path d="M44.05,50.77L26.72,28.87C26.56,28.6,26.51,28.29,26.58,27.99C26.65,27.69,26.84,27.43,27.11,27.27L36.03,17.93C36.21,17.82,36.42,17.77,36.63,17.77L53.39,17.77C53.6,17.77,53.8,17.83,53.98,17.94L62.9,27.29C63.16,27.45,63.35,27.7,63.42,28C63.49,28.3,63.45,28.62,63.28,28.88L46.01,50.77C45.8,51.11,45.43,51.32,45.03,51.32L45.03,51.32C44.63,51.32,44.26,51.11,44.05,50.77Z" fill="#0097c7"/><path d="M50.11,18.93L39.98,18.92L36.63,18.92L27.7,28.26L45.03,50.17L52.98,30.67L62.38,28.28L53.46,18.93Z" fill="#52b1dc"/><path d="M50.11,18.93L39.98,18.92L36.63,18.92L27.7,28.26L45.03,50.17L37.09,30.66L52.98,30.67Z" fill="#99daf6"/><path d="M39.98,18.92L36.63,18.92L27.7,28.26L37.09,30.66Z" fill="#000000"/><path d="M53.24,19.14L61.91,28.23L61.99,28.31L45.03,49.82L28.01,28.3L28.09,28.22L36.77,19.13L53.24,19.14M36.63,17.77C36.42,17.77,36.21,17.82,36.03,17.93L27.11,27.27C26.85,27.43,26.65,27.69,26.58,27.99C26.51,28.29,26.56,28.6,26.72,28.87L44.05,50.77C44.26,51.11,44.63,51.32,45.03,51.32L45.03,51.32C45.43,51.32,45.8,51.11,46.01,50.77L63.28,28.88C63.45,28.62,63.5,28.3,63.42,28C63.35,27.7,63.16,27.45,62.9,27.29L53.98,17.94C53.8,17.83,53.6,17.77,53.39,17.77L53.39,17.77Z" fill="none" stroke="#0097c7" stroke-width="2" stroke-linecap="butt" stroke-linejoin="miter"/></svg>