<svg xmlns="http://www.w3.org/2000/svg" viewBox="0 0 90 90"><path d="M75.22,89.44L14.78,89.44C6.96,89.44,0.56,83.04,0.56,75.22L0.56,14.78C0.56,6.96,6.96,0.56,14.78,0.56L75.22,0.56C83.04,0.56,89.44,6.96,89.44,14.78L89.44,75.22C89.44,83.04,83.04,89.44,75.22,89.44Z" fill="#0098c8"/><path d="M6.72,16.27L6.72,73.73C6.72,78.95,10.97,83.19,16.19,83.19L73.64,83.19C78.86,83.19,83.11,78.95,83.11,73.73L83.11,16.27C83.11,11.05,78.86,6.81,73.64,6.81L16.19,6.81C10.97,6.81,6.72,11.05,6.72,16.27Z" fill="#7ed3f7"/><path d="M33.03,39.28L33.03,39.28C34.53,38.47,35.28,36.73,34.85,35.08L31.15,21.29C30.72,19.67,29.25,18.54,27.58,18.54C27.26,18.54,26.94,18.58,26.63,18.66C25.68,18.92,24.88,19.53,24.38,20.38C23.88,21.24,23.75,22.23,24,23.19L27.7,36.97C28.31,39.28,30.92,40.41,33.03,39.28Z" fill="#e3183c"/><path d="M43.98,38.11L43.98,38.11C45.91,37.97,47.41,36.36,47.41,34.42L47.41,18.18C47.41,16.17,45.84,14.47,43.82,14.41C41.73,14.35,40.01,16.03,40.01,18.1L40.01,34.42C40.01,36.57,41.84,38.26,43.98,38.11Z" fill="#97bd4d"/><path d="M53.78,40.67C55.88,41.77,58.46,40.64,59.07,38.34L63.21,23.59C63.73,21.62,62.55,19.59,60.58,19.07C60.27,18.99,59.95,18.94,59.63,18.94C57.96,18.94,56.49,20.08,56.06,21.7L51.92,36.45C51.48,38.12,52.25,39.87,53.78,40.67Z" fill="#0098c8"/><path d="M75.6,36.22C75.46,35.24,74.95,34.37,74.16,33.78C73.65,33.39,73.04,33.14,72.4,33.06C72.25,33.04,72.09,33.03,71.94,33.03C70.78,33.03,69.68,33.58,68.98,34.5L62.71,42.46C61.69,43.81,61.71,45.68,62.77,47C63.19,47.53,63.72,47.91,64.3,48.14L64.3,49.11C64.3,49.71,64.79,50.2,65.39,50.2C65.99,50.2,66.48,49.71,66.48,49.11L66.48,48.36C66.48,47.76,66.96,47.27,67.57,47.27C68.17,47.27,68.65,47.76,68.65,48.36L68.65,52.09C68.65,52.69,69.14,53.18,69.74,53.18C70.34,53.18,70.83,52.69,70.83,52.09L70.83,44.11L74.88,38.96C75.48,38.17,75.73,37.2,75.6,36.22Z" fill="#555b88"/><path d="M17.54,44.55C17.39,44.57,17.24,44.6,17.09,44.64C16.47,44.8,15.89,45.12,15.43,45.57C14.72,46.26,14.32,47.19,14.31,48.17C14.3,49.16,14.67,50.09,15.36,50.8L21.24,56.59C22.93,58.33,25.8,58.01,27.06,55.95L27.06,55.95C27.94,54.5,27.73,52.64,26.55,51.43L20.66,45.64C19.85,44.81,18.69,44.41,17.54,44.55Z" fill="#f7cf64"/><path d="M47.41,41.6C38.99,39.8,31.57,43.44,32.5,47.7C34.32,53.69,40.02,48.4,47.18,57.29C48.48,59.03,49.8,60.08,51.09,60.62L51.09,64.79C51.09,65.39,51.57,65.88,52.17,65.88C52.77,65.88,53.26,65.39,53.26,64.79L53.26,64.04C53.26,63.44,53.75,62.95,54.35,62.95C54.95,62.95,55.43,63.44,55.43,64.04L55.43,67.77C55.43,68.37,55.92,68.86,56.52,68.86C57.12,68.86,57.61,68.37,57.61,67.77L57.61,57.72C57.61,57.12,58.09,56.64,58.69,56.64C59.29,56.64,59.78,57.12,59.78,57.72L59.78,57.52C59.78,58.12,60.27,58.61,60.87,58.61C61.47,58.61,61.96,58.12,61.96,57.52L61.96,52.76L61.94,52.75C61.97,48.71,56.21,43.49,47.41,41.61Z" fill="#0098c8"/><path d="M43.71,56.15C40.01,52.75,33.87,52.48,31.13,55.22C30.22,56.13,29.82,57.32,29.8,58.61L29.79,58.61L29.79,64.14C29.79,64.74,30.28,65.23,30.88,65.23C31.48,65.23,31.97,64.74,31.97,64.14L31.97,63.66C31.97,63.06,32.45,62.57,33.06,62.57C33.66,62.57,34.14,63.06,34.14,63.66L34.14,74.21C34.14,74.81,34.63,75.29,35.23,75.29C35.83,75.29,36.32,74.81,36.32,74.21L36.32,72.82C36.32,72.22,36.8,71.74,37.4,71.74C38,71.74,38.49,72.22,38.49,72.82L38.49,79.91C38.49,80.51,38.98,81,39.58,81C40.18,81,40.66,80.51,40.66,79.91L40.66,70.99C43.37,71.89,45.79,71.73,47.22,70.3C49.96,67.55,49.3,61.28,43.71,56.15Z" fill="#f7cf64"/><path d="M55.6,73.41L55.6,74.21C55.6,74.81,56.09,75.29,56.69,75.29C57.29,75.29,57.77,74.81,57.77,74.21L57.77,73.41C57.77,72.81,57.29,72.32,56.69,72.32C56.09,72.32,55.6,72.81,55.6,73.41Z" fill="#0098c8"/><path d="M30.25,70.93L30.25,71.74C30.25,72.34,30.73,72.82,31.33,72.82C31.93,72.82,32.42,72.34,32.42,71.74L32.42,70.93C32.42,70.33,31.93,69.85,31.33,69.85C30.73,69.85,30.25,70.33,30.25,70.93Z" fill="#f7cf64"/></svg>