<svg xmlns="http://www.w3.org/2000/svg" viewBox="0 0 90 90"><path d="M75.22,89.44L14.78,89.44C6.96,89.44,0.56,83.04,0.56,75.22L0.56,14.78C0.56,6.96,6.96,0.56,14.78,0.56L75.22,0.56C83.04,0.56,89.44,6.96,89.44,14.78L89.44,75.22C89.44,83.04,83.04,89.44,75.22,89.44Z" fill="#0089bd"/><path d="M6.81,16.27L6.81,73.73C6.81,78.95,11.05,83.19,16.27,83.19L73.73,83.19C78.95,83.19,83.19,78.95,83.19,73.73L83.19,16.27C83.19,11.05,78.95,6.81,73.73,6.81L16.27,6.81C11.05,6.81,6.81,11.05,6.81,16.27Z" fill="#cbedfc"/><path d="M70.71,26.89L30.37,26.89C27.6,26.89,25.36,29.13,25.36,31.9L25.36,73.22C25.36,74.69,27.14,75.42,28.18,74.38L35.53,67.04C35.74,66.83,36.02,66.71,36.32,66.71L70.71,66.71C73.47,66.71,75.71,64.47,75.71,61.71L75.71,31.9C75.71,29.13,73.47,26.89,70.71,26.89Z" fill="#7ed3f7"/><path d="M25.8,22.33C23.04,22.33,20.8,24.57,20.8,27.33L20.8,68.65C20.8,70.12,22.58,70.86,23.62,69.82L30.96,62.47C31.17,62.26,31.45,62.14,31.75,62.14L66.14,62.14C68.91,62.14,71.14,59.9,71.14,57.14L71.14,27.33C71.14,24.56,68.9,22.33,66.14,22.33Z" fill="#0089bd"/><path d="M62.69,17.76L20.12,17.76C17.97,17.76,16.23,19.5,16.23,21.65L16.23,66.77C16.23,67.25,16.81,67.49,17.15,67.15L26.72,57.58L62.69,57.58C64.84,57.58,66.58,55.83,66.58,53.69L66.58,21.65C66.58,19.5,64.84,17.76,62.69,17.76Z" fill="#fff"/><path d="M24.64,31.83L57.95,31.83" fill="none" stroke="#000000" stroke-width="2" stroke-linecap="butt" stroke-linejoin="miter"/><path d="M24.64,42.7L43.46,42.7" fill="none" stroke="#000000" stroke-width="2" stroke-linecap="butt" stroke-linejoin="miter"/></svg>