<svg xmlns="http://www.w3.org/2000/svg" viewBox="0 0 90 90"><path d="M0.55,75.22C0.55,83.04,6.95,89.45,14.77,89.45L75.21,89.45C83.36,89.07,89.81,82.6,89.44,75.22L89.44,14.78C89.44,6.95,83.04,0.56,75.21,0.56L14.77,0.56C6.95,0.56,0.55,6.96,0.55,14.78L0.55,75.22Z" fill="#009187"/><path d="M73.72,6.81C78.94,6.81,83.19,11.05,83.19,16.27L83.19,73.73C83.19,78.95,78.94,83.19,73.72,83.19L16.26,83.19C11.04,83.19,6.8,78.95,6.8,73.73L6.8,16.27C6.8,11.05,11.04,6.81,16.26,6.81L73.72,6.81Z" fill="#1bada6"/><path d="M63.43,73.88C63.43,74.12,63.38,74.35,63.29,74.56C63.2,74.78,63.06,74.97,62.89,75.13C62.73,75.29,62.54,75.42,62.33,75.5C62.13,75.59,61.9,75.63,61.68,75.63L51.52,75.63C51.3,75.64,51.07,75.6,50.86,75.5C50.66,75.41,50.47,75.27,50.33,75.1C50.03,74.76,49.87,74.33,49.87,73.88L49.87,64.06C49.87,63.62,50.05,63.19,50.36,62.88C50.51,62.71,50.69,62.59,50.89,62.5C51.09,62.41,51.3,62.37,51.52,62.37L61.68,62.37C62.13,62.37,62.57,62.56,62.89,62.88C63.06,63.03,63.19,63.21,63.28,63.41C63.37,63.62,63.42,63.84,63.42,64.06L63.42,73.88Z" fill="#000000"/><path d="M62.81,53.6C62.82,53.83,62.78,54.05,62.69,54.25C62.6,54.46,62.47,54.64,62.3,54.79C61.97,55.08,61.55,55.23,61.12,55.23L51.97,55.23C50.94,55.23,50.37,54.7,50.22,53.6L49.43,18.7C49.45,18.25,49.61,17.81,49.88,17.45C50.03,17.28,50.23,17.15,50.44,17.06C50.66,16.97,50.89,16.93,51.12,16.94L62.02,16.94C62.51,16.94,62.98,17.13,63.33,17.45C63.6,17.82,63.75,18.25,63.78,18.7L62.81,53.6Z" fill="#000000"/><path d="M40.22,73.88C40.23,74.12,40.18,74.35,40.09,74.56C39.99,74.78,39.86,74.97,39.69,75.13C39.53,75.29,39.34,75.42,39.13,75.5C38.92,75.59,38.7,75.64,38.47,75.63L28.32,75.63C28.09,75.64,27.87,75.6,27.66,75.5C27.45,75.41,27.27,75.27,27.12,75.1C26.83,74.76,26.67,74.33,26.67,73.88L26.67,64.06C26.67,63.84,26.71,63.62,26.8,63.42C26.88,63.22,27,63.03,27.16,62.88C27.31,62.71,27.49,62.58,27.69,62.5C27.89,62.41,28.1,62.37,28.32,62.37L38.47,62.37C38.93,62.37,39.37,62.55,39.69,62.88C39.86,63.03,39.99,63.21,40.08,63.41C40.17,63.62,40.22,63.84,40.22,64.06L40.22,73.88Z" fill="#000000"/><path d="M39.61,53.6C39.61,53.83,39.57,54.05,39.48,54.25C39.4,54.46,39.27,54.64,39.1,54.79C38.77,55.08,38.35,55.23,37.91,55.23L28.76,55.23C27.74,55.23,27.17,54.7,27.01,53.6L26.22,18.7C26.25,18.25,26.4,17.81,26.67,17.45C26.83,17.28,27.02,17.15,27.24,17.06C27.45,16.98,27.69,16.94,27.92,16.95L38.82,16.95C39.3,16.95,39.77,17.13,40.12,17.45C40.39,17.82,40.55,18.25,40.57,18.7L39.61,53.6Z" fill="#000000"/><path d="M63.43,71.3C63.43,71.54,63.38,71.77,63.29,71.98C63.2,72.2,63.06,72.39,62.89,72.55C62.73,72.71,62.54,72.84,62.33,72.92C62.13,73.01,61.9,73.06,61.68,73.05L51.52,73.05C51.3,73.06,51.07,73.02,50.86,72.93C50.66,72.83,50.47,72.69,50.33,72.52C50.03,72.18,49.87,71.75,49.87,71.3L49.87,61.48C49.87,61.04,50.05,60.61,50.36,60.3C50.51,60.14,50.69,60.01,50.89,59.92C51.09,59.83,51.3,59.79,51.52,59.79L61.68,59.79C62.13,59.79,62.57,59.98,62.89,60.3C63.06,60.45,63.19,60.63,63.28,60.83C63.37,61.04,63.42,61.26,63.42,61.48L63.42,71.3Z" fill="#fff"/><path d="M62.81,51.02C62.82,51.25,62.78,51.47,62.69,51.67C62.6,51.88,62.47,52.06,62.3,52.21C61.97,52.5,61.55,52.66,61.12,52.65L51.97,52.65C50.94,52.65,50.37,52.12,50.22,51.02L49.43,16.12C49.45,15.67,49.61,15.24,49.88,14.87C50.03,14.7,50.23,14.57,50.44,14.48C50.66,14.4,50.89,14.36,51.12,14.37L62.02,14.37C62.51,14.37,62.98,14.55,63.33,14.87C63.6,15.24,63.75,15.67,63.78,16.12L62.81,51.02Z" fill="#fff"/><path d="M40.22,71.31C40.23,71.54,40.18,71.77,40.09,71.98C39.99,72.2,39.86,72.39,39.69,72.55C39.53,72.71,39.34,72.84,39.13,72.93C38.92,73.01,38.7,73.06,38.47,73.06L28.32,73.06C28.09,73.06,27.87,73.02,27.66,72.93C27.45,72.83,27.27,72.7,27.12,72.52C26.83,72.18,26.67,71.75,26.67,71.3L26.67,61.48C26.67,61.26,26.71,61.05,26.8,60.84C26.88,60.64,27,60.45,27.16,60.3C27.31,60.14,27.49,60.01,27.69,59.92C27.89,59.83,28.1,59.79,28.32,59.79L38.47,59.79C38.93,59.79,39.37,59.98,39.69,60.3C39.86,60.45,39.99,60.63,40.08,60.83C40.17,61.04,40.22,61.26,40.22,61.48L40.22,71.3Z" fill="#fff"/><path d="M39.61,51.02C39.61,51.25,39.57,51.47,39.48,51.67C39.4,51.88,39.27,52.06,39.1,52.21C38.77,52.5,38.35,52.66,37.91,52.65L28.76,52.65C27.74,52.65,27.17,52.12,27.01,51.02L26.22,16.12C26.25,15.67,26.4,15.24,26.67,14.87C26.83,14.7,27.02,14.57,27.24,14.48C27.45,14.4,27.69,14.36,27.92,14.37L38.82,14.37C39.3,14.37,39.77,14.55,40.12,14.87C40.39,15.24,40.55,15.67,40.57,16.12L39.61,51.02Z" fill="#fff"/></svg>