<svg xmlns="http://www.w3.org/2000/svg" viewBox="0 0 90 90"><path d="M75.22,89.44L14.78,89.44C6.96,89.44,0.56,83.04,0.56,75.22L0.56,14.78C0.56,6.96,6.96,0.56,14.78,0.56L75.22,0.56C83.04,0.56,89.44,6.96,89.44,14.78L89.44,75.22C89.44,83.04,83.05,89.44,75.22,89.44Z" fill="#e3183c"/><path d="M6.81,16.27L6.81,73.73C6.81,78.95,11.05,83.19,16.27,83.19L73.73,83.19C78.95,83.19,83.19,78.95,83.19,73.73L83.19,16.27C83.19,11.05,78.95,6.81,73.73,6.81L16.27,6.81C11.05,6.81,6.81,11.05,6.81,16.27Z" fill="#f3ac24"/><path d="M67.13,43.09L70.41,51.4L70.96,68.24L48.1,70.75L43.82,47.36Z" fill="#e3183c"/><path d="M54.99,73.33L68.76,70.81C71.86,70.24,73.91,67.27,73.35,64.17L73.35,64.17C73.24,63.59,72.85,61.45,72.74,60.88L72.74,60.88C72.18,57.78,69.2,55.72,66.1,56.29L52.33,58.81C49.23,59.38,47.18,62.35,47.74,65.45L47.74,65.45C47.85,66.02,48.24,68.17,48.35,68.74L48.35,68.74C48.91,71.84,51.89,73.89,54.99,73.33Z" fill="#aa122d"/><path d="M54.64,77.9L70.71,74.96C74.32,74.3,76.72,70.83,76.06,67.22L76.06,67.22C75.93,66.55,75.48,64.04,75.35,63.38L75.35,63.38C74.69,59.76,71.22,57.36,67.61,58.03L51.54,60.97C47.92,61.63,45.53,65.1,46.19,68.71L46.19,68.71C46.31,69.38,46.77,71.88,46.89,72.55L46.89,72.55C47.55,76.17,51.02,78.56,54.64,77.9Z" fill="#e3183c"/><path d="M66.8,41.25L43.48,45.51L42,37.41C41.89,36.85,42.26,36.31,42.83,36.21L64.11,32.31C64.67,32.21,65.21,32.58,65.32,33.15L66.8,41.25L66.8,41.25Z" fill="#aa122d"/><path d="M67.23,43.6L43.91,47.87L42.24,38.75L65.56,34.48Z" fill="#e3183c"/><path d="M56.01,46.01C54.4,46.31,52.86,45.24,52.57,43.64L51.37,37.08L57.18,36.02L58.38,42.58C58.67,44.18,57.61,45.72,56.01,46.01Z" fill="#aa122d"/><path d="M51.46,39.49L58.97,41.75L59.4,42.55L51.09,40.71L50.66,39.92Z" fill="#e6f5fa"/><path d="M58.53,39.36L52.31,44.14L51.41,44.02L57.75,38.34L58.65,38.46Z" fill="#e6f5fa"/><path d="M68.41,64.62L68.41,64.62L61.26,50.7L64.9,45.44L72.04,59.36Z" fill="#aa122d"/><path d="M55.9,48.77C57.51,54.11,62.87,57.51,68.47,56.55L66.69,46.8Z" fill="#aa122d"/><path d="M70.01,64.33L70.01,64.33L62.87,50.4L66.5,45.14L73.65,59.07Z" fill="#e3183c"/><path d="M55.56,47.14C57.16,52.48,62.52,55.88,68.13,54.92L66.34,45.17Z" fill="#e3183c"/><path d="M58.22,36.67C57.99,36.67,57.78,36.54,57.67,36.33L47.35,15.62C43.13,22.46,37.28,31.99,36.85,32.85C36.75,33.15,36.43,33.33,36.12,33.25C35.93,33.2,35.77,33.07,35.7,32.89C35.57,32.58,35.62,32.5,36.2,31.52C36.49,31.03,36.91,30.33,37.46,29.42C38.38,27.89,39.67,25.78,41.29,23.13C44.06,18.63,46.86,14.08,46.89,14.04C47.01,13.85,47.22,13.74,47.44,13.75C47.66,13.76,47.86,13.89,47.96,14.09L58.76,35.79C58.91,36.09,58.79,36.45,58.49,36.61C58.4,36.65,58.31,36.67,58.21,36.67Z" fill="#e6f5fa"/><path d="M50.59,38.33C50.29,38.33,50.02,38.11,49.98,37.8L47.17,17.13L41.48,35.02C41.38,35.34,41.03,35.52,40.71,35.41C40.39,35.31,40.21,34.97,40.32,34.65L46.83,14.17C46.91,13.9,47.18,13.73,47.46,13.75C47.75,13.77,47.98,13.99,48.02,14.28L51.19,37.64C51.24,37.97,51.01,38.28,50.67,38.33C50.64,38.33,50.62,38.33,50.59,38.33Z" fill="#e6f5fa"/><path d="M24.4,41.21L20.62,49.31L19.05,66.09L41.72,69.97L47.41,46.88Z" fill="#e3183c"/><path d="M34.76,76.71L18.9,72.81C15.33,71.93,13.15,68.32,14.03,64.75L14.03,64.75C14.19,64.09,14.8,61.62,14.96,60.96L14.96,60.96C15.84,57.39,19.45,55.21,23.02,56.09L38.88,60C42.45,60.87,44.63,64.48,43.75,68.05L43.75,68.05C43.59,68.71,42.98,71.18,42.82,71.84L42.82,71.84C41.94,75.41,38.33,77.59,34.76,76.71Z" fill="#e3183c"/><path d="M28.06,30.63L49.07,35.81C49.63,35.94,49.97,36.5,49.83,37.06L47.86,45.05L24.84,39.39L26.81,31.39C26.95,30.84,27.51,30.5,28.06,30.64Z" fill="#aa122d"/><path d="M26.49,32.71L49.5,38.38L47.29,47.38L24.27,41.71Z" fill="#aa122d"/><path d="M24.9,43.29L24.9,43.29L25.71,58.92L20.24,62.23L19.43,46.6Z" fill="#e3183c"/><path d="M35.7,45.95C33.78,51.18,28.22,54.25,22.69,52.96L25.06,43.33Z" fill="#e3183c"/><path d="M28.36,40.3L30.03,33.49L38.3,35.41L36.62,42.22Z" fill="#e6f5fa"/><path d="M53.91,17.41C53.21,17.41,52.39,17.33,51.45,17.18C49.62,16.89,48.02,16.42,47.96,16.4C47.63,16.3,47.45,15.96,47.55,15.64C47.57,15.57,47.6,15.51,47.64,15.45C47.63,15.45,47.63,15.45,47.63,15.45C47.34,15.44,47.1,15.24,47.05,14.96C47.04,14.92,47.04,14.88,47.04,14.85C47.04,14.85,47.04,14.85,47.04,14.85C46.77,14.64,46.72,14.26,46.93,13.99C47.12,13.73,48.92,11.46,50.74,11.38C51.39,11.35,51.97,11.6,52.43,12.1C52.63,12.33,52.78,12.54,52.88,12.73C53.96,12.62,55,12.69,55.79,13.08C56.48,13.44,56.93,14.02,57.1,14.79C57.31,15.76,56.94,16.34,56.6,16.67C56.07,17.16,55.18,17.41,53.91,17.41ZM55.77,15.77C55.88,15.66,56,15.49,55.9,15.05C55.81,14.64,55.6,14.36,55.23,14.17C54.68,13.89,53.88,13.85,52.99,13.95C52.98,13.97,52.98,13.99,52.97,14.01C52.49,15.06,50.55,15.36,49.07,15.44C51.58,16.09,54.92,16.56,55.77,15.77ZM50.84,12.6C50.82,12.6,50.81,12.6,50.79,12.6C50.17,12.63,49.42,13.17,48.83,13.72C49.58,13.46,50.54,13.15,51.54,12.94C51.54,12.94,51.53,12.93,51.53,12.93C51.32,12.7,51.1,12.6,50.84,12.6Z" fill="#e6f5fa"/><path d="M76.74,99.69L126.03,37.12L150.13,56.11L100.84,118.68Z" fill="#f7cf64"/></svg>