<svg xmlns="http://www.w3.org/2000/svg" viewBox="0 0 90 90"><path d="M0.55,75.22C0.55,83.04,6.95,89.45,14.77,89.45L75.21,89.45C83.36,89.07,89.81,82.6,89.44,75.22L89.44,14.78C89.44,6.95,83.04,0.56,75.21,0.56L14.77,0.56C6.95,0.56,0.55,6.96,0.55,14.78L0.55,75.22Z" fill="#ec6250"/><path d="M73.72,6.81C78.94,6.81,83.19,11.05,83.19,16.27L83.19,73.73C83.19,78.95,78.94,83.19,73.72,83.19L16.26,83.19C11.04,83.19,6.8,78.95,6.8,73.73L6.8,16.27C6.8,11.05,11.04,6.81,16.26,6.81L73.72,6.81Z" fill="#b23330"/><path d="M53.07,17.55C49.91,17.55,47.34,20.13,47.34,23.29C47.34,24.97,48.15,26.58,49.46,27.58L44.99,40.47L40.52,27.58C41.83,26.58,42.65,24.97,42.65,23.29C42.65,20.13,40.08,17.55,36.91,17.55C33.75,17.55,31.18,20.07,31.18,23.29C31.18,25.7,32.66,27.77,34.8,28.45L34.08,43.65L27.89,37.06C28.27,36.46,28.78,35.44,28.78,34.34C28.78,31.42,26.25,28.86,23.37,28.86C21.9,28.86,20.52,29.43,19.49,30.46C18.46,31.49,17.89,32.87,17.89,34.34C17.89,36.92,20.04,39.38,22.44,39.71L31.49,61.48C25.04,62.68,25.05,66.56,25.06,71.02L25.06,71.66C25.06,71.66,25.06,72.44,25.06,72.44L64.92,72.44L64.92,71.02C64.94,66.56,64.95,62.68,58.49,61.48L67.54,39.71C69.95,39.38,72.09,36.92,72.09,34.34C72.09,31.32,69.63,28.86,66.61,28.86C63.59,28.86,61.2,31.42,61.2,34.34C61.2,35.44,61.71,36.46,62.09,37.06L55.91,43.65L55.19,28.45C57.29,27.75,58.8,25.65,58.8,23.29C58.8,20.08,56.28,17.56,53.07,17.56L53.07,17.56Z" fill="#ec6250"/><path d="M52.5,58.52L54.6,59.36L63.43,44.93L64.97,46.61L56.56,60.48L57.69,60.48L65.53,47.73L65.53,46.05L64.69,45.35L63.15,43.67L62.31,43.67L61.33,43.67Z" fill="#fff"/><path d="M26.58,58.52L28.69,59.36L37.51,44.93L39.05,46.61L30.65,60.48L31.77,60.48L39.61,47.73L39.61,46.05L38.77,45.35L37.23,43.67L36.39,43.67L35.41,43.67Z" fill="#fff"/><path d="M40.82,48.61C41.44,50.64,41.46,52.77,41.04,54.83L48.97,54.83C48.81,54.16,48.74,53.45,48.7,52.86C48.58,51.43,48.81,49.97,49.3,48.61Z" fill="#b23330"/><path d="M21.04,51.72C21.04,57.94,26.1,63,32.31,63C38.53,63,43.59,57.94,43.59,51.72C43.59,45.5,38.53,40.44,32.31,40.44C26.1,40.44,21.04,45.5,21.04,51.72ZM22.46,51.72C22.46,46.29,26.88,41.86,32.31,41.86C37.75,41.86,42.17,46.29,42.17,51.72C42.17,57.16,37.75,61.58,32.31,61.58C26.88,61.58,22.46,57.16,22.46,51.72Z" fill="#b23330"/><path d="M41.57,50.17L48.41,50.17L48.41,53.28L41.57,53.28Z" fill="#b23330"/><path d="M41.49,51.72C41.49,56.83,37.35,60.98,32.24,60.98C27.12,60.98,22.98,56.83,22.98,51.72C22.98,46.61,27.12,42.47,32.24,42.47C37.35,42.47,41.49,46.61,41.49,51.72Z" fill="none" stroke="#ffffff" stroke-width="1" stroke-linecap="butt" stroke-linejoin="miter"/><path d="M46.39,51.72C46.39,57.94,51.45,63,57.67,63C63.89,63,68.95,57.94,68.95,51.72C68.95,45.5,63.89,40.44,57.67,40.44C51.45,40.44,46.39,45.5,46.39,51.72ZM47.81,51.72C47.81,46.29,52.23,41.86,57.67,41.86C63.11,41.86,67.53,46.29,67.53,51.72C67.53,57.16,63.11,61.58,57.67,61.58C52.23,61.58,47.81,57.16,47.81,51.72Z" fill="#b23330"/><path d="M66.93,51.8C66.93,56.91,62.78,61.06,57.67,61.06C52.56,61.06,48.41,56.91,48.41,51.8C48.41,46.69,52.56,42.54,57.67,42.54C62.78,42.54,66.93,46.69,66.93,51.8Z" fill="none" stroke="#ffffff" stroke-width="1" stroke-linecap="butt" stroke-linejoin="miter"/><path d="M41.57,51.72L48.41,51.72" fill="none" stroke="#000000" stroke-width="2" stroke-linecap="butt" stroke-linejoin="miter"/></svg>