<svg xmlns="http://www.w3.org/2000/svg" viewBox="0 0 90 90"><path d="M75.22,89.44L14.78,89.44C6.96,89.44,0.56,83.04,0.56,75.22L0.56,14.78C0.56,6.96,6.96,0.56,14.78,0.56L75.22,0.56C83.04,0.56,89.44,6.96,89.44,14.78L89.44,75.22C89.44,83.04,83.04,89.44,75.22,89.44Z" fill="#5b3a34"/><path d="M16.27,6.81L73.73,6.81C78.95,6.81,83.19,11.05,83.19,16.27L83.19,73.73C83.19,78.95,78.95,83.19,73.73,83.19L16.27,83.19C11.05,83.19,6.81,78.95,6.81,73.73L6.81,16.27C6.81,11.05,11.05,6.81,16.27,6.81Z" fill="#97bd4d"/><path d="M24.05,29.28L38.02,29.28L38.02,43.25L24.05,43.25Z" fill="#68923d"/><path d="M51.98,29.28L65.95,29.28L65.95,43.25L51.98,43.25Z" fill="#68923d"/><path d="M24.05,43.25L38.02,43.25L38.02,57.22L24.05,57.22Z" fill="#5b3a34"/><path d="M38.02,43.25L51.98,43.25L51.98,57.22L38.02,57.22Z" fill="#68923d"/><path d="M51.98,43.25L65.95,43.25L65.95,57.22L51.98,57.22Z" fill="#5b3a34"/><path d="M24.05,57.22L38.02,57.22L38.02,71.19L24.05,71.19Z" fill="#68923d"/><path d="M38.02,57.22L51.98,57.22L51.98,71.19L38.02,71.19Z" fill="#5b3a34"/><path d="M51.98,57.22L65.95,57.22L65.95,71.19L51.98,71.19Z" fill="#68923d"/><path d="M45.59,25.15L45.59,18.81L58.38,18.81L55.99,21.98L58.38,25.15Z" fill="#e3183c"/></svg>