<svg xmlns="http://www.w3.org/2000/svg" viewBox="0 0 90 90"><path d="M0.55,75.22L0.55,14.78C0.55,6.96,6.95,0.56,14.77,0.56L75.21,0.56C83.04,0.56,89.44,6.95,89.44,14.78L89.44,75.22C89.81,82.6,83.36,89.07,75.21,89.45L14.77,89.45C6.95,89.45,0.55,83.04,0.55,75.22Z" fill="#7b7ba3"/><path d="M73.72,6.81C78.94,6.81,83.19,11.05,83.19,16.27L83.19,73.73C83.19,78.95,78.94,83.19,73.72,83.19L16.26,83.19C11.04,83.19,6.8,78.95,6.8,73.73L6.8,16.27C6.8,11.05,11.04,6.81,16.26,6.81L73.72,6.81Z" fill="#555b88"/><path d="M67.45,29.53C67.45,29.53,67.45,35.67,67.45,35.67C67.45,38.44,66.33,40.96,64.02,43.37C62.18,45.29,59.61,47.1,56.37,48.78L55.37,48.33L55.37,29.53ZM50.57,24.73L50.57,51.45C50.57,51.45,56.47,54.07,56.47,54.07C64.8,50.21,72.25,44.38,72.25,35.67L72.25,26.11C72.25,25.35,71.63,24.73,70.87,24.73L50.57,24.73Z" fill="#7979a1"/><path d="M44.67,54.82L47.75,57.31L44.6,60.65L41.01,57.26L37.8,55.26L34.48,55.54L34.07,55.67C31.92,56.39,29.59,55.26,28.84,53.12L28.84,53.12C28.66,52.6,28.16,52.28,27.62,52.32L27.62,52.32C25.63,52.47,23.88,51,23.67,49.02L23.67,49.02C23.59,48.17,22.95,47.48,22.11,47.34L22.11,47.34C20.42,47.04,19.26,45.46,19.49,43.76L19.49,43.76C19.64,42.61,19.02,41.49,17.96,41.02L17.96,41.02C16.64,40.42,16.02,38.91,16.53,37.56L16.53,37.56C17.05,36.2,17.43,34.93,16.3,33.77C15.44,32.9,15.2,31.67,15.84,30.7C17.31,28.46,15.52,28.83,15.52,26.23C15.52,25.77,15.82,24.73,17.12,24.73C17.12,24.73,19.61,24.73,19.61,24.73L21.27,24.73C21.02,26.18,19.94,26.99,19.94,28.52C19.94,43.04,30.63,54.82,44.68,54.82Z" fill="#7979a1"/><path d="M34.63,48.33L33.63,48.78C30.39,47.1,27.82,45.29,25.98,43.37C23.67,40.96,22.55,38.44,22.55,35.67L22.55,29.53L34.63,29.53ZM39.43,24.73L19.13,24.73C18.37,24.73,17.75,25.35,17.75,26.11L17.75,35.66C17.75,44.38,25.2,50.21,33.53,54.07L39.43,51.45L39.43,24.73L39.43,24.73Z" fill="#7979a1"/><path d="M45.32,54.82C59.37,54.82,70.06,43.04,70.06,28.52C70.06,26.99,68.98,26.18,68.73,24.73L70.39,24.73C70.39,24.73,72.88,24.73,72.88,24.73C74.18,24.73,74.48,25.77,74.48,26.23C74.48,28.83,72.69,28.46,74.16,30.7C74.8,31.67,74.56,32.9,73.7,33.77C72.57,34.93,72.95,36.2,73.47,37.56L73.47,37.56C73.98,38.91,73.36,40.42,72.04,41.02L72.04,41.02C70.98,41.49,70.36,42.61,70.51,43.76L70.51,43.76C70.74,45.46,69.58,47.04,67.89,47.34L67.89,47.34C67.05,47.48,66.41,48.17,66.33,49.02L66.33,49.02C66.12,51,64.37,52.47,62.38,52.32L62.38,52.32C61.84,52.28,61.34,52.6,61.16,53.12L61.16,53.12C60.41,55.26,58.08,56.39,55.93,55.67L55.52,55.54L52.2,55.26L48.99,57.26L45.4,60.65L42.25,57.31L45.33,54.82Z" fill="#7979a1"/><path d="M56.58,54.07C52.05,57.03,50.52,59.99,51.99,62.95C52.74,64.46,37.23,64.58,38.01,63.14C39.65,60.12,38.15,57.09,33.53,54.07C41.21,50.1,48.89,50.1,56.58,54.07Z" fill="#7979a1"/><path d="M50.07,57.44L39.93,57.44C34.19,57.44,29.42,53.01,28.99,47.28L27.21,23.34C27.14,22.4,27.88,21.6,28.82,21.6L61.18,21.6C62.12,21.6,62.86,22.4,62.79,23.34L61.01,47.28C60.59,53.01,55.81,57.44,50.07,57.44Z" fill="#a2a3c0"/><path d="M59.84,30.33C59.9,30.34,59.9,30.42,59.84,30.42C56.95,30.76,54.65,33.06,54.31,35.96C54.3,36.02,54.22,36.02,54.22,35.96C53.88,33.06,51.58,30.76,48.68,30.42C48.62,30.42,48.62,30.34,48.68,30.33C51.58,29.99,53.88,27.69,54.22,24.8C54.22,24.74,54.3,24.74,54.31,24.8C54.65,27.69,56.95,29.99,59.84,30.33Z" fill="#c0c4d6"/><path d="M45,35.66C45,42.61,40.52,48.5,34.29,50.61C33.83,50.77,33.32,50.57,33.09,50.14C32.59,49.2,32.27,48.16,32.18,47.04L30.55,25.16C30.54,24.97,30.7,24.8,30.9,24.8L44.03,24.8C44.59,24.97,45,25.49,45,26.11L45,35.66Z" fill="#c0c4d6"/><path d="M60.5,60.92C61.84,60.92,62.92,62.01,62.92,63.35L62.92,66.87C62.92,67.72,62.24,68.4,61.39,68.4L28.61,68.4C27.77,68.4,27.08,67.72,27.08,66.87L27.08,63.35C27.08,62.01,28.16,60.92,29.5,60.92L60.5,60.92Z" fill="#a2a3c0"/></svg>