<svg xmlns="http://www.w3.org/2000/svg" viewBox="0 0 90 90"><path d="M89.44,75.22C89.44,83.04,83.04,89.44,75.22,89.44L14.78,89.44C6.96,89.44,0.56,83.04,0.56,75.22L0.56,14.78C0.56,6.96,6.96,0.56,14.78,0.56L75.22,0.56C83.04,0.56,89.44,6.96,89.44,14.78L89.44,75.22Z" fill="#f7c045"/><path d="M7.13,16.45L7.13,73.91C7.13,79.13,11.37,83.37,16.59,83.37L74.05,83.37C79.27,83.37,83.52,79.13,83.52,73.91L83.52,16.45C83.52,11.23,79.27,6.99,74.05,6.99L16.59,6.99C11.37,6.99,7.13,11.23,7.13,16.45Z" fill="#6c9d41"/><path d="M38.77,27.13C38.77,28.49,37.67,29.59,36.31,29.59C34.96,29.59,33.86,28.49,33.86,27.13C33.86,25.78,34.96,24.68,36.31,24.68C37.67,24.68,38.77,25.78,38.77,27.13Z" fill="#fff"/><path d="M56.96,27.13C56.96,28.49,55.86,29.59,54.5,29.59C53.15,29.59,52.05,28.49,52.05,27.13C52.05,25.78,53.15,24.68,54.5,24.68C55.86,24.68,56.96,25.78,56.96,27.13Z" fill="#fff"/><path d="M31.48,49.79L36.14,49.79L36.14,54.7L31.48,54.7Z" fill="#666564"/><path d="M31.48,31.2L36.14,31.2L36.14,50.41L31.48,50.41Z" fill="#f05a2a"/><path d="M54.5,50.25L59.15,50.25L59.15,55.15L54.5,55.15Z" fill="#666564"/><path d="M54.5,31.66L59.15,31.66L59.15,50.87L54.5,50.87Z" fill="#f05a2a"/><path d="M45.41,13.9L45.41,13.9C50.43,13.9,54.5,17.98,54.5,23L54.5,29.59L36.31,29.59L36.31,23C36.31,17.98,40.39,13.9,45.41,13.9Z" fill="#fff"/><path d="M44.04,45.95L44.04,81.74L37.61,81.74L37.61,45.95Z" fill="#666564"/><path d="M53.03,45.95L53.03,81.74L46.61,81.74L46.61,45.95Z" fill="#666564"/><path d="M36.17,30.75L36.17,48.73L34.79,55.15L55.85,55.15L54.58,49.09L54.58,30.75Z" fill="#f05a2a"/><path d="M52.4,17.53L52.4,22.6C52.4,26.46,49.27,29.59,45.41,29.59L45.41,29.59C41.55,29.59,38.42,26.46,38.42,22.6L38.42,17.53L38.42,17.53Z" fill="#f7c045"/><path d="M45.41,20.91L45.41,20.91C47.9,20.91,50.09,19.6,51.33,17.64L39.49,17.64C40.73,19.6,42.91,20.91,45.41,20.91Z" fill="#666564"/><path d="M45.01,26.31C45.01,26.31,45.01,26.24,45.01,26.24C45.01,24.81,46.17,23.65,47.6,23.65L50.81,23.65C51.18,23.91,49.62,26.31,48.15,26.31Z" fill="#fff"/><path d="M42.62,26.31C41.15,26.31,39.95,25.12,39.95,23.65L43.23,23.65C44.66,23.65,45.82,24.81,45.82,26.24L45.82,26.31L45.82,26.31Z" fill="#fff"/><path d="M46.56,71.47L53.08,71.47L53.08,73.8L46.56,73.8Z" fill="#f7c045"/><path d="M37.61,71.47L44.12,71.47L44.12,73.8L37.61,73.8Z" fill="#f7c045"/><path d="M54.31,30.69L60.04,30.69L60.04,33.02L54.31,33.02Z" fill="#f7c045"/><path d="M42.55,28.43L48.27,28.43L48.27,30.75L42.55,30.75Z" fill="#f7c045"/><path d="M30.77,30.69L36.49,30.69L36.49,33.02L30.77,33.02Z" fill="#f7c045"/><path d="M30.58,79.73L60.06,79.73L60.06,83.31L30.58,83.31Z" fill="#666564"/><path d="M40.67,1.77L50.1,1.77C51.67,1.77,52.94,3.04,52.94,4.61L52.94,17.64L37.83,17.64L37.83,4.61C37.83,3.04,39.1,1.77,40.67,1.77Z" fill="#666564"/><path d="M36.16,44.57L54.58,44.57L54.58,48.73L36.16,48.73Z" fill="#666564"/><path d="M40.93,33.61L49.71,33.61L49.71,35.02L40.93,35.02Z" fill="#f7c045"/><path d="M40.93,36.56L49.71,36.56L49.71,37.97L40.93,37.97Z" fill="#f7c045"/><path d="M40.93,39.51L49.71,39.51L49.71,40.92L40.93,40.92Z" fill="#f7c045"/><path d="M46.76,45.53L46.76,47.76L43.88,47.76L43.88,45.53L46.76,45.53M42.51,44.16L42.51,49.13L48.13,49.13L48.13,44.16L48.13,44.16Z" fill="none" stroke="#f7c045" stroke-width="2" stroke-linecap="butt" stroke-linejoin="miter"/><path d="M37.78,11.66L41.61,14.72L45.38,10.61L45.38,16.74L37.78,16.74Z" fill="#f7c045"/><path d="M52.98,11.66L49.16,14.72L45.38,10.61L45.38,16.74L52.98,16.74Z" fill="#f7c045"/><path d="M37.03,16.23L53.78,16.23L53.78,17.64L37.03,17.64Z" fill="#fcd157"/><path d="M39.94,72.97L40.81,72.97L40.81,79.73L39.94,79.73Z" fill="#f7c045"/><path d="M48.72,72.97L49.59,72.97L49.59,79.73L48.72,79.73Z" fill="#f7c045"/></svg>