<svg xmlns="http://www.w3.org/2000/svg" viewBox="0 0 90 90"><path d="M89.44,75.22C89.44,83.04,83.05,89.44,75.22,89.44L14.78,89.44C6.96,89.44,0.56,83.04,0.56,75.22L0.56,14.78C0.56,6.96,6.96,0.56,14.78,0.56L75.22,0.56C83.05,0.56,89.44,6.96,89.44,14.78L89.44,75.22Z" fill="#68923d"/><path d="M6.81,16.27L6.81,73.73C6.81,78.95,11.05,83.19,16.27,83.19L73.73,83.19C78.95,83.19,83.19,78.95,83.19,73.73L83.19,16.27C83.19,11.05,78.95,6.81,73.73,6.81L16.27,6.81C11.05,6.81,6.81,11.05,6.81,16.27Z" fill="#4e7838"/><path d="M6.7,16.19L6.7,73.81C6.7,79.04,10.96,83.3,16.19,83.3L73.81,83.3C79.04,83.3,83.3,79.04,83.3,73.81L83.3,16.19C83.3,10.96,79.04,6.7,73.81,6.7L16.19,6.7C10.96,6.7,6.7,10.96,6.7,16.19Z" fill="none" stroke="#ffffff" stroke-width="1" stroke-linecap="butt" stroke-linejoin="miter"/><path d="M45,82.77C45,83.04,44.77,83.27,44.5,83.26C39.51,83.2,34.67,82.19,30.1,80.26C25.55,78.33,21.45,75.57,17.94,72.06C14.43,68.55,11.67,64.45,9.74,59.9C7.74,55.18,6.73,50.16,6.73,45C6.73,39.83,7.74,34.82,9.74,30.1C11.67,25.54,14.43,21.45,17.94,17.94C21.45,14.42,25.55,11.67,30.1,9.74C34.82,7.74,39.84,6.73,45,6.73C50.17,6.73,55.18,7.74,59.9,9.74C64.46,11.67,68.55,14.43,72.06,17.94C75.58,21.45,78.33,25.54,80.26,30.1C82.19,34.67,83.2,39.51,83.27,44.5C83.27,44.77,83.05,45,82.77,45L74.88,45C74.61,45,74.38,44.78,74.38,44.51C74.12,28.54,61.04,15.62,45,15.62C28.82,15.62,15.62,28.82,15.62,45C15.62,61.04,28.54,74.11,44.52,74.37C44.79,74.38,45,74.6,45,74.87L45,82.77Z" fill="#97bd4d"/><path d="M21.26,42.9C21.07,42.71,21.07,42.39,21.26,42.2L26.84,36.62C27.04,36.42,27.35,36.42,27.55,36.62L41.39,50.46C41.59,50.66,41.9,50.66,42.1,50.46L62.45,30.11C62.65,29.91,62.96,29.91,63.16,30.11L68.74,35.69C68.93,35.88,68.93,36.2,68.74,36.39L42.1,63.03C41.9,63.23,41.59,63.23,41.39,63.03Z" fill="#fff"/></svg>