<svg xmlns="http://www.w3.org/2000/svg" viewBox="0 0 90 90"><path d="M89.44,75.22C89.44,83.04,83.04,89.44,75.22,89.44L14.78,89.44C6.96,89.44,0.56,83.04,0.56,75.22L0.56,14.78C0.56,6.96,6.96,0.56,14.78,0.56L75.22,0.56C83.04,0.56,89.44,6.96,89.44,14.78L89.44,75.22Z" fill="#4d7838"/><path d="M16.27,6.81L73.73,6.81C78.95,6.81,83.19,11.05,83.19,16.27L83.19,73.73C83.19,78.95,78.95,83.19,73.73,83.19L16.27,83.19C11.05,83.19,6.81,78.95,6.81,73.73L6.81,16.27C6.81,11.05,11.05,6.81,16.27,6.81Z" fill="#97bd4d"/><path d="M17.57,53.99L35.86,53.99L35.86,72.28L17.57,72.28Z" fill="#d5e5b8"/><path d="M35.86,53.99L54.14,53.99L54.14,72.28L35.86,72.28Z" fill="#4d7838"/><path d="M54.14,54.14L72.43,54.14L72.43,72.43L54.14,72.43Z" fill="#d5e5b8"/><path d="M35.86,35.71L54.14,35.71L54.14,53.99L35.86,53.99Z" fill="#d5e5b8"/><path d="M54.14,35.86L72.43,35.86L72.43,54.14L54.14,54.14Z" fill="#4d7838"/><path d="M54.14,17.57L72.43,17.57L72.43,35.86L54.14,35.86Z" fill="#d5e5b8"/></svg>