<svg xmlns="http://www.w3.org/2000/svg" viewBox="0 0 90 90"><path d="M75.22,89.44L14.78,89.44C6.96,89.44,0.56,83.04,0.56,75.22L0.56,14.78C0.56,6.96,6.96,0.56,14.78,0.56L75.22,0.56C83.04,0.56,89.44,6.96,89.44,14.78L89.44,75.22C89.44,83.04,83.04,89.44,75.22,89.44Z" fill="#312e2b"/><path d="M16.27,6.8L73.73,6.8C78.95,6.8,83.19,11.05,83.19,16.27L83.19,73.73C83.19,78.95,78.95,83.19,73.73,83.19L16.27,83.19C11.05,83.19,6.81,78.95,6.81,73.73L6.81,16.27C6.81,11.05,11.05,6.8,16.27,6.8Z" fill="#65625f"/><path d="M71.33,34.18C73.53,34.18,75.32,35.97,75.32,38.17L75.32,55.11L67.34,55.11L67.34,60.37C67.34,62.58,65.55,64.36,63.35,64.36L63.35,64.36C61.15,64.36,59.36,62.58,59.36,60.37L59.36,34.18L71.33,34.18Z" fill="#bcbec0"/><path d="M59.36,60.37C59.36,62.58,61.15,64.36,63.35,64.36L59.36,64.36Z" fill="#ededed"/><path d="M22.66,34.18L63.35,34.18L63.35,64.36L18.47,64.36C16.38,64.36,14.68,62.67,14.68,60.57L14.68,34.18Z" fill="#ededed"/><path d="M67.34,34.18L71.33,34.18C69.13,34.18,67.34,35.97,67.34,38.17L67.34,60.37C67.34,62.58,65.55,64.36,63.35,64.36L63.35,64.36C61.15,64.36,59.36,62.58,59.36,60.37L59.36,34.18L67.34,34.18Z" fill="#d1d3d4"/><path d="M14.68,28.15L59.36,28.15L59.36,41.84L14.68,41.84Z" fill="#ededed"/><path d="M33.97,53.91L19.77,53.91L19.77,51.69L33.97,51.69Z" fill="#65625f"/><path d="M33.97,58.54L19.77,58.54L19.77,56.32L33.97,56.32Z" fill="#65625f"/><path d="M33.97,48.84L19.77,48.84L19.77,46.62L33.97,46.62Z" fill="#65625f"/><path d="M54.26,53.91L40.07,53.91L40.07,51.69L54.26,51.69Z" fill="#65625f"/><path d="M54.26,58.54L40.07,58.54L40.07,56.32L54.26,56.32Z" fill="#65625f"/><path d="M54.26,48.84L40.07,48.84L40.07,46.62L54.26,46.62Z" fill="#65625f"/><path d="M54.26,41.13L19.77,41.13L19.77,34.56L54.26,34.56Z" fill="#65625f"/><path d="M125.24,48.7C125.53,48.17,125.68,47.6,125.7,47.03C125.79,47.56,125.77,48.12,125.62,48.67C125.06,50.66,123.01,51.81,121.03,51.26L115.88,49.82C115.96,50.65,116.31,51.46,116.95,52.1C118.41,53.56,120.77,53.56,122.22,52.1C120.77,53.56,120.77,55.92,122.22,57.37C123.67,58.82,126.03,58.82,127.49,57.37C126.03,58.82,126.03,61.18,127.49,62.64L127.49,62.64C128.94,64.09,131.3,64.09,132.76,62.64C131.3,64.09,131.3,66.45,132.76,67.91L132.76,67.91C134.21,69.36,136.57,69.36,138.02,67.91L129.3,76.63C129.3,76.63,129.3,76.63,129.3,76.63C127.28,78.24,124.72,79.04,122.12,78.86L121.15,78.79L98.58,101.3L78.24,80.96L100.85,58.28L100.78,57.31C100.6,54.71,101.41,52.15,103.02,50.13C103.26,49.83,106.94,46.11,107.22,45.84L112.18,40.87C112.23,40.82,112.28,40.78,112.33,40.74C112.16,40.93,112.01,41.15,111.88,41.38L111.88,41.38C110.89,43.18,111.55,45.45,113.36,46.44L120.18,50.17C121.98,51.16,124.25,50.5,125.24,48.7L125.24,48.7Z" fill="#f3ac24"/></svg>