<svg xmlns="http://www.w3.org/2000/svg" viewBox="0 0 90 90"><path d="M75.22,89.44L14.78,89.44C6.96,89.44,0.56,83.04,0.56,75.22L0.56,14.78C0.56,6.96,6.96,0.56,14.78,0.56L75.22,0.56C83.04,0.56,89.44,6.96,89.44,14.78L89.44,75.22C89.44,83.04,83.05,89.44,75.22,89.44Z" fill="#ee4552"/><path d="M6.81,16.27L6.81,73.73C6.81,78.95,11.05,83.19,16.27,83.19L73.73,83.19C78.95,83.19,83.19,78.95,83.19,73.73L83.19,16.27C83.19,11.05,78.95,6.81,73.73,6.81L16.27,6.81C11.05,6.81,6.81,11.05,6.81,16.27Z" fill="#a7a6a2"/><path d="M67.29,77.99C67.36,77.6,67.4,77.18,67.4,76.75L67.4,68.83C67.4,61.31,57.26,55.21,44.77,55.21L44.77,55.21C32.27,55.21,22.14,61.31,22.14,68.83L22.14,76.75C22.14,77.18,22.18,77.6,22.24,77.99L67.29,77.99Z" fill="#312e2b"/><path d="M44.77,46.28L44.77,46.28C41.09,46.28,38.1,49.27,38.1,52.95L38.1,54.56C38.1,54.78,38.11,54.99,38.14,55.21C38.11,55.42,38.1,55.64,38.1,55.86L38.1,57.47C38.1,61.15,41.09,64.13,44.77,64.13L44.77,64.13C48.45,64.13,51.43,61.15,51.43,57.47L51.43,55.86C51.43,55.64,51.42,55.42,51.4,55.21C51.42,54.99,51.43,54.78,51.43,54.56L51.43,52.95C51.43,49.27,48.45,46.28,44.77,46.28Z" fill="#f3ac24"/><path d="M44.77,22.18L44.77,22.18L59.93,41.01L44.77,56.18L29.6,37.35Z" fill="#f7cf64"/><path d="M27.91,17.84L61.63,17.84L61.63,31.12L27.91,31.12Z" fill="#312e2b"/><path d="M53.78,24.44C56.1,24.44,57.98,26.32,57.98,28.64L57.98,37.8L31.55,37.8L31.55,28.64C31.55,26.32,33.43,24.44,35.75,24.44Z" fill="#f7cf64"/><path d="M53.78,21.92C56.1,21.92,57.98,23.8,57.98,26.12L57.98,35.28L31.55,35.28L31.55,26.12C31.55,23.8,33.43,21.92,35.75,21.92Z" fill="#f7cf64"/><path d="M24.14,41.23L24.14,41.23L32.23,37.04L36.42,41.23L28.33,45.41Z" fill="#f7cf64"/><path d="M53.12,41.23L53.12,41.23L61.21,37.04L65.4,41.23L57.31,45.41Z" fill="#f7cf64"/><path d="M27.91,20.22L31.58,20.22L31.58,38.34L27.91,38.34Z" fill="#312e2b"/><path d="M57.96,20.22L61.63,20.22L61.63,38.34L57.96,38.34Z" fill="#312e2b"/><path d="M67.86,21.56C63.74,15.78,56.98,12.01,49.34,12.01C41.69,12.01,34.93,15.78,30.81,21.56L67.86,21.56Z" fill="#312e2b"/><path d="M67.86,21.56C63.74,27.35,56.98,31.12,49.34,31.12C41.69,31.12,34.93,27.35,30.81,21.56L67.86,21.56Z" fill="#312e2b"/><path d="M86.54,71.1C86.54,79.99,79.33,87.19,70.44,87.19C61.55,87.19,54.35,79.99,54.35,71.1C54.35,62.21,61.55,55,70.44,55C79.33,55,86.54,62.21,86.54,71.1Z" fill="#ee4552"/></svg>