<svg xmlns="http://www.w3.org/2000/svg" viewBox="0 0 90 90"><path d="M89.44,75.22C89.44,83.04,83.04,89.44,75.22,89.44L14.78,89.44C6.96,89.44,0.56,83.04,0.56,75.22L0.56,14.78C0.56,6.96,6.96,0.56,14.78,0.56L75.22,0.56C83.05,0.56,89.44,6.96,89.44,14.78L89.44,75.22Z" fill="#0089bd"/><path d="M16.27,6.81L73.73,6.81C78.95,6.81,83.2,11.05,83.2,16.27L83.2,73.73C83.2,78.95,78.95,83.19,73.73,83.19L16.27,83.19C11.05,83.19,6.81,78.95,6.81,73.73L6.81,16.27C6.81,11.05,11.05,6.81,16.27,6.81Z" fill="#7ed3f7"/><path d="M78.29,36.44C78.29,44,72.36,50.18,64.89,50.56C64.89,50.56,24.71,50.58,24.62,50.58C18.48,50.58,13.51,45.61,13.51,39.48C13.51,33.34,18.48,28.37,24.62,28.37C25.13,28.37,25.63,28.41,26.13,28.47C27.88,20.21,35.22,14.02,44.01,14.02C50.71,14.02,56.57,17.62,59.75,23C61.13,22.54,62.61,22.3,64.15,22.3C71.96,22.3,78.29,28.63,78.29,36.44Z" fill="#cbedfc"/><path d="M73.24,43.78C75.91,44.83,77.8,47.43,77.8,50.47C77.8,54.45,74.58,57.67,70.6,57.67L46.45,57.67C41.4,57.67,37.31,53.58,37.31,48.53C37.31,43.49,41.4,39.4,46.45,39.4C46.49,39.4,46.54,39.4,46.58,39.4C48.46,34.06,53.55,30.23,59.53,30.23C67.05,30.23,73.15,36.28,73.24,43.78Z" fill="#fff"/><path d="M69.22,57.83C69.22,59.96,67.5,61.69,65.37,61.69C63.24,61.69,61.51,59.96,61.51,57.83C61.51,55.71,63.24,53.98,65.37,53.98C67.5,53.98,69.22,55.71,69.22,57.83Z" fill="#fff"/><path d="M72.08,65.22C72.08,66.54,71.02,67.6,69.7,67.6C68.39,67.6,67.33,66.54,67.33,65.22C67.33,63.91,68.39,62.85,69.7,62.85C71.02,62.85,72.08,63.91,72.08,65.22Z" fill="#fff"/><path d="M26.05,45.97C28.69,45.97,30.83,48.11,30.83,50.75C30.83,53.39,28.69,55.53,26.05,55.53L18.27,55.53C14.65,55.53,11.71,52.59,11.71,48.97C11.71,45.34,14.65,42.41,18.27,42.41C20.95,42.41,23.25,44.01,24.27,46.31C24.82,46.09,25.42,45.97,26.05,45.97Z" fill="#e6f5fa"/><path d="M34.97,62.12C34.97,64.96,32.67,67.26,29.83,67.26C26.99,67.26,24.69,64.96,24.69,62.12C24.69,59.28,26.99,56.98,29.83,56.98C32.67,56.98,34.97,59.28,34.97,62.12Z" fill="#e6f5fa"/><path d="M41.17,70.2C41.17,71.93,39.77,73.33,38.04,73.33C36.32,73.33,34.92,71.93,34.92,70.2C34.92,68.48,36.32,67.08,38.04,67.08C39.77,67.08,41.17,68.48,41.17,70.2Z" fill="#e6f5fa"/></svg>