<svg xmlns="http://www.w3.org/2000/svg" viewBox="0 0 90 90"><path d="M75.22,89.44L14.78,89.44C6.96,89.44,0.56,83.04,0.56,75.22L0.56,14.78C0.56,6.96,6.96,0.56,14.78,0.56L75.22,0.56C83.04,0.56,89.44,6.96,89.44,14.78L89.44,75.22C89.44,83.04,83.04,89.44,75.22,89.44Z" fill="#e6912c"/><path d="M16.27,6.81L73.73,6.81C78.95,6.81,83.19,11.05,83.19,16.27L83.19,73.73C83.19,78.95,78.95,83.19,73.73,83.19L16.27,83.19C11.05,83.19,6.81,78.95,6.81,73.73L6.81,16.27C6.81,11.05,11.05,6.81,16.27,6.81Z" fill="#000000"/><path d="M67.9,22.62C69.45,22.62,70.71,23.89,70.71,25.43L70.71,68.43C70.71,69.97,69.45,71.24,67.9,71.24L22.12,71.24C20.58,71.24,19.31,69.97,19.31,68.43L19.31,25.43C19.31,23.89,20.58,22.62,22.12,22.62Z" fill="#f8f8f8"/><path d="M36.46,28.71C36.46,30.62,34.91,32.18,32.99,32.18C31.08,32.18,29.53,30.62,29.53,28.71C29.53,26.8,31.08,25.24,32.99,25.24C34.91,25.24,36.46,26.8,36.46,28.71Z" fill="#f7cf64"/><path d="M60.49,28.71C60.49,30.62,58.94,32.18,57.03,32.18C55.11,32.18,53.56,30.62,53.56,28.71C53.56,26.8,55.11,25.24,57.03,25.24C58.94,25.24,60.49,26.8,60.49,28.71Z" fill="#f7cf64"/><path d="M32.99,16.97C33.65,16.97,34.29,17.24,34.76,17.71C35.23,18.17,35.49,18.81,35.49,19.47L35.49,27.09C35.49,27.75,35.23,28.39,34.76,28.86C34.29,29.32,33.65,29.59,32.99,29.59L32.99,29.59C32.33,29.59,31.69,29.32,31.23,28.86C30.76,28.39,30.49,27.75,30.49,27.09L30.49,19.47C30.49,18.81,30.76,18.17,31.23,17.71C31.69,17.24,32.33,16.97,32.99,16.97Z" fill="#68923d"/><path d="M57.03,16.97C57.69,16.97,58.33,17.24,58.8,17.71C59.26,18.17,59.53,18.81,59.53,19.47L59.53,27.09C59.53,27.75,59.26,28.39,58.8,28.86C58.33,29.32,57.69,29.59,57.03,29.59L57.03,29.59C56.37,29.59,55.73,29.32,55.26,28.86C54.79,28.39,54.53,27.75,54.53,27.09L54.53,19.47C54.53,18.81,54.79,18.17,55.26,17.71C55.73,17.24,56.37,16.97,57.03,16.97Z" fill="#68923d"/><path d="M25.98,36.16C25.67,36.16,25.42,35.91,25.42,35.61C25.42,35.3,25.67,35.05,25.98,35.05L64.04,35.05C64.35,35.05,64.6,35.3,64.6,35.61C64.6,35.91,64.35,36.16,64.04,36.16Z" fill="#d7d6d5"/><path d="M26.69,42.16L31.46,42.16L31.46,46.93L26.69,46.93Z" fill="#68923d"/><path d="M34.66,42.16L39.43,42.16L39.43,46.93L34.66,46.93Z" fill="#68923d"/><path d="M42.63,42.16L47.4,42.16L47.4,46.93L42.63,46.93Z" fill="#68923d"/><path d="M50.59,42.16L55.36,42.16L55.36,46.93L50.59,46.93Z" fill="#68923d"/><path d="M58.56,42.16L63.33,42.16L63.33,46.93L58.56,46.93Z" fill="#68923d"/><path d="M26.69,49.71L31.46,49.71L31.46,54.48L26.69,54.48Z" fill="#d1d3d4"/><path d="M34.66,49.71L39.43,49.71L39.43,54.48L34.66,54.48Z" fill="#d1d3d4"/><path d="M42.63,49.71L47.4,49.71L47.4,54.48L42.63,54.48Z" fill="#d1d3d4"/><path d="M50.59,49.71L55.36,49.71L55.36,54.48L50.59,54.48Z" fill="#d1d3d4"/><path d="M58.56,49.71L63.33,49.71L63.33,54.48L58.56,54.48Z" fill="#d1d3d4"/><path d="M26.69,57.27L31.46,57.27L31.46,62.04L26.69,62.04Z" fill="#d1d3d4"/><path d="M34.66,57.27L39.43,57.27L39.43,62.04L34.66,62.04Z" fill="#d1d3d4"/><path d="M42.63,57.27L47.4,57.27L47.4,62.04L42.63,62.04Z" fill="#d1d3d4"/><path d="M50.59,57.27L55.36,57.27L55.36,62.04L50.59,62.04Z" fill="#d1d3d4"/><path d="M58.56,57.27L63.33,57.27L63.33,62.04L58.56,62.04Z" fill="#d1d3d4"/></svg>