<svg xmlns="http://www.w3.org/2000/svg" viewBox="0 0 90 90"><path d="M75.22,89.44L14.78,89.44C6.96,89.44,0.56,83.04,0.56,75.22L0.56,14.78C0.56,6.96,6.96,0.56,14.78,0.56L75.22,0.56C83.04,0.56,89.44,6.96,89.44,14.78L89.44,75.22C89.44,83.04,83.04,89.44,75.22,89.44Z" fill="#e3183c"/><path d="M6.81,16.27L6.81,73.73C6.81,78.95,11.05,83.19,16.27,83.19L73.73,83.19C78.95,83.19,83.19,78.95,83.19,73.73L83.19,16.27C83.19,11.05,78.95,6.81,73.73,6.81L16.27,6.81C11.05,6.81,6.81,11.05,6.81,16.27Z" fill="#1eaea7"/><path d="M18.47,21.43L71.53,21.43L71.53,68.57L18.47,68.57Z" fill="#e0e0e0"/><path d="M18.47,30.18L18.47,21.43L71.53,21.43L71.24,32.2L45,53.52Z" fill="#ededed"/><path d="M78.05,29.6C78.05,37.67,71.51,44.21,63.44,44.21C55.37,44.21,48.83,37.67,48.83,29.6C48.83,21.54,55.37,15,63.44,15C71.51,15,78.05,21.54,78.05,29.6Z" fill="#e3183c"/></svg>