<svg xmlns="http://www.w3.org/2000/svg" viewBox="0 0 90 90"><path d="M0,0L90,0L90,90L0,90Z" fill="none" stroke="#ffffff" stroke-width="1" stroke-linecap="butt" stroke-linejoin="miter"/><path d="M75.22,89.44L14.78,89.44C6.96,89.44,0.55,83.04,0.55,75.22L0.55,14.78C0.56,6.96,6.96,0.56,14.78,0.56L75.22,0.56C83.04,0.56,89.44,6.96,89.44,14.78L89.44,75.22C89.44,83.04,83.04,89.44,75.22,89.44Z" fill="#0d5887"/><path d="M16.27,6.81L73.73,6.81C78.95,6.81,83.19,11.05,83.19,16.27L83.19,73.73C83.19,78.95,78.95,83.19,73.73,83.19L16.27,83.19C11.05,83.19,6.81,78.95,6.81,73.73L6.81,16.27C6.81,11.05,11.05,6.81,16.27,6.81Z" fill="#0089bd"/><path d="M62.94,53.03C62.94,58.91,67.71,63.68,73.59,63.68C74.55,63.68,75.48,63.55,76.36,63.31L76.36,74.6C76.36,76.69,74.67,78.39,72.58,78.39L55.09,78.39C55.31,77.53,55.43,76.63,55.43,75.7C55.43,69.82,50.66,65.05,44.78,65.05C38.9,65.05,34.13,69.82,34.13,75.7C34.13,76.63,34.25,77.53,34.47,78.39L16.98,78.39C14.89,78.39,13.19,76.69,13.19,74.6L13.19,63.12C13.97,63.3,14.77,63.4,15.6,63.4C21.48,63.4,26.25,58.63,26.25,52.74C26.25,46.86,21.48,42.09,15.6,42.09C14.77,42.09,13.97,42.19,13.19,42.37L13.19,26.93C13.19,24.83,14.89,23.14,16.98,23.14L34.37,23.14C34.21,22.41,34.13,21.65,34.13,20.87C34.13,14.99,38.9,10.22,44.78,10.22C50.66,10.22,55.43,14.99,55.43,20.87C55.43,21.65,55.35,22.41,55.19,23.14L72.58,23.14C74.67,23.14,76.36,24.83,76.36,26.93L76.36,42.74C75.48,42.5,74.55,42.37,73.59,42.37C67.71,42.37,62.94,47.14,62.94,53.03Z" fill="#f7cf64"/><path d="M33.14,40.91L33.14,38.74C33.14,37.51,34.14,36.51,35.36,36.51C36.59,36.51,37.59,37.51,37.59,38.74L37.59,40.91C37.59,42.14,36.59,43.14,35.36,43.14C34.14,43.14,33.14,42.14,33.14,40.91Z" fill="#0d5887"/><path d="M52.41,40.91L52.41,38.74C52.41,37.51,53.41,36.51,54.64,36.51C55.86,36.51,56.86,37.51,56.86,38.74L56.86,40.91C56.86,42.14,55.86,43.14,54.64,43.14C53.41,43.14,52.41,42.14,52.41,40.91Z" fill="#0d5887"/><path d="M34.02,50.8C33.52,49.85,33.88,48.67,34.83,48.17C35.78,47.67,36.96,48.03,37.46,48.98C38.94,51.79,41.83,53.54,45,53.54C48.17,53.54,51.06,51.79,52.54,48.98C53.04,48.03,54.22,47.67,55.17,48.17C56.12,48.67,56.48,49.85,55.98,50.8C53.83,54.89,49.62,57.43,45,57.43C40.38,57.43,36.17,54.89,34.02,50.8Z" fill="#0d5887"/></svg>