<svg xmlns="http://www.w3.org/2000/svg" viewBox="0 0 90 90"><path d="M89.44,75.22C89.44,83.04,83.04,89.44,75.22,89.44L14.78,89.44C6.96,89.44,0.56,83.04,0.56,75.22L0.56,14.78C0.56,6.96,6.96,0.56,14.78,0.56L75.22,0.56C83.04,0.56,89.45,6.96,89.45,14.78L89.45,75.22Z" fill="#009187"/><path d="M6.81,16.27L6.81,73.73C6.81,78.95,11.05,83.19,16.27,83.19L73.73,83.19C78.95,83.19,83.2,78.95,83.2,73.73L83.2,16.27C83.2,11.05,78.95,6.8,73.73,6.8L16.27,6.8C11.05,6.8,6.81,11.05,6.81,16.27Z" fill="#78ceca"/><path d="M46.79,53.89L56.8,53.89L58.45,55.55L46.79,57.2L45.14,55.55Z" fill="#009187"/><path d="M37.77,53.89L31.49,53.89C30.58,53.89,29.84,54.63,29.84,55.55C29.84,56.46,30.58,57.2,31.49,57.2L37.77,57.2L37.77,53.89Z" fill="#009187"/><path d="M61.87,67.4C61.87,71.04,58.92,74,55.27,74C51.63,74,48.67,71.04,48.67,67.4C48.67,63.75,51.63,60.8,55.27,60.8C58.92,60.8,61.87,63.75,61.87,67.4Z" fill="#009187"/><path d="M59.28,67.4C59.28,69.61,57.48,71.4,55.27,71.4C53.06,71.4,51.27,69.61,51.27,67.4C51.27,65.19,53.06,63.4,55.27,63.4C57.48,63.4,59.28,65.19,59.28,67.4Z" fill="#78ceca"/><path d="M45.67,52.25L51.86,60.1L51.59,62.43L43.07,54.3L43.35,51.97Z" fill="#009187"/><path d="M42.12,67.4C42.12,71.04,39.17,74,35.52,74C31.88,74,28.92,71.04,28.92,67.4C28.92,63.75,31.88,60.8,35.52,60.8C39.17,60.8,42.12,63.75,42.12,67.4Z" fill="#009187"/><path d="M39.52,67.4C39.52,69.61,37.73,71.4,35.52,71.4C33.31,71.4,31.52,69.61,31.52,67.4C31.52,65.19,33.31,63.4,35.52,63.4C37.73,63.4,39.52,65.19,39.52,67.4Z" fill="#78ceca"/><path d="M50,57.74L56.19,65.6L55.92,67.92L47.4,59.79L47.68,57.47Z" fill="#009187"/><path d="M24.97,61.43C23.44,63.4,22.91,66.07,23.8,68.59" fill="none" stroke="#000000" stroke-width="2" stroke-linecap="butt" stroke-linejoin="miter"/><path d="M21.63,61.62C20.73,63.07,20.33,64.82,20.54,66.55" fill="none" stroke="#000000" stroke-width="2" stroke-linecap="butt" stroke-linejoin="miter"/><path d="M41.69,47.19L47.88,55.05L47.6,57.37L39.09,49.24L39.36,46.92Z" fill="#f48c8d"/><path d="M33.28,47.85L39.48,55.7L39.2,58.02L30.68,49.89L30.96,47.57Z" fill="#f48c8d"/><path d="M36.43,51.83L42.62,59.69L42.34,62.01L33.83,53.88L34.1,51.56Z" fill="#fde8e8"/><path d="M36.95,67.94C36.33,68.6,35.28,68.64,34.61,68.01L34.61,68.01C33.95,67.39,33.91,66.34,34.54,65.67L40.09,59.64C40.72,58.98,41.77,58.94,42.43,59.57L42.43,59.57C43.1,60.2,43.13,61.24,42.5,61.91Z" fill="#fde8e8"/><path d="M44.52,56.2L46.83,53.9L47.72,54.78L45.41,57.09Z" fill="#fde8e8"/><path d="M79.92,43.1C79.92,37.18,75.45,31.93,69.53,31.93C69.52,31.93,69.5,31.93,69.48,31.93C67.29,25.64,60.96,21.56,53.92,21.56C50.49,21.56,47.32,22.63,44.71,24.45C42.1,22.63,38.92,21.56,35.5,21.56C28.69,21.56,22.86,25.79,20.49,31.76C14.69,32.08,10.08,36.89,10.08,42.78C10.08,48.67,15.02,53.82,21.12,53.82C21.34,53.82,21.55,53.82,21.76,53.8L21.76,53.82L70.05,53.82L70.05,53.79C75.57,53.35,79.92,48.74,79.92,43.1Z" fill="#f48c8d"/><path d="M60.9,45.07C60.9,48.78,57.89,51.79,54.18,51.79C50.47,51.79,47.46,48.78,47.46,45.07C47.46,41.36,50.47,38.35,54.18,38.35C57.89,38.35,60.9,41.36,60.9,45.07Z" fill="#fff"/><path d="M73.52,45.07C73.52,48.78,70.52,51.79,66.81,51.79C63.1,51.79,60.09,48.78,60.09,45.07C60.09,41.36,63.1,38.35,66.81,38.35C70.52,38.35,73.52,41.36,73.52,45.07Z" fill="#fff"/><path d="M56.55,45.89C56.55,47.71,55.07,49.19,53.25,49.19C51.43,49.19,49.96,47.71,49.96,45.89C49.96,44.07,51.43,42.6,53.25,42.6C55.07,42.6,56.55,44.07,56.55,45.89Z" fill="#65625f"/><path d="M68.85,45.89C68.85,47.71,67.38,49.19,65.56,49.19C63.74,49.19,62.27,47.71,62.27,45.89C62.27,44.07,63.74,42.6,65.56,42.6C67.38,42.6,68.85,44.07,68.85,45.89Z" fill="#65625f"/><path d="M57.64,46.86C57.64,47.81,56.86,48.59,55.91,48.59C54.96,48.59,54.18,47.81,54.18,46.86C54.18,45.9,54.96,45.13,55.91,45.13C56.86,45.13,57.64,45.9,57.64,46.86Z" fill="#fff"/><path d="M70.24,46.86C70.24,47.81,69.46,48.59,68.51,48.59C67.55,48.59,66.78,47.81,66.78,46.86C66.78,45.9,67.55,45.13,68.51,45.13C69.46,45.13,70.24,45.9,70.24,46.86Z" fill="#fff"/><path d="M19.17,27.21L69.49,27.21L69.49,31.93L19.17,31.93Z" fill="#fde8e8"/><path d="M56.02,17.77C49.82,17.77,44.54,21.71,42.54,27.21L69.49,27.21C67.49,21.71,62.21,17.77,56.02,17.77Z" fill="#f48c8d"/><path d="M32.65,17.77C26.45,17.77,21.17,21.71,19.17,27.21L46.12,27.21C44.12,21.71,38.84,17.77,32.65,17.77Z" fill="#f48c8d"/></svg>