<svg xmlns="http://www.w3.org/2000/svg" viewBox="0 0 90 90"><path d="M89.44,75.22C89.44,83.04,83.04,89.44,75.22,89.44L14.78,89.44C6.96,89.44,0.56,83.04,0.56,75.22L0.56,14.78C0.56,6.96,6.96,0.56,14.78,0.56L75.22,0.56C83.04,0.56,89.44,6.96,89.44,14.78L89.44,75.22Z" fill="#ec6250"/><path d="M6.81,16.27L6.81,73.73C6.81,78.95,11.05,83.19,16.27,83.19L73.73,83.19C78.95,83.19,83.2,78.95,83.2,73.73L83.2,16.27C83.2,11.05,78.95,6.81,73.73,6.81L16.27,6.81C11.05,6.81,6.81,11.05,6.81,16.27Z" fill="#b23330"/><path d="M46.84,29.34L52.32,14.21L50.43,30.19L59.25,16.73L53.72,31.84L65.41,20.78L56.55,34.21L70.47,26.15L58.75,37.17L74.16,32.53L60.21,40.55L76.27,39.59L60.85,44.18L76.7,46.95L60.64,47.86L75.42,54.21L59.58,51.4L72.5,60.98L57.74,54.59L68.1,66.9L55.21,57.27L62.45,71.64L52.13,59.3L55.86,74.95L48.66,60.56L48.69,76.65L45,60.98L41.31,76.65L41.34,60.56L34.14,74.95L37.87,59.3L27.55,71.64L34.79,57.27L21.9,66.9L32.26,54.59L17.5,60.98L30.42,51.4L14.58,54.21L29.36,47.86L13.3,46.95L29.15,44.18L13.73,39.59L29.79,40.55L15.84,32.53L31.25,37.17L19.53,26.15L33.45,34.21L24.59,20.78L36.28,31.84L30.75,16.73L39.57,30.19L37.68,14.21L43.16,29.34L45,13.35Z" fill="#ca3431"/><path d="M41.72,47.39L37.72,45.41L34.31,48.3L29.94,47.36L27.34,51L22.87,51.15L20.75,55.75L16.03,57.62L15.31,62.64L11.32,65.77L10.05,73.71L16.78,75.24L16.78,75.24L20.52,72.79L24.74,74.26L27.76,70.97L32.21,71.36L34.35,67.44L39.28,66.27L40.72,61.41L45.12,58.88L45.12,53.81L46.68,52.17C45.04,50.53,43.41,48.88,41.77,47.25Z" fill="#6c9d41"/><path d="M78.68,65.77L74.7,62.64L73.97,57.62L69.25,55.75L67.13,51.15L62.66,51L60.06,47.36L55.69,48.3L52.29,45.41L48.28,47.39L48.04,46.64C47.73,46.8,47.41,46.91,47.08,46.99L46.96,47.42L46.84,47.09C46.8,47.12,46.77,47.14,46.73,47.16C46.39,47.47,46.08,47.8,45.78,48.14C45.51,48.53,45.27,48.92,45.06,49.33C45.05,49.36,45.04,49.39,45.03,49.42C45.15,50.69,44.72,51.89,43.9,52.78L44.88,53.81L44.88,58.88L49.28,61.4L50.72,66.26L55.65,67.44L57.79,71.36L62.24,70.97L65.26,74.26L69.48,72.78L73.22,75.23L73.22,75.23L79.95,73.71L78.68,65.77Z" fill="#4e7838"/><path d="M38.7,51.47L42.42,53.36L46.52,53.36L50.24,51.47L50.51,46.41L54.19,42.92L53,37.99L55.54,33.6L53,29.21L54.19,24.28L50.51,20.8L50.24,15.73L44.34,10.57L38.7,15.73L38.43,20.8L34.75,24.28L35.94,29.21L33.4,33.6L35.94,37.99L34.75,42.92L38.43,46.41Z" fill="#4e7838"/><path d="M45.74,52.65L44.85,51.96C44.35,51.46,43.99,50.86,43.78,50.19C43.39,49.77,43.09,49.31,42.89,48.79L10.15,73.73L16.8,75.24L16.8,75.24L20.54,72.79L24.76,74.26L27.78,70.97L32.23,71.36L34.37,67.44L39.3,66.27L40.75,61.41L45.14,58.88L45.14,53.81L46.08,52.83C45.96,52.77,45.85,52.71,45.74,52.65Z" fill="#4e7838"/><path d="M50.46,51.47L50.72,46.41L54.4,42.92L53.22,37.99L55.76,33.6L53.22,29.21L54.4,24.28L50.72,20.8L50.46,15.73L44.55,10.57L44.55,53.36L46.73,53.36Z" fill="#6c9d41"/><path d="M79.93,73.72C75.87,70.96,56.65,57.87,46.66,51.08C46.5,51.34,46.31,51.57,46.08,51.79C46.01,51.86,45.94,51.93,45.86,52C45.34,52.5,44.73,52.85,44.04,53.05L44.88,53.94L44.88,59.01L49.28,61.53L50.72,66.39L55.65,67.57L57.79,71.49L62.24,71.1L65.26,74.39L69.48,72.91L73.22,75.36L73.22,75.36L79.95,73.84L79.93,73.72Z" fill="#6c9d41"/><path d="M44.56,46.44C44.56,50.4,41.35,53.61,37.38,53.61C33.42,53.61,30.21,50.4,30.21,46.44C30.21,42.48,33.42,39.26,37.38,39.26C41.35,39.26,44.56,42.48,44.56,46.44Z" fill="#ec6250"/><path d="M52.4,56.86C52.4,60.77,49.22,63.94,45.31,63.94C41.39,63.94,38.22,60.77,38.22,56.86C38.22,52.94,41.39,49.77,45.31,49.77C49.22,49.77,52.4,52.94,52.4,56.86Z" fill="#ec6250"/><path d="M58.73,45.18C58.73,49.14,55.52,52.36,51.56,52.36C47.59,52.36,44.38,49.14,44.38,45.18C44.38,41.22,47.59,38.01,51.56,38.01C55.52,38.01,58.73,41.22,58.73,45.18Z" fill="#ec6250"/><path d="M45.28,42.92C45.28,42.37,45.34,41.84,45.46,41.33C44.75,42.44,44.34,43.76,44.34,45.18C44.34,49.15,47.55,52.36,51.51,52.36C54.93,52.36,57.79,49.97,58.51,46.77C57.24,48.76,55,50.09,52.46,50.09C48.49,50.09,45.28,46.88,45.28,42.92Z" fill="#bebdb9"/><path d="M46.22,61.67C42.32,61.67,39.15,58.5,39.15,54.59C39.15,54.06,39.21,53.53,39.33,53.03C38.63,54.13,38.22,55.43,38.22,56.83C38.22,60.73,41.39,63.9,45.29,63.9C48.66,63.9,51.48,61.54,52.19,58.39C50.94,60.36,48.73,61.67,46.22,61.67Z" fill="#bebdb9"/><path d="M31.15,44.17C31.15,43.63,31.22,43.1,31.33,42.59C30.62,43.7,30.21,45.02,30.21,46.44C30.21,50.4,33.42,53.61,37.38,53.61C40.8,53.61,43.66,51.22,44.38,48.02C43.11,50.02,40.87,51.35,38.33,51.35C34.37,51.35,31.15,48.14,31.15,44.17Z" fill="#bebdb9"/><path d="M37.7,43.21C37.7,44.38,36.75,45.33,35.57,45.33C34.4,45.33,33.45,44.38,33.45,43.21C33.45,42.04,34.4,41.08,35.57,41.08C36.75,41.08,37.7,42.04,37.7,43.21Z" fill="#fff"/><path d="M52.28,41.33C52.28,42.5,51.33,43.46,50.15,43.46C48.98,43.46,48.03,42.5,48.03,41.33C48.03,40.16,48.98,39.21,50.15,39.21C51.33,39.21,52.28,40.16,52.28,41.33Z" fill="#fff"/><path d="M44.84,55.04C44.84,56.22,43.89,57.17,42.72,57.17C41.55,57.17,40.59,56.22,40.59,55.04C40.59,53.87,41.55,52.92,42.72,52.92C43.89,52.92,44.84,53.87,44.84,55.04Z" fill="#fff"/><path d="M40.03,47C40.03,47.65,39.51,48.17,38.86,48.17C38.22,48.17,37.7,47.65,37.7,47C37.7,46.35,38.22,45.83,38.86,45.83C39.51,45.83,40.03,46.35,40.03,47Z" fill="#4e7838"/><path d="M56.37,42.1C56.37,42.74,55.85,43.27,55.2,43.27C54.56,43.27,54.03,42.74,54.03,42.1C54.03,41.45,54.56,40.93,55.2,40.93C55.85,40.93,56.37,41.45,56.37,42.1Z" fill="#4e7838"/><path d="M44.84,59.7C44.84,60.35,44.32,60.87,43.67,60.87C43.03,60.87,42.51,60.35,42.51,59.7C42.51,59.06,43.03,58.54,43.67,58.54C44.32,58.54,44.84,59.06,44.84,59.7Z" fill="#4e7838"/></svg>