<svg xmlns="http://www.w3.org/2000/svg" viewBox="0 0 90 90"><path d="M75.21,89.44L14.77,89.44C6.94,89.44,0.54,83.04,0.54,75.22L0.54,14.78C0.54,6.96,6.94,0.56,14.77,0.56L75.21,0.56C83.03,0.56,89.43,6.96,89.43,14.78L89.43,75.22C89.43,83.04,83.03,89.44,75.21,89.44Z" fill="#5b3a34"/><path d="M16.26,6.81L73.72,6.81C78.93,6.81,83.18,11.05,83.18,16.27L83.18,73.73C83.18,78.95,78.93,83.19,73.72,83.19L16.26,83.19C11.04,83.19,6.79,78.95,6.79,73.73L6.79,16.27C6.79,11.05,11.04,6.81,16.26,6.81Z" fill="#000000"/><path d="M6.67,44.82L45.01,44.82L45.01,83.16L6.67,83.16Z" fill="#f0ab21"/><path d="M44.96,44.82L83.3,44.82L83.3,83.16L44.96,83.16Z" fill="#ee4552"/><path d="M6.67,6.84L45.01,6.84L45.01,45.18L6.67,45.18Z" fill="#ee4552"/><path d="M44.96,6.84L83.3,6.84L83.3,45.18L44.96,45.18Z" fill="#f0ab21"/><path d="M70.2,34.49C71.53,34.49,72.6,35.56,72.6,36.89L72.6,39.72L49.19,39.72L49.19,36.89C49.19,35.57,50.26,34.49,51.59,34.49L52.94,34.49L52.94,33.22L55.59,32.39L54.63,30.96L54.63,26.76L57.62,23.85L58.07,23.44L58.07,22.22L53.94,22.22L53.94,22.21L52.42,20.36L53.44,18.3L53.44,18.29L60.1,14.69L60.1,12.31L61.46,12.31L61.93,14.03C62.05,14.02,62.16,14.01,62.28,14.01C63.52,14.01,64.6,14.67,65.2,15.66L69.35,20.78L67.88,22.25L68.96,23.33L67.52,24.77L68.88,26.12L66.21,28.72L66.21,32.39L68.85,33.22L68.85,34.49L70.21,34.49Z" fill="#e48f2a"/><path d="M76.67,34.49C77.99,34.49,79.07,35.56,79.07,36.89L79.07,39.72L55.65,39.72L55.65,36.89C55.65,35.57,56.73,34.49,58.05,34.49L59.41,34.49L59.41,33.22L62.05,32.39L61.1,30.96L61.1,26.76L64.09,23.85L64.54,23.44L64.54,22.22L60.4,22.22L60.4,22.21L58.88,20.36L59.91,18.3L59.91,18.29L66.56,14.69L66.56,12.31L67.93,12.31L68.4,14.03C68.51,14.02,68.63,14.01,68.74,14.01C69.98,14.01,71.07,14.67,71.66,15.66L75.81,20.78L74.35,22.25L75.43,23.33L73.99,24.77L75.34,26.12L72.67,28.72L72.67,32.39L75.32,33.22L75.32,34.49L76.67,34.49Z" fill="#5b3a34"/><path d="M25.24,13.45C26.25,14.75,26.02,16.62,24.72,17.63C23.43,18.65,21.55,18.42,20.54,17.12C19.53,15.82,19.76,13.95,21.06,12.94C22.35,11.93,24.23,12.16,25.24,13.45Z" fill="#e3183c"/><path d="M32.2,34.49C33.52,34.49,34.6,35.56,34.6,36.89L34.6,39.72L11.18,39.72L11.18,36.89C11.18,35.57,12.25,34.49,13.58,34.49L14.93,34.49L14.93,33.22L17.58,32.39L17.58,28.87L15.43,28.87L15.43,24.94L17.58,24.94L17.58,23.57C17.58,20.64,19.96,18.26,22.89,18.26L22.89,18.26C25.82,18.26,28.2,20.64,28.2,23.57L28.2,24.94L30.34,24.94L30.34,28.87L28.2,28.87L28.2,32.39L30.84,33.22L30.84,34.34L30.84,34.34L30.84,34.49Z" fill="#e3183c"/><path d="M31.14,13.45C32.16,14.75,31.93,16.62,30.63,17.63C29.33,18.65,27.46,18.42,26.45,17.12C25.44,15.82,25.67,13.95,26.96,12.94C28.26,11.93,30.13,12.16,31.14,13.45Z" fill="#5b3a34"/><path d="M38.1,34.49C39.43,34.49,40.5,35.56,40.5,36.89L40.5,39.72L17.09,39.72L17.09,36.89C17.09,35.57,18.16,34.49,19.49,34.49L20.84,34.49L20.84,33.22L23.49,32.39L23.49,28.87L21.34,28.87L21.34,24.94L23.49,24.94L23.49,23.57C23.49,20.64,25.86,18.26,28.8,18.26L28.8,18.26C31.73,18.26,34.11,20.64,34.11,23.57L34.11,24.94L36.25,24.94L36.25,28.87L34.11,28.87L34.11,32.39L36.75,33.22L36.75,34.34L36.75,34.34L36.75,34.49Z" fill="#5b3a34"/><path d="M70.21,74.67C71.53,74.67,72.6,75.74,72.6,77.07L72.6,79.89L49.19,79.89L49.19,77.07C49.19,75.74,50.26,74.67,51.59,74.67L52.94,74.67L52.94,73.39L55.59,72.57L55.59,68.59L52.94,68.59L52.94,65.49L55.59,65.49L55.59,63.36C54.71,63.08,54.08,62.27,54.08,61.31L54.08,58.88L54.09,58.88L53.35,54.54L55.56,54.54L55.72,55.46L57.17,55.46L57.17,54.77C57.17,52.97,58.44,51.47,60.14,51.12L60.14,49.9L58.77,49.9L58.77,48.38L60.14,48.38L60.14,47.01L61.66,47.01L61.66,48.38L63.02,48.38L63.02,49.9L61.66,49.9L61.66,51.12C63.35,51.47,64.62,52.97,64.62,54.77L64.62,55.46L66.08,55.46L66.23,54.54L68.44,54.54L67.71,58.88L67.71,58.88L67.71,61.31C67.71,62.27,67.08,63.08,66.21,63.36L66.21,65.49L68.85,65.49L68.85,68.59L66.21,68.59L66.21,72.57L68.85,73.39L68.85,74.52L68.85,74.52L68.85,74.67L70.21,74.67Z" fill="#e3183c"/><path d="M76.67,74.67C78,74.67,79.07,75.74,79.07,77.07L79.07,79.89L55.66,79.89L55.66,77.07C55.66,75.74,56.73,74.67,58.06,74.67L59.41,74.67L59.41,73.39L62.05,72.57L62.05,68.59L59.41,68.59L59.41,65.49L62.05,65.49L62.05,63.36C61.18,63.08,60.55,62.27,60.55,61.31L60.55,58.88L60.56,58.88L59.98,55.48C59.54,55.19,59.25,54.69,59.25,54.12C59.25,53.22,59.99,52.48,60.9,52.48C61.8,52.48,62.54,53.22,62.54,54.12C62.54,54.53,62.39,54.91,62.14,55.19L62.44,56.98C62.91,56.65,63.48,56.37,64.13,56.16L63.97,53.81C63.55,53.51,63.28,53.03,63.28,52.48C63.28,51.57,64.02,50.84,64.92,50.84C65.83,50.84,66.57,51.57,66.57,52.48C66.57,52.89,66.41,53.27,66.16,53.56L66.31,55.71C66.65,55.68,67,55.66,67.36,55.66C67.68,55.66,67.99,55.68,68.3,55.7L68.43,53.74C68.07,53.43,67.85,52.98,67.85,52.48C67.85,51.57,68.58,50.84,69.49,50.84C70.4,50.84,71.13,51.57,71.13,52.48C71.13,52.93,70.95,53.34,70.65,53.64L70.48,56.12C71.18,56.34,71.79,56.63,72.28,56.98L72.59,55.19C72.34,54.91,72.19,54.53,72.19,54.12C72.19,53.22,72.93,52.48,73.83,52.48C74.74,52.48,75.47,53.22,75.47,54.12C75.47,54.69,75.19,55.19,74.75,55.48L74.17,58.88L74.18,58.88L74.18,61.31C74.18,62.27,73.55,63.08,72.67,63.36L72.67,65.49L75.32,65.49L75.32,68.59L72.67,68.59L72.67,72.57L75.32,73.39L75.32,74.67L76.67,74.67Z" fill="#5b3a34"/><path d="M32.2,74.67C33.52,74.67,34.59,75.74,34.59,77.07L34.59,79.89L11.18,79.89L11.18,77.07C11.18,75.74,12.25,74.67,13.58,74.67L14.93,74.67L14.93,73.39L17.58,72.57L17.58,68.59L14.93,68.59L14.93,65.49L17.58,65.49L17.58,63.83L15.43,63.83L15.43,52.54L18.41,52.54L18.41,55.46L21.4,55.46L21.4,52.54L24.38,52.54L24.38,55.46L27.36,55.46L27.36,52.54L30.34,52.54L30.34,63.83L28.2,63.83L28.2,65.49L30.84,65.49L30.84,68.59L28.2,68.59L28.2,72.57L30.84,73.39L30.84,74.67L32.2,74.67Z" fill="#e48f2a"/><path d="M38.1,74.67C39.43,74.67,40.5,75.74,40.5,77.07L40.5,79.89L17.09,79.89L17.09,77.07C17.09,75.74,18.16,74.67,19.48,74.67L20.84,74.67L20.84,73.39L23.48,72.57L23.48,68.59L20.84,68.59L20.84,65.49L23.48,65.49L23.48,63.83L21.34,63.83L21.34,52.54L24.32,52.54L24.32,55.46L27.3,55.46L27.3,52.54L30.29,52.54L30.29,55.46L33.27,55.46L33.27,52.54L36.25,52.54L36.25,63.83L34.11,63.83L34.11,65.49L36.75,65.49L36.75,68.59L34.11,68.59L34.11,72.57L36.75,73.39L36.75,74.67L38.1,74.67Z" fill="#5b3a34"/><path d="M75.24,0.56L14.79,0.56C6.97,0.56,0.57,6.96,0.57,14.78L0.57,75.22C0.57,83.04,6.97,89.44,14.79,89.44L75.23,89.44C83.06,89.44,89.46,83.04,89.46,75.22L89.46,14.78C89.46,6.96,83.06,0.56,75.23,0.56ZM73.74,83.19L16.28,83.19C11.07,83.19,6.82,78.95,6.82,73.73L6.82,16.27C6.82,11.05,11.07,6.81,16.28,6.81L73.74,6.81C78.96,6.81,83.21,11.05,83.21,16.27L83.21,73.73C83.21,78.95,78.96,83.19,73.74,83.19Z" fill="#5b3a34"/></svg>