<svg xmlns="http://www.w3.org/2000/svg" viewBox="0 0 90 90"><path d="M75.22,89.44L14.78,89.44C6.96,89.44,0.56,83.04,0.56,75.22L0.56,14.78C0.56,6.96,6.96,0.56,14.78,0.56L75.22,0.56C83.05,0.56,89.44,6.96,89.44,14.78L89.44,75.22C89.44,83.04,83.05,89.44,75.22,89.44Z" fill="#e3183c"/><path d="M6.81,16.27L6.81,73.73C6.81,78.95,11.05,83.19,16.27,83.19L73.73,83.19C78.95,83.19,83.19,78.95,83.19,73.73L83.19,16.27C83.19,11.05,78.95,6.81,73.73,6.81L16.27,6.81C11.05,6.81,6.81,11.05,6.81,16.27Z" fill="#f58577"/><path d="M47.52,34.51L47.59,40.85C47.63,40.83,47.68,40.81,47.72,40.79" fill="none" stroke="#404466" stroke-width="2" stroke-linecap="butt" stroke-linejoin="miter"/><path d="M39.76,38.1C39.83,38.66,40.1,39.22,40.56,39.73C42.08,41.4,45.2,41.89,47.59,40.85L47.52,34.51L47.52,34.51L49.98,31.27C50.57,31.47,51.22,31.49,51.82,31.37C52.05,31.31,52.28,31.24,52.5,31.14C52.5,31.14,52.5,31.14,52.51,31.14C52.62,31.09,52.74,31.02,52.84,30.95C52.85,30.94,52.87,30.94,52.88,30.93C52.88,30.93,52.88,30.93,52.88,30.93C53.07,30.8,53.24,30.64,53.38,30.46C53.39,30.45,53.39,30.44,53.4,30.44C53.84,29.83,53.76,29.13,53.28,28.6C53.04,28.34,52.7,28.11,52.25,27.95L54.75,24.4L54.74,23.94L54.73,23.11L54.67,19.75L53.66,19.6L51.96,19.35L51.79,19.33L50.29,19.1L49.2,18.94L47.84,18.74L46.49,18.54L43.7,22.76C43.58,22.77,43.46,22.77,43.34,22.78C43.34,22.78,43.33,22.78,43.32,22.78C43.3,22.78,43.28,22.78,43.26,22.79C43.23,22.79,43.19,22.79,43.14,22.79C43.11,22.8,43.07,22.8,43.03,22.8C42.94,22.81,42.85,22.81,42.7,22.83C42.69,22.83,42.68,22.83,42.67,22.83C42.65,22.83,42.62,22.83,42.59,22.84C42.58,22.84,42.57,22.84,42.56,22.84C42.52,22.84,42.48,22.85,42.43,22.85C42.38,22.86,42.33,22.86,42.28,22.86C42.22,22.87,42.17,22.88,42.11,22.88C42.09,22.88,42.07,22.89,42.05,22.89C42,22.89,41.95,22.9,41.9,22.9C41.8,22.91,41.71,22.92,41.55,22.94C41.47,22.95,41.4,22.96,41.32,22.97C41.26,22.98,41.21,22.99,41.16,22.99C41.14,23,41.12,23,41.09,23C41.06,23.01,41.02,23.01,40.97,23.02C40.94,23.02,40.92,23.03,40.89,23.03C40.85,23.04,40.82,23.04,40.71,23.06C40.68,23.06,40.66,23.06,40.62,23.07C40.62,23.07,40.61,23.07,40.61,23.07C40.57,23.08,40.51,23.09,40.42,23.1C40.29,23.12,40.16,23.14,40.03,23.17C39.57,23.25,39.12,23.34,38.67,23.44L33.99,20.22L33.99,20.22C33.99,20.22,33.29,20.54,33.29,20.54L32.25,21.02L29.28,22.39L26.95,23.47L26.96,25.08L27.02,29.88C26.91,30.01,26.8,30.14,26.69,30.27C26.62,30.36,26.54,30.45,26.47,30.55C26.44,30.58,26.41,30.62,26.38,30.67C26.37,30.68,26.37,30.68,26.36,30.69C26.35,30.7,26.35,30.7,26.35,30.71C26.34,30.72,26.33,30.73,26.32,30.75C26.3,30.77,26.28,30.8,26.25,30.84L19.75,30.93L19.7,30.93C19.7,30.93,18.52,34.82,18.52,34.82L17.93,36.75L18.09,51.32L20.27,52.05L20.19,45.61L23.91,42.89L23.86,38.73L27.38,38.58L29.29,38.5L29.42,38.49C29.4,38.14,29.52,37.82,29.75,37.53C29.95,37.27,30.24,37.04,30.59,36.87C30.6,36.87,30.6,36.87,30.61,36.87C30.61,36.87,30.61,36.87,30.62,36.86C30.77,36.79,30.93,36.74,31.1,36.69C31.34,36.63,31.58,36.59,31.84,36.57C31.84,36.57,31.85,36.57,31.86,36.57C31.87,36.57,31.88,36.57,31.89,36.57C32.79,36.53,33.6,36.83,34.1,37.31C34.14,37.34,34.17,37.37,34.2,37.4C34.43,37.67,34.58,37.97,34.6,38.31L39.76,38.1M47.51,34.51C47.51,34.51,47.51,34.51,47.51,34.51C47.51,34.51,47.51,34.51,47.51,34.51" fill="none" stroke="#f3ac24" stroke-width="2" stroke-linecap="butt" stroke-linejoin="miter"/><path d="M59.37,53.58L53.56,47.2C52.36,47.76,50.75,47.52,49.98,46.67C49.2,45.82,49.55,44.68,50.76,44.12L47.72,40.79C47.68,40.81,47.63,40.83,47.59,40.85C45.2,41.89,42.08,41.4,40.56,39.73C40.1,39.22,39.84,38.66,39.76,38.1L34.6,38.3C34.58,37.97,34.43,37.66,34.19,37.4C34.16,37.37,34.13,37.34,34.1,37.31C33.61,36.83,32.8,36.54,31.86,36.57C31.85,36.57,31.84,36.57,31.83,36.57C31.58,36.58,31.33,36.63,31.1,36.69C30.93,36.74,30.76,36.8,30.6,36.87C30.6,36.87,30.59,36.87,30.59,36.87C30.24,37.04,29.95,37.27,29.74,37.53C29.52,37.82,29.4,38.15,29.42,38.51L29.28,38.52L27.38,38.59L23.86,38.73L23.9,42.89L20.19,45.61L20.26,52.05L20.36,60.19L23.51,63.65L24.89,65.16L29.69,63.91L30.37,63.73L31.05,63.55C31.12,63.59,31.19,63.64,31.26,63.68C31.29,63.7,31.32,63.72,31.34,63.73C31.38,63.75,31.41,63.77,31.44,63.79C31.51,63.83,31.57,63.87,31.63,63.91C31.7,63.94,31.76,63.98,31.84,64.02C31.86,64.03,31.88,64.04,31.9,64.06C31.94,64.08,31.99,64.11,32.05,64.14C32.1,64.17,32.16,64.2,32.25,64.25C32.31,64.28,32.38,64.32,32.46,64.36C32.5,64.38,32.55,64.41,32.61,64.44C32.65,64.46,32.69,64.48,32.74,64.51C32.75,64.51,32.77,64.52,32.78,64.53C32.8,64.54,32.82,64.55,32.85,64.56C32.85,64.56,32.85,64.56,32.85,64.56C32.9,64.58,32.96,64.61,33.05,64.66C33.08,64.67,33.11,64.69,33.19,64.73C33.21,64.73,33.23,64.74,33.25,64.76C33.3,64.78,33.34,64.8,33.44,64.85C33.46,64.85,33.47,64.86,33.49,64.87C33.49,64.87,33.5,64.87,33.5,64.87C33.51,64.88,33.52,64.88,33.53,64.89C33.57,64.9,33.62,64.93,33.69,64.96C33.72,64.97,33.76,64.99,33.79,65C33.84,65.03,33.9,65.05,33.96,65.08C33.98,65.09,34,65.09,34.02,65.1C34.06,65.12,34.11,65.14,34.16,65.16C34.17,65.17,34.19,65.17,34.2,65.18C34.21,65.19,34.22,65.19,34.24,65.2C34.25,65.2,34.26,65.21,34.27,65.21C34.28,65.21,34.29,65.22,34.3,65.22C34.31,65.23,34.33,65.24,34.35,65.24C34.37,65.25,34.39,65.26,34.41,65.27C34.42,65.27,34.44,65.28,34.46,65.29C34.48,65.3,34.51,65.31,34.55,65.32C34.58,65.34,34.63,65.36,34.68,65.38C34.71,65.39,34.74,65.4,34.78,65.42C34.82,65.43,34.87,65.45,34.92,65.47C34.94,65.48,34.97,65.49,35,65.5C35.01,65.51,35.03,65.51,35.04,65.52C35.11,65.54,35.18,65.57,35.25,65.6L35.28,65.62L35.33,70.25L41.92,71.22L43.51,71.46L44.5,69.96L44.97,69.24L45.68,68.17L46.3,67.24C46.3,67.24,46.31,67.24,46.31,67.24C46.43,67.23,46.54,67.22,46.67,67.22C46.68,67.22,46.69,67.22,46.7,67.21C46.77,67.21,46.83,67.21,46.9,67.2C46.97,67.2,47.03,67.19,47.1,67.19C47.11,67.19,47.12,67.19,47.12,67.19C47.2,67.18,47.27,67.18,47.35,67.17C47.4,67.16,47.46,67.16,47.52,67.15C47.54,67.15,47.57,67.15,47.6,67.15C47.6,67.15,47.6,67.15,47.61,67.15C47.61,67.15,47.61,67.15,47.61,67.15C47.68,67.14,47.74,67.13,47.85,67.12C47.87,67.12,47.88,67.12,47.9,67.12C47.92,67.12,47.94,67.11,47.96,67.11C48,67.11,48.04,67.1,48.08,67.1C48.09,67.1,48.1,67.1,48.11,67.1C48.11,67.1,48.12,67.1,48.13,67.1C48.14,67.1,48.14,67.09,48.15,67.09C48.17,67.09,48.19,67.09,48.2,67.09C48.22,67.09,48.24,67.08,48.26,67.08C48.28,67.08,48.31,67.08,48.34,67.07C48.37,67.07,48.41,67.06,48.45,67.06C48.47,67.06,48.48,67.06,48.49,67.06C48.55,67.05,48.62,67.04,48.68,67.03C48.73,67.02,48.79,67.02,48.85,67.01C48.87,67.01,48.89,67,48.93,67C48.96,66.99,49.01,66.99,49.08,66.98C49.08,66.98,49.09,66.98,49.09,66.98C49.13,66.97,49.18,66.96,49.29,66.95C49.37,66.93,49.46,66.92,49.54,66.91C49.56,66.91,49.57,66.9,49.58,66.9C49.6,66.9,49.63,66.89,49.65,66.89C49.68,66.89,49.71,66.88,49.75,66.87C49.83,66.86,49.91,66.85,49.99,66.83C50.01,66.83,50.03,66.83,50.05,66.82C50.06,66.82,50.08,66.82,50.1,66.81C50.19,66.8,50.28,66.78,50.4,66.76C50.52,66.73,50.64,66.71,50.77,66.68C50.8,66.68,50.83,66.67,50.87,66.66C50.92,66.65,50.97,66.64,51.02,66.63C51.04,66.63,51.07,66.62,51.09,66.62C51.11,66.61,51.12,66.61,51.14,66.61C51.2,66.59,51.26,66.58,51.33,66.56L53.07,67.76L56.01,69.79L56.78,69.43L59.53,68.16L59.37,53.58Z" fill="#4d7838"/><path d="M59.37,53.58L59.54,68.16L63.06,66.53L63.01,62.25L62.98,60.12C63.01,60.08,63.04,60.05,63.07,60.01C63.14,59.93,63.21,59.85,63.28,59.77C63.36,59.67,63.44,59.57,63.52,59.46C63.55,59.42,63.59,59.38,63.62,59.34C63.66,59.28,63.71,59.22,63.75,59.16L68.66,59.1L70.3,59.07L70.3,59.07C70.3,59.07,70.89,57.14,70.89,57.14L71.41,55.44L72.07,53.25L72.03,49.55L71.91,38.68L71.91,38.68C71.91,38.68,69.74,37.96,69.74,37.96L69.69,33.93L69.64,29.81L68.55,28.61L68.15,28.17L68.14,28.16L67.82,27.8L67.13,27.05L65.11,24.83L58.95,26.45C58.88,26.4,58.81,26.36,58.73,26.31C58.72,26.31,58.72,26.3,58.71,26.3C58.51,26.18,58.32,26.06,58.09,25.94C58.02,25.9,57.95,25.86,57.88,25.82C57.82,25.79,57.77,25.76,57.72,25.73C57.66,25.7,57.6,25.67,57.54,25.64C57.54,25.63,57.53,25.63,57.52,25.62C57.46,25.59,57.41,25.56,57.33,25.52C57.31,25.51,57.28,25.5,57.26,25.49C57.24,25.48,57.22,25.47,57.18,25.45C57.12,25.42,57.01,25.37,56.78,25.26C56.75,25.24,56.72,25.22,56.61,25.17C56.56,25.15,56.5,25.13,56.43,25.09C56.42,25.09,56.4,25.08,56.39,25.07C56.38,25.07,56.36,25.06,56.34,25.05C56.33,25.04,56.32,25.04,56.31,25.04C55.82,24.82,55.31,24.61,54.8,24.42L54.75,24.4L52.25,27.95C52.7,28.11,53.04,28.33,53.27,28.59C53.76,29.13,53.84,29.83,53.4,30.44C53.39,30.44,53.39,30.45,53.38,30.45C53.24,30.64,53.07,30.8,52.88,30.92C52.88,30.93,52.88,30.93,52.88,30.93C52.87,30.94,52.85,30.94,52.84,30.95C52.73,31.02,52.62,31.08,52.51,31.14C52.5,31.14,52.5,31.14,52.5,31.14C52.28,31.24,52.05,31.31,51.81,31.36C51.22,31.49,50.57,31.47,49.98,31.27L47.52,34.51L47.59,40.85L47.72,40.79L50.76,44.12C49.55,44.68,49.2,45.82,49.98,46.67C50.75,47.52,52.36,47.76,53.56,47.2L59.37,53.58M71.91,38.67L71.91,38.67" fill="none" stroke="#404466" stroke-width="2" stroke-linecap="butt" stroke-linejoin="miter"/><path d="M27.16,29.72C27.22,29.66,27.27,29.6,27.32,29.55C27.4,29.46,27.45,29.41,27.49,29.37C27.52,29.33,27.55,29.3,27.59,29.27C27.7,29.15,27.72,29.13,27.75,29.1C27.9,28.95,27.96,28.89,28.02,28.84C28.08,28.78,28.13,28.73,28.18,28.69C28.27,28.61,28.3,28.57,28.34,28.54C28.43,28.46,28.47,28.42,28.51,28.39C28.61,28.3,28.67,28.25,28.72,28.21C28.79,28.14,28.86,28.09,28.92,28.03C29.01,27.96,29.09,27.9,29.17,27.83L26.95,23.47L26.96,25.08L27.02,29.89C27.06,29.83,27.11,29.78,27.16,29.72Z" fill="#f3ac24"/><path d="M66.83,31.87L65.07,33.16C65.11,33.26,65.16,33.36,65.2,33.47C65.26,33.62,65.32,33.77,65.37,33.92C65.38,33.95,65.39,33.98,65.4,34.01C65.41,34.03,65.42,34.06,65.43,34.09C65.47,34.2,65.5,34.3,65.53,34.4C65.55,34.45,65.56,34.49,65.57,34.54C65.62,34.71,65.64,34.76,65.65,34.81C65.72,35.09,65.73,35.15,65.75,35.2C65.77,35.31,65.78,35.37,65.79,35.43C65.88,35.86,65.93,36.18,65.96,36.5C65.97,36.58,65.98,36.66,65.98,36.73L69.74,37.96L69.74,37.96L69.69,33.93L69.64,29.81L66.83,31.87Z" fill="#404466"/><path d="M47.72,40.79C49.29,40.06,50.14,38.84,50.1,37.61C50.1,37.59,50.1,37.58,50.1,37.56C50.1,37.52,50.09,37.47,50.09,37.42C50.09,37.41,50.09,37.41,50.09,37.4C50.08,37.35,50.08,37.3,50.07,37.24C50.06,37.23,50.06,37.22,50.06,37.2C50.05,37.16,50.04,37.12,50.03,37.08C50.03,37.06,50.03,37.05,50.02,37.04C50.01,36.99,50,36.93,49.98,36.88C49.98,36.87,49.97,36.86,49.97,36.85C49.96,36.81,49.94,36.77,49.93,36.72C49.92,36.71,49.91,36.7,49.91,36.68C49.89,36.63,49.87,36.58,49.85,36.54C49.84,36.53,49.84,36.53,49.84,36.53C49.82,36.47,49.79,36.42,49.76,36.37C49.76,36.36,49.75,36.35,49.74,36.33C49.72,36.29,49.69,36.25,49.67,36.21C49.66,36.2,49.66,36.19,49.65,36.18C49.62,36.13,49.58,36.08,49.55,36.03C49.54,36.02,49.53,36.01,49.53,36C49.5,35.96,49.47,35.92,49.43,35.88C49.42,35.87,49.41,35.85,49.4,35.84C49.36,35.79,49.32,35.74,49.28,35.7C48.82,35.19,48.21,34.79,47.52,34.51L47.59,40.85C47.64,40.83,47.68,40.81,47.73,40.79Z" fill="#404466"/><path d="M24.68,42.06C24.63,41.94,24.61,41.88,24.58,41.82C24.55,41.73,24.52,41.67,24.5,41.6C24.46,41.48,24.43,41.41,24.41,41.35C24.37,41.21,24.34,41.12,24.31,41.03C24.21,40.68,24.2,40.64,24.19,40.61C24.18,40.57,24.17,40.53,24.16,40.49C24.15,40.46,24.14,40.42,24.13,40.39C24.12,40.33,24.1,40.28,24.09,40.22C24.07,40.14,24.06,40.1,24.06,40.06C24.05,40.03,24.04,40,24.04,39.98C24.02,39.91,24.01,39.85,24,39.79C23.99,39.71,23.98,39.66,23.97,39.61C23.96,39.53,23.95,39.48,23.94,39.43C23.93,39.36,23.92,39.3,23.91,39.24C23.9,39.16,23.89,39.08,23.88,39C23.87,38.88,23.86,38.81,23.86,38.73L23.9,42.89L24.76,42.26C24.74,42.19,24.71,42.12,24.68,42.06Z" fill="#4d7838"/><path d="M71.91,38.67L71.91,38.67C71.91,38.67,69.74,37.96,69.74,37.96L69.64,29.81L69.64,29.81C69.64,29.81,68.55,28.61,68.55,28.61L68.14,28.16L67.82,27.8L67.13,27.05L65.11,24.83L58.95,26.44C58.87,26.39,58.79,26.35,58.71,26.3C58.37,26.09,58.02,25.89,57.55,25.64C57.47,25.6,57.39,25.56,57.26,25.49C57.2,25.46,57.14,25.43,56.78,25.26C56.74,25.23,56.69,25.21,56.43,25.09C56.39,25.07,56.36,25.06,56.31,25.04C55.82,24.81,55.31,24.61,54.8,24.42L54.75,24.4L54.74,23.94L54.67,19.75L51.96,19.35L51.79,19.32L49.2,18.94L46.49,18.54L43.7,22.76C43.58,22.77,43.46,22.77,43.34,22.78C43.27,22.78,43.2,22.79,43.03,22.8C42.94,22.8,42.85,22.81,42.7,22.82C42.63,22.83,42.57,22.83,42.42,22.85C42.38,22.85,42.33,22.86,42.28,22.86C42.16,22.87,42.03,22.89,41.89,22.9C41.8,22.91,41.71,22.92,41.54,22.94C41.47,22.95,41.39,22.96,41.32,22.97C41.26,22.98,41.21,22.98,41.16,22.99C41.1,23,41.05,23,40.89,23.03C40.85,23.03,40.81,23.04,40.7,23.05C40.65,23.06,40.6,23.07,40.41,23.1C39.82,23.19,39.24,23.31,38.67,23.43L33.98,20.21L32.25,21.02L29.28,22.39L26.94,23.47L27.02,29.88C26.91,30.01,26.8,30.14,26.69,30.26C26.61,30.36,26.54,30.45,26.47,30.55C26.43,30.59,26.4,30.63,26.36,30.69C26.33,30.72,26.31,30.75,26.25,30.83L19.7,30.93L18.52,34.82L17.93,36.75L18.09,51.32L20.26,52.05L20.36,60.19L24.89,65.16L29.69,63.91L31.05,63.55C31.14,63.61,31.23,63.67,31.34,63.73C31.44,63.79,31.54,63.85,31.64,63.91C31.7,63.94,31.76,63.98,31.84,64.02C31.9,64.06,31.96,64.09,32.05,64.14C32.1,64.17,32.16,64.2,32.25,64.25C32.31,64.29,32.38,64.32,32.46,64.36C32.53,64.4,32.61,64.44,32.74,64.51C32.8,64.54,32.87,64.57,33.05,64.66C33.09,64.68,33.12,64.69,33.26,64.76C33.3,64.78,33.34,64.8,33.45,64.85C33.48,64.87,33.52,64.88,33.69,64.96C33.77,65,33.86,65.03,33.97,65.08C34.03,65.11,34.09,65.14,34.16,65.16C34.22,65.19,34.27,65.21,34.41,65.27C34.48,65.3,34.54,65.32,34.68,65.38C34.76,65.41,34.84,65.44,34.92,65.47C34.96,65.49,35.01,65.5,35.05,65.52C35.12,65.55,35.19,65.57,35.26,65.6L35.33,70.25L43.52,71.46L44.5,69.96L45.68,68.17L46.3,67.24C46.43,67.23,46.56,67.22,46.71,67.21C46.84,67.21,46.97,67.2,47.11,67.19C47.19,67.18,47.27,67.18,47.36,67.17C47.43,67.16,47.51,67.16,47.61,67.15C47.61,67.15,47.61,67.15,47.62,67.15C47.68,67.14,47.75,67.14,47.85,67.13C47.93,67.12,48,67.11,48.11,67.1C48.2,67.09,48.29,67.08,48.46,67.06C48.53,67.05,48.61,67.04,48.68,67.03C48.74,67.02,48.8,67.02,48.85,67.01C48.89,67,48.93,67,49.08,66.98C49.13,66.97,49.18,66.96,49.3,66.95C49.39,66.93,49.48,66.92,49.59,66.9C49.64,66.89,49.7,66.88,49.75,66.87C49.84,66.86,49.92,66.85,50,66.83C50.03,66.82,50.07,66.82,50.1,66.81C50.2,66.8,50.29,66.78,50.41,66.76C50.53,66.73,50.65,66.71,50.77,66.68C50.86,66.67,50.94,66.65,51.03,66.63C51.07,66.62,51.1,66.61,51.14,66.61C51.21,66.59,51.27,66.58,51.34,66.56L56.02,69.79L59.54,68.16L63.06,66.53L62.99,60.12C63.09,60,63.18,59.89,63.28,59.77C63.4,59.63,63.51,59.49,63.62,59.34C63.67,59.28,63.71,59.22,63.75,59.17L70.3,59.07L70.3,59.07C70.3,59.07,70.89,57.15,70.89,57.15L72.07,53.25L71.91,38.68Z" fill="#555b88"/><path d="M40.52,35.79C40.5,35.81,40.48,35.83,40.46,35.85C40.48,35.83,40.5,35.81,40.52,35.79Z" fill="none" stroke="#ffffff" stroke-width="1" stroke-linecap="butt" stroke-linejoin="miter"/><path d="M40.62,35.67C40.6,35.69,40.58,35.72,40.56,35.74C40.58,35.72,40.6,35.69,40.62,35.67Z" fill="none" stroke="#ffffff" stroke-width="1" stroke-linecap="butt" stroke-linejoin="miter"/><path d="M40.89,35.41C40.85,35.45,40.81,35.48,40.78,35.52C40.81,35.48,40.85,35.45,40.89,35.41Z" fill="none" stroke="#ffffff" stroke-width="1" stroke-linecap="butt" stroke-linejoin="miter"/><path d="M40.74,35.55C40.72,35.58,40.69,35.6,40.67,35.63C40.69,35.6,40.72,35.58,40.74,35.55Z" fill="none" stroke="#ffffff" stroke-width="1" stroke-linecap="butt" stroke-linejoin="miter"/><path d="M40.42,35.9C40.4,35.93,40.38,35.95,40.37,35.97C40.39,35.95,40.4,35.93,40.42,35.9Z" fill="none" stroke="#ffffff" stroke-width="1" stroke-linecap="butt" stroke-linejoin="miter"/><path d="M40,36.57C39.99,36.6,39.97,36.64,39.95,36.68C39.97,36.64,39.99,36.6,40,36.57Z" fill="none" stroke="#ffffff" stroke-width="1" stroke-linecap="butt" stroke-linejoin="miter"/><path d="M41.02,35.31C40.98,35.33,40.95,35.36,40.92,35.39C40.95,35.36,40.98,35.34,41.02,35.31Z" fill="none" stroke="#ffffff" stroke-width="1" stroke-linecap="butt" stroke-linejoin="miter"/><path d="M39.94,36.72C39.92,36.77,39.9,36.82,39.88,36.87C39.9,36.82,39.92,36.77,39.94,36.72Z" fill="none" stroke="#ffffff" stroke-width="1" stroke-linecap="butt" stroke-linejoin="miter"/><path d="M39.88,36.87C39.86,36.92,39.85,36.97,39.84,37.01C39.85,36.97,39.86,36.92,39.88,36.87Z" fill="none" stroke="#ffffff" stroke-width="1" stroke-linecap="butt" stroke-linejoin="miter"/><path d="M40.17,36.26C40.15,36.29,40.13,36.32,40.12,36.35C40.13,36.32,40.15,36.29,40.17,36.26Z" fill="none" stroke="#ffffff" stroke-width="1" stroke-linecap="butt" stroke-linejoin="miter"/><path d="M40.25,36.14C40.23,36.17,40.21,36.19,40.2,36.21C40.21,36.19,40.23,36.17,40.25,36.14Z" fill="none" stroke="#ffffff" stroke-width="1" stroke-linecap="butt" stroke-linejoin="miter"/><path d="M40.33,36.02C40.31,36.04,40.3,36.07,40.28,36.09C40.3,36.07,40.31,36.04,40.33,36.02Z" fill="none" stroke="#ffffff" stroke-width="1" stroke-linecap="butt" stroke-linejoin="miter"/><path d="M41.14,35.21C41.12,35.23,41.09,35.25,41.06,35.27C41.09,35.25,41.12,35.23,41.14,35.21Z" fill="none" stroke="#ffffff" stroke-width="1" stroke-linecap="butt" stroke-linejoin="miter"/><path d="M42.79,34.36C42.77,34.37,42.75,34.38,42.72,34.39C42.75,34.38,42.77,34.37,42.79,34.36Z" fill="none" stroke="#ffffff" stroke-width="1" stroke-linecap="butt" stroke-linejoin="miter"/><path d="M43.47,34.18C43.45,34.19,43.42,34.19,43.4,34.2C43.42,34.19,43.45,34.19,43.47,34.18Z" fill="none" stroke="#ffffff" stroke-width="1" stroke-linecap="butt" stroke-linejoin="miter"/><path d="M42.1,34.63C42.05,34.66,42,34.68,41.95,34.71C42,34.69,42.05,34.66,42.1,34.63Z" fill="none" stroke="#ffffff" stroke-width="1" stroke-linecap="butt" stroke-linejoin="miter"/><path d="M43.13,34.27C43.12,34.27,43.1,34.27,43.09,34.28C43.1,34.27,43.12,34.27,43.13,34.27Z" fill="none" stroke="#ffffff" stroke-width="1" stroke-linecap="butt" stroke-linejoin="miter"/><path d="M42.5,34.47C42.47,34.48,42.44,34.49,42.41,34.51C42.44,34.49,42.47,34.48,42.5,34.47Z" fill="none" stroke="#ffffff" stroke-width="1" stroke-linecap="butt" stroke-linejoin="miter"/><path d="M41.28,35.11C41.25,35.13,41.23,35.15,41.2,35.17C41.23,35.15,41.25,35.13,41.28,35.11Z" fill="none" stroke="#ffffff" stroke-width="1" stroke-linecap="butt" stroke-linejoin="miter"/><path d="M41.42,35.01C41.39,35.03,41.36,35.05,41.34,35.07C41.37,35.05,41.39,35.03,41.42,35.01Z" fill="none" stroke="#ffffff" stroke-width="1" stroke-linecap="butt" stroke-linejoin="miter"/><path d="M41.57,34.92C41.54,34.94,41.51,34.96,41.48,34.97C41.51,34.96,41.54,34.94,41.57,34.92Z" fill="none" stroke="#ffffff" stroke-width="1" stroke-linecap="butt" stroke-linejoin="miter"/><path d="M41.73,34.83C41.69,34.85,41.66,34.86,41.63,34.88C41.66,34.86,41.69,34.85,41.73,34.83Z" fill="none" stroke="#ffffff" stroke-width="1" stroke-linecap="butt" stroke-linejoin="miter"/><path d="M41.89,34.74C41.86,34.76,41.82,34.78,41.79,34.79C41.82,34.78,41.86,34.76,41.89,34.74Z" fill="none" stroke="#ffffff" stroke-width="1" stroke-linecap="butt" stroke-linejoin="miter"/><path d="M43.82,34.12C43.8,34.12,43.78,34.12,43.76,34.13C43.78,34.12,43.8,34.12,43.82,34.12Z" fill="none" stroke="#ffffff" stroke-width="1" stroke-linecap="butt" stroke-linejoin="miter"/><path d="M48.82,52.41C48.85,52.41,48.88,52.4,48.92,52.4C48.97,52.39,49.02,52.39,49.13,52.37C49.15,52.36,49.17,52.36,49.19,52.36C49.17,52.36,49.15,52.36,49.13,52.37C49.02,52.39,48.97,52.39,48.92,52.4C48.88,52.4,48.85,52.41,48.82,52.41Z" fill="none" stroke="#ffffff" stroke-width="1" stroke-linecap="butt" stroke-linejoin="miter"/><path d="M46.13,52.66C46.13,52.66,46.14,52.66,46.14,52.66C46.14,52.66,46.14,52.66,46.13,52.66L45.67,53.36Z" fill="none" stroke="#ffffff" stroke-width="1" stroke-linecap="butt" stroke-linejoin="miter"/><path d="M47.3,52.58C47.33,52.58,47.37,52.58,47.4,52.57C47.37,52.58,47.33,52.58,47.3,52.58Z" fill="none" stroke="#ffffff" stroke-width="1" stroke-linecap="butt" stroke-linejoin="miter"/><path d="M47.45,52.57C47.46,52.57,47.46,52.57,47.47,52.57C47.46,52.57,47.45,52.57,47.44,52.57C47.44,52.57,47.45,52.57,47.45,52.57Z" fill="none" stroke="#ffffff" stroke-width="1" stroke-linecap="butt" stroke-linejoin="miter"/><path d="M46.54,52.64C46.64,52.63,46.74,52.63,46.84,52.62C46.74,52.63,46.64,52.63,46.54,52.64C46.54,52.64,46.54,52.64,46.54,52.64C46.54,52.64,46.54,52.64,46.54,52.64Z" fill="none" stroke="#ffffff" stroke-width="1" stroke-linecap="butt" stroke-linejoin="miter"/><path d="M47.94,52.52C47.95,52.52,47.96,52.52,47.97,52.52C47.96,52.52,47.95,52.52,47.94,52.52C47.9,52.52,47.86,52.53,47.82,52.53C47.86,52.53,47.9,52.53,47.94,52.52Z" fill="none" stroke="#ffffff" stroke-width="1" stroke-linecap="butt" stroke-linejoin="miter"/><path d="M44.34,55.39L45.12,54.19L44.34,55.39L44,55.9Z" fill="none" stroke="#ffffff" stroke-width="1" stroke-linecap="butt" stroke-linejoin="miter"/><path d="M48.74,52.42C48.76,52.42,48.78,52.42,48.82,52.41C48.78,52.42,48.76,52.42,48.74,52.42Z" fill="none" stroke="#ffffff" stroke-width="1" stroke-linecap="butt" stroke-linejoin="miter"/><path d="M47.55,52.56C47.56,52.56,47.56,52.56,47.57,52.56C47.57,52.56,47.56,52.56,47.55,52.56Z" fill="none" stroke="#ffffff" stroke-width="1" stroke-linecap="butt" stroke-linejoin="miter"/><path d="M47.61,52.55C47.62,52.55,47.63,52.55,47.64,52.55C47.63,52.55,47.62,52.55,47.61,52.55Z" fill="none" stroke="#ffffff" stroke-width="1" stroke-linecap="butt" stroke-linejoin="miter"/><path d="M39.82,37.06C39.82,37.09,39.81,37.12,39.8,37.14C39.81,37.12,39.82,37.09,39.82,37.06Z" fill="none" stroke="#ffffff" stroke-width="1" stroke-linecap="butt" stroke-linejoin="miter"/><path d="M47.5,52.57C47.5,52.57,47.5,52.57,47.51,52.57C47.51,52.57,47.5,52.57,47.5,52.57Z" fill="none" stroke="#ffffff" stroke-width="1" stroke-linecap="butt" stroke-linejoin="miter"/><path d="M39.75,37.46C39.74,37.5,39.74,37.54,39.74,37.58C39.74,37.54,39.74,37.5,39.75,37.46Z" fill="none" stroke="#ffffff" stroke-width="1" stroke-linecap="butt" stroke-linejoin="miter"/><path d="M39.74,37.6C39.73,37.71,39.73,37.83,39.74,37.94Z" fill="none" stroke="#ffffff" stroke-width="1" stroke-linecap="butt" stroke-linejoin="miter"/><path d="M39.79,37.2C39.78,37.22,39.78,37.25,39.77,37.28C39.78,37.25,39.78,37.22,39.79,37.2Z" fill="none" stroke="#ffffff" stroke-width="1" stroke-linecap="butt" stroke-linejoin="miter"/><path d="M49.59,52.3C49.65,52.28,49.72,52.27,49.78,52.26C49.72,52.27,49.65,52.28,49.59,52.3C49.54,52.3,49.49,52.31,49.44,52.32C49.49,52.31,49.54,52.3,49.59,52.3Z" fill="none" stroke="#ffffff" stroke-width="1" stroke-linecap="butt" stroke-linejoin="miter"/><path d="M31.86,36.57C32.86,36.54,33.71,36.87,34.19,37.4C33.71,36.87,32.85,36.53,31.88,36.57C31.88,36.57,31.87,36.57,31.86,36.57Z" fill="none" stroke="#ffffff" stroke-width="1" stroke-linecap="butt" stroke-linejoin="miter"/><path d="M39.77,37.33C39.76,37.36,39.76,37.39,39.75,37.42C39.76,37.39,39.76,37.36,39.77,37.33Z" fill="none" stroke="#ffffff" stroke-width="1" stroke-linecap="butt" stroke-linejoin="miter"/><path d="M50.27,52.17L50.27,52.17C50.26,52.17,50.25,52.18,50.24,52.18C50.25,52.18,50.26,52.17,50.27,52.17Z" fill="none" stroke="#ffffff" stroke-width="1" stroke-linecap="butt" stroke-linejoin="miter"/><path d="M31.1,36.69C30.93,36.74,30.76,36.8,30.61,36.86C30.61,36.87,30.61,36.87,30.6,36.87C30.76,36.8,30.93,36.74,31.1,36.69Z" fill="none" stroke="#ffffff" stroke-width="1" stroke-linecap="butt" stroke-linejoin="miter"/><path d="M50.61,52.11C50.69,52.09,50.78,52.07,50.86,52.05C50.66,52.1,50.47,52.14,50.27,52.17L50.27,52.17C50.38,52.15,50.49,52.13,50.61,52.11Z" fill="none" stroke="#ffffff" stroke-width="1" stroke-linecap="butt" stroke-linejoin="miter"/><path d="M29.28,38.52C29.28,38.52,29.42,38.51,29.42,38.51C29.4,38.15,29.52,37.82,29.74,37.53C29.52,37.82,29.4,38.14,29.42,38.49L29.28,38.5Z" fill="none" stroke="#ffffff" stroke-width="1" stroke-linecap="butt" stroke-linejoin="miter"/><path d="M27.39,38.59L27.38,38.58L23.86,38.73Z" fill="none" stroke="#ffffff" stroke-width="1" stroke-linecap="butt" stroke-linejoin="miter"/><path d="M40.1,36.38C40.07,36.43,40.05,36.48,40.02,36.53C40.05,36.48,40.07,36.43,40.1,36.38Z" fill="none" stroke="#ffffff" stroke-width="1" stroke-linecap="butt" stroke-linejoin="miter"/><path d="M51.81,31.37C52.05,31.32,52.28,31.24,52.49,31.15C52.49,31.15,52.49,31.14,52.5,31.14C52.28,31.24,52.05,31.31,51.81,31.37Z" fill="none" stroke="#ffffff" stroke-width="1" stroke-linecap="butt" stroke-linejoin="miter"/><path d="M49.76,36.37C49.76,36.36,49.75,36.35,49.74,36.33C49.75,36.35,49.76,36.36,49.76,36.37Z" fill="none" stroke="#ffffff" stroke-width="1" stroke-linecap="butt" stroke-linejoin="miter"/><path d="M49.92,36.72C49.92,36.71,49.91,36.7,49.91,36.68C49.91,36.7,49.92,36.71,49.92,36.72Z" fill="none" stroke="#ffffff" stroke-width="1" stroke-linecap="butt" stroke-linejoin="miter"/><path d="M49.84,36.54C49.84,36.53,49.84,36.53,49.84,36.53C49.84,36.53,49.84,36.53,49.84,36.54Z" fill="none" stroke="#ffffff" stroke-width="1" stroke-linecap="butt" stroke-linejoin="miter"/><path d="M49.43,35.88C49.42,35.86,49.41,35.85,49.4,35.84C49.41,35.85,49.42,35.86,49.43,35.88Z" fill="none" stroke="#ffffff" stroke-width="1" stroke-linecap="butt" stroke-linejoin="miter"/><path d="M49.67,36.21C49.66,36.2,49.65,36.19,49.65,36.18C49.66,36.19,49.66,36.2,49.67,36.21Z" fill="none" stroke="#ffffff" stroke-width="1" stroke-linecap="butt" stroke-linejoin="miter"/><path d="M49.55,36.03C49.54,36.02,49.53,36.01,49.52,36C49.53,36.01,49.54,36.02,49.55,36.03Z" fill="none" stroke="#ffffff" stroke-width="1" stroke-linecap="butt" stroke-linejoin="miter"/><path d="M49.98,36.88C49.98,36.87,49.97,36.86,49.97,36.85C49.97,36.86,49.98,36.87,49.98,36.88Z" fill="none" stroke="#ffffff" stroke-width="1" stroke-linecap="butt" stroke-linejoin="miter"/><path d="M44.16,34.07C44.15,34.07,44.13,34.08,44.12,34.08C44.13,34.08,44.15,34.07,44.16,34.07Z" fill="none" stroke="#ffffff" stroke-width="1" stroke-linecap="butt" stroke-linejoin="miter"/><path d="M30.88,48.98L30.88,48.98L29.52,49.33L24.86,50.55L24.86,50.55L29.52,49.33Z" fill="none" stroke="#ffffff" stroke-width="1" stroke-linecap="butt" stroke-linejoin="miter"/><path d="M50.03,37.08C50.03,37.06,50.03,37.05,50.02,37.04C50.03,37.05,50.03,37.06,50.03,37.08Z" fill="none" stroke="#ffffff" stroke-width="1" stroke-linecap="butt" stroke-linejoin="miter"/><path d="M50.1,37.61C50.1,37.59,50.1,37.58,50.1,37.56C50.1,37.58,50.1,37.59,50.1,37.61Z" fill="none" stroke="#ffffff" stroke-width="1" stroke-linecap="butt" stroke-linejoin="miter"/><path d="M50.07,37.24C50.06,37.23,50.06,37.22,50.06,37.2C50.06,37.22,50.06,37.23,50.07,37.24Z" fill="none" stroke="#ffffff" stroke-width="1" stroke-linecap="butt" stroke-linejoin="miter"/><path d="M50.09,37.42C50.09,37.41,50.09,37.41,50.09,37.4C50.09,37.41,50.09,37.41,50.09,37.42Z" fill="none" stroke="#ffffff" stroke-width="1" stroke-linecap="butt" stroke-linejoin="miter"/><path d="M46.9,34.3C46.88,34.29,46.87,34.29,46.85,34.29C46.87,34.29,46.88,34.29,46.9,34.3Z" fill="none" stroke="#ffffff" stroke-width="1" stroke-linecap="butt" stroke-linejoin="miter"/><path d="M45.56,34.06C45.54,34.05,45.53,34.05,45.51,34.05C45.53,34.05,45.54,34.05,45.56,34.06Z" fill="none" stroke="#ffffff" stroke-width="1" stroke-linecap="butt" stroke-linejoin="miter"/><path d="M45.92,34.1C45.9,34.09,45.88,34.09,45.86,34.09C45.88,34.09,45.9,34.09,45.92,34.1Z" fill="none" stroke="#ffffff" stroke-width="1" stroke-linecap="butt" stroke-linejoin="miter"/><path d="M53.38,30.45C53.24,30.64,53.07,30.8,52.88,30.92C53.07,30.79,53.24,30.64,53.37,30.47C53.37,30.47,53.38,30.46,53.38,30.45Z" fill="none" stroke="#ffffff" stroke-width="1" stroke-linecap="butt" stroke-linejoin="miter"/><path d="M44.84,34.03C44.84,34.03,44.83,34.03,44.82,34.03C44.83,34.03,44.84,34.03,44.84,34.03Z" fill="none" stroke="#ffffff" stroke-width="1" stroke-linecap="butt" stroke-linejoin="miter"/><path d="M44.5,34.04C44.49,34.04,44.49,34.04,44.48,34.04C44.48,34.04,44.49,34.04,44.5,34.04Z" fill="none" stroke="#ffffff" stroke-width="1" stroke-linecap="butt" stroke-linejoin="miter"/><path d="M46.24,34.15C46.22,34.14,46.2,34.14,46.18,34.13C46.2,34.14,46.22,34.14,46.24,34.15Z" fill="none" stroke="#ffffff" stroke-width="1" stroke-linecap="butt" stroke-linejoin="miter"/><path d="M45.2,34.03C45.19,34.03,45.17,34.03,45.16,34.03C45.17,34.03,45.19,34.03,45.2,34.03Z" fill="none" stroke="#ffffff" stroke-width="1" stroke-linecap="butt" stroke-linejoin="miter"/><path d="M46.6,34.22C46.58,34.22,46.56,34.21,46.54,34.21C46.56,34.21,46.58,34.22,46.6,34.22Z" fill="none" stroke="#ffffff" stroke-width="1" stroke-linecap="butt" stroke-linejoin="miter"/><path d="M52.88,30.93C52.87,30.94,52.85,30.94,52.84,30.95C52.85,30.94,52.87,30.94,52.88,30.93Z" fill="none" stroke="#ffffff" stroke-width="1" stroke-linecap="butt" stroke-linejoin="miter"/><path d="M47.52,34.51L47.59,40.85L47.59,40.85L47.52,34.51L47.51,34.51Z" fill="none" stroke="#ffffff" stroke-width="1" stroke-linecap="butt" stroke-linejoin="miter"/><path d="M47.24,34.41C47.22,34.4,47.2,34.39,47.18,34.39C47.2,34.39,47.22,34.4,47.24,34.41Z" fill="none" stroke="#ffffff" stroke-width="1" stroke-linecap="butt" stroke-linejoin="miter"/><path d="M27.32,29.55C27.4,29.46,27.44,29.41,27.49,29.37C27.52,29.33,27.55,29.3,27.59,29.27C27.7,29.15,27.72,29.13,27.75,29.1C27.9,28.95,27.96,28.89,28.01,28.84C28.08,28.78,28.13,28.73,28.18,28.69C28.27,28.61,28.3,28.57,28.34,28.54C28.43,28.46,28.47,28.42,28.51,28.39C28.61,28.3,28.66,28.25,28.72,28.21C28.79,28.14,28.86,28.09,28.92,28.03C29.01,27.96,29.09,27.9,29.17,27.83L26.94,23.47L27.02,29.89C27.06,29.83,27.11,29.78,27.16,29.72C27.22,29.66,27.27,29.6,27.32,29.55Z" fill="#f3ac24"/><path d="M27.39,38.59L29.29,38.52L29.28,38.5L27.38,38.58Z" fill="#7c6832"/><path d="M65.07,33.16C65.11,33.26,65.16,33.36,65.2,33.47C65.26,33.62,65.32,33.77,65.37,33.92C65.38,33.95,65.39,33.98,65.4,34.01C65.41,34.03,65.42,34.06,65.43,34.09C65.47,34.2,65.5,34.3,65.53,34.4C65.55,34.45,65.56,34.49,65.57,34.54C65.62,34.71,65.64,34.76,65.65,34.81C65.72,35.09,65.73,35.15,65.75,35.2C65.77,35.31,65.78,35.37,65.8,35.43C65.88,35.86,65.93,36.18,65.96,36.5C65.97,36.58,65.98,36.66,65.98,36.73L69.74,37.96L69.64,29.81L66.83,31.87L65.07,33.16Z" fill="#3c4060"/><path d="M50.27,52.17C50.27,52.17,50.27,52.17,50.27,52.17L50.27,52.17C50.27,52.17,50.27,52.17,50.27,52.17Z" fill="#2c2f47"/><path d="M50.1,37.61C50.1,37.59,50.1,37.58,50.1,37.56C50.1,37.52,50.09,37.47,50.09,37.42C50.09,37.41,50.09,37.41,50.09,37.4C50.08,37.35,50.08,37.3,50.07,37.24C50.06,37.23,50.06,37.22,50.06,37.2C50.05,37.16,50.04,37.12,50.03,37.08C50.03,37.06,50.03,37.05,50.02,37.04C50.01,36.99,50,36.93,49.98,36.88C49.98,36.87,49.97,36.86,49.97,36.85C49.96,36.81,49.94,36.77,49.93,36.72C49.92,36.71,49.91,36.7,49.91,36.68C49.89,36.63,49.87,36.58,49.85,36.54C49.84,36.53,49.84,36.53,49.84,36.53C49.82,36.47,49.79,36.42,49.76,36.37C49.76,36.36,49.75,36.35,49.74,36.33C49.72,36.29,49.69,36.25,49.67,36.21C49.66,36.2,49.66,36.19,49.65,36.18C49.62,36.13,49.58,36.08,49.55,36.03C49.54,36.02,49.53,36.01,49.53,36C49.5,35.96,49.47,35.92,49.43,35.88C49.42,35.87,49.41,35.85,49.4,35.84C49.36,35.79,49.32,35.74,49.28,35.7C48.82,35.19,48.21,34.79,47.52,34.51L47.59,40.85C47.64,40.83,47.68,40.81,47.73,40.79C49.3,40.06,50.14,38.84,50.1,37.61Z" fill="#2c2f47"/><path d="M47.51,34.51C47.42,34.47,47.33,34.44,47.24,34.41C47.22,34.4,47.2,34.39,47.18,34.39C47.09,34.35,46.99,34.33,46.9,34.3C46.88,34.29,46.87,34.29,46.85,34.28C46.77,34.26,46.68,34.24,46.6,34.22C46.58,34.21,46.56,34.21,46.54,34.2C46.44,34.18,46.34,34.16,46.24,34.14C46.22,34.14,46.2,34.14,46.18,34.13C46.09,34.12,46.01,34.11,45.92,34.09C45.9,34.09,45.88,34.09,45.86,34.08C45.76,34.07,45.66,34.06,45.56,34.05C45.54,34.05,45.53,34.05,45.51,34.05C45.41,34.04,45.3,34.04,45.2,34.03C45.19,34.03,45.17,34.03,45.16,34.03C45.05,34.03,44.95,34.03,44.84,34.03C44.84,34.03,44.83,34.03,44.82,34.03C44.72,34.03,44.61,34.04,44.5,34.04C44.49,34.04,44.49,34.04,44.48,34.04C44.38,34.05,44.27,34.06,44.16,34.07C44.15,34.07,44.14,34.07,44.12,34.08C44.02,34.09,43.92,34.1,43.82,34.12C43.8,34.12,43.78,34.12,43.76,34.13C43.66,34.14,43.57,34.16,43.47,34.18C43.45,34.19,43.42,34.19,43.4,34.2C43.31,34.22,43.22,34.24,43.13,34.26C43.12,34.27,43.1,34.27,43.09,34.28C42.99,34.3,42.89,34.33,42.79,34.36C42.77,34.37,42.75,34.38,42.72,34.39C42.65,34.41,42.58,34.44,42.5,34.47C42.47,34.48,42.44,34.49,42.41,34.51C42.31,34.55,42.21,34.59,42.11,34.63C42.11,34.63,42.11,34.63,42.11,34.63C42.05,34.66,42,34.68,41.95,34.71C41.93,34.72,41.91,34.73,41.89,34.74C41.86,34.76,41.82,34.78,41.79,34.8C41.77,34.81,41.75,34.82,41.72,34.83C41.69,34.85,41.66,34.87,41.63,34.88C41.61,34.9,41.59,34.91,41.57,34.92C41.54,34.94,41.51,34.96,41.48,34.97C41.46,34.99,41.44,35,41.42,35.01C41.39,35.03,41.36,35.05,41.34,35.07C41.32,35.08,41.3,35.1,41.28,35.11C41.25,35.13,41.22,35.15,41.2,35.17C41.18,35.18,41.16,35.2,41.14,35.21C41.12,35.23,41.09,35.25,41.06,35.27C41.05,35.29,41.03,35.3,41.01,35.31C40.98,35.34,40.95,35.36,40.92,35.39C40.91,35.4,40.9,35.41,40.89,35.41C40.85,35.45,40.81,35.49,40.77,35.52C40.76,35.53,40.75,35.54,40.74,35.55C40.71,35.58,40.69,35.6,40.66,35.63C40.65,35.64,40.64,35.66,40.62,35.67C40.6,35.7,40.58,35.72,40.56,35.74C40.54,35.76,40.53,35.77,40.52,35.79C40.5,35.81,40.48,35.83,40.46,35.86C40.45,35.87,40.43,35.89,40.42,35.91C40.4,35.93,40.38,35.95,40.37,35.97C40.35,35.99,40.34,36.01,40.33,36.02C40.31,36.05,40.3,36.07,40.28,36.09C40.27,36.11,40.26,36.13,40.24,36.14C40.23,36.17,40.21,36.19,40.2,36.22C40.19,36.23,40.18,36.25,40.17,36.27C40.15,36.29,40.13,36.32,40.12,36.35C40.11,36.36,40.1,36.37,40.09,36.39C40.07,36.43,40.04,36.48,40.02,36.53C40.01,36.54,40.01,36.56,40,36.57C39.99,36.61,39.97,36.64,39.95,36.68C39.95,36.69,39.94,36.71,39.94,36.72C39.92,36.77,39.9,36.82,39.88,36.87C39.88,36.87,39.88,36.87,39.88,36.88C39.86,36.92,39.85,36.97,39.84,37.02C39.83,37.03,39.83,37.05,39.82,37.07C39.82,37.09,39.81,37.12,39.8,37.15C39.8,37.16,39.79,37.18,39.79,37.2C39.78,37.23,39.78,37.25,39.77,37.28C39.77,37.3,39.77,37.32,39.77,37.33C39.76,37.36,39.76,37.39,39.75,37.42C39.75,37.44,39.75,37.45,39.75,37.47C39.74,37.51,39.74,37.54,39.74,37.58C39.74,37.59,39.74,37.59,39.74,37.6L39.74,37.95C39.75,38,39.75,38.05,39.76,38.1C39.83,38.67,40.1,39.22,40.56,39.73C42.08,41.4,45.2,41.89,47.59,40.85L47.52,34.51C47.52,34.51,47.52,34.51,47.52,34.51Z" fill="#f3ac24"/><path d="M63.46,44.76C63.34,44.91,63.23,45.05,63.11,45.19C62.99,45.34,62.87,45.48,62.75,45.62C62.72,45.66,62.7,45.68,62.68,45.7C62.43,45.97,62.39,46.01,62.35,46.06C62.31,46.1,62.28,46.13,62.25,46.16C62.23,46.18,62.21,46.2,62.19,46.22C62.12,46.29,62.08,46.33,62.03,46.38C61.93,46.47,61.88,46.53,61.82,46.58C61.76,46.64,61.71,46.69,61.67,46.73C61.6,46.79,61.56,46.83,61.51,46.87C61.45,46.93,61.4,46.97,61.36,47.01C61.3,47.06,61.25,47.1,61.2,47.15C61.11,47.22,61.03,47.3,60.94,47.37C60.84,47.45,60.76,47.52,60.67,47.59L62.89,51.95L62.98,60.12C63.08,60,63.18,59.89,63.28,59.77C63.39,59.63,63.51,59.48,63.62,59.34C63.66,59.28,63.71,59.22,63.75,59.16L63.59,44.59C63.54,44.65,63.5,44.7,63.46,44.76Z" fill="#2c2f47"/><path d="M53.4,30.44C53.39,30.44,53.39,30.45,53.38,30.45C53.38,30.46,53.37,30.47,53.37,30.47C53.24,30.64,53.07,30.79,52.88,30.92C52.88,30.93,52.88,30.93,52.88,30.93C52.86,30.94,52.85,30.94,52.84,30.95C52.73,31.02,52.62,31.08,52.5,31.14C52.5,31.14,52.5,31.14,52.5,31.14C52.49,31.14,52.49,31.14,52.49,31.15C52.28,31.24,52.05,31.31,51.81,31.36C51.22,31.49,50.57,31.47,49.98,31.27L47.52,34.51C48.21,34.79,48.82,35.19,49.28,35.69C49.32,35.74,49.36,35.79,49.4,35.84C49.41,35.85,49.42,35.87,49.43,35.88C49.46,35.92,49.49,35.96,49.52,36C49.53,36.01,49.54,36.02,49.55,36.03C49.58,36.08,49.61,36.13,49.65,36.18C49.65,36.19,49.66,36.2,49.67,36.21C49.69,36.25,49.72,36.29,49.74,36.33C49.75,36.34,49.75,36.36,49.76,36.37C49.79,36.42,49.82,36.47,49.84,36.52C49.84,36.53,49.84,36.53,49.84,36.54C49.87,36.58,49.89,36.63,49.91,36.68C49.91,36.69,49.92,36.71,49.92,36.72C49.94,36.77,49.95,36.81,49.97,36.85C49.97,36.86,49.98,36.87,49.98,36.88C50,36.93,50.01,36.99,50.02,37.04C50.03,37.05,50.03,37.06,50.03,37.08C50.04,37.12,50.05,37.16,50.06,37.2C50.06,37.22,50.06,37.23,50.06,37.24C50.07,37.3,50.08,37.35,50.09,37.4C50.09,37.41,50.09,37.41,50.09,37.42C50.09,37.47,50.1,37.51,50.1,37.56C50.1,37.58,50.1,37.59,50.1,37.61C50.13,38.84,49.29,40.06,47.72,40.79L50.75,44.12C49.55,44.68,49.2,45.82,49.98,46.67C50.75,47.52,52.36,47.76,53.56,47.2L59.37,53.58L62.89,51.95L60.67,47.59C60.76,47.52,60.84,47.45,60.94,47.37C61.02,47.29,61.11,47.22,61.2,47.14C61.25,47.1,61.3,47.06,61.36,47.01C61.4,46.97,61.45,46.92,61.51,46.87C61.55,46.83,61.6,46.79,61.67,46.73C61.71,46.68,61.76,46.64,61.82,46.58C61.88,46.53,61.93,46.47,62.03,46.37C62.08,46.33,62.12,46.29,62.18,46.22C62.21,46.2,62.23,46.18,62.25,46.15C62.28,46.12,62.31,46.09,62.35,46.05C62.39,46.01,62.43,45.96,62.68,45.7C62.7,45.68,62.71,45.65,62.75,45.62C62.87,45.48,62.99,45.34,63.11,45.19C63.23,45.05,63.34,44.9,63.46,44.76C63.5,44.7,63.54,44.64,63.59,44.58L70.13,44.49L70.72,42.56L71.91,38.67L71.91,38.67C71.91,38.67,71.91,38.67,71.91,38.67L69.73,37.96L65.98,36.73C65.97,36.65,65.97,36.57,65.96,36.5C65.93,36.18,65.88,35.86,65.79,35.42C65.78,35.36,65.77,35.3,65.74,35.19C65.73,35.14,65.72,35.09,65.65,34.81C65.63,34.76,65.62,34.71,65.57,34.53C65.56,34.49,65.55,34.45,65.53,34.39C65.5,34.29,65.47,34.19,65.43,34.08C65.42,34.05,65.41,34.03,65.4,34C65.39,33.98,65.38,33.95,65.37,33.92C65.32,33.77,65.26,33.61,65.2,33.46C65.16,33.36,65.11,33.26,65.07,33.16L66.83,31.87L69.64,29.8L69.64,29.8C69.64,29.8,68.55,28.61,68.55,28.61L68.14,28.16L67.82,27.8L67.13,27.05L65.11,24.83L58.95,26.44C58.87,26.39,58.79,26.34,58.71,26.29C58.37,26.08,58.01,25.88,57.54,25.63C57.47,25.59,57.39,25.55,57.26,25.49C57.2,25.46,57.13,25.42,56.78,25.25C56.73,25.23,56.69,25.21,56.43,25.09C56.39,25.07,56.36,25.05,56.31,25.03C55.81,24.81,55.31,24.61,54.8,24.42L52.28,27.96C52.7,28.11,53.04,28.33,53.27,28.59C53.76,29.12,53.84,29.82,53.39,30.43Z" fill="#555b88"/><path d="M27.38,38.58L29.29,38.5L29.42,38.49C29.4,38.14,29.52,37.82,29.74,37.53C29.95,37.27,30.24,37.04,30.59,36.87C30.6,36.87,30.6,36.87,30.6,36.87C30.61,36.87,30.61,36.87,30.62,36.86C30.77,36.79,30.93,36.74,31.1,36.69C31.33,36.63,31.58,36.59,31.83,36.57C31.84,36.57,31.85,36.57,31.86,36.57C31.87,36.57,31.88,36.57,31.89,36.57C32.85,36.53,33.71,36.87,34.19,37.4C34.43,37.66,34.58,37.97,34.6,38.3L39.76,38.1C39.75,38.05,39.75,37.99,39.74,37.94C39.73,37.83,39.73,37.71,39.74,37.6C39.74,37.59,39.74,37.59,39.74,37.58C39.74,37.54,39.74,37.5,39.75,37.46C39.75,37.45,39.75,37.43,39.75,37.42C39.76,37.39,39.76,37.36,39.77,37.33C39.77,37.31,39.77,37.3,39.78,37.28C39.78,37.25,39.79,37.22,39.79,37.2C39.79,37.18,39.8,37.16,39.8,37.14C39.81,37.12,39.82,37.09,39.82,37.06C39.83,37.05,39.83,37.03,39.84,37.01C39.85,36.97,39.86,36.92,39.88,36.87C39.88,36.87,39.88,36.87,39.88,36.87C39.9,36.82,39.92,36.77,39.94,36.72C39.94,36.7,39.95,36.69,39.95,36.68C39.97,36.64,39.99,36.6,40,36.57C40.01,36.55,40.02,36.54,40.02,36.53C40.05,36.48,40.07,36.43,40.1,36.38C40.1,36.37,40.11,36.36,40.12,36.35C40.13,36.32,40.15,36.29,40.17,36.26C40.18,36.25,40.19,36.23,40.2,36.21C40.21,36.19,40.23,36.17,40.25,36.14C40.26,36.12,40.27,36.11,40.28,36.09C40.3,36.07,40.31,36.04,40.33,36.02C40.34,36,40.36,35.99,40.37,35.97C40.39,35.95,40.4,35.93,40.42,35.9C40.43,35.89,40.45,35.87,40.46,35.85C40.48,35.83,40.5,35.81,40.52,35.79C40.53,35.77,40.55,35.76,40.56,35.74C40.58,35.72,40.6,35.69,40.62,35.67C40.64,35.66,40.65,35.64,40.66,35.63C40.69,35.6,40.72,35.58,40.74,35.55C40.75,35.54,40.76,35.53,40.78,35.52C40.81,35.48,40.85,35.45,40.89,35.41C40.9,35.4,40.91,35.4,40.92,35.39C40.95,35.36,40.98,35.33,41.02,35.31C41.03,35.29,41.05,35.28,41.06,35.27C41.09,35.25,41.12,35.23,41.14,35.21C41.16,35.19,41.18,35.18,41.2,35.17C41.23,35.15,41.25,35.13,41.28,35.11C41.3,35.09,41.32,35.08,41.34,35.07C41.37,35.05,41.39,35.03,41.42,35.01C41.44,35,41.46,34.98,41.48,34.97C41.51,34.95,41.54,34.94,41.57,34.92C41.59,34.91,41.61,34.89,41.63,34.88C41.66,34.86,41.69,34.84,41.73,34.83C41.75,34.82,41.77,34.8,41.79,34.79C41.82,34.77,41.86,34.76,41.89,34.74C41.91,34.73,41.93,34.72,41.95,34.71C42,34.68,42.05,34.66,42.11,34.63C42.11,34.63,42.11,34.63,42.11,34.63C42.21,34.58,42.31,34.54,42.41,34.5C42.44,34.49,42.47,34.48,42.5,34.47C42.58,34.44,42.65,34.41,42.73,34.38C42.75,34.38,42.77,34.37,42.79,34.36C42.89,34.33,42.99,34.3,43.09,34.27C43.1,34.27,43.12,34.26,43.13,34.26C43.22,34.24,43.31,34.22,43.4,34.2C43.42,34.19,43.45,34.19,43.47,34.18C43.57,34.16,43.67,34.14,43.76,34.12C43.78,34.12,43.8,34.12,43.82,34.11C43.92,34.1,44.02,34.08,44.12,34.07C44.14,34.07,44.15,34.07,44.16,34.07C44.27,34.06,44.38,34.05,44.48,34.04C44.49,34.04,44.49,34.04,44.5,34.04C44.61,34.03,44.72,34.03,44.83,34.03C44.83,34.03,44.84,34.03,44.84,34.03C44.95,34.02,45.05,34.03,45.16,34.03C45.17,34.03,45.19,34.03,45.2,34.03C45.31,34.03,45.41,34.04,45.51,34.05C45.53,34.05,45.54,34.05,45.56,34.05C45.66,34.06,45.76,34.07,45.86,34.08C45.88,34.08,45.9,34.09,45.92,34.09C46.01,34.1,46.1,34.11,46.18,34.13C46.2,34.13,46.22,34.14,46.24,34.14C46.34,34.16,46.44,34.18,46.54,34.2C46.56,34.21,46.58,34.21,46.6,34.22C46.68,34.24,46.77,34.26,46.85,34.28C46.87,34.29,46.88,34.29,46.9,34.29C47,34.32,47.09,34.35,47.18,34.38C47.2,34.39,47.22,34.4,47.24,34.4C47.33,34.44,47.43,34.47,47.52,34.51C47.52,34.51,47.52,34.51,47.52,34.51L49.98,31.27C50.57,31.46,51.22,31.49,51.81,31.36C52.05,31.31,52.28,31.24,52.5,31.14C52.5,31.14,52.5,31.14,52.5,31.14C52.62,31.08,52.73,31.02,52.84,30.95C52.85,30.94,52.86,30.93,52.88,30.92C52.88,30.92,52.88,30.92,52.88,30.92C53.07,30.79,53.24,30.64,53.38,30.45C53.39,30.44,53.39,30.44,53.4,30.43C53.84,29.82,53.76,29.12,53.27,28.59C53.04,28.33,52.7,28.11,52.25,27.95L54.75,24.4L54.74,23.94L54.67,19.75L51.96,19.35L51.79,19.32L49.2,18.94L46.49,18.53L43.7,22.76C43.58,22.76,43.46,22.77,43.34,22.78C43.27,22.78,43.2,22.79,43.02,22.8C42.94,22.8,42.85,22.81,42.69,22.82C42.63,22.83,42.57,22.83,42.42,22.85C42.37,22.85,42.33,22.85,42.28,22.86C42.15,22.87,42.03,22.88,41.89,22.9C41.8,22.91,41.71,22.92,41.54,22.94C41.47,22.95,41.39,22.96,41.31,22.97C41.26,22.97,41.21,22.98,41.16,22.99C41.1,22.99,41.05,23,40.89,23.02C40.85,23.03,40.81,23.04,40.7,23.05C40.65,23.06,40.6,23.07,40.41,23.1C39.82,23.19,39.24,23.3,38.67,23.43L33.98,20.21L32.24,21.02L29.27,22.39L26.94,23.47L29.16,27.83C29.08,27.89,29,27.96,28.92,28.03C28.85,28.08,28.79,28.14,28.72,28.2C28.66,28.25,28.61,28.29,28.51,28.38C28.47,28.41,28.43,28.45,28.34,28.53C28.3,28.57,28.26,28.6,28.18,28.68C28.13,28.73,28.07,28.78,28.01,28.84C27.96,28.89,27.9,28.94,27.75,29.09C27.72,29.12,27.7,29.15,27.58,29.26C27.55,29.29,27.52,29.33,27.49,29.36C27.44,29.41,27.4,29.45,27.32,29.54C27.26,29.6,27.21,29.65,27.15,29.72C27.11,29.77,27.06,29.83,27.01,29.88C26.9,30.01,26.79,30.13,26.69,30.26C26.61,30.35,26.54,30.45,26.46,30.54C26.43,30.59,26.4,30.63,26.35,30.69C26.33,30.72,26.31,30.75,26.25,30.83L19.7,30.92L18.51,34.81L17.93,36.74L23.86,38.73L27.38,38.57Z" fill="#f7cf64"/><path d="M23.86,38.73L17.93,36.75L18.09,51.32L20.26,52.05L20.19,45.61L23.91,42.89Z" fill="#f3ac24"/><path d="M24.77,42.26C24.74,42.19,24.71,42.13,24.68,42.06C24.63,41.94,24.61,41.88,24.58,41.82C24.55,41.73,24.52,41.66,24.5,41.6C24.46,41.48,24.43,41.41,24.41,41.35C24.37,41.21,24.34,41.12,24.31,41.02C24.21,40.68,24.2,40.64,24.19,40.61C24.18,40.57,24.17,40.53,24.16,40.49C24.15,40.46,24.14,40.42,24.13,40.39C24.12,40.33,24.1,40.27,24.09,40.22C24.07,40.14,24.06,40.1,24.06,40.06C24.05,40.03,24.04,40,24.04,39.97C24.02,39.91,24.01,39.85,24,39.79C23.99,39.71,23.98,39.66,23.97,39.61C23.96,39.53,23.95,39.48,23.94,39.42C23.93,39.35,23.92,39.3,23.91,39.24C23.9,39.16,23.89,39.08,23.88,39C23.87,38.88,23.86,38.81,23.86,38.73L23.9,42.89L24.76,42.26Z" fill="#456b32"/><path d="M24.86,50.55L24.72,50.59L24.79,56.5L24.79,56.5L24.72,50.59L24.86,50.55Z" fill="#385222"/><path d="M70.72,42.57L70.13,44.49L70.13,44.49L70.3,59.07L70.89,57.14L72.07,53.25L71.91,38.67L71.91,38.67Z" fill="#2c2f47"/><path d="M63.59,44.59L63.75,59.16L70.3,59.07L70.3,59.07L70.3,59.07L70.3,59.07L70.13,44.49L70.13,44.49Z" fill="#363a56"/><path d="M20.26,52.05L20.36,60.19L24.89,65.16L24.79,56.5L24.72,50.59L20.19,45.61Z" fill="#456b32"/><path d="M29.52,49.33L24.86,50.55L24.72,50.59L24.79,56.5L24.89,65.16L29.69,63.91L31.05,63.55L31.05,63.55L30.88,48.98Z" fill="#6c9d41"/><path d="M34.52,50.8C34.37,50.75,34.31,50.72,34.24,50.69C34.11,50.64,34.05,50.61,33.99,50.59C33.93,50.56,33.86,50.53,33.8,50.51C33.69,50.46,33.61,50.42,33.53,50.39C33.35,50.31,33.31,50.29,33.28,50.27C33.18,50.23,33.13,50.21,33.09,50.18C32.95,50.12,32.92,50.1,32.89,50.09C32.7,49.99,32.64,49.96,32.58,49.93C32.44,49.86,32.36,49.83,32.29,49.79C32.21,49.75,32.15,49.71,32.08,49.67C31.99,49.62,31.93,49.59,31.88,49.56C31.79,49.52,31.73,49.48,31.67,49.45C31.6,49.41,31.53,49.37,31.47,49.33C31.37,49.27,31.27,49.22,31.18,49.16C31.07,49.09,30.97,49.03,30.88,48.98L30.88,48.98C30.88,48.98,31.04,63.55,31.04,63.55L31.04,63.55C31.14,63.61,31.23,63.67,31.34,63.74C31.44,63.79,31.53,63.85,31.63,63.91C31.7,63.95,31.76,63.98,31.84,64.03C31.9,64.06,31.96,64.09,32.04,64.14C32.1,64.17,32.15,64.2,32.24,64.25C32.31,64.29,32.38,64.32,32.45,64.36C32.53,64.4,32.6,64.44,32.74,64.51C32.8,64.54,32.86,64.57,33.05,64.66C33.08,64.68,33.12,64.7,33.25,64.76C33.3,64.78,33.34,64.8,33.44,64.85C33.48,64.87,33.51,64.88,33.69,64.96C33.77,65,33.85,65.04,33.96,65.08C34.03,65.11,34.09,65.14,34.16,65.17C34.21,65.19,34.27,65.21,34.41,65.27C34.47,65.3,34.54,65.32,34.68,65.38C34.76,65.41,34.84,65.44,34.92,65.47C34.96,65.49,35,65.51,35.04,65.52C35.11,65.55,35.18,65.57,35.25,65.6L35.09,51.02C35.02,51,34.95,50.97,34.88,50.94C34.84,50.93,34.8,50.91,34.75,50.9C34.67,50.87,34.6,50.84,34.52,50.8Z" fill="#456b32"/><path d="M50.98,52.03C50.94,52.04,50.9,52.04,50.86,52.05C50.86,52.05,50.86,52.05,50.86,52.05C50.78,52.07,50.69,52.09,50.61,52.1C50.5,52.13,50.38,52.15,50.27,52.17C50.27,52.17,50.27,52.17,50.27,52.17C50.26,52.17,50.25,52.18,50.24,52.18C50.24,52.18,50.24,52.18,50.24,52.18C50.12,52.2,50.03,52.22,49.94,52.23C49.9,52.24,49.87,52.25,49.83,52.25C49.82,52.26,49.8,52.26,49.78,52.26C49.72,52.27,49.66,52.28,49.59,52.29C49.54,52.3,49.49,52.31,49.44,52.32C49.44,52.32,49.43,52.32,49.42,52.32C49.34,52.34,49.27,52.35,49.2,52.36C49.18,52.36,49.16,52.36,49.14,52.37C49.02,52.38,48.97,52.39,48.92,52.4C48.88,52.4,48.85,52.41,48.83,52.41C48.79,52.42,48.76,52.42,48.74,52.42C48.72,52.43,48.7,52.43,48.69,52.43C48.63,52.44,48.58,52.45,48.52,52.45C48.44,52.46,48.37,52.47,48.29,52.48C48.14,52.5,48.05,52.51,47.97,52.52C47.96,52.52,47.95,52.52,47.95,52.52C47.9,52.52,47.86,52.53,47.83,52.53C47.78,52.54,47.73,52.54,47.69,52.55C47.67,52.55,47.66,52.55,47.64,52.55C47.63,52.55,47.62,52.55,47.62,52.55C47.6,52.56,47.58,52.56,47.57,52.56C47.56,52.56,47.56,52.56,47.56,52.56C47.54,52.56,47.52,52.56,47.51,52.56C47.51,52.56,47.5,52.56,47.5,52.56C47.49,52.56,47.48,52.57,47.47,52.57C47.46,52.57,47.46,52.57,47.45,52.57C47.45,52.57,47.45,52.57,47.44,52.57C47.44,52.57,47.44,52.57,47.44,52.57C47.43,52.57,47.42,52.57,47.41,52.57C47.37,52.57,47.33,52.58,47.3,52.58C47.26,52.58,47.23,52.59,47.19,52.59C47.1,52.6,47.02,52.6,46.94,52.61C46.91,52.61,46.88,52.61,46.84,52.61C46.74,52.62,46.64,52.63,46.54,52.63C46.54,52.63,46.54,52.63,46.54,52.63C46.39,52.64,46.27,52.65,46.14,52.66C46.14,52.66,46.14,52.66,46.14,52.66L46.3,67.23C46.43,67.23,46.56,67.22,46.71,67.21C46.84,67.2,46.97,67.19,47.11,67.18C47.19,67.18,47.27,67.17,47.35,67.16C47.43,67.16,47.51,67.15,47.6,67.14L47.61,67.14C47.68,67.14,47.75,67.13,47.85,67.12C47.93,67.11,48,67.1,48.11,67.09C48.2,67.08,48.29,67.07,48.46,67.05C48.53,67.04,48.61,67.04,48.68,67.03C48.74,67.02,48.79,67.01,48.85,67C48.89,67,48.93,66.99,49.08,66.97C49.13,66.96,49.18,66.96,49.3,66.94C49.39,66.93,49.48,66.91,49.59,66.9C49.64,66.89,49.7,66.88,49.75,66.87C49.83,66.85,49.92,66.84,50,66.83C50.03,66.82,50.07,66.81,50.1,66.81C50.19,66.79,50.29,66.77,50.4,66.75C50.53,66.73,50.65,66.7,50.77,66.68C50.86,66.66,50.94,66.64,51.03,66.62C51.06,66.62,51.1,66.61,51.14,66.6C51.2,66.59,51.27,66.57,51.33,66.56L51.25,59.16L51.17,51.98C51.1,52,51.04,52.01,50.98,52.02Z" fill="#4d7838"/><path d="M59.54,68.16L63.06,66.53L62.98,60.11L62.89,51.95L59.37,53.58Z" fill="#3b405f"/><path d="M56.02,69.78L59.54,68.16L59.37,53.58L55.85,55.21Z" fill="#6c9d41"/><path d="M51.25,59.16L51.33,66.56L56.02,69.78L55.85,55.21L51.17,51.99Z" fill="#456b32"/><path d="M44,55.9L44.34,55.38L45.12,54.19L45.52,53.59L45.67,53.36L46.13,52.66C46.13,52.66,46.14,52.66,46.14,52.66C46.27,52.65,46.39,52.65,46.54,52.64C46.54,52.64,46.54,52.64,46.54,52.64C46.64,52.63,46.74,52.63,46.84,52.62C46.88,52.62,46.91,52.61,46.94,52.61C47.02,52.61,47.1,52.6,47.19,52.59C47.23,52.59,47.26,52.59,47.3,52.58C47.33,52.58,47.37,52.58,47.41,52.58C47.42,52.58,47.43,52.57,47.44,52.57C47.44,52.57,47.44,52.57,47.44,52.57C47.45,52.57,47.46,52.57,47.47,52.57C47.48,52.57,47.49,52.57,47.5,52.57C47.5,52.57,47.5,52.57,47.51,52.57C47.52,52.57,47.54,52.56,47.55,52.56C47.56,52.56,47.56,52.56,47.57,52.56C47.58,52.56,47.6,52.56,47.61,52.56C47.62,52.56,47.63,52.56,47.64,52.56C47.65,52.55,47.67,52.55,47.69,52.55C47.73,52.55,47.77,52.54,47.82,52.54C47.86,52.53,47.9,52.53,47.95,52.52C47.95,52.52,47.96,52.52,47.97,52.52C48.05,52.51,48.14,52.5,48.29,52.48C48.37,52.47,48.44,52.47,48.52,52.46C48.58,52.45,48.63,52.44,48.69,52.43C48.7,52.43,48.72,52.43,48.74,52.43C48.76,52.42,48.79,52.42,48.83,52.41C48.85,52.41,48.88,52.41,48.92,52.4C48.97,52.39,49.02,52.39,49.13,52.37C49.15,52.37,49.17,52.36,49.19,52.36C49.27,52.35,49.34,52.34,49.42,52.33C49.43,52.33,49.43,52.32,49.44,52.32C49.49,52.31,49.54,52.31,49.59,52.3C49.65,52.29,49.72,52.28,49.78,52.26C49.8,52.26,49.82,52.26,49.83,52.26C49.87,52.25,49.9,52.24,49.94,52.24C50.03,52.22,50.12,52.2,50.24,52.18C50.24,52.18,50.24,52.18,50.24,52.18C50.25,52.18,50.26,52.18,50.27,52.17C50.27,52.17,50.27,52.17,50.27,52.17C50.47,52.14,50.66,52.1,50.86,52.05C50.86,52.05,50.86,52.05,50.86,52.05C50.9,52.05,50.94,52.04,50.97,52.03C51.04,52.02,51.1,52,51.17,51.99L55.85,55.21L59.37,53.58L53.56,47.2C52.36,47.76,50.75,47.52,49.98,46.67C49.2,45.82,49.55,44.68,50.75,44.12L47.72,40.8C47.68,40.82,47.63,40.84,47.59,40.86C47.59,40.86,47.59,40.86,47.59,40.86C45.2,41.89,42.08,41.4,40.56,39.73C40.1,39.23,39.83,38.67,39.76,38.1L34.6,38.31C34.58,37.98,34.43,37.67,34.19,37.41C33.71,36.88,32.86,36.54,31.86,36.58C31.85,36.58,31.84,36.58,31.83,36.58C31.58,36.59,31.33,36.63,31.1,36.69C30.93,36.74,30.76,36.8,30.6,36.87C30.6,36.88,30.59,36.88,30.59,36.88C30.24,37.05,29.95,37.27,29.74,37.54C29.52,37.82,29.4,38.16,29.42,38.52L29.28,38.52L27.38,38.6L23.86,38.74C23.86,38.81,23.87,38.89,23.88,39.01C23.89,39.09,23.9,39.16,23.91,39.24C23.92,39.3,23.93,39.36,23.94,39.43C23.95,39.48,23.96,39.54,23.97,39.62C23.98,39.67,23.99,39.71,24,39.8C24.01,39.85,24.02,39.91,24.04,39.98C24.04,40.01,24.05,40.04,24.06,40.07C24.06,40.11,24.07,40.14,24.09,40.23C24.1,40.28,24.12,40.33,24.13,40.4C24.14,40.43,24.15,40.46,24.16,40.49C24.17,40.53,24.18,40.57,24.19,40.62C24.2,40.65,24.21,40.68,24.31,41.03C24.34,41.13,24.37,41.22,24.41,41.35C24.43,41.42,24.46,41.48,24.5,41.6C24.52,41.67,24.55,41.74,24.58,41.83C24.61,41.89,24.63,41.95,24.68,42.06C24.71,42.13,24.74,42.2,24.77,42.27L23.91,42.9L20.19,45.62L24.72,50.59L24.86,50.56L29.52,49.34L30.88,48.98C30.98,49.04,31.07,49.1,31.18,49.16C31.28,49.22,31.37,49.28,31.47,49.34C31.54,49.37,31.6,49.41,31.68,49.45C31.73,49.49,31.79,49.52,31.88,49.57C31.94,49.6,31.99,49.63,32.08,49.68C32.15,49.72,32.21,49.75,32.29,49.79C32.37,49.83,32.44,49.87,32.58,49.94C32.64,49.97,32.7,50,32.89,50.09C32.92,50.11,32.96,50.12,33.09,50.19C33.14,50.21,33.18,50.23,33.28,50.28C33.32,50.3,33.35,50.31,33.53,50.39C33.61,50.43,33.69,50.46,33.8,50.51C33.87,50.54,33.93,50.57,33.99,50.59C34.05,50.62,34.11,50.64,34.25,50.7C34.31,50.73,34.37,50.75,34.52,50.81C34.6,50.84,34.68,50.87,34.76,50.9C34.8,50.92,34.84,50.93,34.88,50.95C34.95,50.98,35.02,51,35.09,51.03L35.17,55.68L43.35,56.89L44,55.9Z" fill="#95bb4a"/><path d="M45.52,53.59L45.12,54.19L44.34,55.39L44,55.9L43.35,56.88L43.35,56.88L43.43,64.2L43.51,71.46L44.5,69.96L45.68,68.17L46.3,67.24L46.13,52.66L45.67,53.36Z" fill="#6c9d41"/><path d="M35.17,55.67L35.33,70.25L43.51,71.46L43.43,64.2L43.35,56.88L43.35,56.88Z" fill="#4d7838"/></svg>