<svg xmlns="http://www.w3.org/2000/svg" viewBox="0 0 90 90"><path d="M75.22,89.44L14.78,89.44C6.96,89.44,0.56,83.04,0.56,75.22L0.56,14.78C0.56,6.96,6.96,0.56,14.78,0.56L75.22,0.56C83.04,0.56,89.44,6.96,89.44,14.78L89.44,75.22C89.44,83.04,83.04,89.44,75.22,89.44Z" fill="#4d7838"/><path d="M16.27,6.66L73.73,6.66C78.95,6.66,83.19,10.91,83.19,16.13L83.19,73.59C83.19,78.81,78.95,83.05,73.73,83.05L16.27,83.05C11.05,83.05,6.81,78.81,6.81,73.59L6.81,16.13C6.81,10.91,11.05,6.66,16.27,6.66Z" fill="#68923d"/><path d="M75.75,27.49L77.13,27.49L77.13,28.87L77.13,31.61L77.13,69.51L19.88,69.51L19.88,31.61L19.88,28.87L19.88,27.49L21.25,27.49Z" fill="#4d7838"/><path d="M16.37,23.99L73.63,23.99L73.63,66.01L16.37,66.01Z" fill="#fff"/><path d="M16.37,23.99L73.63,23.99L73.63,28.11L16.37,28.11Z" fill="#4d7838"/><path d="M21.95,39.3L42.89,39.3L42.89,41.35L21.95,41.35Z" fill="#97bd4d"/><path d="M18.08,25.67L25.45,25.67L25.45,26.7L18.08,26.7Z" fill="#97bd4d"/><path d="M47.11,48.65L58.35,48.65L58.35,50.7L47.11,50.7Z" fill="#97bd4d"/><path d="M47.11,39.3L68.05,39.3L68.05,41.35L47.11,41.35Z" fill="#97bd4d"/><path d="M47.11,43.97L68.05,43.97L68.05,46.03L47.11,46.03Z" fill="#97bd4d"/><path d="M68.78,63.72C68.78,68.4,64.99,72.19,60.31,72.19C55.63,72.19,51.84,68.4,51.84,63.72C51.84,59.04,55.63,55.25,60.31,55.25C64.99,55.25,68.78,59.04,68.78,63.72Z" fill="#f7cf64"/><path d="M55.21,63.72C55.21,63.26,55.58,62.89,56.04,62.89C56.5,62.89,56.87,63.26,56.87,63.72C56.87,65.62,58.41,67.16,60.31,67.16C62.21,67.16,63.75,65.62,63.75,63.72C63.75,63.26,64.12,62.89,64.58,62.89C65.04,62.89,65.41,63.26,65.41,63.72C65.41,66.54,63.12,68.83,60.31,68.83C57.5,68.83,55.21,66.54,55.21,63.72Z" fill="#4d7838"/><path d="M36.48,51.09L36.48,51.09C36.48,51.52,36.36,51.92,36.16,52.27C36.37,52.62,36.48,53.02,36.48,53.45L36.48,53.45C36.48,53.89,36.36,54.29,36.16,54.64C36.37,54.99,36.48,55.39,36.48,55.82L36.48,55.82C36.48,57.13,35.42,58.19,34.11,58.19L26.95,58.09C26.88,58.09,26.81,58.08,26.75,58.05L26.75,58.56L22.4,58.56L22.4,47.96L26.75,47.96L26.75,48.63L27.56,48.64L27.56,45.96C27.56,44.9,28.42,44.04,29.48,44.04L29.48,44.04C30.53,44.04,31.39,44.9,31.39,45.96L31.39,47.85C31.39,48.31,31.76,48.69,32.22,48.69L34.11,48.72C35.42,48.72,36.48,49.78,36.48,51.09Z" fill="#99d6e9"/><path d="M23.11,48.88L26.04,48.88L26.04,57.63L23.11,57.63Z" fill="#0098c8"/><path d="M25.23,56.03C25.23,56.4,24.94,56.69,24.57,56.69C24.21,56.69,23.91,56.4,23.91,56.03C23.91,55.67,24.21,55.37,24.57,55.37C24.94,55.37,25.23,55.67,25.23,56.03Z" fill="#99d6e9"/><path d="M29.02,19.87L29.02,19.87C30.78,18.12,33.63,18.12,35.39,19.87L42.04,26.53L36.35,32.22C35.98,32.59,35.39,32.59,35.02,32.22L29.03,26.23C27.27,24.48,27.27,21.63,29.03,19.87Z" fill="#f26655"/><path d="M35.01,32.23L29.31,26.53L35.97,19.87C37.73,18.12,40.58,18.12,42.33,19.87L42.33,19.87C44.09,21.63,44.09,24.48,42.33,26.23L36.34,32.23C35.97,32.59,35.37,32.59,35.01,32.23Z" fill="#f26655"/></svg>