<svg xmlns="http://www.w3.org/2000/svg" viewBox="0 0 90 90"><path d="M89.44,75.22C89.44,83.04,83.04,89.44,75.22,89.44L14.78,89.44C6.96,89.44,0.56,83.04,0.56,75.22L0.56,14.78C0.56,6.96,6.96,0.56,14.78,0.56L75.22,0.56C83.04,0.56,89.44,6.96,89.44,14.78L89.44,75.22Z" fill="#e58f2a"/><path d="M6.81,16.27L6.81,73.73C6.81,78.95,11.05,83.19,16.27,83.19L73.73,83.19C78.95,83.19,83.2,78.95,83.2,73.73L83.2,16.27C83.2,11.05,78.95,6.81,73.73,6.81L16.27,6.81C11.05,6.81,6.81,11.05,6.81,16.27Z" fill="#7a5441"/><path d="M63.19,14.34L63.21,16.03L65.32,16.12L64.14,17.49L65.53,18.94L58.55,20.68L58.57,17.62Z" fill="#99daf6"/><path d="M53.33,11.4L54.26,12.81L56.08,11.75L55.83,13.54L57.79,14L52.86,19.25L51.21,16.66Z" fill="#96bc4b"/><path d="M61.6,21.14C61.6,23.94,59.33,26.21,56.54,26.21C53.74,26.21,51.47,23.94,51.47,21.14C51.47,18.35,53.74,16.08,56.54,16.08C59.33,16.08,61.6,18.35,61.6,21.14Z" fill="#76c4e9"/><path d="M35.99,15.15L56.43,15.15L56.43,23.75L35.99,23.75Z" fill="#ec6250"/><path d="M35.48,21.89L35.48,20.06L56.74,20.06L56.74,21.89Z" fill="#ca3431"/><path d="M45.3,14.29L47.13,14.29L47.13,27.66L45.3,27.66Z" fill="#ca3431"/><path d="M59.87,22.35C59.87,25.31,57.47,27.72,54.5,27.72C51.54,27.72,49.13,25.31,49.13,22.35C49.13,19.39,51.54,16.98,54.5,16.98C57.47,16.98,59.87,19.39,59.87,22.35Z" fill="#f1ab22"/><path d="M54.5,20.22C54.5,20.75,54.07,21.18,53.54,21.18C53.01,21.18,52.58,20.75,52.58,20.22C52.58,19.69,53.01,19.26,53.54,19.26C54.07,19.26,54.5,19.69,54.5,20.22Z" fill="#fff"/><path d="M57.39,21.72C57.39,22.25,56.96,22.68,56.43,22.68C55.9,22.68,55.47,22.25,55.47,21.72C55.47,21.19,55.9,20.76,56.43,20.76C56.96,20.76,57.39,21.19,57.39,21.72Z" fill="#fff"/><path d="M51.08,23.28C50.93,23.11,50.82,22.92,50.74,22.72C50.42,21.87,50.79,21.06,50.84,20.97C50.96,20.72,51.27,20.61,51.52,20.74C51.77,20.86,51.88,21.16,51.76,21.42C51.75,21.43,51.53,21.92,51.7,22.36C51.81,22.64,52.07,22.86,52.47,23.03C52.73,23.14,52.85,23.44,52.74,23.7C52.64,23.96,52.34,24.08,52.08,23.97C51.65,23.8,51.32,23.57,51.08,23.28Z" fill="#fff"/><path d="M57.33,49.73L59.84,28.97L27.85,25.29L24.01,58.1C23.46,62.9,26.06,67.5,30.45,69.52L50.56,78.77C57.93,82.09,66.59,78.81,69.91,71.44L69.91,71.44C73.23,64.08,69.94,55.42,62.58,52.1L57.32,49.73Z" fill="#6c9d41"/><path d="M24.75,51.8L24.01,58.31C23.46,63.11,26.06,67.71,30.45,69.73L34.58,71.63C34.85,70.4,35,69.11,35,67.8C35,60.7,30.8,54.59,24.75,51.8Z" fill="#f1f1f1"/><path d="M69.91,71.65L69.91,71.65C73.02,64.75,70.33,56.71,63.92,53C55.77,58.73,50.29,68.01,49.73,78.6L50.56,78.98C57.93,82.3,66.59,79.02,69.91,71.65Z" fill="#f1f1f1"/><path d="M45.3,20.06L50.61,26.65" fill="none" stroke="#000000" stroke-width="2" stroke-linecap="butt" stroke-linejoin="miter"/><path d="M35.78,27.05C34.63,27.39,33.43,26.72,33.1,25.57L29.88,14.45C28.67,10.28,31.08,5.91,35.25,4.7C39.43,3.49,43.8,5.91,45.01,10.08L45.24,10.9C45.58,12.05,44.91,13.25,43.76,13.59C42.61,13.92,41.41,13.26,41.07,12.1L40.84,11.28C40.3,9.41,38.33,8.33,36.46,8.87C34.59,9.41,33.51,11.37,34.05,13.25L37.27,24.36C37.6,25.52,36.94,26.72,35.78,27.05Z" fill="#fff"/><path d="M33.09,25.57L32.48,23.44L36.65,22.23L37.26,24.37ZM31.7,20.74L30.91,18.03L35.08,16.83L35.87,19.53ZM34.3,14.12L30.13,15.33L29.88,14.45C29.63,13.61,29.53,12.74,29.58,11.86L33.91,12.08C33.89,12.48,33.94,12.87,34.05,13.25L34.3,14.13ZM45.24,10.9L41.07,12.11L40.84,11.28C40.72,10.89,40.54,10.52,40.31,10.2L43.83,7.66C44.36,8.39,44.75,9.2,45.01,10.08L45.24,10.9ZM30.71,8.19C31.38,7.07,32.32,6.14,33.44,5.48L35.64,9.22C35.15,9.52,34.72,9.94,34.42,10.43ZM38.99,9.09C38.46,8.83,37.88,8.71,37.3,8.73L37.12,4.4C38.42,4.34,39.72,4.62,40.89,5.18L38.99,9.09Z" fill="#ca3431"/><path d="M27.6,34.4C26.25,34.24,25.28,33.02,25.44,31.68L26.62,22.43C26.78,21.09,28,20.12,29.35,20.27L60.09,23.82C61.44,23.97,62.4,25.19,62.25,26.54L61.06,35.78C60.91,37.13,59.69,38.1,58.34,37.94Z" fill="#f1f1f1"/><path d="M60.74,24L60.73,24.17C60.68,24.57,60.32,24.86,59.92,24.81C59.52,24.77,59.23,24.41,59.28,24.01C59.29,23.87,59.35,23.75,59.42,23.65L59.42,23.65L59.53,23.5C59.75,23.2,60.18,23.14,60.48,23.37C60.68,23.52,60.77,23.75,60.75,23.98Z" fill="#f7c045"/><path d="M59.49,28.11L59.49,28.12L59.48,28.14C59.15,28.74,58.41,28.95,57.82,28.63C57.22,28.31,57,27.56,57.33,26.97C57.36,26.91,57.4,26.85,57.44,26.8L57.45,26.79L57.46,26.77C57.88,26.24,58.65,26.15,59.18,26.56C59.65,26.94,59.78,27.6,59.5,28.11Z" fill="#f7c045"/><path d="M56.2,31.44L56.18,31.45L56.17,31.46C55.46,31.8,54.6,31.5,54.26,30.79C53.91,30.08,54.21,29.23,54.92,28.88C54.94,28.87,54.97,28.86,54.99,28.85L55,28.85L55.02,28.84C55.74,28.53,56.58,28.87,56.89,29.6C57.19,30.3,56.88,31.11,56.2,31.44Z" fill="#f7c045"/><path d="M51.25,31.62C50.51,31.36,50.11,30.56,50.37,29.81C50.62,29.09,51.4,28.7,52.12,28.92L52.14,28.92L52.15,28.93C52.9,29.15,53.32,29.95,53.09,30.7C52.87,31.45,52.07,31.87,51.32,31.65C51.31,31.64,51.29,31.64,51.27,31.63L51.26,31.63Z" fill="#f7c045"/><path d="M47.51,29.35L47.5,29.34C46.97,28.91,46.89,28.13,47.32,27.6C47.71,27.11,48.41,27,48.93,27.33L48.94,27.33L48.94,27.34C49.52,27.7,49.7,28.46,49.34,29.04C48.98,29.62,48.22,29.8,47.64,29.44C47.6,29.41,47.56,29.38,47.52,29.35L47.51,29.35Z" fill="#f7c045"/><path d="M44.52,26.33C44.2,25.91,44.27,25.31,44.69,24.99C45.07,24.69,45.61,24.73,45.94,25.06L45.95,25.07L45.95,25.08C46.33,25.45,46.33,26.05,45.97,26.43C45.6,26.8,44.99,26.81,44.62,26.44C44.59,26.41,44.56,26.38,44.54,26.35L44.53,26.34Z" fill="#f7c045"/><path d="M42.45,22.66L42.45,22.65C42.29,22.28,42.46,21.85,42.83,21.68C43.19,21.53,43.6,21.67,43.78,22.01L43.78,22.02L43.78,22.02C43.98,22.38,43.84,22.83,43.48,23.02C43.13,23.21,42.68,23.08,42.48,22.72C42.48,22.7,42.47,22.68,42.46,22.67Z" fill="#f7c045"/><path d="M40.72,22.24L40.72,22.25C40.53,22.57,40.11,22.68,39.78,22.49C39.46,22.29,39.35,21.87,39.54,21.55C39.54,21.55,39.55,21.54,39.55,21.54L39.56,21.53C39.75,21.21,40.17,21.11,40.5,21.31C40.81,21.5,40.92,21.92,40.73,22.24L40.72,22.24Z" fill="#f7c045"/><path d="M39.54,25.86L39.54,25.88C39.42,26.32,38.97,26.6,38.52,26.49C38.07,26.38,37.8,25.92,37.91,25.47C37.92,25.44,37.93,25.41,37.94,25.38L37.94,25.37L37.94,25.37C38.11,24.93,38.59,24.72,39.02,24.88C39.42,25.03,39.64,25.46,39.54,25.86Z" fill="#f7c045"/><path d="M38.19,29.87L38.19,29.88L38.18,29.89C37.89,30.4,37.25,30.59,36.74,30.3C36.22,30.02,36.04,29.37,36.32,28.86C36.34,28.84,36.35,28.81,36.37,28.79L36.37,28.78L36.38,28.76C36.71,28.28,37.37,28.15,37.85,28.47C38.31,28.78,38.45,29.39,38.19,29.87Z" fill="#f7c045"/><path d="M33.33,31.31L33.32,31.3C32.81,30.94,32.68,30.24,33.03,29.73C33.38,29.21,34.08,29.08,34.59,29.43L34.6,29.43L34.6,29.44L34.6,29.44C35.12,29.79,35.26,30.49,34.91,31C34.56,31.52,33.86,31.66,33.34,31.31L33.34,31.3Z" fill="#f7c045"/><path d="M31.44,26.85L31.44,26.84C31.43,26.24,31.9,25.75,32.49,25.73C33.07,25.72,33.55,26.16,33.6,26.73L33.6,26.74C33.6,26.74,33.6,26.75,33.6,26.75C33.64,27.34,33.19,27.86,32.6,27.9C32,27.95,31.49,27.5,31.44,26.91C31.44,26.89,31.44,26.87,31.44,26.86L31.44,26.85Z" fill="#f7c045"/><path d="M31.92,22.67L31.92,22.65C32.03,22.15,32.53,21.83,33.04,21.94C33.52,22.04,33.83,22.5,33.77,22.97L33.77,22.98C33.77,22.98,33.77,22.99,33.77,22.99C33.7,23.51,33.23,23.87,32.72,23.81C32.2,23.74,31.84,23.27,31.9,22.75C31.9,22.73,31.91,22.7,31.92,22.67L31.92,22.67Z" fill="#f7c045"/><path d="M33.63,19.64L33.62,19.64C33.25,19.6,32.97,19.27,33,18.89C33.04,18.51,33.37,18.23,33.75,18.27C33.78,18.27,33.81,18.27,33.84,18.28L33.86,18.29L33.88,18.29C34.24,18.38,34.47,18.75,34.38,19.12C34.3,19.45,33.99,19.67,33.66,19.64L33.63,19.64Z" fill="#f7c045"/><path d="M29.9,19.81L29.89,19.81C29.39,19.91,28.91,19.58,28.81,19.09C28.72,18.59,29.04,18.11,29.54,18.01C29.57,18.01,29.6,18,29.63,18L29.64,18C29.64,18,29.65,18,29.65,18C30.16,17.95,30.6,18.33,30.64,18.83C30.68,19.3,30.36,19.72,29.91,19.81L29.9,19.81Z" fill="#f7c045"/><path d="M26.68,21.14L26.67,21.14C26.19,21.51,25.51,21.42,25.14,20.94C24.78,20.46,24.87,19.78,25.35,19.41C25.37,19.4,25.39,19.38,25.41,19.37L25.42,19.36L25.44,19.35C25.94,19.03,26.61,19.17,26.94,19.67C27.25,20.15,27.13,20.78,26.69,21.12L26.67,21.14Z" fill="#f7c045"/><path d="M24.88,23.79L24.88,23.79C24.69,24.44,24.01,24.81,23.36,24.61C22.72,24.42,22.35,23.75,22.54,23.1C22.55,23.08,22.56,23.06,22.56,23.04L22.57,23.03L22.57,23.02C22.8,22.38,23.5,22.06,24.13,22.28C24.74,22.5,25.06,23.16,24.88,23.77L24.88,23.79Z" fill="#f7c045"/><path d="M24.62,27.26L24.62,27.27C24.69,27.99,24.16,28.63,23.44,28.7C22.72,28.76,22.08,28.23,22.01,27.51C22.01,27.49,22.01,27.47,22.01,27.46L22.01,27.45C22.01,27.45,22.01,27.43,22.01,27.43C21.97,26.71,22.53,26.1,23.26,26.06C23.96,26.03,24.56,26.56,24.62,27.25L24.62,27.26Z" fill="#f7c045"/><path d="M24.85,31.35L24.85,31.36L24.85,31.36C24.85,32.13,24.23,32.74,23.47,32.74C22.71,32.74,22.09,32.13,22.09,31.36C22.09,31.35,22.09,31.33,22.09,31.32L22.09,31.31C22.09,31.31,22.09,31.31,22.09,31.31C22.12,30.55,22.75,29.95,23.51,29.98C24.26,30,24.84,30.62,24.84,31.35Z" fill="#f7c045"/><path d="M24.62,35.46L24.62,35.47C24.55,36.25,23.86,36.82,23.08,36.74C22.3,36.67,21.73,35.98,21.8,35.2C21.8,35.19,21.81,35.18,21.81,35.17L21.81,35.16C21.81,35.16,21.81,35.16,21.81,35.16C21.9,34.38,22.6,33.83,23.38,33.92C24.15,34.01,24.7,34.7,24.62,35.46Z" fill="#f7c045"/><path d="M24.06,39.51L24.06,39.52C23.92,40.3,23.18,40.82,22.4,40.68C21.62,40.55,21.1,39.8,21.24,39.03L21.24,39.02C21.24,39.02,21.24,39.01,21.24,39.01C21.38,38.23,22.13,37.71,22.9,37.86C23.68,38,24.19,38.74,24.06,39.51Z" fill="#f7c045"/><path d="M23.16,43.48L23.16,43.5C22.96,44.23,22.21,44.66,21.48,44.46C20.77,44.27,20.35,43.57,20.49,42.86L20.49,42.86C20.49,42.86,20.49,42.84,20.49,42.84C20.65,42.1,21.38,41.63,22.12,41.78C22.86,41.94,23.34,42.67,23.18,43.41C23.18,43.43,23.17,43.46,23.17,43.48L23.17,43.48Z" fill="#f7c045"/><path d="M21.92,47.37C21.69,47.97,21.01,48.28,20.4,48.05C19.85,47.85,19.54,47.26,19.67,46.7L19.67,46.7C19.67,46.7,19.67,46.69,19.67,46.69C19.81,46.05,20.44,45.65,21.07,45.79C21.71,45.92,22.11,46.55,21.97,47.19C21.96,47.24,21.95,47.3,21.93,47.35L21.92,47.35Z" fill="#f7c045"/><path d="M20.3,51.08L20.29,51.09C20.09,51.48,19.61,51.63,19.22,51.43C18.9,51.26,18.74,50.9,18.82,50.56L18.82,50.56C18.82,50.56,18.82,50.55,18.82,50.55C18.91,50.12,19.33,49.84,19.76,49.93C20.19,50.02,20.47,50.44,20.38,50.87C20.36,50.95,20.34,51.01,20.3,51.08L20.3,51.08Z" fill="#f7c045"/></svg>