<svg xmlns="http://www.w3.org/2000/svg" viewBox="0 0 90 90"><path d="M0.55,75.22L0.55,14.78C0.55,6.96,6.95,0.56,14.77,0.56L75.21,0.56C83.04,0.56,89.44,6.95,89.44,14.78L89.44,75.22C89.81,82.6,83.36,89.07,75.21,89.45L14.77,89.45C6.95,89.45,0.55,83.04,0.55,75.22Z" fill="#a56d32"/><path d="M73.72,6.81C78.94,6.81,83.19,11.05,83.19,16.27L83.19,73.73C83.19,78.95,78.94,83.19,73.72,83.19L16.26,83.19C11.04,83.19,6.8,78.95,6.8,73.73L6.8,16.27C6.8,11.05,11.04,6.81,16.26,6.81L73.72,6.81Z" fill="#b78a5b"/><path d="M48.98,44.61L52.02,44.61L52.02,47.65L48.98,47.65Z" fill="#533719"/><path d="M34.69,47.48L28.04,49.73L28.04,40.88L37.44,37.84L37.44,43.64C37.44,45.38,36.33,46.92,34.69,47.48Z" fill="none" stroke="#533719" stroke-width="2.0733333333333333" stroke-linecap="round" stroke-linejoin="round"/><path d="M43.94,19.62L43.94,19.62C49.46,19.62,53.95,24.11,53.95,29.63C53.95,32.7,52.54,35.59,50.15,37.48L55.34,40.91L55.73,41.17L55.73,41.64C55.73,43.06,55.39,43.7,54.86,44.66L54.69,44.97L54.45,45.43L49.53,45.43C49.75,47.87,50.43,54.01,58.25,58.92C61.76,61.13,63.77,65.32,63.77,70.42L63.77,71.29L24.11,71.29L24.11,70.42C24.11,65.32,26.13,61.13,29.63,58.92C37.48,54,38.14,47.87,38.36,45.43L33.44,45.43L33.2,44.97L33.02,44.65C32.5,43.69,32.15,43.06,32.15,41.64L32.15,41.17L32.55,40.91L37.74,37.48C35.34,35.59,33.93,32.7,33.93,29.63C33.93,24.11,38.42,19.62,43.94,19.62Z" fill="#dbc5ad"/><path d="M42.19,37.78C43.64,37.78,44.83,38.97,44.83,40.42L44.83,53.37C44.83,54.81,43.64,56,42.19,56L31.73,56C30.28,56,29.09,54.81,29.09,53.37L29.09,40.42C29.09,38.97,30.28,37.78,31.73,37.78Z" fill="#533719"/><path d="M38.72,37.78C40.17,37.78,41.36,38.97,41.36,40.42L41.36,53.37C41.36,54.81,40.17,56,38.72,56L28.26,56C26.81,56,25.62,54.81,25.62,53.37L25.62,40.42C25.62,38.97,26.81,37.78,28.26,37.78Z" fill="#533719"/><path d="M49.96,48.31L43.31,50.56L43.31,41.71L50.97,39.23C51.83,38.95,52.71,39.6,52.71,40.5L52.71,44.47C52.71,46.21,51.61,47.75,49.96,48.31Z" fill="none" stroke="#533719" stroke-width="2.444444444444444" stroke-linecap="round" stroke-linejoin="round"/><path d="M55.34,40.91L55.73,41.16L55.73,41.63C55.73,43.06,55.39,43.69,54.86,44.65L54.69,44.97L54.45,45.43L49.53,45.43C49.53,45.44,49.53,45.46,49.53,45.47C49.33,44.81,49.27,44.1,49.28,43.42C49.28,42.52,49.53,41.73,49.78,40.85L53.44,39.67L55.34,40.91Z" fill="#dbc5ad"/><path d="M26.98,48.81L40,48.81L40,53.52L26.98,53.52Z" fill="#a56d32"/><path d="M35.43,44.06L37.64,44.06L37.64,46.69L35.43,46.69Z" fill="#a56d32"/><path d="M29.34,44.06L31.56,44.06L31.56,46.69L29.34,46.69Z" fill="#a56d32"/></svg>