<svg xmlns="http://www.w3.org/2000/svg" viewBox="0 0 90 90"><path d="M0.55,75.22C0.55,83.04,6.95,89.45,14.77,89.45L75.21,89.45C83.36,89.07,89.81,82.6,89.44,75.22L89.44,14.78C89.44,6.95,83.04,0.56,75.21,0.56L14.77,0.56C6.95,0.56,0.55,6.96,0.55,14.78L0.55,75.22Z" fill="#b4c9cc"/><path d="M73.72,6.81C78.94,6.81,83.19,11.05,83.19,16.27L83.19,73.73C83.19,78.95,78.94,83.19,73.72,83.19L16.26,83.19C11.04,83.19,6.8,78.95,6.8,73.73L6.8,16.27C6.8,11.05,11.04,6.81,16.26,6.81L73.72,6.81Z" fill="#899695"/><path d="M55.37,29.53L67.45,29.53C67.45,29.53,67.45,35.67,67.45,35.67C67.45,38.44,66.33,40.96,64.02,43.37C62.18,45.29,59.61,47.1,56.37,48.78L55.37,48.33L55.37,29.53M50.57,24.73L50.57,51.45C50.57,51.45,56.47,54.07,56.47,54.07C64.8,50.21,72.25,44.38,72.25,35.67L72.25,26.11C72.25,25.35,71.63,24.73,70.87,24.73L50.57,24.73Z" fill="none" stroke="#9cadad" stroke-width="2" stroke-linecap="butt" stroke-linejoin="miter"/><path d="M34.63,29.53L34.63,48.33L33.63,48.78C30.39,47.1,27.82,45.29,25.98,43.37C23.67,40.96,22.55,38.44,22.55,35.67L22.55,29.53L34.63,29.53M39.43,24.73L19.13,24.73C18.37,24.73,17.75,25.35,17.75,26.11L17.75,35.66C17.75,44.38,25.2,50.21,33.53,54.07L39.43,51.45L39.43,24.73L39.43,24.73Z" fill="none" stroke="#9cadad" stroke-width="2" stroke-linecap="butt" stroke-linejoin="miter"/><path d="M56.58,54.07C48.89,50.1,41.21,50.1,33.53,54.07C38.15,57.09,39.65,60.12,38.01,63.14C37.23,64.58,52.74,64.46,51.99,62.95C50.52,59.99,52.05,57.03,56.58,54.07Z" fill="#9cadad"/><path d="M50.07,57.44L39.93,57.44C34.19,57.44,29.42,53.01,28.99,47.28L27.21,23.34C27.14,22.4,27.88,21.6,28.82,21.6L61.18,21.6C62.12,21.6,62.86,22.4,62.79,23.34L61.01,47.28C60.59,53.01,55.81,57.44,50.07,57.44Z" fill="#b4c9cc"/><path d="M45,35.66L45,26.11C45,25.49,44.59,24.97,44.03,24.8L30.9,24.8C30.7,24.8,30.54,24.97,30.55,25.16L32.18,47.04C32.27,48.16,32.59,49.2,33.09,50.14C33.32,50.57,33.83,50.77,34.29,50.61C40.52,48.5,45,42.61,45,35.66Z" fill="#cfe0e2"/><path d="M54.31,24.8C54.3,24.74,54.22,24.74,54.22,24.8C53.88,27.69,51.58,29.99,48.68,30.33C48.62,30.34,48.62,30.42,48.68,30.42C51.58,30.76,53.88,33.06,54.22,35.96C54.22,36.02,54.3,36.02,54.31,35.96C54.65,33.06,56.95,30.76,59.84,30.42C59.9,30.42,59.9,30.34,59.84,30.33C56.95,29.99,54.65,27.69,54.31,24.8Z" fill="#cfe0e2"/><path d="M60.5,60.92L29.5,60.92C28.16,60.92,27.08,62.01,27.08,63.35L27.08,66.87C27.08,67.72,27.77,68.4,28.61,68.4L61.39,68.4C62.24,68.4,62.92,67.72,62.92,66.87L62.92,63.35C62.92,62.01,61.84,60.92,60.5,60.92Z" fill="#b4c9cc"/></svg>