<svg xmlns="http://www.w3.org/2000/svg" viewBox="0 0 90 90"><path d="M75.22,89.44L14.78,89.44C6.96,89.44,0.56,83.04,0.56,75.22L0.56,14.78C0.56,6.96,6.96,0.56,14.78,0.56L75.22,0.56C83.04,0.56,89.44,6.96,89.44,14.78L89.44,75.22C89.44,83.04,83.05,89.44,75.22,89.44Z" fill="#f48145"/><path d="M16.27,6.81L73.73,6.81C78.95,6.81,83.19,11.05,83.19,16.27L83.19,73.73C83.19,78.95,78.95,83.19,73.73,83.19L16.27,83.19C11.05,83.19,6.81,78.95,6.81,73.73L6.81,16.27C6.81,11.05,11.05,6.81,16.27,6.81Z" fill="#ee4552"/><path d="M72.99,42.15L79.05,43.03L74.67,47.3L75.7,53.34L70.28,50.49L64.86,53.34L65.9,47.3L61.51,43.03L67.57,42.15L70.28,36.66Z" fill="#f3ac24"/><path d="M22.72,42.15L28.78,43.03L24.4,47.3L25.43,53.34L20.01,50.49L14.59,53.34L15.63,47.3L11.25,43.03L17.3,42.15L20.01,36.66Z" fill="#f3ac24"/><path d="M45.41,70.34L37.44,74.96L37.44,48.45L53.39,48.45L53.39,74.96Z" fill="#f3ac24"/><path d="M52.94,26.47C53.02,26.62,53.17,26.73,53.34,26.76L70.04,29.18C70.48,29.25,70.65,29.78,70.34,30.09L58.25,41.87C58.13,41.99,58.07,42.17,58.1,42.34L60.95,58.97C61.03,59.41,60.57,59.74,60.18,59.53L45.25,51.68C45.09,51.6,44.91,51.6,44.75,51.68L29.82,59.53C29.43,59.74,28.97,59.41,29.05,58.97L31.9,42.34C31.93,42.17,31.87,41.99,31.75,41.87L19.66,30.09C19.35,29.78,19.52,29.25,19.96,29.18L36.66,26.76C36.83,26.73,36.98,26.62,37.06,26.47L44.52,11.33C44.72,10.94,45.28,10.94,45.48,11.33Z" fill="#f7cf64"/><path d="M48.49,32.44C48.49,34.37,46.93,35.93,45,35.93C43.07,35.93,41.51,34.37,41.51,32.44C41.51,30.52,43.07,28.96,45,28.96C46.93,28.96,48.49,30.52,48.49,32.44Z" fill="#e3183c"/><path d="M42.02,35.2L47.98,35.2L47.98,37.52L42.02,37.52Z" fill="#e3183c"/><path d="M41.28,41.69L48.72,41.69L48.72,44.88L41.28,44.88Z" fill="#e3183c"/><path d="M49.41,43.17C50.22,43.17,50.89,43.83,50.89,44.64L50.89,46.6L39.11,46.6L39.11,44.64C39.11,43.83,39.78,43.17,40.59,43.17Z" fill="#e3183c"/><path d="M42.67,36.36L47.33,36.36L47.33,44.47L42.67,44.47Z" fill="#e3183c"/></svg>