<svg xmlns="http://www.w3.org/2000/svg" viewBox="0 0 90 90"><path d="M89.44,75.22C89.44,83.04,83.04,89.44,75.22,89.44L14.78,89.44C6.96,89.44,0.56,83.04,0.56,75.22L0.56,14.78C0.56,6.96,6.96,0.56,14.78,0.56L75.22,0.56C83.04,0.56,89.44,6.96,89.44,14.78L89.44,75.22Z" fill="#5b3a34"/><path d="M6.81,16.27L6.81,73.73C6.81,78.95,11.05,83.19,16.27,83.19L73.73,83.19C78.95,83.19,83.19,78.95,83.19,73.73L83.19,16.27C83.19,11.05,78.95,6.81,73.73,6.81L16.27,6.81C11.05,6.81,6.81,11.05,6.81,16.27Z" fill="#e0c170"/><path d="M19.15,70.9C19.15,72.13,20.14,73.12,21.37,73.12L68.63,73.12C69.85,73.12,70.85,72.13,70.85,70.9L70.85,31.46C70.85,30.87,70.61,30.31,70.2,29.89L57.84,17.53C57.42,17.11,56.85,16.88,56.26,16.88L21.37,16.88C20.14,16.88,19.15,17.87,19.15,19.1Z" fill="#fff"/><path d="M70.85,30.54L58.28,33.02L57.19,16.88Z" fill="#e0c170"/><path d="M70.65,30.54C70.54,30.3,70.39,30.08,70.2,29.89L57.84,17.53C57.65,17.34,57.43,17.19,57.19,17.08L57.19,30.54L70.65,30.54Z" fill="#eadcb7"/><path d="M30.85,47.58L37.14,41.3L49.1,53.25L71.5,30.85L77.79,37.13L49.1,65.82Z" fill="#e0c170"/><path d="M30.96,42.89L37.25,36.61L49.21,48.56L71.62,26.16L77.9,32.44L49.21,61.14Z" fill="#ee4552"/></svg>