<svg xmlns="http://www.w3.org/2000/svg" viewBox="0 0 90 90"><path d="M0,0L90,0L90,90L0,90Z" fill="none" stroke="#ffffff" stroke-width="1" stroke-linecap="butt" stroke-linejoin="miter"/><path d="M75.22,89.44L14.78,89.44C6.96,89.44,0.56,83.04,0.56,75.22L0.56,14.78C0.56,6.96,6.96,0.56,14.78,0.56L75.22,0.56C83.04,0.56,89.44,6.96,89.44,14.78L89.44,75.22C89.44,83.04,83.04,89.44,75.22,89.44Z" fill="#555b88"/><path d="M16.27,6.81L73.73,6.81C78.95,6.81,83.19,11.05,83.19,16.27L83.19,73.73C83.19,78.95,78.95,83.19,73.73,83.19L16.27,83.19C11.05,83.19,6.81,78.95,6.81,73.73L6.81,16.27C6.81,11.05,11.05,6.81,16.27,6.81Z" fill="#7ed3f7"/><path d="M42.7,34.42L42.7,45.01L23.86,45.01C18.91,45.01,14.88,40.98,14.88,36.02L14.88,17.19L25.47,17.19C34.98,17.19,42.7,24.91,42.7,34.42Z" fill="#fff"/><path d="M75.12,17.19L75.12,36.02C75.12,40.98,71.09,45.01,66.14,45.01L47.3,45.01L47.3,34.42C47.3,24.91,55.02,17.19,64.53,17.19L75.12,17.19L75.12,17.19Z" fill="#0089bd"/><path d="M43.16,48.9L43.16,67.55C43.16,70.45,40.8,72.81,37.9,72.81L19.25,72.81L19.25,56.62C19.25,52.36,22.71,48.9,26.97,48.9L43.16,48.9L43.16,48.9Z" fill="#0089bd"/><path d="M70.75,72.81L52.1,72.81C49.2,72.81,46.84,70.45,46.84,67.55L46.84,48.9L63.03,48.9C67.29,48.9,70.75,52.36,70.75,56.62Z" fill="#fff"/></svg>