<svg xmlns="http://www.w3.org/2000/svg" viewBox="0 0 90 90"><path d="M75.22,89.44L14.78,89.44C6.96,89.44,0.56,83.04,0.56,75.22L0.56,14.78C0.56,6.96,6.96,0.56,14.78,0.56L75.22,0.56C83.04,0.56,89.44,6.96,89.44,14.78L89.44,75.22C89.44,83.04,83.05,89.44,75.22,89.44Z" fill="#4e7838"/><path d="M6.81,16.6L6.81,74.06C6.81,79.28,11.05,83.53,16.27,83.53L73.73,83.53C78.95,83.53,83.19,79.28,83.19,74.06L83.19,16.6C83.19,11.39,78.95,7.14,73.73,7.14L16.27,7.14C11.05,7.14,6.81,11.39,6.81,16.6Z" fill="#95bb4a"/><path d="M51.41,21.4L60.49,18.51L62.52,27.81L71.83,29.85L68.94,38.92L75.98,45.33L68.94,51.75L71.83,60.82L62.52,62.86L60.49,72.16L51.41,69.27L45,76.31L38.59,69.27L29.51,72.16L27.48,62.86L18.17,60.82L21.06,51.75L14.02,45.33L21.06,38.92L18.17,29.85L27.48,27.81L29.51,18.51L38.59,21.4L45,14.36Z" fill="#4e7838"/><path d="M74.96,83.53C75.91,79.93,76.63,76,77.12,71.78C78.51,59.83,77.55,49.55,77.51,49.12C77.18,45.7,74.15,43.2,70.73,43.53C67.31,43.85,64.81,46.89,65.14,50.31C65.14,50.4,66.01,59.69,64.77,70.35C64.3,74.47,63.46,79.16,62,83.53Z" fill="#f7cf64"/><path d="M15.73,83.53C14.78,79.93,14.05,76,13.56,71.78C12.18,59.83,13.13,49.55,13.17,49.12C13.5,45.7,16.54,43.2,19.95,43.53C23.37,43.85,25.88,46.89,25.55,50.31C25.54,50.4,24.68,59.69,25.91,70.35C26.39,74.47,27.23,79.16,28.68,83.53Z" fill="#f7cf64"/><path d="M64.48,52.36L63.35,46.63L64.98,35.73L79.99,36.81L79.99,52.36Z" fill="#e3183c"/><path d="M79.99,53.59L79.99,58.98C79.99,59.36,79.69,59.66,79.31,59.66L65.16,59.66C64.78,59.66,64.48,59.36,64.48,58.98L64.48,53.59L64.48,53.59Z" fill="#aa122d"/><path d="M64.48,52.03L79.99,52.03L79.99,58.09L64.48,58.09Z" fill="#e3183c"/><path d="M71.99,51.8L71.99,51.8C73.05,51.8,73.92,52.66,73.92,53.73L73.92,58.09L70.05,58.09L70.05,53.73C70.05,52.66,70.92,51.8,71.98,51.8Z" fill="#aa122d"/><path d="M74.15,56.53L69.58,54.19L69.4,53.62L74.53,55.78L74.71,56.35Z" fill="#e6f5fa"/><path d="M69.58,55.78L74.14,53.44L74.71,53.62L69.96,56.53L69.39,56.35Z" fill="#e6f5fa"/><path d="M69.1,61.66C69.1,61.89,69.29,62.07,69.52,62.07L69.52,62.07C69.75,62.07,69.94,61.88,69.94,61.65L69.9,57.94C69.89,57.7,69.7,57.52,69.47,57.52L69.47,57.52C69.24,57.52,69.05,57.71,69.06,57.94Z" fill="#e6f5fa"/><path d="M74,61.66C74.01,61.89,74.2,62.07,74.43,62.07L74.43,62.07C74.66,62.07,74.85,61.88,74.84,61.65L74.8,57.94C74.8,57.7,74.61,57.52,74.38,57.52L74.38,57.52C74.15,57.52,73.96,57.71,73.96,57.94Z" fill="#e6f5fa"/><path d="M66.19,38.36L66.19,38.36L69.15,48.16L66.19,51.12L63.24,41.32Z" fill="#aa122d"/><path d="M72.38,50.03C71.97,46.41,68.92,43.59,65.2,43.55L65.2,50.03Z" fill="#aa122d"/><path d="M26.32,52.36L27.45,46.63L25.82,35.73L10.81,36.81L10.81,52.36Z" fill="#e3183c"/><path d="M11.49,59.66C11.11,59.66,10.81,59.35,10.81,58.98L10.81,53.59L26.32,53.59L26.32,58.98C26.32,59.35,26.02,59.66,25.65,59.66Z" fill="#aa122d"/><path d="M26.32,58.09L10.81,58.09L10.81,52.03L26.32,52.03Z" fill="#e3183c"/><path d="M20.75,58.09L16.88,58.09L16.88,53.73C16.88,52.66,17.75,51.8,18.82,51.8L18.82,51.8C19.88,51.8,20.75,52.66,20.75,53.73L20.75,58.09L20.75,58.09Z" fill="#aa122d"/><path d="M16.28,55.78L20.84,53.44L21.41,53.62L16.66,56.53L16.09,56.35Z" fill="#e6f5fa"/><path d="M20.84,56.53L16.28,54.19L16.09,53.62L21.23,55.78L21.41,56.35Z" fill="#e6f5fa"/><path d="M21.7,61.66C21.7,61.89,21.51,62.07,21.28,62.07L21.28,62.07C21.05,62.07,20.86,61.88,20.86,61.65L20.91,57.94C20.91,57.7,21.1,57.52,21.33,57.52L21.33,57.52C21.56,57.52,21.75,57.71,21.75,57.94Z" fill="#e6f5fa"/><path d="M16.8,61.66C16.79,61.89,16.61,62.07,16.37,62.07L16.37,62.07C16.14,62.07,15.96,61.88,15.96,61.65L16,57.94C16,57.7,16.19,57.52,16.42,57.52L16.42,57.52C16.65,57.52,16.84,57.71,16.84,57.94Z" fill="#e6f5fa"/><path d="M24.61,51.12L24.61,51.12L21.65,41.32L24.61,38.36L27.57,48.16Z" fill="#aa122d"/><path d="M18.42,50.03C18.83,46.41,21.88,43.59,25.6,43.55L25.6,50.03Z" fill="#aa122d"/><path d="M25.68,51.12L25.67,51.12L22.72,41.32L25.68,38.36L28.63,48.16Z" fill="#e3183c"/><path d="M18.39,51.12C18.8,47.5,21.85,44.68,25.57,44.64L25.57,51.12Z" fill="#e3183c"/><path d="M31.49,58.14C27.78,54.75,25.74,50.22,25.74,45.38C25.74,40.54,27.78,36.01,31.49,32.62C35.11,29.31,39.91,27.49,45,27.49C50.09,27.49,54.89,29.31,58.51,32.62C62.22,36.01,64.26,40.54,64.26,45.38C64.26,50.22,62.22,54.75,58.51,58.14C54.89,61.45,50.09,63.27,45,63.27C39.91,63.27,35.11,61.45,31.49,58.14Z" fill="#f3ac24"/><path d="M65.13,38.36L65.13,38.36L68.08,48.16L65.13,51.12L62.17,41.32Z" fill="#e3183c"/><path d="M72.41,51.12C72.01,47.5,68.95,44.68,65.23,44.64L65.23,51.12Z" fill="#e3183c"/><path d="M86.37,37.03L59.35,34.71C56.09,30.33,50.87,27.49,45,27.49C39.13,27.49,33.89,30.34,30.62,34.74L3.63,37.02L3.63,53.74L30.62,56.02C33.89,60.42,39.12,63.27,45,63.27C50.88,63.27,56.09,60.43,59.36,56.04L86.37,53.68L86.37,37.03Z" fill="#f3ac24"/><path d="M83.04,50.63L54.41,53.13C52.21,55.74,48.91,57.41,45.22,57.41C41.53,57.41,38.23,55.75,36.02,53.13L6.96,50.67L6.96,40.09L36.02,37.63C38.23,35.01,41.53,33.35,45.22,33.35C48.91,33.35,52.21,35.01,54.41,37.63L83.04,40.09L83.04,50.62Z" fill="#f7cf64"/><path d="M45.22,36.8C47.75,36.8,50.14,37.91,51.78,39.85L52.23,40.38L52.7,40.94L53.43,41L79.59,43.25L79.59,47.47L53.43,49.76L52.7,49.82L52.22,50.38L51.78,50.91C50.14,52.85,47.75,53.96,45.22,53.96C42.68,53.96,40.29,52.85,38.65,50.91L38.21,50.38L37.73,49.82L37,49.76L10.4,47.51L10.4,43.25L37,41L37.73,40.94L38.21,40.38L38.65,39.85C40.29,37.91,42.68,36.8,45.22,36.8M45.22,35.02C42.16,35.02,39.27,36.36,37.29,38.71L36.85,39.23L8.63,41.62L8.63,49.14L36.85,51.53L37.29,52.05C39.27,54.4,42.16,55.74,45.22,55.74C48.28,55.74,51.16,54.4,53.14,52.05L53.58,51.53L81.37,49.1L81.37,41.62L53.58,39.23L53.14,38.7C51.16,36.36,48.28,35.02,45.22,35.02L45.22,35.02Z" fill="none" stroke="#f3ac24" stroke-width="2" stroke-linecap="butt" stroke-linejoin="miter"/><path d="M75.86,34.33L66.7,34.33C64.63,34.33,62.96,36.01,62.96,38.07L62.96,38.07L62.96,40.26L62.96,40.26C62.96,42.32,64.63,43.99,66.7,43.99L75.86,43.99C77.92,43.99,79.59,42.32,79.59,40.26L79.59,40.26L79.59,38.07L79.59,38.07C79.59,36.01,77.92,34.33,75.86,34.33Z" fill="#f3ac24"/><path d="M76.62,31.43L65.93,31.43C63.53,31.43,61.58,33.38,61.58,35.79L61.58,35.79L61.58,38.34L61.58,38.34C61.58,40.75,63.53,42.7,65.93,42.7L76.62,42.7C79.03,42.7,80.98,40.75,80.98,38.34L80.98,38.34L80.98,35.79L80.98,35.79C80.98,33.38,79.03,31.43,76.62,31.43Z" fill="#e3183c"/><path d="M14.94,34.33L24.1,34.33C26.17,34.33,27.84,36.01,27.84,38.07L27.84,38.07C27.84,38.45,27.84,39.88,27.84,40.26L27.84,40.26C27.84,42.32,26.17,43.99,24.1,43.99L14.94,43.99C12.88,43.99,11.21,42.32,11.21,40.26L11.21,40.26C11.21,39.88,11.21,38.45,11.21,38.07L11.21,38.07C11.21,36.01,12.88,34.33,14.94,34.33Z" fill="#f3ac24"/><path d="M14.18,31.43L24.87,31.43C27.27,31.43,29.22,33.38,29.22,35.79L29.22,35.79C29.22,36.23,29.22,37.9,29.22,38.34L29.22,38.34C29.22,40.75,27.27,42.7,24.87,42.7L14.18,42.7C11.77,42.7,9.82,40.75,9.82,38.34L9.82,38.34C9.82,37.9,9.82,36.23,9.82,35.79L9.82,35.79C9.82,33.38,11.77,31.43,14.18,31.43Z" fill="#e3183c"/><path d="M60.93,45.38C60.93,53.42,53.8,59.94,45,59.94C36.2,59.94,29.07,53.42,29.07,45.38C29.07,37.34,36.2,30.82,45,30.82C53.8,30.82,60.93,37.34,60.93,45.38Z" fill="#f7cf64"/><path d="M49.83,53.44C49.95,53.45,50.04,53.58,50.01,53.7C49.88,54.21,49.38,55.36,47.52,54.95C47.52,54.95,48.08,53.28,49.83,53.44Z" fill="#f3ac24"/><path d="M50.61,56.6C50.38,56.04,49.61,54.66,47.52,54.96C47.52,54.96,47.75,57.39,50.46,56.88C50.59,56.85,50.66,56.72,50.61,56.6Z" fill="#f3ac24"/><path d="M50.45,55.14C50.45,55.14,50.22,53.44,51.83,52.75C51.91,52.72,52.01,52.77,52.03,52.86C52.12,53.39,52.25,54.95,50.45,55.14Z" fill="#f3ac24"/><path d="M50.45,55.14C50.45,55.14,52.01,54.11,53.75,54.97C53.84,55.02,53.86,55.14,53.79,55.21C53.34,55.64,51.86,56.83,50.45,55.13Z" fill="#f3ac24"/><path d="M53.69,53.7L53.07,53.82C53.07,53.82,52.24,52.42,53.22,51.1C53.26,51.03,53.36,51.02,53.42,51.08C53.73,51.38,54.53,52.36,53.69,53.7Z" fill="#f3ac24"/><path d="M55.84,51.91C55.93,51.91,56,51.98,55.99,52.06C55.93,52.66,55.54,54.75,53.07,53.82C53.07,53.82,53.81,52.02,55.84,51.91Z" fill="#f3ac24"/><path d="M54.68,51.37C54.68,51.37,57.23,51.06,56.2,48.47C56.16,48.36,56.02,48.33,55.93,48.4C55.54,48.7,54.65,49.59,54.68,51.37Z" fill="#f3ac24"/><path d="M53.64,48.89C53.48,49.29,53.26,50.37,54.68,51.37C54.68,51.37,56.1,49.73,53.87,48.79C53.78,48.75,53.67,48.8,53.64,48.89Z" fill="#f3ac24"/><path d="M40.17,53.44C40.05,53.45,39.96,53.58,39.99,53.7C40.12,54.21,40.62,55.36,42.48,54.95C42.48,54.95,41.92,53.28,40.17,53.44Z" fill="#f3ac24"/><path d="M39.39,56.6C39.62,56.04,40.39,54.66,42.48,54.96C42.48,54.96,42.25,57.39,39.54,56.88C39.41,56.85,39.34,56.72,39.39,56.6Z" fill="#f3ac24"/><path d="M39.55,55.14C39.55,55.14,39.78,53.44,38.17,52.75C38.09,52.72,37.99,52.77,37.97,52.86C37.88,53.39,37.75,54.95,39.55,55.14Z" fill="#f3ac24"/><path d="M39.55,55.14C39.55,55.14,37.99,54.11,36.25,54.97C36.16,55.02,36.14,55.14,36.21,55.21C36.66,55.64,38.14,56.83,39.55,55.13Z" fill="#f3ac24"/><path d="M36.31,53.7L36.93,53.82C36.93,53.82,37.76,52.42,36.78,51.1C36.74,51.03,36.64,51.02,36.58,51.08C36.27,51.38,35.47,52.36,36.31,53.7Z" fill="#f3ac24"/><path d="M34.16,51.91C34.07,51.91,34,51.98,34.01,52.06C34.07,52.66,34.46,54.75,36.93,53.82C36.93,53.82,36.19,52.02,34.16,51.91Z" fill="#f3ac24"/><path d="M35.32,51.37C35.32,51.37,32.77,51.06,33.8,48.47C33.84,48.36,33.98,48.33,34.07,48.4C34.46,48.7,35.35,49.59,35.32,51.37Z" fill="#f3ac24"/><path d="M36.36,48.89C36.52,49.29,36.74,50.37,35.32,51.37C35.32,51.37,33.9,49.73,36.13,48.79C36.22,48.75,36.33,48.8,36.36,48.89Z" fill="#f3ac24"/><path d="M49.83,37.32C49.95,37.31,50.04,37.18,50.01,37.06C49.88,36.55,49.38,35.4,47.52,35.81C47.52,35.81,48.08,37.48,49.83,37.32Z" fill="#f3ac24"/><path d="M50.61,34.16C50.38,34.72,49.61,36.1,47.52,35.8C47.52,35.8,47.75,33.37,50.46,33.88C50.59,33.91,50.66,34.04,50.61,34.16Z" fill="#f3ac24"/><path d="M50.45,35.62C50.45,35.62,50.22,37.32,51.83,38.01C51.91,38.04,52.01,37.99,52.03,37.9C52.12,37.37,52.25,35.81,50.45,35.62Z" fill="#f3ac24"/><path d="M50.45,35.62C50.45,35.62,52.01,36.65,53.75,35.79C53.84,35.74,53.86,35.62,53.79,35.55C53.34,35.12,51.86,33.93,50.45,35.63Z" fill="#f3ac24"/><path d="M53.69,37.06L53.07,36.94C53.07,36.94,52.24,38.34,53.22,39.66C53.26,39.73,53.36,39.74,53.42,39.68C53.73,39.38,54.53,38.4,53.69,37.06Z" fill="#f3ac24"/><path d="M55.84,38.85C55.93,38.85,56,38.78,55.99,38.7C55.93,38.1,55.54,36.01,53.07,36.94C53.07,36.94,53.81,38.74,55.84,38.85Z" fill="#f3ac24"/><path d="M54.68,39.39C54.68,39.39,57.23,39.7,56.2,42.29C56.16,42.4,56.02,42.43,55.93,42.36C55.54,42.06,54.65,41.17,54.68,39.39Z" fill="#f3ac24"/><path d="M53.64,41.87C53.48,41.47,53.26,40.39,54.68,39.39C54.68,39.39,56.1,41.03,53.87,41.97C53.78,42.01,53.67,41.96,53.64,41.87Z" fill="#f3ac24"/><path d="M40.17,37.32C40.05,37.31,39.96,37.18,39.99,37.06C40.12,36.55,40.62,35.4,42.48,35.81C42.48,35.81,41.92,37.48,40.17,37.32Z" fill="#f3ac24"/><path d="M39.39,34.16C39.62,34.72,40.39,36.1,42.48,35.8C42.48,35.8,42.25,33.37,39.54,33.88C39.41,33.91,39.34,34.04,39.39,34.16Z" fill="#f3ac24"/><path d="M39.55,35.62C39.55,35.62,39.78,37.32,38.17,38.01C38.09,38.04,37.99,37.99,37.97,37.9C37.88,37.37,37.75,35.81,39.55,35.62Z" fill="#f3ac24"/><path d="M39.55,35.62C39.55,35.62,37.99,36.65,36.25,35.79C36.16,35.74,36.14,35.62,36.21,35.55C36.66,35.12,38.14,33.93,39.55,35.63Z" fill="#f3ac24"/><path d="M36.31,37.06L36.93,36.94C36.93,36.94,37.76,38.34,36.78,39.66C36.74,39.73,36.64,39.74,36.58,39.68C36.27,39.38,35.47,38.4,36.31,37.06Z" fill="#f3ac24"/><path d="M34.16,38.85C34.07,38.85,34,38.78,34.01,38.7C34.07,38.1,34.46,36.01,36.93,36.94C36.93,36.94,36.19,38.74,34.16,38.85Z" fill="#f3ac24"/><path d="M35.32,39.39C35.32,39.39,32.77,39.7,33.8,42.29C33.84,42.4,33.98,42.43,34.07,42.36C34.46,42.06,35.35,41.17,35.32,39.39Z" fill="#f3ac24"/><path d="M36.36,41.87C36.52,41.47,36.74,40.39,35.32,39.39C35.32,39.39,33.9,41.03,36.13,41.97C36.22,42.01,36.33,41.96,36.36,41.87Z" fill="#f3ac24"/><path d="M30.16,44.24L32.35,44.55L30.76,46.1L31.14,48.29L29.17,47.26L27.21,48.29L27.58,46.1L25.99,44.55L28.19,44.24L29.17,42.25Z" fill="#f3ac24"/><path d="M61.81,44.24L64.01,44.55L62.42,46.1L62.79,48.29L60.83,47.26L58.86,48.29L59.24,46.1L57.65,44.55L59.84,44.24L60.83,42.25Z" fill="#f3ac24"/><path d="M46.7,44.54L47.89,44.54L48.02,44.3C48.23,43.91,48.32,43.55,48.32,43.14L48.32,42.89L47.03,42.04C47.43,41.57,47.65,40.96,47.65,40.34C47.65,39.26,47.01,38.29,46.01,37.88L45.82,37.79L45.79,37.8C45.54,37.72,45.27,37.68,45,37.68C43.54,37.68,42.35,38.87,42.35,40.34C42.35,40.96,42.57,41.57,42.97,42.04L41.68,42.89L41.68,43.14C41.68,43.55,41.77,43.91,41.98,44.3L42.11,44.54L43.3,44.54L43.3,44.57C43.28,45.26,43.06,46.34,41.44,47.57C40.92,47.97,40.51,48.53,40.27,49.2L40.24,49.27C40.24,49.29,40.23,49.3,40.23,49.31L40.09,49.73L40.11,49.74C40.03,50.09,39.99,50.46,39.99,50.84C39.99,51.73,41.67,52.19,45,52.19C48.33,52.19,50.01,51.73,50.01,50.84C50.01,49.46,49.48,48.27,48.56,47.57C46.92,46.32,46.72,45.23,46.7,44.54Z" fill="#f3ac24"/><path d="M44.92,48.72C45.17,47.6,45.38,46.41,45.52,45.7C45.68,44.81,44.33,44.65,43.77,44.56C43.75,45.33,43.54,46.56,41.73,47.94C41.24,48.31,40.87,48.85,40.66,49.49C41.15,49.73,41.81,49.87,42.81,49.87C43.46,49.87,44.65,49.95,44.92,48.72Z" fill="#f7cf64"/><path d="M46.06,43.14L45.16,42.11C46.11,41.7,46.68,40.94,46.68,40.05C46.68,39.34,46.35,38.71,45.82,38.31C45.82,38.31,45.82,38.31,45.82,38.31C45.57,38.21,45.29,38.15,45,38.15C43.79,38.15,42.82,39.13,42.82,40.34C42.82,41.06,43.17,41.71,43.72,42.11L42.14,43.14C42.14,43.49,42.23,43.77,42.39,44.07L45.87,44.07C46.08,43.52,46.06,43.14,46.06,43.14Z" fill="#f7cf64"/></svg>