<svg xmlns="http://www.w3.org/2000/svg" viewBox="0 0 90 90"><path d="M75.21,89.44L14.77,89.44C6.94,89.44,0.54,83.04,0.54,75.22L0.54,14.78C0.54,6.96,6.94,0.56,14.77,0.56L75.21,0.56C83.03,0.56,89.43,6.96,89.43,14.78L89.43,75.22C89.43,83.04,83.03,89.44,75.21,89.44Z" fill="#5b3a34"/><path d="M6.79,16.27L6.79,73.73C6.79,78.95,11.04,83.19,16.26,83.19L73.72,83.19C78.93,83.19,83.18,78.95,83.18,73.73L83.18,16.27C83.18,11.05,78.93,6.81,73.72,6.81L16.26,6.81C11.04,6.81,6.79,11.05,6.79,16.27Z" fill="url(#Unnamed_Pattern)"/><path d="M6.67,44.82L45.01,44.82L45.01,83.16L6.67,83.16Z" fill="#f0ab21"/><path d="M44.96,44.82L83.3,44.82L83.3,83.16L44.96,83.16Z" fill="#ee4552"/><path d="M6.67,6.84L45.01,6.84L45.01,45.18L6.67,45.18Z" fill="#ee4552"/><path d="M44.96,6.84L83.3,6.84L83.3,45.18L44.96,45.18Z" fill="#f0ab21"/><path d="M70.21,34.49L68.85,34.49L68.85,33.22L66.21,32.39L66.21,28.72L68.88,26.12L67.52,24.77L68.96,23.33L67.88,22.25L69.35,20.78L65.2,15.66C64.6,14.67,63.52,14.01,62.28,14.01C62.16,14.01,62.05,14.02,61.93,14.03L61.46,12.31L60.1,12.31L60.1,14.69L53.44,18.29L53.44,18.3L52.42,20.36L53.94,22.21L53.94,22.22L58.07,22.22L58.07,23.44L57.62,23.85L54.63,26.76L54.63,30.96L55.59,32.39L52.94,33.22L52.94,34.49L51.59,34.49C50.26,34.49,49.19,35.57,49.19,36.89L49.19,39.72L72.6,39.72L72.6,36.89C72.6,35.56,71.53,34.49,70.2,34.49Z" fill="#e48f2a"/><path d="M76.67,34.49L75.32,34.49L75.32,33.22L72.67,32.39L72.67,28.72L75.34,26.12L73.99,24.77L75.43,23.33L74.35,22.25L75.81,20.78L71.66,15.66C71.07,14.67,69.98,14.01,68.74,14.01C68.63,14.01,68.51,14.02,68.4,14.03L67.93,12.31L66.56,12.31L66.56,14.69L59.91,18.29L59.91,18.3L58.88,20.36L60.4,22.21L60.4,22.22L64.54,22.22L64.54,23.44L64.09,23.85L61.1,26.76L61.1,30.96L62.05,32.39L59.41,33.22L59.41,34.49L58.05,34.49C56.73,34.49,55.65,35.57,55.65,36.89L55.65,39.72L79.07,39.72L79.07,36.89C79.07,35.56,77.99,34.49,76.67,34.49Z" fill="#5b3a34"/><path d="M25.24,13.45C26.25,14.75,26.02,16.62,24.72,17.63C23.43,18.65,21.55,18.42,20.54,17.12C19.53,15.82,19.76,13.95,21.06,12.94C22.35,11.93,24.23,12.16,25.24,13.45Z" fill="#e3183c"/><path d="M30.84,34.49L30.84,34.34L30.84,34.34L30.84,33.22L28.2,32.39L28.2,28.87L30.34,28.87L30.34,24.94L28.2,24.94L28.2,23.57C28.2,20.64,25.82,18.26,22.89,18.26L22.89,18.26C19.96,18.26,17.58,20.64,17.58,23.57L17.58,24.94L15.43,24.94L15.43,28.87L17.58,28.87L17.58,32.39L14.93,33.22L14.93,34.49L13.58,34.49C12.25,34.49,11.18,35.57,11.18,36.89L11.18,39.72L34.6,39.72L34.6,36.89C34.6,35.56,33.52,34.49,32.2,34.49Z" fill="#e3183c"/><path d="M31.14,13.45C32.16,14.75,31.93,16.62,30.63,17.63C29.33,18.65,27.46,18.42,26.45,17.12C25.44,15.82,25.67,13.95,26.96,12.94C28.26,11.93,30.13,12.16,31.14,13.45Z" fill="#5b3a34"/><path d="M36.75,34.49L36.75,34.34L36.75,34.34L36.75,33.22L34.11,32.39L34.11,28.87L36.25,28.87L36.25,24.94L34.11,24.94L34.11,23.57C34.11,20.64,31.73,18.26,28.8,18.26L28.8,18.26C25.86,18.26,23.49,20.64,23.49,23.57L23.49,24.94L21.34,24.94L21.34,28.87L23.49,28.87L23.49,32.39L20.84,33.22L20.84,34.49L19.49,34.49C18.16,34.49,17.09,35.57,17.09,36.89L17.09,39.72L40.5,39.72L40.5,36.89C40.5,35.56,39.43,34.49,38.1,34.49Z" fill="#5b3a34"/><path d="M70.21,74.67L68.85,74.67L68.85,74.52L68.85,74.52L68.85,73.39L66.21,72.57L66.21,68.59L68.85,68.59L68.85,65.49L66.21,65.49L66.21,63.36C67.08,63.08,67.71,62.27,67.71,61.31L67.71,58.88L67.71,58.88L68.44,54.54L66.23,54.54L66.08,55.46L64.62,55.46L64.62,54.77C64.62,52.97,63.35,51.47,61.66,51.12L61.66,49.9L63.02,49.9L63.02,48.38L61.66,48.38L61.66,47.01L60.14,47.01L60.14,48.38L58.77,48.38L58.77,49.9L60.14,49.9L60.14,51.12C58.44,51.47,57.17,52.97,57.17,54.77L57.17,55.46L55.72,55.46L55.56,54.54L53.35,54.54L54.09,58.88L54.08,58.88L54.08,61.31C54.08,62.27,54.71,63.08,55.59,63.36L55.59,65.49L52.94,65.49L52.94,68.59L55.59,68.59L55.59,72.57L52.94,73.39L52.94,74.67L51.59,74.67C50.26,74.67,49.19,75.74,49.19,77.07L49.19,79.89L72.6,79.89L72.6,77.07C72.6,75.74,71.53,74.67,70.21,74.67Z" fill="#e3183c"/><path d="M76.67,74.67L75.32,74.67L75.32,73.39L72.67,72.57L72.67,68.59L75.32,68.59L75.32,65.49L72.67,65.49L72.67,63.36C73.55,63.08,74.18,62.27,74.18,61.31L74.18,58.88L74.17,58.88L74.75,55.48C75.19,55.19,75.47,54.69,75.47,54.12C75.47,53.22,74.74,52.48,73.83,52.48C72.93,52.48,72.19,53.22,72.19,54.12C72.19,54.53,72.34,54.91,72.59,55.19L72.28,56.98C71.79,56.63,71.18,56.34,70.48,56.12L70.65,53.64C70.95,53.34,71.13,52.93,71.13,52.48C71.13,51.57,70.4,50.84,69.49,50.84C68.58,50.84,67.85,51.57,67.85,52.48C67.85,52.98,68.07,53.43,68.43,53.74L68.3,55.7C67.99,55.68,67.68,55.66,67.36,55.66C67,55.66,66.65,55.68,66.31,55.71L66.16,53.56C66.41,53.27,66.57,52.89,66.57,52.48C66.57,51.57,65.83,50.84,64.92,50.84C64.02,50.84,63.28,51.57,63.28,52.48C63.28,53.03,63.55,53.51,63.97,53.81L64.13,56.16C63.48,56.37,62.91,56.65,62.44,56.98L62.14,55.19C62.39,54.91,62.54,54.53,62.54,54.12C62.54,53.22,61.8,52.48,60.9,52.48C59.99,52.48,59.25,53.22,59.25,54.12C59.25,54.69,59.54,55.19,59.98,55.48L60.56,58.88L60.55,58.88L60.55,61.31C60.55,62.27,61.18,63.08,62.05,63.36L62.05,65.49L59.41,65.49L59.41,68.59L62.05,68.59L62.05,72.57L59.41,73.39L59.41,74.67L58.06,74.67C56.73,74.67,55.66,75.74,55.66,77.07L55.66,79.89L79.07,79.89L79.07,77.07C79.07,75.74,78,74.67,76.67,74.67Z" fill="#5b3a34"/><path d="M32.2,74.67L30.84,74.67L30.84,73.39L28.2,72.57L28.2,68.59L30.84,68.59L30.84,65.49L28.2,65.49L28.2,63.83L30.34,63.83L30.34,52.54L27.36,52.54L27.36,55.46L24.38,55.46L24.38,52.54L21.4,52.54L21.4,55.46L18.41,55.46L18.41,52.54L15.43,52.54L15.43,63.83L17.58,63.83L17.58,65.49L14.93,65.49L14.93,68.59L17.58,68.59L17.58,72.57L14.93,73.39L14.93,74.67L13.58,74.67C12.25,74.67,11.18,75.74,11.18,77.07L11.18,79.89L34.59,79.89L34.59,77.07C34.59,75.74,33.52,74.67,32.2,74.67Z" fill="#e48f2a"/><path d="M38.1,74.67L36.75,74.67L36.75,73.39L34.11,72.57L34.11,68.59L36.75,68.59L36.75,65.49L34.11,65.49L34.11,63.83L36.25,63.83L36.25,52.54L33.27,52.54L33.27,55.46L30.29,55.46L30.29,52.54L27.3,52.54L27.3,55.46L24.32,55.46L24.32,52.54L21.34,52.54L21.34,63.83L23.48,63.83L23.48,65.49L20.84,65.49L20.84,68.59L23.48,68.59L23.48,72.57L20.84,73.39L20.84,74.67L19.48,74.67C18.16,74.67,17.09,75.74,17.09,77.07L17.09,79.89L40.5,79.89L40.5,77.07C40.5,75.74,39.43,74.67,38.1,74.67Z" fill="#5b3a34"/><path d="M75.24,0.56L14.79,0.56C6.97,0.56,0.57,6.96,0.57,14.78L0.57,75.22C0.57,83.04,6.97,89.44,14.79,89.44L75.23,89.44C83.06,89.44,89.46,83.04,89.46,75.22L89.46,14.78C89.46,6.96,83.06,0.56,75.23,0.56ZM73.74,83.19L16.28,83.19C11.07,83.19,6.82,78.95,6.82,73.73L6.82,16.27C6.82,11.05,11.07,6.81,16.28,6.81L73.74,6.81C78.96,6.81,83.21,11.05,83.21,16.27L83.21,73.73C83.21,78.95,78.96,83.19,73.74,83.19Z" fill="#5b3a34"/></svg>