<svg xmlns="http://www.w3.org/2000/svg" viewBox="0 0 90 90"><path d="M0,0L90,0L90,90L0,90Z" fill="none" stroke="#ffffff" stroke-width="1" stroke-linecap="butt" stroke-linejoin="miter"/><path d="M75.22,89.44L14.78,89.44C6.96,89.44,0.55,83.04,0.55,75.22L0.55,14.78C0.56,6.96,6.96,0.56,14.78,0.56L75.22,0.56C83.04,0.56,89.44,6.96,89.44,14.78L89.44,75.22C90.39,82.38,84.75,88.25,75.22,89.44Z" fill="#7ed3f7"/><path d="M16.27,6.81L73.73,6.81C78.95,6.81,83.19,11.05,83.19,16.27L83.19,73.73C83.19,78.95,78.95,83.19,73.73,83.19L16.27,83.19C11.05,83.19,6.81,78.95,6.81,73.73L6.81,16.27C6.81,11.05,11.05,6.81,16.27,6.81Z" fill="#0d5887"/><path d="M63.57,53.49C63.57,59.38,68.34,64.15,74.23,64.15C75.19,64.15,76.11,64.02,77,63.78L77,75.07C77,77.16,75.3,78.86,73.21,78.86L55.72,78.86C55.94,78,56.06,77.1,56.06,76.17C56.06,70.28,51.29,65.51,45.41,65.51C39.53,65.51,34.76,70.28,34.76,76.17C34.76,77.1,34.88,78,35.1,78.86L17.61,78.86C15.52,78.86,13.83,77.16,13.83,75.07L13.83,63.59C14.6,63.76,15.4,63.86,16.23,63.86C22.12,63.86,26.89,59.09,26.89,53.21C26.89,47.33,22.12,42.56,16.23,42.56C15.4,42.56,14.6,42.65,13.83,42.83L13.83,27.39C13.83,25.3,15.52,23.6,17.61,23.6L35,23.6C34.84,22.87,34.76,22.12,34.76,21.34C34.76,15.46,39.53,10.69,45.41,10.69C51.29,10.69,56.06,15.46,56.06,21.34C56.06,22.12,55.98,22.87,55.82,23.6L73.21,23.6C75.3,23.6,77,25.3,77,27.39L77,43.21C76.11,42.97,75.19,42.84,74.23,42.84C68.34,42.84,63.57,47.61,63.57,53.49Z" fill="#f7cf64"/><path d="M33.77,40.82L33.77,38.65C33.77,37.42,34.77,36.43,35.99,36.43C37.22,36.43,38.22,37.42,38.22,38.65L38.22,40.82C38.22,42.05,37.22,43.05,35.99,43.05C34.77,43.05,33.77,42.05,33.77,40.82Z" fill="#0d5887"/><path d="M53.05,40.82L53.05,38.65C53.05,37.42,54.04,36.43,55.27,36.43C56.5,36.43,57.49,37.42,57.49,38.65L57.49,40.82C57.49,42.05,56.5,43.05,55.27,43.05C54.04,43.05,53.05,42.05,53.05,40.82Z" fill="#0d5887"/><path d="M60.96,56.82C60.96,62.31,54,66.77,45.41,66.77C36.82,66.77,29.86,62.31,29.86,56.82C29.86,51.33,36.82,46.87,45.41,46.87C54,46.87,60.96,51.33,60.96,56.82Z" fill="#7ed3f7"/><path d="M45.41,69.74C40.96,69.74,37.33,66.12,37.33,61.67C37.33,59.06,38.6,56.6,40.73,55.09C41.48,54.55,42.52,54.73,43.05,55.48C43.59,56.23,43.41,57.27,42.66,57.8C41.41,58.69,40.67,60.14,40.67,61.67C40.67,64.28,42.79,66.41,45.41,66.41C48.02,66.41,50.15,64.28,50.15,61.67C50.15,60.18,49.48,58.81,48.3,57.91C47.57,57.35,47.43,56.3,47.99,55.57C48.56,54.84,49.6,54.7,50.33,55.26C52.34,56.81,53.48,59.14,53.48,61.67C53.48,66.12,49.86,69.74,45.41,69.74Z" fill="#fff"/></svg>