<svg xmlns="http://www.w3.org/2000/svg" viewBox="0 0 90 90"><path d="M89.44,75.22C89.44,83.04,83.04,89.44,75.22,89.44L14.78,89.44C6.96,89.44,0.56,83.04,0.56,75.22L0.56,14.78C0.56,6.96,6.96,0.56,14.78,0.56L75.22,0.56C83.04,0.56,89.44,6.96,89.44,14.78L89.44,75.22Z" fill="#e3183c"/><path d="M16.28,6.81C11.06,6.81,6.81,11.05,6.81,16.27L6.81,73.73C6.81,78.95,11.06,83.19,16.28,83.19L73.74,83.19C78.96,83.19,83.2,78.95,83.2,73.73L83.2,16.27C83.2,11.05,78.96,6.81,73.74,6.81L16.28,6.81Z" fill="#e6bc4c"/><path d="M68.54,74.09C68.94,73.36,69.16,72.52,69.16,71.62C69.16,68.75,66.83,66.42,63.96,66.42C61.08,66.42,58.75,68.75,58.75,71.62C58.75,72.52,58.98,73.36,59.38,74.09L68.54,74.09Z" fill="#fae2a2"/><path d="M61.25,28.37C61.03,28.37,60.81,28.38,60.6,28.4C60.69,27.96,60.74,27.5,60.74,27.02C60.74,23.19,57.63,20.08,53.8,20.08C52.63,20.08,51.53,20.37,50.56,20.88C49.71,18.01,47.06,15.91,43.9,15.91C40.6,15.91,37.83,18.22,37.13,21.32C36.01,20.54,34.65,20.08,33.18,20.08C29.35,20.08,26.24,23.19,26.24,27.02C26.24,27.32,26.26,27.62,26.3,27.91C25.99,27.87,25.67,27.84,25.34,27.84C21.51,27.84,18.4,30.95,18.4,34.78C18.4,38.62,21.51,41.72,25.34,41.72C26.14,41.72,26.91,41.59,27.62,41.34C27.55,41.34,27.49,41.34,27.42,41.34C24.54,41.34,22.21,39.01,22.21,36.14C22.21,33.27,24.54,30.94,27.42,30.94C27.65,30.94,27.88,30.95,28.11,30.99C28.02,30.61,27.98,30.23,27.98,29.83C27.98,26.96,30.31,24.63,33.18,24.63C35.07,24.63,36.73,25.64,37.64,27.15C38.55,25.62,40.22,24.58,42.13,24.58C44.25,24.58,46.08,25.86,46.89,27.69C46.55,27.63,46.21,27.6,45.85,27.6C43.56,27.6,41.57,28.95,40.66,30.9C39.71,29.61,38.18,28.76,36.45,28.76C33.58,28.76,31.25,31.09,31.25,33.96C31.25,35.25,31.71,36.42,32.48,37.33C32.04,39.21,30.58,40.7,28.72,41.18C29.88,42.7,31.71,43.68,33.77,43.68C36.17,43.68,38.25,42.36,39.33,40.4C39.72,40.11,40.08,39.78,40.41,39.41C41.62,41.02,43.51,42.08,45.65,42.17C46.38,42.42,47.15,42.56,47.96,42.56C50.5,42.56,52.72,41.22,53.96,39.21C53.29,38.36,52.9,37.3,52.9,36.14C52.9,33.41,55.11,31.19,57.85,31.19C60.58,31.19,62.8,33.41,62.8,36.14C62.8,38.88,60.58,41.09,57.85,41.09C57.78,41.09,57.71,41.09,57.64,41.09C58.69,41.74,59.93,42.11,61.25,42.11C65.05,42.11,68.13,39.04,68.13,35.24C68.13,31.44,65.05,28.37,61.25,28.37Z" fill="#fae2a2"/><path d="M62.8,36.14C62.8,33.41,60.58,31.19,57.84,31.19C55.11,31.19,52.89,33.41,52.89,36.14C52.89,37.3,53.29,38.36,53.96,39.21C54.83,40.31,56.15,41.03,57.64,41.09C57.71,41.09,57.78,41.1,57.84,41.1C60.58,41.1,62.8,38.88,62.8,36.14Z" fill="#f7cf64"/><path d="M32.48,37.33C31.71,36.42,31.25,35.25,31.25,33.96C31.25,31.09,33.58,28.76,36.45,28.76C38.18,28.76,39.71,29.61,40.66,30.9C41.57,28.95,43.55,27.6,45.85,27.6C46.21,27.6,46.55,27.63,46.89,27.69C46.08,25.86,44.25,24.58,42.13,24.58C40.21,24.58,38.54,25.62,37.64,27.15C36.73,25.64,35.07,24.63,33.18,24.63C30.31,24.63,27.98,26.96,27.98,29.83C27.98,30.23,28.02,30.61,28.11,30.99C27.88,30.96,27.65,30.94,27.41,30.94C24.54,30.94,22.21,33.27,22.21,36.14C22.21,39.01,24.54,41.34,27.41,41.34C27.48,41.34,27.55,41.34,27.62,41.34C28,41.32,28.36,41.27,28.72,41.18C30.58,40.7,32.04,39.21,32.48,37.32Z" fill="#f7cf64"/><path d="M34.73,74.09L34.73,34.99L68.15,34.99L64.08,74.09Z" fill="#e94663"/><path d="M51.85,74.09L51.85,34.99L18.43,34.99L22.5,74.09Z" fill="#e3183c"/><path d="M26.26,72.02C26.26,69.6,24.3,67.64,21.89,67.64C19.47,67.64,17.51,69.6,17.51,72.02C17.51,72.77,17.7,73.47,18.04,74.09L25.74,74.09C26.07,73.47,26.26,72.77,26.26,72.02Z" fill="#fae2a2"/><path d="M34.57,74.09C34.77,73.73,34.89,73.3,34.89,72.86C34.89,71.42,33.72,70.26,32.28,70.26C30.85,70.26,29.68,71.42,29.68,72.86C29.68,73.3,29.79,73.72,29.99,74.09L34.57,74.09Z" fill="#fae2a2"/><path d="M72.2,74.09C72.39,73.73,72.51,73.3,72.51,72.86C72.51,71.42,71.34,70.26,69.9,70.26C68.47,70.26,67.3,71.42,67.3,72.86C67.3,73.3,67.41,73.72,67.61,74.09L72.19,74.09Z" fill="#fae2a2"/><path d="M67.43,42.08L67.38,42.52L67.43,42.52Z" fill="#f7cf64"/><path d="M51.88,42.52L67.38,42.52L67.82,38.58L51.88,38.58Z" fill="#f7cf64"/><path d="M18.74,38.58L19.15,42.52L34.66,42.52L34.66,38.58Z" fill="#e6bc4c"/><path d="M34.66,38.58L51.88,38.58L51.88,42.52L34.66,42.52Z" fill="#e6bc4c"/><path d="M66.5,50.9L66.91,46.95L51.88,46.95L51.88,50.9Z" fill="#f7cf64"/><path d="M19.62,46.95L20.04,50.9L34.66,50.9L34.66,46.95Z" fill="#e6bc4c"/><path d="M34.66,46.95L51.88,46.95L51.88,50.9L34.66,50.9Z" fill="#e6bc4c"/><path d="M65.61,59.27L66.03,55.33L51.88,55.33L51.88,59.27Z" fill="#f7cf64"/><path d="M20.5,55.33L20.92,59.27L34.66,59.27L34.66,55.33Z" fill="#e6bc4c"/><path d="M34.66,55.33L51.88,55.33L51.88,59.27L34.66,59.27Z" fill="#e6bc4c"/><path d="M64.73,67.64L65.15,63.7L51.88,63.7L51.88,67.64Z" fill="#f7cf64"/><path d="M21.39,63.7L21.8,67.64L34.66,67.64L34.66,63.7Z" fill="#e6bc4c"/><path d="M34.66,63.7L51.88,63.7L51.88,67.64L34.66,67.64Z" fill="#e6bc4c"/><path d="M17.51,33.86L68.63,33.86L68.63,34.93L17.51,34.93Z" fill="#ffe9c5"/><path d="M53.24,53.67C53.24,59.29,48.69,63.85,43.07,63.85C37.45,63.85,32.9,59.29,32.9,53.67C32.9,48.06,37.45,43.5,43.07,43.5C48.69,43.5,53.24,48.06,53.24,53.67Z" fill="#fae2a2"/></svg>