<svg xmlns="http://www.w3.org/2000/svg" viewBox="0 0 90 90"><path d="M75.22,89.44L14.78,89.44C6.96,89.44,0.56,83.04,0.56,75.22L0.56,14.78C0.56,6.96,6.96,0.56,14.78,0.56L75.22,0.56C83.05,0.56,89.44,6.96,89.44,14.78L89.44,75.22C89.44,83.04,83.04,89.44,75.22,89.44Z" fill="#7b7ba3"/><path d="M6.81,16.27L6.81,73.73C6.81,78.95,11.05,83.19,16.27,83.19L73.73,83.19C78.95,83.19,83.2,78.95,83.2,73.73L83.2,16.27C83.2,11.05,78.95,6.81,73.73,6.81L16.27,6.81C11.05,6.81,6.81,11.05,6.81,16.27Z" fill="#555b88"/><path d="M43.36,45.02C41.9,43.57,39.55,43.57,38.09,45.02C39.55,43.57,39.55,41.21,38.09,39.76C36.64,38.3,34.28,38.3,32.82,39.76L30.26,42.32L25.78,39.86C24.21,39,22.29,39.39,21.17,40.69C21.12,40.73,21.07,40.78,21.03,40.83L16.06,45.79C15.79,46.07,12.1,49.79,11.86,50.09C10.25,52.11,9.44,54.67,9.63,57.27L9.69,58.24L2.8,65.2L23.14,85.54L29.99,78.75L30.97,78.82C33.57,79,36.13,78.19,38.14,76.58C38.45,76.34,38.74,76.08,39.01,75.81L47.51,67.31C47.68,67.14,47.83,66.96,47.96,66.76L52.86,61.87C54.31,60.41,54.31,58.06,52.86,56.6L52.86,56.6C51.42,55.17,49.11,55.15,47.65,56.55C47.65,56.54,47.65,56.54,47.65,56.54L48.35,55.84C49.8,54.39,49.8,52.03,48.35,50.57L48.35,50.57C46.9,49.12,44.54,49.12,43.08,50.57L43.36,50.29C44.82,48.84,44.82,46.48,43.36,45.03Z" fill="#f3ac24"/><path d="M63.55,4.46L53.5,14.43L52.53,14.36C49.93,14.18,47.37,14.99,45.35,16.59C45.05,16.84,44.46,17.39,44.19,17.66L39.22,22.63C39.18,22.68,39.13,22.72,39.09,22.77C37.78,23.9,37.39,25.81,38.26,27.38L40.71,31.87L40.23,32.35C40.23,32.35,40.23,32.35,40.23,32.35L39.54,33.04C39.54,33.04,39.54,33.04,39.54,33.04L39.04,33.54C37.59,34.99,37.59,37.35,39.04,38.8C40.5,40.26,42.86,40.26,44.31,38.8C42.86,40.26,42.86,42.62,44.31,44.07C45.77,45.53,48.12,45.53,49.58,44.07L49.86,43.79C48.4,45.25,48.4,47.61,49.86,49.06L49.86,49.06C51.31,50.51,53.67,50.51,55.13,49.06L55.82,48.36C55.82,48.36,55.83,48.36,55.83,48.36C54.43,49.82,54.45,52.13,55.89,53.57L55.89,53.57C57.34,55.02,59.7,55.02,61.15,53.57L60.95,53.78C61.12,53.66,61.29,53.53,61.44,53.38L74.2,40.62C74.48,40.34,74.73,40.05,74.98,39.75C76.58,37.73,77.39,35.17,77.21,32.57L77.14,31.59L83.88,24.79L63.55,4.46Z" fill="#f3ac24"/><path d="M47.65,56.54L47.59,56.6C47.61,56.58,47.63,56.56,47.65,56.54C47.65,56.54,47.65,56.54,47.65,56.54Z" fill="#f3ac24"/><path d="M38.09,39.76C36.64,38.3,34.28,38.3,32.82,39.76L31.01,41.57L31.29,41.29L30.26,42.31L25.78,39.86C24.21,39,22.29,39.39,21.17,40.69C21,40.88,20.85,41.1,20.72,41.33L20.72,41.33C19.74,43.14,20.4,45.4,22.2,46.39L29.02,50.13C30.83,51.12,33.09,50.46,34.08,48.65L34.08,48.65C34.37,48.12,34.52,47.55,34.54,46.98C34.63,47.51,34.61,48.07,34.46,48.63C33.9,50.61,31.85,51.76,29.87,51.21L24.72,49.77C24.8,50.61,25.15,51.42,25.79,52.05C27.25,53.51,29.61,53.51,31.06,52.05C29.61,53.51,29.61,55.87,31.06,57.32L31.06,57.32C32.51,58.78,34.87,58.78,36.33,57.32C34.87,58.78,34.87,61.13,36.33,62.59L36.33,62.59C37.78,64.04,40.14,64.04,41.6,62.59C40.14,64.04,40.14,66.4,41.6,67.86L41.6,67.86C43.05,69.31,45.41,69.31,46.86,67.86L47.96,66.76L48.37,66.35L51.34,63.38L52.86,61.86C54.31,60.41,54.31,58.05,52.86,56.6L52.86,56.6C51.42,55.16,49.1,55.14,47.65,56.54C47.63,56.56,47.61,56.58,47.59,56.6L47.65,56.54L48.35,55.84C49.8,54.38,49.8,52.02,48.35,50.57L48.35,50.57C46.89,49.11,44.53,49.11,43.08,50.57L43.36,50.29C44.81,48.84,44.81,46.48,43.36,45.02L43.36,45.02C41.9,43.57,39.54,43.57,38.09,45.02C39.54,43.57,39.54,41.21,38.09,39.75Z" fill="#f7cf64"/><path d="M39.54,33.04C39.54,33.04,39.54,33.04,39.54,33.04C39.64,32.94,40.06,32.52,40.17,32.41L40.23,32.35C40.23,32.35,40.23,32.35,40.23,32.35L39.53,33.05Z" fill="#f7cf64"/><path d="M61.76,52.97C60.8,53.93,59.24,53.93,58.28,52.97L56.49,51.18C55.73,50.42,55.57,49.28,56.02,48.36L55.9,48.25C54.94,48.98,53.56,48.91,52.68,48.03L50.89,46.24C50.01,45.36,49.94,43.98,50.67,43.01L50.65,42.99C49.68,43.84,48.21,43.8,47.29,42.88L45.5,41.09C44.57,40.17,44.54,38.7,45.39,37.73L45.38,37.72C44.41,38.57,42.94,38.54,42.02,37.61L40.23,35.82C39.27,34.86,39.27,33.31,40.23,32.35L39.04,33.53C37.59,34.99,37.59,37.34,39.04,38.8C40.5,40.25,42.86,40.25,44.31,38.8C42.86,40.25,42.86,42.61,44.31,44.07L44.31,44.07C45.76,45.52,48.12,45.52,49.58,44.07L49.86,43.79C48.4,45.24,48.4,47.6,49.86,49.06L49.86,49.06C51.31,50.51,53.67,50.51,55.12,49.06L55.82,48.36C55.82,48.36,55.83,48.36,55.83,48.35C54.43,49.81,54.45,52.13,55.88,53.56L55.88,53.56C57.34,55.02,59.7,55.02,61.15,53.56L60.95,53.77C60.95,53.77,60.95,53.77,60.95,53.77L61.75,52.96Z" fill="#f3ac24"/><path d="M34.13,48.7L34.13,48.7C33.14,50.5,30.87,51.16,29.07,50.17L22.25,46.44C20.44,45.45,19.78,43.18,20.77,41.38L20.77,41.38C20.9,41.15,21.05,40.93,21.22,40.74C21.17,40.78,21.12,40.82,21.07,40.87L16.11,45.84C15.83,46.11,12.15,49.83,11.91,50.13C10.3,52.15,9.49,54.71,9.67,57.31L9.74,58.28L-12.87,80.96L7.47,101.3L30.04,78.79L31.01,78.86C33.61,79.04,36.17,78.24,38.19,76.63C38.19,76.63,38.19,76.63,38.19,76.63L46.91,67.91C45.46,69.36,43.1,69.36,41.64,67.91L41.64,67.91C40.19,66.45,40.19,64.09,41.64,62.64C40.19,64.09,37.83,64.09,36.38,62.64L36.38,62.64C34.92,61.18,34.92,58.82,36.38,57.37C34.92,58.82,32.56,58.82,31.11,57.37C29.65,55.92,29.65,53.56,31.11,52.1C29.65,53.56,27.3,53.56,25.84,52.1C25.2,51.46,24.85,50.65,24.77,49.82L29.91,51.26C31.9,51.81,33.95,50.66,34.5,48.67C34.66,48.12,34.68,47.56,34.59,47.03C34.57,47.6,34.42,48.17,34.13,48.7Z" fill="#f3ac24"/><path d="M53.5,14.43L52.53,14.36C49.93,14.18,47.37,14.99,45.35,16.6C45.05,16.84,44.46,17.39,44.19,17.67L39.22,22.63C39.18,22.68,39.13,22.73,39.09,22.77C37.78,23.9,37.39,25.81,38.26,27.38L40.71,31.87L40.23,32.35C39.27,33.31,39.27,34.87,40.23,35.83L42.02,37.62C42.54,38.14,43.24,38.38,43.93,38.33L44.79,39.19C44.74,39.87,44.98,40.57,45.5,41.09L47.29,42.88C47.81,43.41,48.51,43.64,49.2,43.6L50.17,44.57C50.19,45.18,50.43,45.78,50.89,46.24L52.68,48.03C53.14,48.49,53.74,48.73,54.35,48.75L55.94,50.34C56.06,50.65,56.24,50.93,56.49,51.18L58.28,52.97C59.24,53.93,60.8,53.93,61.76,52.97L65.71,49.12L74.98,39.75C76.59,37.73,77.4,35.17,77.21,32.57L77.15,31.6L94.05,14.63L73.72,-5.7L53.5,14.43Z" fill="#f7cf64"/><path d="M38.25,27.39L40.71,31.87L45.59,26.99C45.59,23.37,40.82,28.47,37.8,25.45C37.77,26.1,37.92,26.77,38.25,27.39Z" fill="#f3ac24"/><path d="M31.51,11.77L23.96,11.77L14.74,23.66L12.27,26.84L24.31,26.84L17.2,36.85L17.5,37.11L29.47,26.19L32.98,22.99L20.72,22.99Z" fill="#f7cf64"/></svg>