<svg xmlns="http://www.w3.org/2000/svg" viewBox="0 0 90 90"><path d="M0.55,75.22C0.55,83.04,6.95,89.45,14.77,89.45L75.21,89.45C83.36,89.07,89.81,82.6,89.44,75.22L89.44,14.78C89.44,6.95,83.04,0.56,75.21,0.56L14.77,0.56C6.95,0.56,0.55,6.96,0.55,14.78L0.55,75.22Z" fill="#a56d32"/><path d="M73.72,6.81C78.94,6.81,83.19,11.05,83.19,16.27L83.19,73.73C83.19,78.95,78.94,83.19,73.72,83.19L16.26,83.19C11.04,83.19,6.8,78.95,6.8,73.73L6.8,16.27C6.8,11.05,11.04,6.81,16.26,6.81L73.72,6.81Z" fill="#b78a5b"/><path d="M48.98,44.61L52.02,44.61L52.02,47.65L48.98,47.65Z" fill="#533719"/><path d="M34.69,47.48L28.04,49.73L28.04,40.88L37.44,37.84L37.44,43.64C37.44,45.38,36.33,46.92,34.69,47.48Z" fill="none" stroke="#ffffff" stroke-width="1" stroke-linecap="butt" stroke-linejoin="miter"/><path d="M43.94,19.62C38.42,19.62,33.93,24.11,33.93,29.63C33.93,32.7,35.34,35.59,37.74,37.48L32.55,40.91L32.15,41.17L32.15,41.64C32.15,43.06,32.5,43.69,33.02,44.65L33.2,44.97L33.44,45.43L38.36,45.43C38.14,47.87,37.48,54,29.63,58.92C26.13,61.13,24.11,65.32,24.11,70.42L24.11,71.29L63.77,71.29L63.77,70.42C63.77,65.32,61.76,61.13,58.25,58.92C50.43,54.01,49.75,47.87,49.53,45.43L54.45,45.43L54.69,44.97L54.86,44.66C55.39,43.7,55.73,43.06,55.73,41.64L55.73,41.17L55.34,40.91L50.15,37.48C52.54,35.59,53.95,32.7,53.95,29.63C53.95,24.11,49.46,19.62,43.94,19.62L43.94,19.62Z" fill="#dbc5ad"/><path d="M31.73,37.78L42.19,37.78L44.83,53.37L31.73,56L29.09,40.42Z" fill="#533719"/><path d="M28.26,37.78L38.72,37.78L41.36,53.37L28.26,56L25.62,40.42Z" fill="#533719"/><path d="M49.96,48.31L43.31,50.56L43.31,41.71L50.97,39.23C51.83,38.95,52.71,39.6,52.71,40.5L52.71,44.47C52.71,46.21,51.61,47.75,49.96,48.31Z" fill="#000000"/><path d="M55.34,40.91L53.44,39.67L49.78,40.85C49.53,41.73,49.28,42.52,49.28,43.42C49.27,44.1,49.33,44.81,49.53,45.47C49.53,45.46,49.53,45.44,49.53,45.43L54.45,45.43L54.69,44.97L54.86,44.65C55.39,43.69,55.73,43.06,55.73,41.63L55.73,41.16L55.34,40.91Z" fill="#dbc5ad"/><path d="M26.98,48.81L40,48.81L40,53.52L26.98,53.52Z" fill="#a56d32"/><path d="M35.43,44.06L37.64,44.06L37.64,46.69L35.43,46.69Z" fill="#a56d32"/><path d="M29.34,44.06L31.56,44.06L31.56,46.69L29.34,46.69Z" fill="#a56d32"/></svg>