<svg xmlns="http://www.w3.org/2000/svg" viewBox="0 0 90 90"><path d="M89.44,75.22C89.44,83.04,83.04,89.44,75.22,89.44L14.78,89.44C6.96,89.44,0.56,83.04,0.56,75.22L0.56,14.78C0.56,6.96,6.96,0.56,14.78,0.56L75.22,0.56C83.04,0.56,89.44,6.96,89.44,14.78L89.44,75.22Z" fill="#0d5887"/><path d="M6.81,16.27L6.81,73.73C6.81,78.95,11.05,83.19,16.27,83.19L73.73,83.19C78.95,83.19,83.19,78.95,83.19,73.73L83.19,16.27C83.19,11.05,78.95,6.81,73.73,6.81L16.27,6.81C11.05,6.81,6.81,11.05,6.81,16.27Z" fill="#ee4552"/><path d="M71.93,45.54C71.93,60.41,59.87,72.47,45,72.47C30.13,72.47,18.07,60.41,18.07,45.54C18.07,30.66,30.13,18.6,45,18.6C59.87,18.6,71.93,30.66,71.93,45.54Z" fill="#f7cf64"/><path d="M23.78,45.54C23.78,49.06,20.92,51.92,17.39,51.92C13.86,51.92,11,49.06,11,45.54C11,42.01,13.86,39.15,17.39,39.15C20.92,39.15,23.78,42.01,23.78,45.54Z" fill="#f7cf64"/><path d="M79,45.54C79,49.06,76.14,51.92,72.61,51.92C69.08,51.92,66.22,49.06,66.22,45.54C66.22,42.01,69.08,39.15,72.61,39.15C76.14,39.15,79,42.01,79,45.54Z" fill="#f7cf64"/><path d="M45,62.79C41.46,62.79,38.03,61.52,35.34,59.22C32.68,56.94,30.91,53.79,30.34,50.36C30.21,49.57,30.74,48.83,31.53,48.7C32.32,48.57,33.06,49.11,33.19,49.89C34.14,55.69,39.11,59.9,45,59.9C50.89,59.9,55.83,55.71,56.8,49.95C56.94,49.16,57.68,48.63,58.46,48.76C59.25,48.9,59.78,49.64,59.65,50.43C59.07,53.85,57.29,56.98,54.63,59.24C51.95,61.53,48.53,62.79,45,62.79Z" fill="#e6912c"/><path d="M34.12,42.56L34.12,40.49C34.12,39.54,34.89,38.76,35.85,38.76C36.81,38.76,37.58,39.54,37.58,40.49L37.58,42.56C37.58,43.51,36.81,44.29,35.85,44.29C34.89,44.29,34.12,43.51,34.12,42.56Z" fill="#e6912c"/><path d="M52.42,42.56L52.42,40.49C52.42,39.54,53.19,38.76,54.15,38.76C55.11,38.76,55.88,39.54,55.88,40.49L55.88,42.56C55.88,43.51,55.11,44.29,54.15,44.29C53.19,44.29,52.42,43.51,52.42,42.56Z" fill="#e6912c"/><path d="M44.77,24.13C44.7,22.11,45.38,20.18,46.69,18.66C46.13,18.62,45.57,18.6,45,18.6C44.16,18.6,43.33,18.64,42.52,18.72C41.67,20.41,41.25,22.3,41.31,24.24C41.41,27.3,42.7,30.14,44.93,32.23C45.27,32.55,45.69,32.7,46.12,32.7C46.58,32.7,47.04,32.52,47.38,32.15C48.03,31.45,48,30.36,47.3,29.71C45.74,28.25,44.84,26.26,44.77,24.13Z" fill="#f3ac24"/><path d="M34.98,21.12C34.98,26.63,29.24,31.09,22.17,31.09C15.09,31.09,9.36,26.63,9.36,21.12C9.36,15.62,15.09,11.15,22.17,11.15C29.24,11.15,34.98,15.62,34.98,21.12Z" fill="#e6f5fa"/><path d="M22.96,30.04L22.14,25.91L30.38,25.65L29.5,36.9Z" fill="#e6f5fa"/></svg>