<svg xmlns="http://www.w3.org/2000/svg" viewBox="0 0 90 90"><path d="M75.22,89.44L14.78,89.44C6.96,89.44,0.56,83.04,0.56,75.22L0.56,14.78C0.56,6.96,6.96,0.56,14.78,0.56L75.22,0.56C83.05,0.56,89.44,6.96,89.44,14.78L89.44,75.22C89.44,83.04,83.05,89.44,75.22,89.44Z" fill="#4e7838"/><path d="M6.81,16.27L6.81,73.73C6.81,78.95,11.05,83.19,16.27,83.19L73.73,83.19C78.95,83.19,83.19,78.95,83.19,73.73L83.19,16.27C83.19,11.05,78.95,6.81,73.73,6.81L16.27,6.81C11.05,6.81,6.81,11.05,6.81,16.27Z" fill="#6c9d41"/><path d="M24.15,22.74L69.94,22.74L72.75,68.54L24.15,71.35L21.34,25.55Z" fill="#4e7838"/><path d="M22.11,20.69L67.89,20.69L70.7,66.49L22.11,69.3L19.3,23.5Z" fill="#ededed"/><path d="M36.45,26.38C36.45,28.29,34.9,29.84,32.98,29.84C31.07,29.84,29.52,28.29,29.52,26.38C29.52,24.46,31.07,22.91,32.98,22.91C34.9,22.91,36.45,24.46,36.45,26.38Z" fill="#68923d"/><path d="M60.48,26.38C60.48,28.29,58.93,29.84,57.02,29.84C55.1,29.84,53.55,28.29,53.55,26.38C53.55,24.46,55.1,22.91,57.02,22.91C58.93,22.91,60.48,24.46,60.48,26.38Z" fill="#68923d"/><path d="M32.98,16.26L32.98,16.26L35.48,26.38L32.98,28.88L30.48,18.76Z" fill="#bdbcb8"/><path d="M57.02,16.26L57.02,16.26L59.52,26.38L57.02,28.88L54.52,18.76Z" fill="#bdbcb8"/><path d="M51.57,48.19C48.53,45.88,48.17,43.87,48.13,42.61L50.33,42.61L50.58,42.15C50.96,41.44,51.13,40.78,51.13,40.02L51.13,39.56L48.75,37.99C49.48,37.11,49.89,36,49.89,34.84C49.89,32.85,48.71,31.08,46.87,30.32L46.52,30.14L46.46,30.17C45.99,30.02,45.5,29.95,45,29.95C42.3,29.95,40.1,32.14,40.1,34.84C40.1,36,40.52,37.11,41.25,37.99L38.86,39.56L38.86,40.02C38.86,40.78,39.03,41.44,39.42,42.15L39.66,42.61L41.87,42.61L41.87,42.65C41.82,43.94,41.41,45.92,38.43,48.19C37.46,48.93,36.72,49.97,36.26,51.21L36.21,51.33C36.2,51.36,36.2,51.39,36.19,51.41L35.93,52.18L35.97,52.2C35.82,52.84,35.75,53.53,35.75,54.23C35.75,55.88,38.86,56.72,45,56.72C51.14,56.72,54.25,55.88,54.25,54.23C54.25,51.69,53.27,49.49,51.57,48.19Z" fill="#4e7838"/><path d="M45.95,44.74C46.26,43.09,43.76,42.8,42.74,42.65C42.69,44.05,42.3,46.33,38.95,48.88C38.05,49.57,37.38,50.55,36.99,51.74C37.9,52.18,39.1,52.44,40.96,52.44C42.15,52.44,44.35,52.58,44.85,50.32C45.31,48.26,45.71,46.06,45.95,44.74Z" fill="#6c9d41"/><path d="M46.61,41.74C47,40.71,46.95,40.02,46.95,40.02L45.3,38.11C47.05,37.36,48.11,35.95,48.11,34.32C48.11,33.01,47.49,31.85,46.52,31.11C46.52,31.11,46.52,31.11,46.52,31.11C46.05,30.92,45.54,30.81,45,30.81C42.77,30.81,40.97,32.62,40.97,34.84C40.97,36.19,41.63,37.38,42.64,38.11L39.73,40.03C39.73,40.67,39.88,41.19,40.18,41.74L46.6,41.74Z" fill="#6c9d41"/><path d="M42.63,34.56C41.61,34.44,42.59,31.3,44.77,31.63C47.09,31.99,43.7,34.69,42.63,34.56Z" fill="#94bb48"/><path d="M52.71,63.33C52.71,63.33,52.71,60.16,55.78,59.43C56,59.38,56.22,59.53,56.23,59.76C56.3,60.7,56.11,62.95,52.71,63.33Z" fill="#6c9d41"/><path d="M52.71,63.33C52.71,63.33,54.5,67.36,58.83,64.92C59.03,64.8,59.08,64.53,58.93,64.36C58.22,63.53,56.11,61.63,52.71,63.33Z" fill="#6c9d41"/><path d="M57.81,61.96C57.81,61.96,56.45,59.19,58.79,57.1C58.92,56.99,59.11,57.03,59.19,57.17C59.66,58.01,60.78,60.6,57.8,61.96Z" fill="#6c9d41"/><path d="M57.81,61.96C57.81,61.96,59.88,59.32,63.34,59.78C63.52,59.8,63.62,60,63.54,60.16C63.03,61.17,61.2,64.04,57.8,61.96Z" fill="#6c9d41"/><path d="M62.51,57.65L61.52,58.21C61.52,58.21,59.3,56.3,60.21,53.48C60.26,53.34,60.42,53.27,60.55,53.34C61.25,53.68,63.18,54.87,62.51,57.65Z" fill="#6c9d41"/><path d="M65.16,53.36C65.3,53.31,65.46,53.39,65.49,53.53C65.73,54.59,66.27,58.38,61.52,58.21C61.52,58.21,61.75,54.72,65.16,53.36Z" fill="#6c9d41"/><path d="M63.29,47.32C62.8,48.06,61.79,50.09,62.86,53.11C62.86,53.11,67.04,51.11,63.79,47.29C63.65,47.13,63.41,47.15,63.29,47.32Z" fill="#6c9d41"/><path d="M59.66,49.47C59.63,50.24,59.86,52.21,62.86,53.11C62.86,53.11,64.34,49.5,59.99,49.17C59.82,49.16,59.67,49.29,59.66,49.47Z" fill="#6c9d41"/><path d="M37.29,63.33C37.29,63.33,37.29,60.16,34.22,59.43C34,59.38,33.78,59.53,33.77,59.76C33.7,60.7,33.89,62.95,37.29,63.33Z" fill="#6c9d41"/><path d="M37.29,63.33C37.29,63.33,35.5,67.36,31.17,64.92C30.97,64.8,30.92,64.53,31.07,64.36C31.78,63.53,33.89,61.63,37.29,63.33Z" fill="#6c9d41"/><path d="M32.19,61.96C32.19,61.96,33.55,59.19,31.21,57.1C31.08,56.99,30.89,57.03,30.81,57.17C30.34,58.01,29.22,60.6,32.2,61.96Z" fill="#6c9d41"/><path d="M32.19,61.96C32.19,61.96,30.12,59.32,26.66,59.78C26.48,59.8,26.38,60,26.46,60.16C26.97,61.17,28.8,64.04,32.2,61.96Z" fill="#6c9d41"/><path d="M27.49,57.65L28.48,58.21C28.48,58.21,30.7,56.3,29.79,53.48C29.74,53.34,29.58,53.27,29.45,53.34C28.75,53.68,26.82,54.87,27.49,57.65Z" fill="#6c9d41"/><path d="M24.84,53.36C24.7,53.31,24.54,53.39,24.51,53.53C24.27,54.59,23.73,58.38,28.48,58.21C28.48,58.21,28.25,54.72,24.84,53.36Z" fill="#6c9d41"/><path d="M26.71,47.32C27.2,48.06,28.2,50.09,27.13,53.11C27.13,53.11,22.96,51.11,26.21,47.29C26.35,47.13,26.59,47.15,26.71,47.32Z" fill="#6c9d41"/><path d="M30.34,49.47C30.37,50.24,30.14,52.21,27.14,53.11C27.14,53.11,25.66,49.5,30.01,49.17C30.18,49.16,30.33,49.29,30.34,49.47Z" fill="#6c9d41"/></svg>