<svg xmlns="http://www.w3.org/2000/svg" viewBox="0 0 90 90"><path d="M89.44,75.22C89.44,83.04,83.04,89.44,75.22,89.44L14.78,89.44C6.96,89.44,0.56,83.04,0.56,75.22L0.56,14.78C0.56,6.96,6.96,0.56,14.78,0.56L75.22,0.56C83.04,0.56,89.44,6.96,89.44,14.78L89.44,75.22Z" fill="#6c9d41"/><path d="M6.81,16.27L6.81,73.73C6.81,78.95,11.05,83.19,16.27,83.19L73.73,83.19C78.95,83.19,83.2,78.95,83.2,73.73L83.2,16.27C83.2,11.05,78.95,6.81,73.73,6.81L16.27,6.81C11.05,6.81,6.81,11.05,6.81,16.27Z" fill="#ca3431"/><path d="M25.83,28.85C25.52,29.15,3.92,45.34,3.92,45.34L3.92,46.71L19.86,50.35L22.63,68.2L45.34,38.12L41.33,26.17L25.83,28.85Z" fill="#96bc4b"/><path d="M86.08,45.34L86.22,47.19L72.42,54.5L67.71,68.2L45,38.12L49.01,26.17L64.51,28.85C64.83,29.16,86.08,45.34,86.08,45.34Z" fill="#96bc4b"/><path d="M25.83,27.47C25.47,27.82,3.92,45.34,3.92,45.34L19.86,48.98L22.63,66.82L45.34,36.74L41.33,24.79L25.83,27.47Z" fill="#6c9d41"/><path d="M64.17,27.47C64.53,27.82,86.08,45.34,86.08,45.34L72.08,53.12L67.37,66.82L44.66,36.74L48.67,24.79L64.17,27.47Z" fill="#6c9d41"/><path d="M41.49,34.13C47.8,29.59,56.6,31.02,61.14,37.33L69.81,48.57C74.35,54.88,72.92,63.68,66.61,68.22L66.61,68.22C60.3,72.77,51.51,71.34,46.96,65.03L38.3,53.78C33.75,47.47,35.18,38.67,41.49,34.13Z" fill="#e58f2a"/><path d="M53.47,33.34C53.47,33.34,53.47,33.34,53.47,33.34C54.18,33.98,54.84,34.71,55.42,35.52L67.6,52.44C67.98,52.96,68.32,53.5,68.61,54.06C67.56,54.35,66.54,54.76,65.54,55.27C65.44,55.12,65.34,54.96,65.23,54.81L53.05,37.9C52.16,36.67,51.11,35.62,49.95,34.77C51.17,34.47,52.34,33.99,53.47,33.34Z" fill="#f1ab22" opacity="0.5"/><path d="M66.75,68.37L66.75,68.37C60.45,72.92,51.65,71.49,47.1,65.18L45.2,62.53C47.27,59.45,50.92,55.81,55.53,52.49C59.99,49.28,64.45,47.01,67.97,45.97L69.95,48.72C74.5,55.03,73.06,63.83,66.76,68.37Z" fill="#e58f2a" opacity="0.5"/><path d="M56.82,54.33C65.33,48.21,73.84,45.5,75.84,48.27C76.66,49.41,79.4,53.2,80.22,54.35C82.22,57.12,76.94,64.34,68.44,70.46C59.93,76.59,51.42,79.3,49.42,76.52C48.6,75.38,45.87,71.59,45.05,70.45C43.05,67.67,48.32,60.46,56.82,54.33Z" fill="#e58f2a"/><path d="M80.22,54.34C82.22,57.12,76.94,64.34,68.44,70.46C59.93,76.59,51.42,79.3,49.42,76.52C47.42,73.75,52.69,66.53,61.2,60.41C69.7,54.28,78.22,51.57,80.22,54.34Z" fill="#f1ab22"/><path d="M76.72,56.86C77.79,58.35,73.33,63.39,66.75,68.12C60.18,72.85,53.99,75.49,52.92,74C51.85,72.52,56.31,67.48,62.88,62.75C69.45,58.01,75.65,55.38,76.72,56.86Z" fill="#e58f2a"/><path d="M61.06,70.46C61.06,72.24,59.62,73.68,57.84,73.68C56.06,73.68,54.62,72.24,54.62,70.46C54.62,68.68,56.06,67.24,57.84,67.24C59.62,67.24,61.06,68.68,61.06,70.46Z" fill="#f1ab22"/><path d="M52,30.86C45.13,25.91,35.55,27.47,30.6,34.34L21.16,46.59C16.21,53.46,17.77,63.05,24.64,68L24.64,68C31.51,72.94,41.09,71.39,46.04,64.51L55.48,52.26C60.43,45.39,58.87,35.81,52,30.86Z" fill="#f1ab22"/><path d="M38.96,30C38.96,30,38.95,30,38.95,30C38.18,30.7,37.46,31.49,36.83,32.38L23.56,50.8C23.15,51.38,22.78,51.97,22.46,52.57C23.61,52.89,24.72,53.33,25.8,53.89C25.91,53.72,26.03,53.56,26.15,53.39L39.42,34.97C40.38,33.63,41.52,32.49,42.79,31.56C41.46,31.23,40.18,30.71,38.96,30Z" fill="#f7c045"/><path d="M24.49,68.16L24.49,68.16C31.36,73.11,40.94,71.55,45.89,64.68L47.97,61.79C45.71,58.44,41.73,54.47,36.71,50.86C31.85,47.36,27,44.89,23.16,43.76L21,46.75C16.05,53.63,17.61,63.21,24.48,68.16Z" fill="#e58f2a" opacity="0.5"/><path d="M35.3,52.87C26.04,46.2,16.76,43.24,14.58,46.27C13.69,47.51,10.72,51.64,9.82,52.88C7.64,55.9,13.39,63.76,22.65,70.43C31.91,77.11,41.19,80.06,43.37,77.04C44.26,75.79,47.24,71.66,48.13,70.42C50.31,67.4,44.56,59.54,35.3,52.87Z" fill="#f1ab22"/><path d="M30.54,59.48C39.8,66.15,45.54,74.01,43.37,77.04C41.19,80.06,31.91,77.11,22.65,70.44C13.39,63.76,7.64,55.9,9.82,52.88C12,49.86,21.27,52.81,30.54,59.48Z" fill="#f7c045"/><path d="M28.7,62.03C35.86,67.19,40.72,72.68,39.55,74.29C38.39,75.91,31.64,73.04,24.49,67.89C17.33,62.73,12.47,57.24,13.63,55.62C14.8,54.01,21.54,56.88,28.7,62.03Z" fill="#e58f2a"/><path d="M25.97,60.51C25.97,62.45,24.4,64.02,22.46,64.02C20.52,64.02,18.95,62.45,18.95,60.51C18.95,58.57,20.52,57,22.46,57C24.4,57,25.97,58.57,25.97,60.51Z" fill="#f7c045"/><path d="M47.64,30L31.7,36.28C26.23,38.44,20.17,34.56,20,28.68C20,28.59,20,28.5,20,28.42L20,20.73C20,20.11,20.06,19.51,20.18,18.92C21.22,13.83,26.63,10.92,31.51,12.72L47.64,18.65L47.64,30Z" fill="#6c9d41"/><path d="M42.36,30L58.3,36.28C63.77,38.44,69.83,34.56,70,28.68C70,28.59,70,28.5,70,28.42L70,20.73C70,20.11,69.94,19.51,69.82,18.92C68.78,13.83,63.37,10.92,58.49,12.72L42.36,18.65L42.36,30Z" fill="#6c9d41"/><path d="M62.3,37.52C65.63,37.52,68.33,35.11,68.33,32.14C68.33,29.17,65.63,26.77,62.3,26.77C58.97,26.77,43.36,30.59,43.36,30.59C43.36,30.59,58.97,37.52,62.3,37.52Z" fill="#96bc4b"/><path d="M27.36,37.52C24.03,37.52,21.33,35.11,21.33,32.14C21.33,29.17,24.03,26.77,27.36,26.77C30.69,26.77,46.3,30.59,46.3,30.59C46.3,30.59,30.69,37.52,27.36,37.52Z" fill="#96bc4b"/><path d="M48.39,31C48.39,31,60.42,35.73,62.49,35.73C64.56,35.73,66.24,34.05,66.24,31.97C66.24,29.9,64.56,28.22,62.49,28.22C60.42,28.22,48.39,31,48.39,31Z" fill="#4e7838"/><path d="M41.07,31.17C41.07,31.17,29.05,35.89,26.98,35.89C24.91,35.89,23.23,34.21,23.23,32.14C23.23,30.07,24.91,28.39,26.98,28.39C29.05,28.39,41.07,31.17,41.07,31.17Z" fill="#4e7838"/><path d="M47.65,14.19C49.43,14.19,50.87,15.64,50.87,17.42L50.87,32.1C50.87,33.88,49.43,35.33,47.65,35.33L42.35,35.33C40.57,35.33,39.13,33.88,39.13,32.1L39.13,17.42C39.13,15.64,40.57,14.19,42.35,14.19Z" fill="#6c9d41"/><path d="M42.79,15.71L42.79,15.71L44.7,23.8L42.79,25.71L40.87,17.62Z" fill="#96bc4b"/></svg>