<svg xmlns="http://www.w3.org/2000/svg" viewBox="0 0 90 90"><path d="M75.22,89.44L14.78,89.44C6.96,89.44,0.56,83.04,0.56,75.22L0.56,14.78C0.56,6.96,6.96,0.56,14.78,0.56L75.22,0.56C83.04,0.56,89.44,6.96,89.44,14.78L89.44,75.22C89.44,83.04,83.04,89.44,75.22,89.44Z" fill="#9394b4"/><path d="M16.27,6.81L73.73,6.81C78.95,6.81,83.19,11.05,83.19,16.27L83.19,73.73C83.19,78.95,78.95,83.19,73.73,83.19L16.27,83.19C11.05,83.19,6.81,78.95,6.81,73.73L6.81,16.27C6.81,11.05,11.05,6.81,16.27,6.81Z" fill="#555b88"/><path d="M72.34,39.08C72.34,42.17,69.84,44.67,66.75,44.67C63.65,44.67,61.15,42.17,61.15,39.08C61.15,35.98,63.65,33.48,66.75,33.48C69.84,33.48,72.34,35.98,72.34,39.08Z" fill="#9394b4"/><path d="M30.69,30.92C32.05,30.92,33.16,32.04,33.16,33.39L33.16,56.71C33.16,58.06,32.05,59.18,30.69,59.18L25.76,59.18C25.1,59.18,24.47,58.92,24.01,58.45C23.55,57.99,23.29,57.36,23.29,56.71L23.29,33.39C23.29,32.04,24.4,30.92,25.76,30.92Z" fill="#fff"/><path d="M28.35,43.76C29.7,43.76,30.81,44.87,30.81,46.22L30.81,69.54C30.81,70.19,30.55,70.82,30.09,71.29C29.63,71.75,29,72.01,28.35,72.01L23.41,72.01C22.76,72.01,22.13,71.75,21.66,71.29C21.2,70.82,20.94,70.19,20.94,69.54L20.94,46.22C20.94,44.87,22.06,43.76,23.41,43.76Z" fill="#9394b4"/><path d="M33.16,26.42L65.39,18.18C66.97,17.75,68.53,18.94,68.53,20.58L68.53,57.57C68.53,59.21,66.97,60.4,65.39,59.97L33.16,51.51L33.16,26.42Z" fill="#fff"/><path d="M33.16,51.51L22.54,51.51C19.85,51.51,17.65,49.32,17.65,46.62L17.65,31.28C17.65,28.59,19.84,26.39,22.54,26.39L33.16,26.39L33.16,51.51L33.16,51.51Z" fill="#9394b4"/><path d="M30.81,26.39L33.16,26.39L33.16,51.51L30.81,51.51Z" fill="#9394b4"/></svg>