<svg xmlns="http://www.w3.org/2000/svg" viewBox="0 0 90 90"><path d="M0,0L90,0L90,90L0,90Z" fill="none" stroke="#ffffff" stroke-width="1" stroke-linecap="butt" stroke-linejoin="miter"/><path d="M75.22,89.44L14.78,89.44C6.96,89.44,0.55,83.04,0.55,75.22L0.55,14.78C0.56,6.96,6.96,0.56,14.78,0.56L75.22,0.56C83.04,0.56,89.44,6.96,89.44,14.78L89.44,75.22C89.44,83.04,83.04,89.44,75.22,89.44Z" fill="#0d5887"/><path d="M16.27,6.81L73.73,6.81C78.95,6.81,83.19,11.05,83.19,16.27L83.19,73.73C83.19,78.95,78.95,83.19,73.73,83.19L16.27,83.19C11.05,83.19,6.81,78.95,6.81,73.73L6.81,16.27C6.81,11.05,11.05,6.81,16.27,6.81Z" fill="#0098c8"/><path d="M38,31.29C38,36.24,33.99,40.25,29.05,40.25C24.1,40.25,20.09,36.24,20.09,31.29C20.09,26.35,24.1,22.34,29.05,22.34C33.99,22.34,38,26.35,38,31.29Z" fill="#7ed3f7"/><path d="M21.38,38.38L36.71,38.38L36.71,44.33L21.38,44.33Z" fill="#7ed3f7"/><path d="M19.48,55.05L38.61,55.05L38.61,63.25L19.48,63.25Z" fill="#7ed3f7"/><path d="M40.37,58.85C42.47,58.85,44.16,60.54,44.16,62.64L44.16,67.66L13.93,67.66L13.93,62.64C13.93,60.54,15.63,58.85,17.72,58.85Z" fill="#7ed3f7"/><path d="M23.05,41.36L35.04,41.36L35.04,62.18L23.05,62.18Z" fill="#7ed3f7"/><path d="M69.82,31.29C69.82,36.24,65.81,40.25,60.87,40.25C55.92,40.25,51.91,36.24,51.91,31.29C51.91,26.35,55.92,22.34,60.87,22.34C65.81,22.34,69.82,26.35,69.82,31.29Z" fill="#e6f5fa"/><path d="M53.2,38.38L68.53,38.38L68.53,44.33L53.2,44.33Z" fill="#e6f5fa"/><path d="M51.3,55.05L70.43,55.05L70.43,63.25L51.3,63.25Z" fill="#e6f5fa"/><path d="M72.19,58.85C74.29,58.85,75.98,60.54,75.98,62.64L75.98,67.66L45.75,67.66L45.75,62.64C45.75,60.54,47.45,58.85,49.54,58.85Z" fill="#e6f5fa"/><path d="M54.87,41.36L66.86,41.36L66.86,62.18L54.87,62.18Z" fill="#e6f5fa"/><path d="M45.08,50.07C41.68,50.07,38.92,47.31,38.92,43.9" fill="none" stroke="#7ed3f7" stroke-width="2.888888888888889" stroke-linecap="round" stroke-linejoin="round"/><path d="M51.25,43.9C51.25,47.31,48.49,50.07,45.08,50.07" fill="none" stroke="#fff" stroke-width="2.888888888888889" stroke-linecap="round" stroke-linejoin="round"/><path d="M70.82,43.21C74.22,43.21,76.99,45.97,76.99,49.38" fill="none" stroke="#fff" stroke-width="2.888888888888889" stroke-linecap="round" stroke-linejoin="round"/><path d="M19.18,43.21C15.78,43.21,13.01,45.97,13.01,49.38" fill="none" stroke="#7ed3f7" stroke-width="2.888888888888889" stroke-linecap="round" stroke-linejoin="round"/></svg>