<svg xmlns="http://www.w3.org/2000/svg" viewBox="0 0 90 90"><path d="M75.22,89.44L14.78,89.44C6.96,89.44,0.56,83.04,0.56,75.22L0.56,14.78C0.56,6.96,6.96,0.56,14.78,0.56L75.22,0.56C83.04,0.56,89.44,6.96,89.44,14.78L89.44,75.22C89.44,83.04,83.05,89.44,75.22,89.44Z" fill="#f3ac24"/><path d="M6.81,16.27L6.81,73.73C6.81,78.95,11.05,83.19,16.27,83.19L73.73,83.19C78.95,83.19,83.2,78.95,83.2,73.73L83.2,16.27C83.2,11.05,78.95,6.81,73.73,6.81L16.27,6.81C11.05,6.81,6.81,11.05,6.81,16.27Z" fill="#ee4552"/><path d="M64.93,18.96C65.03,17.5,65.08,16.02,65.09,14.52L60.17,14.52L59.06,12.48L57.94,14.52L24.83,14.52C24.84,16.02,24.9,17.5,24.99,18.96L15.44,18.96L15.45,20.97C15.47,25.27,15.92,29,16.83,32.38C17.69,35.58,18.93,38.38,20.64,40.93C20.85,41.25,21.07,41.57,21.3,41.88C22.35,43.31,23.55,44.65,24.93,45.93C25.4,46.37,25.9,46.8,26.42,47.23C28.36,48.82,30.59,50.34,33.45,51.98L6.72,51.87L6.72,68.85L31.75,68.85C30.69,69.48,29.98,70.64,29.98,71.96L29.98,77.51L59.95,77.51L59.95,71.96C59.95,70.94,59.52,70.02,58.84,69.36C59.25,68.88,59.5,68.25,59.5,67.57C59.5,66.04,58.25,64.79,57.03,64.79L56.95,64.79C58.38,64.68,59.5,63.48,59.5,62.03C59.5,60.49,58.25,59.25,57.03,59.25L56.95,59.25C58.38,59.13,59.5,57.94,59.5,56.48C59.5,54.95,58.25,53.71,57.03,53.71L56.95,53.71C58.38,53.59,59.5,52.4,59.5,50.94C59.5,50.68,59.46,50.44,59.4,50.2C60.94,49.21,62.28,48.23,63.51,47.23C65.86,45.29,67.75,43.23,69.28,40.93C70.99,38.38,72.23,35.58,73.09,32.38C74,29,74.45,25.27,74.47,20.97L74.48,18.96L64.93,18.96ZM20.3,29.79C20.27,29.62,20.23,29.45,20.2,29.27C20.13,28.93,20.07,28.57,20.01,28.21C19.75,26.6,19.58,24.85,19.5,22.97L25.38,22.97C26.61,32.65,29.82,41.28,34.35,47.87C34.07,47.7,33.8,47.53,33.52,47.36C26.7,43.14,22.1,38.32,20.3,29.79ZM68.14,34.66C68.07,34.82,68,34.99,67.93,35.15C67.87,35.27,67.82,35.4,67.76,35.52C65.26,40.95,61.11,44.56,55.57,47.87L55.57,47.87C58.2,44.05,60.38,39.56,61.98,34.57C62.05,34.35,62.12,34.14,62.19,33.93C62.3,33.55,62.42,33.17,62.53,32.78C62.65,32.35,62.77,31.92,62.89,31.49C63,31.07,63.11,30.65,63.21,30.23C63.36,29.59,63.51,28.95,63.65,28.3C64.01,26.56,64.31,24.78,64.54,22.97L70.42,22.97C70.23,27.67,69.45,31.47,68.14,34.66Z" fill="#f7cf64"/><path d="M21.3,41.88L21.01,42.42L17.66,44.25L21.01,46.08L22.83,49.42L24.66,46.08L24.93,45.93C23.55,44.65,22.35,43.31,21.3,41.88Z" fill="#fff"/><path d="M55.57,47.87C64.53,42.51,69.88,36.39,70.42,22.97L64.54,22.97C63.31,32.65,60.1,41.28,55.57,47.87Z" fill="none" stroke="#ffffff" stroke-width="1" stroke-linecap="butt" stroke-linejoin="miter"/><path d="M34.35,47.87C29.82,41.28,26.61,32.65,25.38,22.97L19.5,22.97C20.04,36.39,25.39,42.51,34.35,47.87Z" fill="none" stroke="#ffffff" stroke-width="1" stroke-linecap="butt" stroke-linejoin="miter"/><path d="M74.08,43.22L72.25,46.56L68.91,48.39L72.25,50.22L74.08,53.56L75.91,50.22L79.25,48.39L75.91,46.56Z" fill="#fff"/><path d="M56.95,70.34L48.85,70.34C47.43,70.22,46.31,69.03,46.31,67.57C46.31,66.04,47.55,64.8,48.77,64.8L48.85,64.8C47.43,64.68,46.31,63.49,46.31,62.03C46.31,60.5,47.55,59.25,48.77,59.25L48.85,59.25C47.43,59.14,46.31,57.94,46.31,56.49C46.31,56.05,46.41,55.63,46.58,55.26L48.86,54.58C50.29,54.46,51.41,53.27,51.41,51.81C51.41,50.74,50.8,49.81,50.01,49.35C50.27,49.78,50.43,50.29,50.43,50.84C50.43,52.29,49.31,53.49,47.89,53.61L46.94,53.89L41.3,55.07C41.3,55.07,41.99,60.34,39.46,65.51L39.45,65.45L38.94,65.45C37.88,65.45,37.02,66.31,37.02,67.37L37.02,68.35L33.59,68.35C32.92,68.35,32.29,68.54,31.75,68.85C30.69,69.48,29.98,70.64,29.98,71.97L29.98,77.52L59.95,77.52L59.95,71.97C59.95,70.95,59.52,70.02,58.84,69.37C58.38,69.91,57.71,70.28,56.95,70.34Z" fill="#f3ac24"/><path d="M62.89,31.49C62.77,31.92,62.65,32.35,62.53,32.78C62.65,32.35,62.77,31.92,62.89,31.49Z" fill="none" stroke="#ffffff" stroke-width="1" stroke-linecap="butt" stroke-linejoin="miter"/><path d="M55.57,47.87C61.11,44.56,65.26,40.95,67.76,35.52C65.26,40.95,61.11,44.56,55.57,47.87C55.57,47.87,55.57,47.87,55.57,47.87Z" fill="none" stroke="#ffffff" stroke-width="1" stroke-linecap="butt" stroke-linejoin="miter"/><path d="M62.18,33.93C62.12,34.14,62.05,34.35,61.98,34.56C62.05,34.35,62.12,34.14,62.18,33.93Z" fill="none" stroke="#ffffff" stroke-width="1" stroke-linecap="butt" stroke-linejoin="miter"/><path d="M67.93,35.15C68,34.99,68.07,34.82,68.14,34.66C68.07,34.82,68,34.99,67.93,35.15Z" fill="none" stroke="#ffffff" stroke-width="1" stroke-linecap="butt" stroke-linejoin="miter"/><path d="M63.64,28.3C63.51,28.95,63.36,29.59,63.21,30.23C63.36,29.59,63.51,28.95,63.64,28.3Z" fill="none" stroke="#ffffff" stroke-width="1" stroke-linecap="butt" stroke-linejoin="miter"/><path d="M65.09,14.52L60.17,14.52L60.88,15.83L64.23,17.65L60.88,19.48L59.06,22.82L57.23,19.48L53.89,17.65L57.23,15.83L57.94,14.52L24.83,14.52C24.84,16.02,24.9,17.5,24.99,18.96L15.44,18.96L15.45,20.97C15.47,25.27,15.92,29,16.83,32.38C17.69,35.58,18.93,38.38,20.64,40.93C20.85,41.25,21.07,41.57,21.3,41.88C22.35,43.31,23.55,44.65,24.93,45.93C25.4,46.37,25.9,46.8,26.42,47.23C28.36,48.82,30.59,50.34,33.45,51.98C33.46,51.98,33.46,51.98,33.46,51.98L33.46,50.7C33.46,50.7,33.46,50.7,33.46,50.7C33.54,49.23,34.74,48.06,35.93,48.06L47.97,48.06C48.18,48.06,48.4,48.1,48.61,48.17C48.67,48.17,48.72,48.16,48.77,48.16L57.03,48.16C58.05,48.16,59.08,49.03,59.4,50.2C60.94,49.21,62.28,48.23,63.51,47.23C65.86,45.29,67.75,43.23,69.28,40.93C70.99,38.38,72.23,35.58,73.09,32.38C74,29,74.45,25.27,74.47,20.97L74.48,18.96L64.93,18.96C65.03,17.5,65.08,16.02,65.09,14.52ZM33.52,47.36C26.7,43.14,22.1,38.32,20.3,29.79C20.27,29.62,20.23,29.45,20.2,29.27C20.13,28.93,20.07,28.57,20.01,28.21C19.75,26.6,19.58,24.85,19.5,22.97L25.38,22.97C26.61,32.65,29.82,41.28,34.35,47.87C34.07,47.7,33.8,47.53,33.52,47.36ZM68.14,34.66C68.07,34.82,68,34.99,67.93,35.15C67.87,35.27,67.82,35.4,67.76,35.52C65.26,40.95,61.11,44.56,55.57,47.87L55.57,47.87C58.2,44.05,60.38,39.56,61.98,34.57C62.05,34.35,62.12,34.14,62.19,33.93C62.3,33.55,62.42,33.17,62.53,32.78C62.65,32.35,62.77,31.92,62.89,31.49C63,31.07,63.11,30.65,63.21,30.23C63.36,29.59,63.51,28.95,63.65,28.3C64.01,26.56,64.31,24.78,64.54,22.97L70.42,22.97C70.23,27.67,69.45,31.47,68.14,34.66Z" fill="#f3ac24"/><path d="M20.01,28.21C20.07,28.57,20.13,28.93,20.2,29.27C20.13,28.93,20.07,28.57,20.01,28.21Z" fill="#f3ac24"/><path d="M33.52,47.36C26.7,43.13,22.1,38.31,20.3,29.79C22.1,38.31,26.7,43.13,33.52,47.36Z" fill="#f3ac24"/><path d="M63.21,30.23C63.1,30.65,63,31.07,62.89,31.49C63,31.07,63.1,30.65,63.21,30.23Z" fill="#f3ac24"/><path d="M67.76,35.52C67.82,35.4,67.87,35.27,67.93,35.15C67.87,35.27,67.82,35.4,67.76,35.52Z" fill="#f3ac24"/><path d="M70.42,22.97L70.42,22.97C70.23,27.67,69.45,31.47,68.14,34.66C69.45,31.47,70.23,27.67,70.42,22.97Z" fill="#f3ac24"/><path d="M62.53,32.78C62.42,33.16,62.3,33.55,62.18,33.93C62.3,33.55,62.42,33.16,62.53,32.78Z" fill="#f3ac24"/><path d="M55.57,47.87L55.57,47.87C58.2,44.05,60.37,39.56,61.98,34.57C60.37,39.56,58.2,44.05,55.57,47.87Z" fill="#f3ac24"/><path d="M57.23,19.48L59.06,22.82L60.88,19.48L64.23,17.65L60.88,15.83L60.17,14.52L59.06,12.48L57.94,14.52L57.23,15.83L53.89,17.65Z" fill="#fff"/><path d="M57.03,48.17L48.77,48.17C48.72,48.17,48.67,48.17,48.61,48.17C48.4,48.1,48.18,48.06,47.97,48.06L35.93,48.06C34.74,48.06,33.54,49.23,33.46,50.7C33.46,50.7,33.46,50.7,33.46,50.7L33.46,51.98C33.46,51.98,33.46,51.98,33.45,51.98L6.72,51.87L6.72,68.85L31.75,68.85C32.29,68.53,32.92,68.35,33.59,68.35L37.02,68.35L37.02,67.36C37.02,66.31,37.88,65.45,38.94,65.45L39.45,65.45L39.46,65.51C41.99,60.34,41.3,55.07,41.3,55.07L46.94,53.89L47.89,53.6C49.31,53.49,50.43,52.29,50.43,50.84C50.43,50.29,50.27,49.78,50.01,49.35C50.8,49.81,51.41,50.74,51.41,51.81C51.41,53.27,50.29,54.46,48.86,54.58L46.58,55.26C46.41,55.63,46.31,56.05,46.31,56.49C46.31,57.94,47.43,59.14,48.85,59.25L48.77,59.25C47.55,59.25,46.31,60.5,46.31,62.03C46.31,63.56,47.43,64.68,48.85,64.8L48.77,64.8C47.55,64.8,46.31,66.04,46.31,67.57C46.31,69.11,47.43,70.22,48.85,70.34L56.95,70.34C57.71,70.28,58.38,69.91,58.84,69.37C59.25,68.88,59.5,68.26,59.5,67.57C59.5,66.04,58.25,64.8,57.03,64.8L56.95,64.8C58.38,64.68,59.5,63.49,59.5,62.03C59.5,60.5,58.25,59.25,57.03,59.25L56.95,59.25C58.38,59.14,59.5,57.94,59.5,56.49C59.5,54.95,58.25,53.71,57.03,53.71L56.95,53.71C58.38,53.59,59.5,52.4,59.5,50.94C59.5,50.69,59.46,50.44,59.4,50.2C59.08,49.03,58.05,48.17,57.03,48.17Z" fill="#f7cf64"/></svg>