<svg xmlns="http://www.w3.org/2000/svg" viewBox="0 0 90 90"><path d="M75.22,89.44L14.78,89.44C6.96,89.44,0.56,83.04,0.56,75.22L0.56,14.78C0.56,6.96,6.96,0.56,14.78,0.56L75.22,0.56C83.04,0.56,89.44,6.96,89.44,14.78L89.44,75.22C89.44,83.04,83.04,89.44,75.22,89.44Z" fill="#e6912c"/><path d="M16.27,6.81L73.73,6.81C78.95,6.81,83.19,11.05,83.19,16.27L83.19,73.73C83.19,78.95,78.95,83.19,73.73,83.19L16.27,83.19C11.05,83.19,6.81,78.95,6.81,73.73L6.81,16.27C6.81,11.05,11.05,6.81,16.27,6.81Z" fill="#000000"/><path d="M67.89,23.52C69.43,23.52,70.7,24.79,70.7,26.33L70.7,69.32C70.7,70.86,69.43,72.13,67.89,72.13L22.11,72.13C20.57,72.13,19.3,70.86,19.3,69.32L19.3,26.33C19.3,24.79,20.57,23.52,22.11,23.52Z" fill="#f8f8f8"/><path d="M36.45,29.6C36.45,31.52,34.9,33.07,32.98,33.07C31.07,33.07,29.52,31.52,29.52,29.6C29.52,27.69,31.07,26.14,32.98,26.14C34.9,26.14,36.45,27.69,36.45,29.6Z" fill="#f7cf64"/><path d="M60.48,29.6C60.48,31.52,58.93,33.07,57.02,33.07C55.1,33.07,53.55,31.52,53.55,29.6C53.55,27.69,55.1,26.14,57.02,26.14C58.93,26.14,60.48,27.69,60.48,29.6Z" fill="#f7cf64"/><path d="M32.98,17.87C33.64,17.87,34.28,18.13,34.75,18.6C35.22,19.07,35.48,19.71,35.48,20.37L35.48,27.98C35.48,28.65,35.22,29.28,34.75,29.75C34.28,30.22,33.64,30.48,32.98,30.48L32.98,30.48C32.32,30.48,31.68,30.22,31.22,29.75C30.75,29.28,30.48,28.65,30.48,27.98L30.48,20.37C30.48,19.71,30.75,19.07,31.22,18.6C31.68,18.13,32.32,17.87,32.98,17.87Z" fill="#68923d"/><path d="M57.02,17.87C57.68,17.87,58.32,18.13,58.79,18.6C59.25,19.07,59.52,19.71,59.52,20.37L59.52,27.98C59.52,28.65,59.25,29.28,58.79,29.75C58.32,30.22,57.68,30.48,57.02,30.48L57.02,30.48C55.65,30.48,54.52,29.35,54.52,27.98L54.52,20.37C54.52,19,55.65,17.87,57.02,17.87Z" fill="#68923d"/><path d="M25.97,37.06C25.66,37.06,25.41,36.81,25.41,36.5C25.41,36.2,25.66,35.95,25.97,35.95L64.03,35.95C64.34,35.95,64.59,36.2,64.59,36.5C64.59,36.81,64.34,37.06,64.03,37.06Z" fill="#d7d6d5"/><path d="M26.68,43.05L31.45,43.05L31.45,47.82L26.68,47.82Z" fill="#68923d"/><path d="M34.65,43.05L39.42,43.05L39.42,47.82L34.65,47.82Z" fill="#68923d"/><path d="M42.61,43.05L47.38,43.05L47.38,47.82L42.61,47.82Z" fill="#68923d"/><path d="M50.58,43.05L55.35,43.05L55.35,47.82L50.58,47.82Z" fill="#68923d"/><path d="M58.55,43.05L63.32,43.05L63.32,47.82L58.55,47.82Z" fill="#68923d"/><path d="M26.68,50.61L31.45,50.61L31.45,55.38L26.68,55.38Z" fill="#68923d"/><path d="M34.65,50.61L39.42,50.61L39.42,55.38L34.65,55.38Z" fill="#68923d"/><path d="M42.61,50.61L47.38,50.61L47.38,55.38L42.61,55.38Z" fill="#68923d"/><path d="M50.58,50.61L55.35,50.61L55.35,55.38L50.58,55.38Z" fill="#68923d"/><path d="M58.55,50.61L63.32,50.61L63.32,55.38L58.55,55.38Z" fill="#68923d"/><path d="M26.68,58.16L31.45,58.16L31.45,62.93L26.68,62.93Z" fill="#68923d"/><path d="M34.65,58.16L39.42,58.16L39.42,62.93L34.65,62.93Z" fill="#68923d"/><path d="M42.61,58.16L47.38,58.16L47.38,62.93L42.61,62.93Z" fill="#68923d"/><path d="M50.58,58.16L55.35,58.16L55.35,62.93L50.58,62.93Z" fill="#68923d"/><path d="M58.55,58.16L63.32,58.16L63.32,62.93L58.55,62.93Z" fill="#68923d"/></svg>