<svg xmlns="http://www.w3.org/2000/svg" viewBox="0 0 90 90"><path d="M81.87,47.87L35.52,47.82L34.96,47.18C33.47,45.47,31.4,44.39,29.16,44.14C28.83,44.1,28.13,44.08,27.79,44.08L21.67,44.08C21.61,44.08,21.56,44.08,21.5,44.08C20,43.97,18.58,44.91,18.15,46.41L16.9,50.69L16.31,50.69C16.31,50.69,16.31,50.69,16.31,50.69L15.45,50.69C15.45,50.69,15.45,50.69,15.45,50.69L14.85,50.69C13.05,50.69,11.6,52.14,11.6,53.93C11.6,55.72,13.05,57.17,14.85,57.17C13.05,57.17,11.6,58.63,11.6,60.42C11.6,62.21,13.05,63.66,14.85,63.66L15.19,63.66C13.4,63.66,11.94,65.12,11.94,66.91L11.94,66.91C11.94,68.7,13.4,70.15,15.19,70.15L16.05,70.15C16.05,70.15,16.05,70.15,16.05,70.15C14.3,70.19,12.88,71.63,12.88,73.4L12.88,73.4C12.88,75.19,14.33,76.64,16.12,76.64L15.87,76.64C16.05,76.68,16.23,76.7,16.42,76.7L32.14,76.7C32.48,76.7,32.82,76.68,33.15,76.64C35.39,76.39,37.46,75.31,38.95,73.6L39.51,72.96L81.87,72.92L81.87,47.87Z" fill="#f3ac24"/><path d="M15.45,50.69C15.45,50.69,15.45,50.69,15.45,50.69C15.58,50.69,16.1,50.69,16.23,50.69L16.31,50.69C16.31,50.69,16.31,50.69,16.31,50.69L15.45,50.69Z" fill="#f7cf64"/><path d="M16.86,76.64C15.68,76.64,14.72,75.69,14.72,74.5L14.72,72.3C14.72,71.36,15.33,70.56,16.17,70.27L16.17,70.13C15.12,69.99,14.31,69.1,14.31,68.01L14.31,65.81C14.31,64.72,15.12,63.83,16.17,63.69L16.17,63.66C15.05,63.58,14.16,62.66,14.16,61.52L14.16,59.32C14.16,58.18,15.05,57.26,16.17,57.18L16.17,57.17C15.05,57.09,14.16,56.17,14.16,55.03L14.16,52.83C14.16,51.64,15.12,50.69,16.31,50.69L14.85,50.69C13.05,50.69,11.6,52.14,11.6,53.93C11.6,55.72,13.05,57.17,14.85,57.17C13.05,57.17,11.6,58.63,11.6,60.42L11.6,60.42C11.6,62.21,13.05,63.66,14.85,63.66L15.19,63.66C13.4,63.66,11.94,65.12,11.94,66.91L11.94,66.91C11.94,68.7,13.4,70.15,15.19,70.15L16.05,70.15C16.05,70.15,16.05,70.15,16.05,70.15C14.3,70.19,12.88,71.63,12.88,73.4L12.88,73.4C12.88,75.19,14.33,76.64,16.12,76.64L15.87,76.64C15.87,76.64,15.87,76.64,15.87,76.64L16.86,76.64Z" fill="#f3ac24"/><path d="M35.52,47.82L34.96,47.18C33.47,45.47,31.4,44.39,29.16,44.14C28.83,44.1,28.13,44.08,27.79,44.08L21.67,44.08C21.61,44.08,21.56,44.08,21.5,44.09C20,43.97,18.58,44.92,18.15,46.41L16.9,50.69L16.31,50.69C15.12,50.69,14.17,51.65,14.17,52.83L14.17,55.03C14.17,55.68,14.45,56.25,14.9,56.65L14.9,57.71C14.45,58.1,14.17,58.67,14.17,59.32L14.17,61.52C14.17,62.17,14.45,62.74,14.9,63.14L14.9,64.34C14.54,64.72,14.32,65.24,14.32,65.81L14.32,68.01C14.32,68.58,14.54,69.1,14.9,69.48L14.9,71.45C14.79,71.71,14.72,71.99,14.72,72.3L14.72,74.5C14.72,75.69,15.68,76.64,16.87,76.64L21.67,76.7L33.15,76.64C35.39,76.39,37.46,75.31,38.95,73.6L39.51,72.96L83.31,72.92L83.31,47.87C83.31,47.87,35.52,47.82,35.52,47.82Z" fill="#f3ac24"/><path d="M19.06,44.94C18.64,45.33,18.32,45.83,18.15,46.41L16.9,50.69L22.91,50.69C25.14,48.46,19.06,48.66,19.06,44.94Z" fill="#f3ac24"/><path d="M81.87,47.87L35.52,47.82L34.96,47.18C33.47,45.47,31.4,44.39,29.16,44.14C28.83,44.1,28.13,44.08,27.79,44.08L21.67,44.08C21.61,44.08,21.56,44.08,21.5,44.08C20,43.97,18.58,44.91,18.15,46.41L16.9,50.69L16.31,50.69C16.31,50.69,16.31,50.69,16.31,50.69L15.45,50.69C15.45,50.69,15.45,50.69,15.45,50.69L14.85,50.69C13.05,50.69,11.6,52.14,11.6,53.93C11.6,55.72,13.05,57.17,14.85,57.17C13.05,57.17,11.6,58.63,11.6,60.42C11.6,62.21,13.05,63.66,14.85,63.66L15.19,63.66C13.4,63.66,11.94,65.12,11.94,66.91L11.94,66.91C11.94,68.7,13.4,70.15,15.19,70.15L16.05,70.15C16.05,70.15,16.05,70.15,16.05,70.15C14.3,70.19,12.88,71.63,12.88,73.4L12.88,73.4C12.88,75.19,14.33,76.64,16.12,76.64L15.87,76.64C16.05,76.68,16.23,76.7,16.42,76.7L32.14,76.7C32.48,76.7,32.82,76.68,33.15,76.64C35.39,76.39,37.46,75.31,38.95,73.6L39.51,72.96L81.87,72.92L81.87,47.87Z" fill="#f3ac24"/><path d="M15.45,50.69C15.45,50.69,15.45,50.69,15.45,50.69C15.58,50.69,16.1,50.69,16.23,50.69L16.31,50.69C16.31,50.69,16.31,50.69,16.31,50.69L15.45,50.69Z" fill="#f7cf64"/><path d="M16.86,76.64C15.68,76.64,14.72,75.69,14.72,74.5L14.72,72.3C14.72,71.36,15.33,70.56,16.17,70.27L16.17,70.13C15.12,69.99,14.31,69.1,14.31,68.01L14.31,65.81C14.31,64.72,15.12,63.83,16.17,63.69L16.17,63.66C15.05,63.58,14.16,62.66,14.16,61.52L14.16,59.32C14.16,58.18,15.05,57.26,16.17,57.18L16.17,57.17C15.05,57.09,14.16,56.17,14.16,55.03L14.16,52.83C14.16,51.64,15.12,50.69,16.31,50.69L14.85,50.69C13.05,50.69,11.6,52.14,11.6,53.93C11.6,55.72,13.05,57.17,14.85,57.17C13.05,57.17,11.6,58.63,11.6,60.42L11.6,60.42C11.6,62.21,13.05,63.66,14.85,63.66L15.19,63.66C13.4,63.66,11.94,65.12,11.94,66.91L11.94,66.91C11.94,68.7,13.4,70.15,15.19,70.15L16.05,70.15C16.05,70.15,16.05,70.15,16.05,70.15C14.3,70.19,12.88,71.63,12.88,73.4L12.88,73.4C12.88,75.19,14.33,76.64,16.12,76.64L15.87,76.64C15.87,76.64,15.87,76.64,15.87,76.64L16.86,76.64Z" fill="#f3ac24"/><path d="M35.52,47.82L34.96,47.18C33.47,45.47,31.4,44.39,29.16,44.14C28.83,44.1,28.13,44.08,27.79,44.08L21.67,44.08C21.61,44.08,21.56,44.08,21.5,44.09C20,43.97,18.58,44.92,18.15,46.41L16.9,50.69L16.31,50.69C15.12,50.69,14.17,51.65,14.17,52.83L14.17,55.03C14.17,55.68,14.45,56.25,14.9,56.65L14.9,57.71C14.45,58.1,14.17,58.67,14.17,59.32L14.17,61.52C14.17,62.17,14.45,62.74,14.9,63.14L14.9,64.34C14.54,64.72,14.32,65.24,14.32,65.81L14.32,68.01C14.32,68.58,14.54,69.1,14.9,69.48L14.9,71.45C14.79,71.71,14.72,71.99,14.72,72.3L14.72,74.5C14.72,75.69,15.68,76.64,16.87,76.64L21.67,76.7L33.15,76.64C35.39,76.39,37.46,75.31,38.95,73.6L39.51,72.96L83.31,72.92L83.31,47.87C83.31,47.87,35.52,47.82,35.52,47.82Z" fill="#f3ac24"/><path d="M19.06,44.94C18.64,45.33,18.32,45.83,18.15,46.41L16.9,50.69L22.91,50.69C25.14,48.46,19.06,48.66,19.06,44.94Z" fill="#f3ac24"/><path d="M75.22,89.44L14.78,89.44C6.96,89.44,0.56,83.04,0.56,75.22L0.56,14.78C0.56,6.96,6.96,0.56,14.78,0.56L75.22,0.56C83.04,0.56,89.44,6.96,89.44,14.78L89.44,75.22C89.44,83.04,83.04,89.44,75.22,89.44Z" fill="#555c87"/><path d="M6.81,16.27L6.81,73.73C6.81,78.95,11.05,83.19,16.27,83.19L73.73,83.19C78.95,83.19,83.19,78.95,83.19,73.73L83.19,16.27C83.19,11.05,78.95,6.81,73.73,6.81L16.27,6.81C11.05,6.81,6.81,11.05,6.81,16.27Z" fill="#7979a1"/><path d="M41.77,83.23L41.82,37.21L42.46,36.66C44.18,35.17,45.25,33.09,45.51,30.86C45.54,30.52,45.56,29.82,45.56,29.48L45.56,23.37C45.56,23.31,45.56,23.25,45.56,23.19C45.67,21.7,44.73,20.28,43.23,19.84L38.96,18.59L38.96,18C38.96,18,38.96,18,38.96,18L38.96,17.15C38.96,17.15,38.96,17.15,38.96,17.15L38.96,16.54C38.96,14.75,37.51,13.3,35.71,13.3C33.92,13.3,32.47,14.75,32.47,16.54C32.47,14.75,31.02,13.3,29.23,13.3C27.43,13.3,25.98,14.75,25.98,16.54L25.98,16.88C25.98,15.09,24.53,13.64,22.74,13.64L22.74,13.64C20.94,13.64,19.49,15.09,19.49,16.88L19.49,17.75C19.49,17.75,19.49,17.75,19.49,17.75C19.45,15.99,18.02,14.58,16.25,14.58L16.25,14.58C14.45,14.58,13,16.03,13,17.82L13,17.57C12.96,17.74,12.94,17.93,12.94,18.11L12.94,33.83C12.94,34.18,12.96,34.51,13,34.85C13.25,37.08,14.33,39.15,16.05,40.65L16.69,41.2L16.73,83.23L41.77,83.23Z" fill="#f7cf64"/><path d="M38.96,17.15C38.96,17.15,38.96,17.15,38.96,17.15C38.96,17.28,38.96,17.79,38.96,17.93L38.96,18C38.96,18,38.96,18,38.96,18L38.96,17.15Z" fill="#f7cf64"/><path d="M13,18.56C13,17.38,13.96,16.42,15.14,16.42L17.35,16.42C18.29,16.42,19.08,17.02,19.37,17.86L19.51,17.86C19.65,16.82,20.55,16.01,21.63,16.01L23.84,16.01C24.92,16.01,25.82,16.82,25.96,17.86L25.99,17.86C26.06,16.74,26.99,15.86,28.12,15.86L30.33,15.86C31.46,15.86,32.39,16.74,32.46,17.86L32.48,17.86C32.55,16.74,33.48,15.86,34.61,15.86L36.82,15.86C38,15.86,38.96,16.82,38.96,18L38.96,16.54C38.96,14.75,37.51,13.3,35.71,13.3C33.92,13.3,32.47,14.75,32.47,16.54C32.47,14.75,31.02,13.3,29.23,13.3L29.23,13.3C27.43,13.3,25.98,14.75,25.98,16.54L25.98,16.88C25.98,15.09,24.53,13.64,22.74,13.64L22.74,13.64C20.94,13.64,19.49,15.09,19.49,16.88L19.49,17.75C19.49,17.75,19.49,17.75,19.49,17.75C19.45,15.99,18.02,14.58,16.25,14.58L16.25,14.58C14.45,14.58,13,16.03,13,17.82L13,17.57C13,17.57,13,17.57,13,17.57L13,18.56Z" fill="#f7cf64"/><path d="M41.82,37.21L42.46,36.66C44.17,35.17,45.25,33.09,45.51,30.86C45.54,30.52,45.56,29.82,45.56,29.48L45.56,23.37C45.56,23.31,45.56,23.25,45.56,23.19C45.67,21.7,44.73,20.28,43.23,19.84L38.96,18.59L38.96,18C38.96,16.82,38,15.86,36.82,15.86L34.61,15.86C33.97,15.86,33.39,16.15,33,16.6L31.94,16.6C31.55,16.15,30.97,15.86,30.33,15.86L28.12,15.86C27.48,15.86,26.9,16.15,26.51,16.6L25.3,16.6C24.92,16.23,24.4,16.01,23.84,16.01L21.63,16.01C21.06,16.01,20.55,16.23,20.16,16.6L18.2,16.6C17.94,16.48,17.65,16.42,17.35,16.42L15.14,16.42C13.96,16.42,13,17.38,13,18.56L12.94,23.37L13,34.85C13.25,37.08,14.33,39.16,16.05,40.65L16.69,41.2L16.73,83.23L41.77,83.23C41.77,83.23,41.82,37.21,41.82,37.21Z" fill="#f7cf64"/><path d="M44.7,20.75C44.32,20.34,43.82,20.01,43.23,19.84L38.96,18.59L38.96,24.61C41.18,26.83,40.99,20.76,44.7,20.76Z" fill="#f7cf64"/><path d="M47.39,6.77L47.34,52.79L46.7,53.34C44.99,54.83,43.91,56.91,43.66,59.14C43.62,59.47,43.6,60.17,43.6,60.52L43.6,66.63C43.6,66.69,43.6,66.75,43.6,66.8C43.49,68.3,44.43,69.72,45.93,70.16L50.2,71.4L50.2,72C50.2,72,50.2,72,50.2,72L50.2,72.85C50.2,72.85,50.2,72.85,50.2,72.85L50.2,73.46C50.2,75.25,51.66,76.7,53.45,76.7C55.24,76.7,56.69,75.25,56.69,73.46C56.69,75.25,58.15,76.7,59.94,76.7C61.73,76.7,63.18,75.25,63.18,73.46L63.18,73.11C63.18,74.91,64.63,76.36,66.43,76.36L66.43,76.36C68.22,76.36,69.67,74.91,69.67,73.11L69.67,72.25C69.67,72.25,69.67,72.25,69.67,72.25C69.71,74.01,71.15,75.42,72.92,75.42L72.92,75.42C74.71,75.42,76.16,73.97,76.16,72.18L76.16,72.43C76.2,72.26,76.22,72.07,76.22,71.89L76.22,56.16C76.22,55.82,76.2,55.49,76.16,55.15C75.91,52.92,74.83,50.84,73.12,49.35L72.48,48.8L72.44,6.77L47.39,6.77Z" fill="#f3ac24"/><path d="M50.21,72.85C50.21,72.85,50.21,72.85,50.21,72.85C50.21,72.72,50.21,72.21,50.21,72.07L50.21,72C50.21,72,50.21,72,50.21,72L50.21,72.85Z" fill="#f7cf64"/><path d="M76.16,71.44C76.16,72.62,75.2,73.58,74.02,73.58L71.82,73.58C70.88,73.58,70.08,72.98,69.79,72.14L69.65,72.14C69.51,73.18,68.62,73.99,67.53,73.99L65.33,73.99C64.24,73.99,63.35,73.18,63.21,72.14L63.18,72.14C63.1,73.25,62.18,74.14,61.04,74.14L58.84,74.14C57.7,74.14,56.77,73.25,56.7,72.14L56.69,72.14C56.61,73.25,55.69,74.14,54.55,74.14L52.35,74.14C51.16,74.14,50.2,73.18,50.2,72L50.2,73.46C50.2,75.25,51.66,76.7,53.45,76.7C55.24,76.7,56.69,75.25,56.69,73.46C56.69,75.25,58.15,76.7,59.94,76.7L59.94,76.7C61.73,76.7,63.18,75.25,63.18,73.46L63.18,73.11C63.18,74.91,64.63,76.36,66.43,76.36L66.43,76.36C68.22,76.36,69.67,74.91,69.67,73.11L69.67,72.25C69.67,72.25,69.67,72.25,69.67,72.25C69.71,74.01,71.15,75.42,72.92,75.42L72.92,75.42C74.71,75.42,76.16,73.97,76.16,72.18L76.16,72.43C76.16,72.43,76.16,72.43,76.16,72.43L76.16,71.44Z" fill="#f7cf64"/><path d="M47.34,52.79L46.7,53.34C44.99,54.83,43.91,56.91,43.66,59.14C43.62,59.47,43.6,60.17,43.6,60.52L43.6,66.63C43.6,66.69,43.6,66.75,43.6,66.8C43.49,68.3,44.43,69.72,45.93,70.16L50.21,71.4L50.21,72C50.21,73.18,51.17,74.14,52.35,74.14L54.55,74.14C55.2,74.14,55.77,73.85,56.17,73.4L57.22,73.4C57.62,73.85,58.19,74.14,58.84,74.14L61.04,74.14C61.69,74.14,62.26,73.85,62.66,73.4L63.86,73.4C64.24,73.76,64.76,73.99,65.33,73.99L67.53,73.99C68.1,73.99,68.62,73.76,69,73.4L70.96,73.4C71.23,73.52,71.51,73.58,71.82,73.58L74.02,73.58C75.2,73.58,76.16,72.62,76.16,71.44L76.22,66.63L76.16,55.15C75.91,52.92,74.83,50.84,73.12,49.35L72.48,48.8L72.44,6.77L47.39,6.77C47.39,6.77,47.34,52.78,47.34,52.78Z" fill="#f7cf64"/><path d="M44.46,69.24C44.85,69.66,45.35,69.99,45.93,70.16L50.21,71.41L50.21,65.39C47.98,63.17,48.17,69.24,44.46,69.24Z" fill="#f3ac24"/><path d="M7.41,42.12L53.76,42.18L54.32,42.82C55.81,44.53,57.88,45.61,60.12,45.86C60.45,45.9,61.15,45.92,61.49,45.92L67.61,45.92C67.67,45.92,67.73,45.92,67.78,45.91C69.28,46.03,70.7,45.08,71.13,43.59L72.38,39.31L72.97,39.31C72.97,39.31,72.97,39.31,72.97,39.31L73.83,39.31C73.83,39.31,73.83,39.31,73.83,39.31L74.44,39.31C76.23,39.31,77.68,37.86,77.68,36.07C77.68,34.28,76.23,32.82,74.44,32.82C76.23,32.82,77.68,31.37,77.68,29.58C77.68,27.79,76.23,26.34,74.44,26.34L74.09,26.34C75.88,26.34,77.34,24.88,77.34,23.09L77.34,23.09C77.34,21.3,75.88,19.85,74.09,19.85L73.23,19.85C73.23,19.85,73.23,19.85,73.23,19.84C74.99,19.81,76.4,18.37,76.4,16.6L76.4,16.6C76.4,14.81,74.95,13.36,73.16,13.36L73.41,13.36C73.23,13.32,73.05,13.3,72.86,13.3L57.14,13.3C56.8,13.3,56.46,13.32,56.13,13.36C53.9,13.61,51.82,14.69,50.33,16.4L49.77,17.04L7.41,17.08L7.41,42.13Z" fill="#f3ac24"/><path d="M73.83,39.31C73.83,39.31,73.83,39.31,73.83,39.31C73.7,39.31,73.18,39.31,73.05,39.31L72.98,39.31C72.98,39.31,72.98,39.31,72.97,39.31L73.83,39.31Z" fill="#f7cf64"/><path d="M72.42,13.35C73.6,13.35,74.56,14.31,74.56,15.5L74.56,17.7C74.56,18.64,73.95,19.43,73.11,19.72L73.11,19.87C74.16,20.01,74.97,20.9,74.97,21.99L74.97,24.19C74.97,25.28,74.16,26.17,73.11,26.31L73.11,26.34C74.23,26.41,75.12,27.34,75.12,28.48L75.12,30.68C75.12,31.82,74.23,32.74,73.11,32.82L73.11,32.83C74.23,32.9,75.12,33.83,75.12,34.97L75.12,37.17C75.12,38.35,74.16,39.31,72.97,39.31L74.43,39.31C76.23,39.31,77.68,37.86,77.68,36.07C77.68,34.28,76.23,32.82,74.43,32.82C76.23,32.82,77.68,31.37,77.68,29.58L77.68,29.58C77.68,27.79,76.23,26.34,74.43,26.34L74.09,26.34C75.88,26.34,77.34,24.88,77.34,23.09L77.34,23.09C77.34,21.3,75.88,19.85,74.09,19.85L73.23,19.85C73.23,19.85,73.23,19.85,73.23,19.84C74.98,19.81,76.4,18.37,76.4,16.6L76.4,16.6C76.4,14.81,74.95,13.36,73.16,13.36L73.41,13.36C73.41,13.36,73.41,13.36,73.41,13.36L72.42,13.36Z" fill="#f3ac24"/><path d="M53.76,42.17L54.32,42.81C55.81,44.53,57.88,45.61,60.12,45.86C60.45,45.9,61.15,45.92,61.49,45.92L67.61,45.92C67.67,45.92,67.73,45.92,67.78,45.91C69.28,46.02,70.7,45.08,71.13,43.59L72.38,39.31L72.97,39.31C74.16,39.31,75.12,38.35,75.12,37.17L75.12,34.97C75.12,34.32,74.83,33.74,74.38,33.35L74.38,32.29C74.83,31.9,75.12,31.32,75.12,30.68L75.12,28.48C75.12,27.83,74.83,27.25,74.38,26.86L74.38,25.66C74.74,25.27,74.97,24.76,74.97,24.19L74.97,21.99C74.97,21.42,74.74,20.9,74.38,20.52L74.38,18.55C74.49,18.29,74.56,18,74.56,17.7L74.56,15.5C74.56,14.31,73.6,13.35,72.42,13.35L67.61,13.3L56.13,13.35C53.89,13.61,51.82,14.69,50.33,16.4L49.77,17.04L6.75,17.08L6.75,42.12C6.75,42.12,53.76,42.18,53.76,42.18Z" fill="#f3ac24"/><path d="M70.22,45.06C70.64,44.67,70.96,44.17,71.14,43.59L72.38,39.31L66.37,39.31C64.14,41.54,70.22,41.34,70.22,45.06Z" fill="#f3ac24"/><path d="M41.71,83.23L41.76,36.99L42.4,36.43C44.12,34.94,45.19,32.87,45.45,30.64C45.49,30.3,45.51,29.6,45.51,29.26L45.51,23.14C45.51,23.09,45.5,23.03,45.5,22.97C45.61,21.48,44.67,20.06,43.17,19.62L38.9,18.37L38.9,17.78C38.9,17.78,38.9,17.78,38.9,17.78L38.9,16.92C38.9,16.92,38.9,16.92,38.9,16.93L38.9,16.32C38.9,14.53,37.45,13.07,35.66,13.07C33.86,13.07,32.41,14.53,32.41,16.32C32.41,14.53,30.96,13.07,29.17,13.07C27.37,13.07,25.92,14.53,25.92,16.32L25.92,16.66C25.92,14.87,24.47,13.42,22.68,13.42L22.68,13.42C20.89,13.42,19.43,14.87,19.43,16.66L19.43,17.52C19.43,17.52,19.43,17.53,19.43,17.53C19.39,15.77,17.96,14.35,16.19,14.35L16.19,14.35C14.4,14.35,12.94,15.81,12.94,17.6L12.94,17.34C12.91,17.52,12.89,17.7,12.89,17.89L12.89,33.61C12.89,33.95,12.91,34.29,12.94,34.63C13.2,36.86,14.27,38.93,15.99,40.42L16.63,40.98L16.67,83.23L41.71,83.23Z" fill="#f7cf64"/><path d="M38.9,16.92C38.9,16.92,38.9,16.92,38.9,16.93C38.9,17.06,38.9,17.57,38.9,17.71L38.9,17.78C38.9,17.78,38.9,17.78,38.9,17.78L38.9,16.92Z" fill="#f7cf64"/><path d="M12.94,18.34C12.94,17.15,13.9,16.2,15.08,16.2L17.29,16.2C18.23,16.2,19.02,16.8,19.31,17.64L19.45,17.64C19.59,16.59,20.49,15.79,21.57,15.79L23.78,15.79C24.86,15.79,25.76,16.59,25.9,17.64L25.93,17.64C26,16.52,26.93,15.64,28.06,15.64L30.27,15.64C31.4,15.64,32.33,16.52,32.4,17.64L32.42,17.64C32.49,16.52,33.42,15.64,34.55,15.64L36.76,15.64C37.94,15.64,38.9,16.6,38.9,17.78L38.9,16.32C38.9,14.53,37.45,13.07,35.66,13.07C33.86,13.07,32.41,14.53,32.41,16.32C32.41,14.53,30.96,13.07,29.17,13.07L29.17,13.07C27.37,13.07,25.92,14.53,25.92,16.32L25.92,16.66C25.92,14.87,24.47,13.42,22.68,13.42L22.68,13.42C20.89,13.42,19.43,14.87,19.43,16.66L19.43,17.52C19.43,17.52,19.43,17.53,19.43,17.53C19.39,15.77,17.96,14.35,16.19,14.35L16.19,14.35C14.4,14.35,12.94,15.81,12.94,17.6L12.94,17.34C12.94,17.34,12.94,17.34,12.94,17.34L12.94,18.34Z" fill="#f7cf64"/><path d="M41.76,36.99L42.4,36.43C44.12,34.94,45.19,32.87,45.45,30.64C45.49,30.3,45.51,29.6,45.51,29.26L45.51,23.14C45.51,23.09,45.5,23.03,45.5,22.97C45.61,21.48,44.67,20.06,43.17,19.62L38.9,18.37L38.9,17.78C38.9,16.6,37.94,15.64,36.76,15.64L34.55,15.64C33.91,15.64,33.33,15.92,32.94,16.37L31.88,16.37C31.49,15.92,30.91,15.64,30.27,15.64L28.06,15.64C27.42,15.64,26.84,15.92,26.45,16.37L25.25,16.37C24.86,16.01,24.35,15.79,23.78,15.79L21.57,15.79C21,15.79,20.49,16.01,20.11,16.37L18.14,16.37C17.88,16.26,17.59,16.2,17.29,16.2L15.08,16.2C13.9,16.2,12.94,17.16,12.94,18.34L12.88,23.14L12.94,34.63C13.19,36.86,14.27,38.93,15.99,40.42L16.63,40.98L16.67,83.23L41.71,83.23C41.71,83.23,41.76,36.99,41.76,36.99Z" fill="#f7cf64"/><path d="M44.64,20.53C44.26,20.11,43.76,19.79,43.17,19.62L38.9,18.37L38.9,24.39C41.12,26.61,40.93,20.53,44.64,20.53Z" fill="#f7cf64"/><path d="M83.25,47.87L35.46,47.82L34.9,47.18C33.41,45.47,31.34,44.39,29.1,44.14C28.77,44.1,28.07,44.08,27.73,44.08L21.61,44.08C21.55,44.08,21.5,44.08,21.44,44.08C19.95,43.97,18.52,44.91,18.09,46.41L16.84,50.69L16.25,50.69C16.25,50.69,16.25,50.69,16.25,50.69L15.39,50.69C15.39,50.69,15.39,50.69,15.39,50.69L14.79,50.69C12.99,50.69,11.54,52.14,11.54,53.93C11.54,55.72,12.99,57.17,14.79,57.17C12.99,57.17,11.54,58.63,11.54,60.42C11.54,62.21,12.99,63.66,14.79,63.66L15.13,63.66C13.34,63.66,11.89,65.12,11.89,66.91L11.89,66.91C11.89,68.7,13.34,70.15,15.13,70.15L15.99,70.15C15.99,70.15,15.99,70.15,16,70.15C14.24,70.19,12.82,71.63,12.82,73.4L12.82,73.4C12.82,75.19,14.27,76.64,16.07,76.64L15.81,76.64C15.99,76.68,16.17,76.7,16.36,76.7L32.08,76.7C32.42,76.7,32.76,76.68,33.09,76.64C35.33,76.39,37.4,75.31,38.89,73.6L39.45,72.96L83.25,72.92L83.25,47.87Z" fill="#f3ac24"/><path d="M15.39,50.69C15.39,50.69,15.39,50.69,15.39,50.69C15.52,50.69,16.04,50.69,16.17,50.69L16.25,50.69C16.25,50.69,16.25,50.69,16.25,50.69L15.39,50.69Z" fill="#f7cf64"/><path d="M16.81,76.64C15.62,76.64,14.66,75.69,14.66,74.5L14.66,72.3C14.66,71.36,15.27,70.56,16.11,70.27L16.11,70.13C15.06,69.99,14.26,69.1,14.26,68.01L14.26,65.81C14.26,64.72,15.06,63.83,16.11,63.69L16.11,63.66C14.99,63.58,14.11,62.66,14.11,61.52L14.11,59.32C14.11,58.18,14.99,57.26,16.11,57.18L16.11,57.17C14.99,57.09,14.11,56.17,14.11,55.03L14.11,52.83C14.11,51.64,15.07,50.69,16.25,50.69L14.79,50.69C13,50.69,11.54,52.14,11.54,53.93C11.54,55.72,13,57.17,14.79,57.17C13,57.17,11.54,58.63,11.54,60.42L11.54,60.42C11.54,62.21,13,63.66,14.79,63.66L15.13,63.66C13.34,63.66,11.89,65.12,11.89,66.91L11.89,66.91C11.89,68.7,13.34,70.15,15.13,70.15L15.99,70.15C15.99,70.15,16,70.15,16,70.15C14.24,70.19,12.82,71.63,12.82,73.4L12.82,73.4C12.82,75.19,14.27,76.64,16.07,76.64L15.81,76.64C15.81,76.64,15.81,76.64,15.81,76.64L16.81,76.64Z" fill="#f3ac24"/><path d="M35.46,47.82L34.9,47.18C33.41,45.47,31.34,44.39,29.1,44.14C28.77,44.1,28.07,44.08,27.73,44.08L21.61,44.08C21.55,44.08,21.5,44.08,21.44,44.09C19.95,43.97,18.52,44.92,18.09,46.41L16.84,50.69L16.25,50.69C15.06,50.69,14.11,51.65,14.11,52.83L14.11,55.03C14.11,55.68,14.39,56.25,14.84,56.65L14.84,57.71C14.39,58.1,14.11,58.67,14.11,59.32L14.11,61.52C14.11,62.17,14.39,62.74,14.84,63.14L14.84,64.34C14.48,64.72,14.26,65.24,14.26,65.81L14.26,68.01C14.26,68.58,14.48,69.1,14.84,69.48L14.84,71.45C14.73,71.71,14.66,71.99,14.66,72.3L14.66,74.5C14.66,75.69,15.62,76.64,16.81,76.64L21.61,76.7L33.09,76.64C35.33,76.39,37.4,75.31,38.89,73.6L39.45,72.96L45.51,72.92L45.51,47.87C45.51,47.87,35.46,47.82,35.46,47.82Z" fill="#f3ac24"/><path d="M19,44.94C18.58,45.33,18.26,45.83,18.09,46.41L16.84,50.69L22.85,50.69C25.08,48.46,19,48.66,19,44.94Z" fill="#f3ac24"/><path d="M50.26,72.85C50.26,72.85,50.26,72.85,50.26,72.85C50.26,72.72,50.26,72.21,50.26,72.07L50.26,72C50.26,72,50.26,72,50.26,72L50.26,72.85Z" fill="#f7cf64"/><path d="M76.22,71.44C76.22,72.62,75.26,73.58,74.08,73.58L71.88,73.58C70.94,73.58,70.14,72.98,69.85,72.14L69.71,72.14C69.57,73.18,68.67,73.99,67.59,73.99L65.39,73.99C64.3,73.99,63.41,73.18,63.26,72.14L63.24,72.14C63.16,73.25,62.24,74.14,61.1,74.14L58.9,74.14C57.76,74.14,56.83,73.25,56.76,72.14L56.75,72.14C56.67,73.25,55.75,74.14,54.61,74.14L52.41,74.14C51.22,74.14,50.26,73.18,50.26,72L50.26,73.46C50.26,75.25,51.72,76.7,53.51,76.7C55.3,76.7,56.75,75.25,56.75,73.46C56.75,75.25,58.2,76.7,60,76.7L60,76.7C61.79,76.7,63.24,75.25,63.24,73.46L63.24,73.11C63.24,74.91,64.69,76.36,66.49,76.36L66.49,76.36C68.28,76.36,69.73,74.91,69.73,73.11L69.73,72.25C69.73,72.25,69.73,72.25,69.73,72.25C69.77,74.01,71.21,75.42,72.98,75.42L72.98,75.42C74.77,75.42,76.22,73.97,76.22,72.18L76.22,72.43C76.22,72.43,76.22,72.43,76.22,72.43L76.22,71.44Z" fill="#f7cf64"/><path d="M47.4,52.79L46.76,53.34C45.05,54.83,43.97,56.91,43.72,59.14C43.68,59.47,43.66,60.17,43.66,60.52L43.66,66.63C43.66,66.69,43.66,66.75,43.66,66.8C43.55,68.3,44.49,69.72,45.99,70.16L50.26,71.4L50.26,72C50.26,73.18,51.22,74.14,52.41,74.14L54.61,74.14C55.26,74.14,55.83,73.85,56.22,73.4L57.28,73.4C57.68,73.85,58.25,74.14,58.9,74.14L61.1,74.14C61.75,74.14,62.32,73.85,62.71,73.4L63.92,73.4C64.3,73.76,64.82,73.99,65.39,73.99L67.59,73.99C68.16,73.99,68.68,73.76,69.06,73.4L71.02,73.4C71.28,73.52,71.57,73.58,71.88,73.58L74.08,73.58C75.26,73.58,76.22,72.62,76.22,71.44L76.28,66.63L76.22,55.15C75.97,52.92,74.89,50.84,73.18,49.35L72.54,48.8L72.5,47.16L47.45,47.16C47.45,47.16,47.4,52.78,47.4,52.78Z" fill="#f7cf64"/><path d="M44.52,69.24C44.91,69.66,45.4,69.99,45.99,70.16L50.26,71.41L50.26,65.39C48.04,63.17,48.23,69.24,44.52,69.24Z" fill="#f7cf64"/></svg>