<svg xmlns="http://www.w3.org/2000/svg" viewBox="0 0 90 90"><path d="M89.44,75.22C89.44,83.04,83.04,89.44,75.22,89.44L14.78,89.44C6.96,89.44,0.56,83.04,0.56,75.22L0.56,14.78C0.56,6.96,6.96,0.56,14.78,0.56L75.22,0.56C83.04,0.56,89.44,6.96,89.44,14.78L89.44,75.22Z" fill="#a7a6a2"/><path d="M6.81,16.27L6.81,73.73C6.81,78.95,11.05,83.19,16.27,83.19L73.73,83.19C78.95,83.19,83.19,78.95,83.19,73.73L83.19,16.27C83.19,11.05,78.95,6.81,73.73,6.81L16.27,6.81C11.05,6.81,6.81,11.05,6.81,16.27Z" fill="#65625f"/><path d="M29.01,19.43C31.88,19.43,34.21,21.77,34.21,24.64L34.21,70.57L23.42,70.57L23.42,24.64C23.42,21.77,25.75,19.43,28.62,19.43Z" fill="#f3ac24"/><path d="M34.21,38.54L45,38.54L45,70.57L34.21,70.57Z" fill="#f3ac24"/><path d="M45,38.54L55.79,38.54L55.79,70.57L45,70.57Z" fill="#f3ac24"/><path d="M55.79,38.54L66.58,38.54L66.58,70.57L55.79,70.57Z" fill="#f3ac24"/><path d="M34.21,34.92L45,34.92L45,46.75C45,49.73,42.58,52.15,39.6,52.15L39.6,52.15C36.63,52.15,34.21,49.73,34.21,46.75L34.21,34.92L34.21,34.92Z" fill="#f7cf64"/><path d="M23.42,56.73L23.42,45.93L39.47,45.93C42.45,45.93,44.87,48.35,44.87,51.33L44.87,51.33C44.87,54.31,42.45,56.72,39.47,56.72L23.42,56.72L23.42,56.72Z" fill="#f7cf64"/><path d="M45,34.92L55.79,34.92L55.79,46.75C55.79,49.73,53.37,52.15,50.4,52.15L50.4,52.15C47.42,52.15,45,49.73,45,46.75L45,34.92L45,34.92Z" fill="#f7cf64"/><path d="M55.79,34.92L61.39,34.92C64.26,34.92,66.58,37.25,66.58,40.11L66.58,46.75C66.58,49.73,64.17,52.15,61.19,52.15L61.19,52.15C58.21,52.15,55.79,49.73,55.79,46.75L55.79,34.92L55.79,34.92Z" fill="#f7cf64"/><path d="M49.43,31.29L51.36,31.29C53.81,31.29,55.79,33.28,55.79,35.72L55.79,43.13C55.79,46.1,53.37,48.52,50.4,48.52L50.4,48.52C47.42,48.52,45,46.1,45,43.13L45,35.72C45,33.28,46.99,31.29,49.43,31.29Z" fill="#f7cf64"/><path d="M38.64,31.29L40.57,31.29C43.02,31.29,45,33.28,45,35.72L45,43.13C45,46.1,42.58,48.52,39.6,48.52L39.6,48.52C36.63,48.52,34.21,46.1,34.21,43.13L34.21,35.72C34.21,33.28,36.19,31.29,38.64,31.29Z" fill="#f7cf64"/><path d="M61.39,31.29C64.26,31.29,66.58,33.62,66.58,36.48L66.58,43.12C66.58,46.1,64.17,48.52,61.19,48.52L61.19,48.52C58.21,48.52,55.79,46.1,55.79,43.12L55.79,36.38C55.79,33.57,58.07,31.29,60.88,31.29Z" fill="#f7cf64"/><path d="M41.69,70.57C41.69,70.51,41.69,70.46,41.69,70.4C41.69,60.31,33.51,52.12,23.42,52.11L23.42,70.57L41.69,70.57Z" fill="#f7cf64"/></svg>