<svg xmlns="http://www.w3.org/2000/svg" viewBox="0 0 90 90"><path d="M0.55,75.22C0.55,83.04,6.95,89.45,14.77,89.45L75.21,89.45C83.36,89.07,89.81,82.6,89.44,75.22L89.44,14.78C89.44,6.95,83.04,0.56,75.21,0.56L14.77,0.56C6.95,0.56,0.55,6.96,0.55,14.78L0.55,75.22Z" fill="#f66263"/><path d="M73.72,6.81C78.94,6.81,83.19,11.05,83.19,16.27L83.19,73.73C83.19,78.95,78.94,83.19,73.72,83.19L16.26,83.19C11.04,83.19,6.8,78.95,6.8,73.73L6.8,16.27C6.8,11.05,11.04,6.81,16.26,6.81L73.72,6.81Z" fill="#b23330"/><path d="M41.98,24.8L41.98,32.59L13.07,32.59L10.77,24.8Z" fill="#bf4046"/><path d="M41.04,37.71L44.13,32.59L13.07,32.59L21.92,35.05Z" fill="#aa3839"/><path d="M44.94,34.82L44.94,42.62L16.09,42.62L13.72,34.82Z" fill="#bf4046"/><path d="M44,47.62L47.08,42.5L16.09,42.5L24.5,45.63Z" fill="#aa3839"/><path d="M48.02,44.93L48.02,52.72L19.58,52.72L16.8,44.93Z" fill="#bf4046"/><path d="M48.02,24.8L48.02,32.59L76.93,32.59L79.23,24.8Z" fill="#bf4046"/><path d="M48.96,37.71L45.87,32.59L76.93,32.59L68.08,35.05Z" fill="#aa3839"/><path d="M45.06,34.82L45.06,42.62L73.91,42.62L76.28,34.82Z" fill="#bf4046"/><path d="M46,47.74L42.92,42.62L73.91,42.62L65.5,45.75Z" fill="#aa3839"/><path d="M41.98,45.05L41.98,52.84L70.42,52.84L73.2,45.05Z" fill="#bf4046"/><path d="M46,47.62L42.92,42.5L73.91,42.5L65.5,45.63Z" fill="#aa3839"/><path d="M41.98,44.93L41.98,52.72L70.42,52.72L73.2,44.93Z" fill="#bf4046"/><path d="M56.58,54.07C48.89,50.1,41.21,50.1,33.53,54.07C38.15,57.09,39.65,60.12,38.01,63.14C37.23,64.58,52.74,64.46,51.99,62.95C50.52,59.99,52.05,57.03,56.58,54.07Z" fill="#000000"/><path d="M50.07,57.44L39.93,57.44C34.19,57.44,29.42,53.01,28.99,47.28L27.21,23.34C27.14,22.4,27.88,21.6,28.82,21.6L61.18,21.6C62.12,21.6,62.86,22.4,62.79,23.34L61.01,47.28C60.59,53.01,55.81,57.44,50.07,57.44Z" fill="#f66263"/><path d="M54.31,24.8C54.3,24.74,54.22,24.74,54.22,24.8C53.88,27.69,51.58,29.99,48.68,30.33C48.62,30.34,48.62,30.42,48.68,30.42C51.58,30.76,53.88,33.06,54.22,35.96C54.22,36.02,54.3,36.02,54.31,35.96C54.65,33.06,56.95,30.76,59.84,30.42C59.9,30.42,59.9,30.34,59.84,30.33C56.95,29.99,54.65,27.69,54.31,24.8Z" fill="#ff8585"/><path d="M45,35.66L45,26.11C45,25.49,44.59,24.97,44.03,24.8L30.9,24.8C30.7,24.8,30.54,24.97,30.55,25.16L32.18,47.04C32.27,48.16,32.59,49.2,33.09,50.14C33.32,50.57,33.83,50.77,34.29,50.61C40.52,48.5,45,42.61,45,35.66Z" fill="#ff8585"/><path d="M60.5,60.92L29.5,60.92C28.16,60.92,27.08,62.01,27.08,63.35L27.08,66.87C27.08,67.72,27.77,68.4,28.61,68.4L61.39,68.4C62.24,68.4,62.92,67.72,62.92,66.87L62.92,63.35C62.92,62.01,61.84,60.92,60.5,60.92Z" fill="#f16161"/></svg>