<svg xmlns="http://www.w3.org/2000/svg" viewBox="0 0 90 90"><path d="M81.87,47.87L81.87,72.92L39.51,72.96L38.95,73.6C37.46,75.31,35.39,76.39,33.15,76.64C32.82,76.68,32.48,76.7,32.14,76.7L16.42,76.7C16.23,76.7,16.05,76.68,15.87,76.64L16.12,76.64C14.33,76.64,12.88,75.19,12.88,73.4L12.88,73.4C12.88,71.63,14.3,70.19,16.05,70.15C16.05,70.15,16.05,70.15,16.05,70.15L15.19,70.15C13.4,70.15,11.94,68.7,11.94,66.91L11.94,66.91C11.94,65.12,13.4,63.66,15.19,63.66L14.85,63.66C13.05,63.66,11.6,62.21,11.6,60.42C11.6,58.63,13.05,57.17,14.85,57.17C13.05,57.17,11.6,55.72,11.6,53.93C11.6,52.14,13.05,50.69,14.85,50.69L15.45,50.69C15.45,50.69,15.45,50.69,15.45,50.69L16.31,50.69C16.31,50.69,16.31,50.69,16.31,50.69L16.9,50.69L18.15,46.41C18.58,44.91,20,43.97,21.5,44.08C21.56,44.08,21.61,44.08,21.67,44.08L27.79,44.08C28.13,44.08,28.83,44.1,29.16,44.14C31.4,44.39,33.47,45.47,34.96,47.18L35.52,47.82L81.87,47.87Z" fill="#f3ac24"/><path d="M15.45,50.69C15.45,50.69,15.45,50.69,15.45,50.69C15.58,50.69,16.1,50.69,16.23,50.69L16.31,50.69C16.31,50.69,16.31,50.69,16.31,50.69L15.45,50.69Z" fill="#f7cf64"/><path d="M16.86,76.64L15.87,76.64C15.87,76.64,15.87,76.64,15.87,76.64L16.12,76.64C14.33,76.64,12.88,75.19,12.88,73.4L12.88,73.4C12.88,71.63,14.3,70.19,16.05,70.15C16.05,70.15,16.05,70.15,16.05,70.15L15.19,70.15C13.4,70.15,11.94,68.7,11.94,66.91L11.94,66.91C11.94,65.12,13.4,63.66,15.19,63.66L14.85,63.66C13.05,63.66,11.6,62.21,11.6,60.42L11.6,60.42C11.6,58.63,13.05,57.17,14.85,57.17C13.05,57.17,11.6,55.72,11.6,53.93C11.6,52.14,13.05,50.69,14.85,50.69L16.31,50.69C15.12,50.69,14.16,51.64,14.16,52.83L14.16,55.03C14.16,56.17,15.05,57.09,16.17,57.17L16.17,57.18C15.05,57.26,14.16,58.18,14.16,59.32L14.16,61.52C14.16,62.66,15.05,63.58,16.17,63.66L16.17,63.69C15.12,63.83,14.31,64.72,14.31,65.81L14.31,68.01C14.31,69.1,15.12,69.99,16.17,70.13L16.17,70.27C15.33,70.56,14.72,71.36,14.72,72.3L14.72,74.5C14.72,75.69,15.68,76.64,16.86,76.64Z" fill="#f3ac24"/><path d="M35.52,47.82C35.52,47.82,83.31,47.87,83.31,47.87L83.31,72.92L39.51,72.96L38.95,73.6C37.46,75.31,35.39,76.39,33.15,76.64L21.67,76.7L16.87,76.64C15.68,76.64,14.72,75.69,14.72,74.5L14.72,72.3C14.72,71.99,14.79,71.71,14.9,71.45L14.9,69.48C14.54,69.1,14.32,68.58,14.32,68.01L14.32,65.81C14.32,65.24,14.54,64.72,14.9,64.34L14.9,63.14C14.45,62.74,14.17,62.17,14.17,61.52L14.17,59.32C14.17,58.67,14.45,58.1,14.9,57.71L14.9,56.65C14.45,56.25,14.17,55.68,14.17,55.03L14.17,52.83C14.17,51.65,15.12,50.69,16.31,50.69L16.9,50.69L18.15,46.41C18.58,44.92,20,43.97,21.5,44.09C21.56,44.08,21.61,44.08,21.67,44.08L27.79,44.08C28.13,44.08,28.83,44.1,29.16,44.14C31.4,44.39,33.47,45.47,34.96,47.18L35.52,47.82Z" fill="#f3ac24"/><path d="M19.06,44.94C19.06,48.66,25.14,48.46,22.91,50.69L16.9,50.69L18.15,46.41C18.32,45.83,18.64,45.33,19.06,44.94Z" fill="#f3ac24"/><path d="M81.87,47.87L81.87,72.92L39.51,72.96L38.95,73.6C37.46,75.31,35.39,76.39,33.15,76.64C32.82,76.68,32.48,76.7,32.14,76.7L16.42,76.7C16.23,76.7,16.05,76.68,15.87,76.64L16.12,76.64C14.33,76.64,12.88,75.19,12.88,73.4L12.88,73.4C12.88,71.63,14.3,70.19,16.05,70.15C16.05,70.15,16.05,70.15,16.05,70.15L15.19,70.15C13.4,70.15,11.94,68.7,11.94,66.91L11.94,66.91C11.94,65.12,13.4,63.66,15.19,63.66L14.85,63.66C13.05,63.66,11.6,62.21,11.6,60.42C11.6,58.63,13.05,57.17,14.85,57.17C13.05,57.17,11.6,55.72,11.6,53.93C11.6,52.14,13.05,50.69,14.85,50.69L15.45,50.69C15.45,50.69,15.45,50.69,15.45,50.69L16.31,50.69C16.31,50.69,16.31,50.69,16.31,50.69L16.9,50.69L18.15,46.41C18.58,44.91,20,43.97,21.5,44.08C21.56,44.08,21.61,44.08,21.67,44.08L27.79,44.08C28.13,44.08,28.83,44.1,29.16,44.14C31.4,44.39,33.47,45.47,34.96,47.18L35.52,47.82L81.87,47.87Z" fill="#f3ac24"/><path d="M15.45,50.69C15.45,50.69,15.45,50.69,15.45,50.69C15.58,50.69,16.1,50.69,16.23,50.69L16.31,50.69C16.31,50.69,16.31,50.69,16.31,50.69L15.45,50.69Z" fill="#f7cf64"/><path d="M16.86,76.64L15.87,76.64C15.87,76.64,15.87,76.64,15.87,76.64L16.12,76.64C14.33,76.64,12.88,75.19,12.88,73.4L12.88,73.4C12.88,71.63,14.3,70.19,16.05,70.15C16.05,70.15,16.05,70.15,16.05,70.15L15.19,70.15C13.4,70.15,11.94,68.7,11.94,66.91L11.94,66.91C11.94,65.12,13.4,63.66,15.19,63.66L14.85,63.66C13.05,63.66,11.6,62.21,11.6,60.42L11.6,60.42C11.6,58.63,13.05,57.17,14.85,57.17C13.05,57.17,11.6,55.72,11.6,53.93C11.6,52.14,13.05,50.69,14.85,50.69L16.31,50.69C15.12,50.69,14.16,51.64,14.16,52.83L14.16,55.03C14.16,56.17,15.05,57.09,16.17,57.17L16.17,57.18C15.05,57.26,14.16,58.18,14.16,59.32L14.16,61.52C14.16,62.66,15.05,63.58,16.17,63.66L16.17,63.69C15.12,63.83,14.31,64.72,14.31,65.81L14.31,68.01C14.31,69.1,15.12,69.99,16.17,70.13L16.17,70.27C15.33,70.56,14.72,71.36,14.72,72.3L14.72,74.5C14.72,75.69,15.68,76.64,16.86,76.64Z" fill="#f3ac24"/><path d="M35.52,47.82C35.52,47.82,83.31,47.87,83.31,47.87L83.31,72.92L39.51,72.96L38.95,73.6C37.46,75.31,35.39,76.39,33.15,76.64L21.67,76.7L16.87,76.64C15.68,76.64,14.72,75.69,14.72,74.5L14.72,72.3C14.72,71.99,14.79,71.71,14.9,71.45L14.9,69.48C14.54,69.1,14.32,68.58,14.32,68.01L14.32,65.81C14.32,65.24,14.54,64.72,14.9,64.34L14.9,63.14C14.45,62.74,14.17,62.17,14.17,61.52L14.17,59.32C14.17,58.67,14.45,58.1,14.9,57.71L14.9,56.65C14.45,56.25,14.17,55.68,14.17,55.03L14.17,52.83C14.17,51.65,15.12,50.69,16.31,50.69L16.9,50.69L18.15,46.41C18.58,44.92,20,43.97,21.5,44.09C21.56,44.08,21.61,44.08,21.67,44.08L27.79,44.08C28.13,44.08,28.83,44.1,29.16,44.14C31.4,44.39,33.47,45.47,34.96,47.18L35.52,47.82Z" fill="#f3ac24"/><path d="M19.06,44.94C19.06,48.66,25.14,48.46,22.91,50.69L16.9,50.69L18.15,46.41C18.32,45.83,18.64,45.33,19.06,44.94Z" fill="#f3ac24"/><path d="M75.22,89.44L14.78,89.44C6.96,89.44,0.56,83.04,0.56,75.22L0.56,14.78C0.56,6.96,6.96,0.56,14.78,0.56L75.22,0.56C83.04,0.56,89.44,6.96,89.44,14.78L89.44,75.22C89.44,83.04,83.04,89.44,75.22,89.44Z" fill="#555c87"/><path d="M16.27,6.81L73.73,6.81C78.95,6.81,83.19,11.05,83.19,16.27L83.19,73.73C83.19,78.95,78.95,83.19,73.73,83.19L16.27,83.19C11.05,83.19,6.81,78.95,6.81,73.73L6.81,16.27C6.81,11.05,11.05,6.81,16.27,6.81Z" fill="#7979a1"/><path d="M41.77,83.23L16.73,83.23L16.69,41.2L16.05,40.65C14.33,39.15,13.25,37.08,13,34.85C12.96,34.51,12.94,34.18,12.94,33.83L12.94,18.11C12.94,17.93,12.96,17.74,13,17.57L13,17.82C13,16.03,14.45,14.58,16.25,14.58L16.25,14.58C18.02,14.58,19.45,15.99,19.49,17.75C19.49,17.75,19.49,17.75,19.49,17.75L19.49,16.88C19.49,15.09,20.94,13.64,22.74,13.64L22.74,13.64C24.53,13.64,25.98,15.09,25.98,16.88L25.98,16.54C25.98,14.75,27.43,13.3,29.23,13.3C31.02,13.3,32.47,14.75,32.47,16.54C32.47,14.75,33.92,13.3,35.71,13.3C37.51,13.3,38.96,14.75,38.96,16.54L38.96,17.15C38.96,17.15,38.96,17.15,38.96,17.15L38.96,18C38.96,18,38.96,18,38.96,18L38.96,18.59L43.23,19.84C44.73,20.28,45.67,21.7,45.56,23.19C45.56,23.25,45.56,23.31,45.56,23.37L45.56,29.48C45.56,29.82,45.54,30.52,45.51,30.86C45.25,33.09,44.18,35.17,42.46,36.66L41.82,37.21L41.77,83.23Z" fill="#f7cf64"/><path d="M38.96,17.15C38.96,17.15,38.96,17.15,38.96,17.15C38.96,17.28,38.96,17.79,38.96,17.93L38.96,18C38.96,18,38.96,18,38.96,18L38.96,17.15Z" fill="#f7cf64"/><path d="M13,18.56L13,17.57C13,17.57,13,17.57,13,17.57L13,17.82C13,16.03,14.45,14.58,16.25,14.58L16.25,14.58C18.02,14.58,19.45,15.99,19.49,17.75C19.49,17.75,19.49,17.75,19.49,17.75L19.49,16.88C19.49,15.09,20.94,13.64,22.74,13.64L22.74,13.64C24.53,13.64,25.98,15.09,25.98,16.88L25.98,16.54C25.98,14.75,27.43,13.3,29.23,13.3L29.23,13.3C31.02,13.3,32.47,14.75,32.47,16.54C32.47,14.75,33.92,13.3,35.71,13.3C37.51,13.3,38.96,14.75,38.96,16.54L38.96,18C38.96,16.82,38,15.86,36.82,15.86L34.61,15.86C33.48,15.86,32.55,16.74,32.48,17.86L32.46,17.86C32.39,16.74,31.46,15.86,30.33,15.86L28.12,15.86C26.99,15.86,26.06,16.74,25.99,17.86L25.96,17.86C25.82,16.82,24.92,16.01,23.84,16.01L21.63,16.01C20.55,16.01,19.65,16.82,19.51,17.86L19.37,17.86C19.08,17.02,18.29,16.42,17.35,16.42L15.14,16.42C13.96,16.42,13,17.38,13,18.56Z" fill="#f7cf64"/><path d="M41.82,37.21C41.82,37.21,41.77,83.23,41.77,83.23L16.73,83.23L16.69,41.2L16.05,40.65C14.33,39.16,13.25,37.08,13,34.85L12.94,23.37L13,18.56C13,17.38,13.96,16.42,15.14,16.42L17.35,16.42C17.65,16.42,17.94,16.48,18.2,16.6L20.16,16.6C20.55,16.23,21.06,16.01,21.63,16.01L23.84,16.01C24.4,16.01,24.92,16.23,25.3,16.6L26.51,16.6C26.9,16.15,27.48,15.86,28.12,15.86L30.33,15.86C30.97,15.86,31.55,16.15,31.94,16.6L33,16.6C33.39,16.15,33.97,15.86,34.61,15.86L36.82,15.86C38,15.86,38.96,16.82,38.96,18L38.96,18.59L43.23,19.84C44.73,20.28,45.67,21.7,45.56,23.19C45.56,23.25,45.56,23.31,45.56,23.37L45.56,29.48C45.56,29.82,45.54,30.52,45.51,30.86C45.25,33.09,44.17,35.17,42.46,36.66L41.82,37.21Z" fill="#f7cf64"/><path d="M44.7,20.76C40.99,20.76,41.18,26.83,38.96,24.61L38.96,18.59L43.23,19.84C43.82,20.01,44.32,20.34,44.7,20.75Z" fill="#f7cf64"/><path d="M47.39,6.77L72.44,6.77L72.48,48.8L73.12,49.35C74.83,50.84,75.91,52.92,76.16,55.15C76.2,55.49,76.22,55.82,76.22,56.16L76.22,71.89C76.22,72.07,76.2,72.26,76.16,72.43L76.16,72.18C76.16,73.97,74.71,75.42,72.92,75.42L72.92,75.42C71.15,75.42,69.71,74.01,69.67,72.25C69.67,72.25,69.67,72.25,69.67,72.25L69.67,73.11C69.67,74.91,68.22,76.36,66.43,76.36L66.43,76.36C64.63,76.36,63.18,74.91,63.18,73.11L63.18,73.46C63.18,75.25,61.73,76.7,59.94,76.7C58.15,76.7,56.69,75.25,56.69,73.46C56.69,75.25,55.24,76.7,53.45,76.7C51.66,76.7,50.2,75.25,50.2,73.46L50.2,72.85C50.2,72.85,50.2,72.85,50.2,72.85L50.2,72C50.2,72,50.2,72,50.2,72L50.2,71.4L45.93,70.16C44.43,69.72,43.49,68.3,43.6,66.8C43.6,66.75,43.6,66.69,43.6,66.63L43.6,60.52C43.6,60.17,43.62,59.47,43.66,59.14C43.91,56.91,44.99,54.83,46.7,53.34L47.34,52.79L47.39,6.77Z" fill="#f3ac24"/><path d="M50.21,72.85C50.21,72.85,50.21,72.85,50.21,72.85C50.21,72.72,50.21,72.21,50.21,72.07L50.21,72C50.21,72,50.21,72,50.21,72L50.21,72.85Z" fill="#f7cf64"/><path d="M76.16,71.44L76.16,72.43C76.16,72.43,76.16,72.43,76.16,72.43L76.16,72.18C76.16,73.97,74.71,75.42,72.92,75.42L72.92,75.42C71.15,75.42,69.71,74.01,69.67,72.25C69.67,72.25,69.67,72.25,69.67,72.25L69.67,73.11C69.67,74.91,68.22,76.36,66.43,76.36L66.43,76.36C64.63,76.36,63.18,74.91,63.18,73.11L63.18,73.46C63.18,75.25,61.73,76.7,59.94,76.7L59.94,76.7C58.15,76.7,56.69,75.25,56.69,73.46C56.69,75.25,55.24,76.7,53.45,76.7C51.66,76.7,50.2,75.25,50.2,73.46L50.2,72C50.2,73.18,51.16,74.14,52.35,74.14L54.55,74.14C55.69,74.14,56.61,73.25,56.69,72.14L56.7,72.14C56.77,73.25,57.7,74.14,58.84,74.14L61.04,74.14C62.18,74.14,63.1,73.25,63.18,72.14L63.21,72.14C63.35,73.18,64.24,73.99,65.33,73.99L67.53,73.99C68.62,73.99,69.51,73.18,69.65,72.14L69.79,72.14C70.08,72.98,70.88,73.58,71.82,73.58L74.02,73.58C75.2,73.58,76.16,72.62,76.16,71.44Z" fill="#f7cf64"/><path d="M47.34,52.78C47.34,52.78,47.39,6.77,47.39,6.77L72.44,6.77L72.48,48.8L73.12,49.35C74.83,50.84,75.91,52.92,76.16,55.15L76.22,66.63L76.16,71.44C76.16,72.62,75.2,73.58,74.02,73.58L71.82,73.58C71.51,73.58,71.23,73.52,70.96,73.4L69,73.4C68.62,73.76,68.1,73.99,67.53,73.99L65.33,73.99C64.76,73.99,64.24,73.76,63.86,73.4L62.66,73.4C62.26,73.85,61.69,74.14,61.04,74.14L58.84,74.14C58.19,74.14,57.62,73.85,57.22,73.4L56.17,73.4C55.77,73.85,55.2,74.14,54.55,74.14L52.35,74.14C51.17,74.14,50.21,73.18,50.21,72L50.21,71.4L45.93,70.16C44.43,69.72,43.49,68.3,43.6,66.8C43.6,66.75,43.6,66.69,43.6,66.63L43.6,60.52C43.6,60.17,43.62,59.47,43.66,59.14C43.91,56.91,44.99,54.83,46.7,53.34L47.34,52.79Z" fill="#f7cf64"/><path d="M44.46,69.24C48.17,69.24,47.98,63.17,50.21,65.39L50.21,71.41L45.93,70.16C45.35,69.99,44.85,69.66,44.46,69.24Z" fill="#f3ac24"/><path d="M7.41,42.13L7.41,17.08L49.77,17.04L50.33,16.4C51.82,14.69,53.9,13.61,56.13,13.36C56.46,13.32,56.8,13.3,57.14,13.3L72.86,13.3C73.05,13.3,73.23,13.32,73.41,13.36L73.16,13.36C74.95,13.36,76.4,14.81,76.4,16.6L76.4,16.6C76.4,18.37,74.99,19.81,73.23,19.84C73.23,19.85,73.23,19.85,73.23,19.85L74.09,19.85C75.88,19.85,77.34,21.3,77.34,23.09L77.34,23.09C77.34,24.88,75.88,26.34,74.09,26.34L74.44,26.34C76.23,26.34,77.68,27.79,77.68,29.58C77.68,31.37,76.23,32.82,74.44,32.82C76.23,32.82,77.68,34.28,77.68,36.07C77.68,37.86,76.23,39.31,74.44,39.31L73.83,39.31C73.83,39.31,73.83,39.31,73.83,39.31L72.97,39.31C72.97,39.31,72.97,39.31,72.97,39.31L72.38,39.31L71.13,43.59C70.7,45.08,69.28,46.03,67.78,45.91C67.73,45.92,67.67,45.92,67.61,45.92L61.49,45.92C61.15,45.92,60.45,45.9,60.12,45.86C57.88,45.61,55.81,44.53,54.32,42.82L53.76,42.18L7.41,42.12Z" fill="#f3ac24"/><path d="M73.83,39.31C73.83,39.31,73.83,39.31,73.83,39.31C73.7,39.31,73.18,39.31,73.05,39.31L72.98,39.31C72.98,39.31,72.98,39.31,72.97,39.31L73.83,39.31Z" fill="#f7cf64"/><path d="M72.42,13.36L73.41,13.36C73.41,13.36,73.41,13.36,73.41,13.36L73.16,13.36C74.95,13.36,76.4,14.81,76.4,16.6L76.4,16.6C76.4,18.37,74.98,19.81,73.23,19.84C73.23,19.85,73.23,19.85,73.23,19.85L74.09,19.85C75.88,19.85,77.34,21.3,77.34,23.09L77.34,23.09C77.34,24.88,75.88,26.34,74.09,26.34L74.43,26.34C76.23,26.34,77.68,27.79,77.68,29.58L77.68,29.58C77.68,31.37,76.23,32.82,74.43,32.82C76.23,32.82,77.68,34.28,77.68,36.07C77.68,37.86,76.23,39.31,74.43,39.31L72.97,39.31C74.16,39.31,75.12,38.35,75.12,37.17L75.12,34.97C75.12,33.83,74.23,32.9,73.11,32.83L73.11,32.82C74.23,32.74,75.12,31.82,75.12,30.68L75.12,28.48C75.12,27.34,74.23,26.41,73.11,26.34L73.11,26.31C74.16,26.17,74.97,25.28,74.97,24.19L74.97,21.99C74.97,20.9,74.16,20.01,73.11,19.87L73.11,19.72C73.95,19.43,74.56,18.64,74.56,17.7L74.56,15.5C74.56,14.31,73.6,13.35,72.42,13.35Z" fill="#f3ac24"/><path d="M53.76,42.18C53.76,42.18,6.75,42.12,6.75,42.12L6.75,17.08L49.77,17.04L50.33,16.4C51.82,14.69,53.89,13.61,56.13,13.35L67.61,13.3L72.42,13.35C73.6,13.35,74.56,14.31,74.56,15.5L74.56,17.7C74.56,18,74.49,18.29,74.38,18.55L74.38,20.52C74.74,20.9,74.97,21.42,74.97,21.99L74.97,24.19C74.97,24.76,74.74,25.27,74.38,25.66L74.38,26.86C74.83,27.25,75.12,27.83,75.12,28.48L75.12,30.68C75.12,31.32,74.83,31.9,74.38,32.29L74.38,33.35C74.83,33.74,75.12,34.32,75.12,34.97L75.12,37.17C75.12,38.35,74.16,39.31,72.97,39.31L72.38,39.31L71.13,43.59C70.7,45.08,69.28,46.02,67.78,45.91C67.73,45.92,67.67,45.92,67.61,45.92L61.49,45.92C61.15,45.92,60.45,45.9,60.12,45.86C57.88,45.61,55.81,44.53,54.32,42.81L53.76,42.17Z" fill="#f3ac24"/><path d="M70.22,45.06C70.22,41.34,64.14,41.54,66.37,39.31L72.38,39.31L71.14,43.59C70.96,44.17,70.64,44.67,70.22,45.06Z" fill="#f3ac24"/><path d="M41.71,83.23L16.67,83.23L16.63,40.98L15.99,40.42C14.27,38.93,13.2,36.86,12.94,34.63C12.91,34.29,12.89,33.95,12.89,33.61L12.89,17.89C12.89,17.7,12.91,17.52,12.94,17.34L12.94,17.6C12.94,15.81,14.4,14.35,16.19,14.35L16.19,14.35C17.96,14.35,19.39,15.77,19.43,17.53C19.43,17.53,19.43,17.52,19.43,17.52L19.43,16.66C19.43,14.87,20.89,13.42,22.68,13.42L22.68,13.42C24.47,13.42,25.92,14.87,25.92,16.66L25.92,16.32C25.92,14.53,27.37,13.07,29.17,13.07C30.96,13.07,32.41,14.53,32.41,16.32C32.41,14.53,33.86,13.07,35.66,13.07C37.45,13.07,38.9,14.53,38.9,16.32L38.9,16.93C38.9,16.92,38.9,16.92,38.9,16.92L38.9,17.78C38.9,17.78,38.9,17.78,38.9,17.78L38.9,18.37L43.17,19.62C44.67,20.06,45.61,21.48,45.5,22.97C45.5,23.03,45.51,23.09,45.51,23.14L45.51,29.26C45.51,29.6,45.49,30.3,45.45,30.64C45.19,32.87,44.12,34.94,42.4,36.43L41.76,36.99L41.71,83.23Z" fill="#f7cf64"/><path d="M38.9,16.92C38.9,16.92,38.9,16.92,38.9,16.93C38.9,17.06,38.9,17.57,38.9,17.71L38.9,17.78C38.9,17.78,38.9,17.78,38.9,17.78L38.9,16.92Z" fill="#f7cf64"/><path d="M12.94,18.34L12.94,17.34C12.94,17.34,12.94,17.34,12.94,17.34L12.94,17.6C12.94,15.81,14.4,14.35,16.19,14.35L16.19,14.35C17.96,14.35,19.39,15.77,19.43,17.53C19.43,17.53,19.43,17.52,19.43,17.52L19.43,16.66C19.43,14.87,20.89,13.42,22.68,13.42L22.68,13.42C24.47,13.42,25.92,14.87,25.92,16.66L25.92,16.32C25.92,14.53,27.37,13.07,29.17,13.07L29.17,13.07C30.96,13.07,32.41,14.53,32.41,16.32C32.41,14.53,33.86,13.07,35.66,13.07C37.45,13.07,38.9,14.53,38.9,16.32L38.9,17.78C38.9,16.6,37.94,15.64,36.76,15.64L34.55,15.64C33.42,15.64,32.49,16.52,32.42,17.64L32.4,17.64C32.33,16.52,31.4,15.64,30.27,15.64L28.06,15.64C26.93,15.64,26,16.52,25.93,17.64L25.9,17.64C25.76,16.59,24.86,15.79,23.78,15.79L21.57,15.79C20.49,15.79,19.59,16.59,19.45,17.64L19.31,17.64C19.02,16.8,18.23,16.2,17.29,16.2L15.08,16.2C13.9,16.2,12.94,17.15,12.94,18.34Z" fill="#f7cf64"/><path d="M41.76,36.99C41.76,36.99,41.71,83.23,41.71,83.23L16.67,83.23L16.63,40.98L15.99,40.42C14.27,38.93,13.19,36.86,12.94,34.63L12.88,23.14L12.94,18.34C12.94,17.16,13.9,16.2,15.08,16.2L17.29,16.2C17.59,16.2,17.88,16.26,18.14,16.37L20.11,16.37C20.49,16.01,21,15.79,21.57,15.79L23.78,15.79C24.35,15.79,24.86,16.01,25.25,16.37L26.45,16.37C26.84,15.92,27.42,15.64,28.06,15.64L30.27,15.64C30.91,15.64,31.49,15.92,31.88,16.37L32.94,16.37C33.33,15.92,33.91,15.64,34.55,15.64L36.76,15.64C37.94,15.64,38.9,16.6,38.9,17.78L38.9,18.37L43.17,19.62C44.67,20.06,45.61,21.48,45.5,22.97C45.5,23.03,45.51,23.09,45.51,23.14L45.51,29.26C45.51,29.6,45.49,30.3,45.45,30.64C45.19,32.87,44.12,34.94,42.4,36.43L41.76,36.99Z" fill="#f7cf64"/><path d="M44.64,20.53C40.93,20.53,41.12,26.61,38.9,24.39L38.9,18.37L43.17,19.62C43.76,19.79,44.26,20.11,44.64,20.53Z" fill="#f7cf64"/><path d="M83.25,47.87L83.25,72.92L39.45,72.96L38.89,73.6C37.4,75.31,35.33,76.39,33.09,76.64C32.76,76.68,32.42,76.7,32.08,76.7L16.36,76.7C16.17,76.7,15.99,76.68,15.81,76.64L16.07,76.64C14.27,76.64,12.82,75.19,12.82,73.4L12.82,73.4C12.82,71.63,14.24,70.19,16,70.15C15.99,70.15,15.99,70.15,15.99,70.15L15.13,70.15C13.34,70.15,11.89,68.7,11.89,66.91L11.89,66.91C11.89,65.12,13.34,63.66,15.13,63.66L14.79,63.66C12.99,63.66,11.54,62.21,11.54,60.42C11.54,58.63,12.99,57.17,14.79,57.17C12.99,57.17,11.54,55.72,11.54,53.93C11.54,52.14,12.99,50.69,14.79,50.69L15.39,50.69C15.39,50.69,15.39,50.69,15.39,50.69L16.25,50.69C16.25,50.69,16.25,50.69,16.25,50.69L16.84,50.69L18.09,46.41C18.52,44.91,19.95,43.97,21.44,44.08C21.5,44.08,21.55,44.08,21.61,44.08L27.73,44.08C28.07,44.08,28.77,44.1,29.1,44.14C31.34,44.39,33.41,45.47,34.9,47.18L35.46,47.82L83.25,47.87Z" fill="#f3ac24"/><path d="M15.39,50.69C15.39,50.69,15.39,50.69,15.39,50.69C15.52,50.69,16.04,50.69,16.17,50.69L16.25,50.69C16.25,50.69,16.25,50.69,16.25,50.69L15.39,50.69Z" fill="#f7cf64"/><path d="M16.81,76.64L15.81,76.64C15.81,76.64,15.81,76.64,15.81,76.64L16.07,76.64C14.27,76.64,12.82,75.19,12.82,73.4L12.82,73.4C12.82,71.63,14.24,70.19,16,70.15C16,70.15,15.99,70.15,15.99,70.15L15.13,70.15C13.34,70.15,11.89,68.7,11.89,66.91L11.89,66.91C11.89,65.12,13.34,63.66,15.13,63.66L14.79,63.66C13,63.66,11.54,62.21,11.54,60.42L11.54,60.42C11.54,58.63,13,57.17,14.79,57.17C13,57.17,11.54,55.72,11.54,53.93C11.54,52.14,13,50.69,14.79,50.69L16.25,50.69C15.07,50.69,14.11,51.64,14.11,52.83L14.11,55.03C14.11,56.17,14.99,57.09,16.11,57.17L16.11,57.18C14.99,57.26,14.11,58.18,14.11,59.32L14.11,61.52C14.11,62.66,14.99,63.58,16.11,63.66L16.11,63.69C15.06,63.83,14.26,64.72,14.26,65.81L14.26,68.01C14.26,69.1,15.06,69.99,16.11,70.13L16.11,70.27C15.27,70.56,14.66,71.36,14.66,72.3L14.66,74.5C14.66,75.69,15.62,76.64,16.81,76.64Z" fill="#f3ac24"/><path d="M35.46,47.82C35.46,47.82,45.51,47.87,45.51,47.87L45.51,72.92L39.45,72.96L38.89,73.6C37.4,75.31,35.33,76.39,33.09,76.64L21.61,76.7L16.81,76.64C15.62,76.64,14.66,75.69,14.66,74.5L14.66,72.3C14.66,71.99,14.73,71.71,14.84,71.45L14.84,69.48C14.48,69.1,14.26,68.58,14.26,68.01L14.26,65.81C14.26,65.24,14.48,64.72,14.84,64.34L14.84,63.14C14.39,62.74,14.11,62.17,14.11,61.52L14.11,59.32C14.11,58.67,14.39,58.1,14.84,57.71L14.84,56.65C14.39,56.25,14.11,55.68,14.11,55.03L14.11,52.83C14.11,51.65,15.06,50.69,16.25,50.69L16.84,50.69L18.09,46.41C18.52,44.92,19.95,43.97,21.44,44.09C21.5,44.08,21.55,44.08,21.61,44.08L27.73,44.08C28.07,44.08,28.77,44.1,29.1,44.14C31.34,44.39,33.41,45.47,34.9,47.18L35.46,47.82Z" fill="#f3ac24"/><path d="M19,44.94C19,48.66,25.08,48.46,22.85,50.69L16.84,50.69L18.09,46.41C18.26,45.83,18.58,45.33,19,44.94Z" fill="#f3ac24"/><path d="M50.26,72.85C50.26,72.85,50.26,72.85,50.26,72.85C50.26,72.72,50.26,72.21,50.26,72.07L50.26,72C50.26,72,50.26,72,50.26,72L50.26,72.85Z" fill="#f7cf64"/><path d="M76.22,71.44L76.22,72.43C76.22,72.43,76.22,72.43,76.22,72.43L76.22,72.18C76.22,73.97,74.77,75.42,72.98,75.42L72.98,75.42C71.21,75.42,69.77,74.01,69.73,72.25C69.73,72.25,69.73,72.25,69.73,72.25L69.73,73.11C69.73,74.91,68.28,76.36,66.49,76.36L66.49,76.36C64.69,76.36,63.24,74.91,63.24,73.11L63.24,73.46C63.24,75.25,61.79,76.7,60,76.7L60,76.7C58.2,76.7,56.75,75.25,56.75,73.46C56.75,75.25,55.3,76.7,53.51,76.7C51.72,76.7,50.26,75.25,50.26,73.46L50.26,72C50.26,73.18,51.22,74.14,52.41,74.14L54.61,74.14C55.75,74.14,56.67,73.25,56.75,72.14L56.76,72.14C56.83,73.25,57.76,74.14,58.9,74.14L61.1,74.14C62.24,74.14,63.16,73.25,63.24,72.14L63.26,72.14C63.41,73.18,64.3,73.99,65.39,73.99L67.59,73.99C68.67,73.99,69.57,73.18,69.71,72.14L69.85,72.14C70.14,72.98,70.94,73.58,71.88,73.58L74.08,73.58C75.26,73.58,76.22,72.62,76.22,71.44Z" fill="#f7cf64"/><path d="M47.4,52.78C47.4,52.78,47.45,47.16,47.45,47.16L72.5,47.16L72.54,48.8L73.18,49.35C74.89,50.84,75.97,52.92,76.22,55.15L76.28,66.63L76.22,71.44C76.22,72.62,75.26,73.58,74.08,73.58L71.88,73.58C71.57,73.58,71.28,73.52,71.02,73.4L69.06,73.4C68.68,73.76,68.16,73.99,67.59,73.99L65.39,73.99C64.82,73.99,64.3,73.76,63.92,73.4L62.71,73.4C62.32,73.85,61.75,74.14,61.1,74.14L58.9,74.14C58.25,74.14,57.68,73.85,57.28,73.4L56.22,73.4C55.83,73.85,55.26,74.14,54.61,74.14L52.41,74.14C51.22,74.14,50.26,73.18,50.26,72L50.26,71.4L45.99,70.16C44.49,69.72,43.55,68.3,43.66,66.8C43.66,66.75,43.66,66.69,43.66,66.63L43.66,60.52C43.66,60.17,43.68,59.47,43.72,59.14C43.97,56.91,45.05,54.83,46.76,53.34L47.4,52.79Z" fill="#f7cf64"/><path d="M44.52,69.24C48.23,69.24,48.04,63.17,50.26,65.39L50.26,71.41L45.99,70.16C45.4,69.99,44.91,69.66,44.52,69.24Z" fill="#f7cf64"/></svg>