<svg xmlns="http://www.w3.org/2000/svg" viewBox="0 0 90 90"><path d="M89.44,75.22C89.44,83.04,83.05,89.44,75.22,89.44L14.78,89.44C6.96,89.44,0.56,83.04,0.56,75.22L0.56,14.78C0.56,6.96,6.96,0.56,14.78,0.56L75.22,0.56C83.04,0.56,89.44,6.96,89.44,14.78L89.44,75.22Z" fill="#e3183c"/><path d="M16.27,6.81L73.73,6.81C78.95,6.81,83.19,11.05,83.19,16.27L83.19,73.73C83.19,78.95,78.95,83.19,73.73,83.19L16.27,83.19C11.05,83.19,6.81,78.95,6.81,73.73L6.81,16.27C6.81,11.05,11.05,6.81,16.27,6.81Z" fill="#7ed3f7"/><path d="M29.09,20.47L39.41,21.97L31.94,29.25L33.71,39.53L24.48,34.68L15.25,39.53L17.01,29.25L9.54,21.97L19.86,20.47L24.48,11.12Z" fill="#e6f5fa"/><path d="M73.3,16.82L77.9,17.49L74.57,20.74L75.35,25.33L71.24,23.16L67.12,25.33L67.9,20.74L64.57,17.49L69.18,16.82L71.24,12.65Z" fill="#e6f5fa"/><path d="M21.19,59.17L24.02,59.58L21.97,61.58L22.46,64.4L19.92,63.07L17.39,64.4L17.87,61.58L15.83,59.58L18.66,59.17L19.92,56.6Z" fill="#e6f5fa"/><path d="M30.85,60.46L28.35,47.78L31.94,23.69L65.12,26.07L65.12,60.46Z" fill="#e3183c"/><path d="M64.25,28.86L64.25,28.86L64.25,33.7L64.25,33.7C64.25,38.26,60.55,41.95,55.99,41.95L35.74,41.95C31.19,41.95,27.49,38.26,27.49,33.7L27.49,33.7L27.49,28.86L27.49,28.86C27.49,24.31,31.19,20.61,35.74,20.61L55.99,20.61C60.55,20.61,64.25,24.31,64.25,28.86Z" fill="#aa122d"/><path d="M67.31,23.82L67.31,23.82L67.31,29.47L67.31,29.47C67.31,34.78,63,39.09,57.68,39.09L34.06,39.09C28.74,39.09,24.43,34.78,24.43,29.47L24.43,29.47L24.43,23.82L24.43,23.82C24.43,18.51,28.74,14.2,34.06,14.2L57.68,14.2C63,14.2,67.31,18.51,67.31,23.82Z" fill="#e3183c"/><path d="M30.84,63.18L65.12,63.18L65.12,75.08C65.12,75.91,64.45,76.58,63.63,76.58L32.34,76.58C31.51,76.58,30.84,75.91,30.84,75.08L30.84,63.18L30.84,63.18Z" fill="#aa122d"/><path d="M30.84,59.72L65.12,59.72L65.12,73.12L30.84,73.12Z" fill="#e3183c"/><path d="M47.43,59.2C49.79,59.2,51.7,61.12,51.7,63.47L51.7,73.12L43.16,73.12L43.16,63.47C43.16,61.12,45.07,59.2,47.43,59.2Z" fill="#aa122d"/><path d="M42.11,64.49C41.89,64.38,41.73,64.18,41.65,63.95C41.57,63.72,41.6,63.46,41.71,63.24L41.71,63.24C41.82,63.02,42.01,62.86,42.25,62.78C42.48,62.71,42.74,62.73,42.96,62.84L53.05,68.01C53.27,68.13,53.43,68.32,53.51,68.56C53.59,68.79,53.57,69.04,53.45,69.26L53.45,69.26C53.34,69.48,53.15,69.65,52.91,69.72C52.68,69.8,52.42,69.78,52.2,69.66Z" fill="#e6f5fa"/><path d="M52.2,62.84C52.42,62.73,52.68,62.71,52.91,62.78C53.14,62.86,53.34,63.02,53.45,63.24L53.45,63.24C53.56,63.46,53.58,63.71,53.51,63.95C53.43,64.18,53.27,64.38,53.05,64.49L42.95,69.66C42.74,69.78,42.48,69.8,42.25,69.72C42.01,69.65,41.82,69.48,41.71,69.26L41.71,69.26C41.59,69.04,41.57,68.79,41.65,68.55C41.72,68.32,41.89,68.13,42.11,68.01Z" fill="#e6f5fa"/><path d="M40.96,72.79C40.95,72.28,41.36,71.86,41.88,71.85L41.88,71.85C42.39,71.85,42.81,72.26,42.81,72.77L42.9,80.98C42.91,81.49,42.49,81.91,41.98,81.92L41.98,81.92C41.47,81.92,41.05,81.51,41.05,81Z" fill="#e6f5fa"/><path d="M51.8,72.79C51.8,72.28,52.21,71.86,52.72,71.85L52.72,71.85C53.24,71.85,53.65,72.26,53.66,72.77L53.75,80.98C53.75,81.49,53.34,81.91,52.83,81.92L52.83,81.92C52.32,81.92,51.9,81.51,51.89,81Z" fill="#e6f5fa"/><path d="M34.63,29.51C38.22,29.51,41.17,32.46,41.17,36.04L41.17,51.17C41.17,52.91,40.48,54.57,39.25,55.8C38.03,57.02,36.36,57.71,34.63,57.71L34.63,57.71C32.9,57.71,31.23,57.02,30.01,55.8C28.78,54.57,28.09,52.91,28.09,51.17L28.09,36.04C28.09,32.46,31.05,29.51,34.63,29.51Z" fill="#aa122d"/><path d="M32.44,55.3L32.44,40.97C40.66,41.06,47.41,47.3,48.3,55.3Z" fill="#aa122d"/><path d="M32.27,29.51C35.86,29.51,38.81,32.46,38.81,36.04L38.81,51.17C38.81,52.91,38.12,54.57,36.9,55.8C35.67,57.02,34.01,57.71,32.27,57.71L32.27,57.71C30.54,57.71,28.88,57.02,27.65,55.8C26.42,54.57,25.74,52.91,25.74,51.17L25.74,36.04C25.74,32.46,28.69,29.51,32.27,29.51Z" fill="#e3183c"/><path d="M32.51,57.71L32.51,43.38C40.73,43.47,47.48,49.71,48.37,57.71Z" fill="#e3183c"/><path d="M71.59,47.24L78.84,48.3L73.59,53.41L74.83,60.64L68.35,57.23L61.86,60.64L63.1,53.41L57.85,48.3L65.1,47.24L68.35,40.67Z" fill="#e6f5fa"/></svg>