<svg xmlns="http://www.w3.org/2000/svg" viewBox="0 0 90 90"><path d="M0,0L90,0L90,90L0,90Z" fill="none" stroke="#ffffff" stroke-width="1" stroke-linecap="butt" stroke-linejoin="miter"/><path d="M75.22,89.44L14.78,89.44C6.96,89.44,0.55,83.04,0.55,75.22L0.55,14.78C0.56,6.96,6.96,0.56,14.78,0.56L75.22,0.56C83.04,0.56,89.44,6.96,89.44,14.78L89.44,75.22C89.44,83.04,83.04,89.44,75.22,89.44Z" fill="#006d65"/><path d="M6.81,16.27L6.81,73.73C6.81,78.95,11.05,83.19,16.27,83.19L73.73,83.19C78.95,83.19,83.19,78.95,83.19,73.73L83.19,16.27C83.19,11.05,78.95,6.81,73.73,6.81L16.27,6.81C11.05,6.81,6.81,11.05,6.81,16.27Z" fill="#009187"/><path d="M62.94,53.03C62.94,47.14,67.71,42.37,73.59,42.37C74.55,42.37,75.48,42.5,76.36,42.74L76.36,26.93C76.36,24.83,74.67,23.14,72.58,23.14L55.19,23.14C55.35,22.41,55.43,21.65,55.43,20.87C55.43,14.99,50.66,10.22,44.78,10.22C38.9,10.22,34.13,14.99,34.13,20.87C34.13,21.65,34.21,22.41,34.37,23.14L16.98,23.14C14.89,23.14,13.19,24.83,13.19,26.93L13.19,42.37C13.97,42.19,14.77,42.09,15.6,42.09C21.48,42.09,26.25,46.86,26.25,52.74C26.25,58.63,21.48,63.4,15.6,63.4C14.77,63.4,13.97,63.3,13.19,63.12L13.19,74.6C13.19,76.69,14.89,78.39,16.98,78.39L34.47,78.39C34.25,77.53,34.13,76.63,34.13,75.7C34.13,69.82,38.9,65.05,44.78,65.05C50.66,65.05,55.43,69.82,55.43,75.7C55.43,76.63,55.31,77.53,55.09,78.39L72.58,78.39C74.67,78.39,76.36,76.69,76.36,74.6L76.36,63.31C75.48,63.55,74.55,63.68,73.59,63.68C67.71,63.68,62.94,58.91,62.94,53.03Z" fill="#f7cf64"/><path d="M32.92,40.91L32.92,38.74C32.92,37.51,33.91,36.51,35.14,36.51C36.37,36.51,37.36,37.51,37.36,38.74L37.36,40.91C37.36,42.14,36.37,43.14,35.14,43.14C33.91,43.14,32.92,42.14,32.92,40.91Z" fill="#f05a29"/><path d="M52.19,40.91L52.19,38.74C52.19,37.51,53.19,36.51,54.42,36.51C55.64,36.51,56.64,37.51,56.64,38.74L56.64,40.91C56.64,42.14,55.64,43.14,54.42,43.14C53.19,43.14,52.19,42.14,52.19,40.91Z" fill="#006d65"/><path d="M33.8,50.8C33.3,49.85,33.66,48.67,34.61,48.17C35.56,47.67,36.74,48.03,37.24,48.98C38.72,51.79,41.61,53.54,44.78,53.54C47.95,53.54,50.84,51.79,52.32,48.98C52.82,48.03,54,47.67,54.95,48.17C55.9,48.67,56.26,49.85,55.76,50.8C53.6,54.89,49.4,57.43,44.78,57.43C40.16,57.43,35.95,54.89,33.8,50.8Z" fill="#006d65"/><path d="M50.53,39.86C49.68,39.86,48.91,39.69,48.23,39.42C47.13,38.99,46.81,37.59,47.62,36.73L47.62,36.73C48.09,36.23,48.81,36.08,49.44,36.32C50.22,36.63,51.4,36.72,52.78,35.6C55.5,33.39,58.7,31.5,61.84,34.3C62.53,34.92,62.59,35.97,61.97,36.66C61.36,37.34,60.31,37.4,59.62,36.79C58.94,36.19,58.18,35.5,54.89,38.18C53.37,39.42,51.86,39.86,50.53,39.86Z" fill="#009187"/><path d="M28.91,36.85C28.81,36.85,28.7,36.84,28.59,36.81C27.68,36.64,27.1,35.76,27.28,34.86C27.31,34.7,27.61,33.28,28.68,31.86C29.71,30.51,31.63,28.89,34.98,28.89C40.08,28.89,42.43,32.73,42.96,34.76L39.74,35.6C39.74,35.6,39.48,34.7,38.74,33.84C37.82,32.77,36.55,32.23,34.98,32.23C33.41,32.23,32.17,32.78,31.34,33.87C30.74,34.67,30.55,35.5,30.55,35.5C30.39,36.3,29.69,36.85,28.91,36.85Z" fill="#009187"/><path d="M30.37,32.05L39.29,32.05L39.29,37.15L30.37,37.15Z" fill="#009187"/><path d="M38.15,33.97L44.92,34.95L40.02,39.72L41.18,46.46L35.13,43.28L29.08,46.46L30.23,39.72L25.34,34.95L32.1,33.97L35.13,27.84Z" fill="#fff"/></svg>