<svg xmlns="http://www.w3.org/2000/svg" viewBox="0 0 90 90"><path d="M75.22,89.44L14.78,89.44C6.96,89.44,0.56,83.04,0.56,75.22L0.56,14.78C0.56,6.96,6.96,0.56,14.78,0.56L75.22,0.56C83.04,0.56,89.44,6.96,89.44,14.78L89.44,75.22C89.44,83.04,83.04,89.44,75.22,89.44Z" fill="#e3183c"/><path d="M16.27,6.81L73.73,6.81C78.95,6.81,83.19,11.05,83.19,16.27L83.19,73.73C83.19,78.95,78.95,83.19,73.73,83.19L16.27,83.19C11.05,83.19,6.81,78.95,6.81,73.73L6.81,16.27C6.81,11.05,11.05,6.81,16.27,6.81Z" fill="#78c2c1"/><path d="M77.82,35.77C77.82,40.05,74.35,43.53,70.07,43.53C65.79,43.53,62.32,40.05,62.32,35.77C62.32,31.49,65.79,28.02,70.07,28.02C74.35,28.02,77.82,31.49,77.82,35.77Z" fill="#f48c8d"/><path d="M58.38,44.56L84.39,38.78L86.02,46.11L60,51.89Z" fill="#f48c8d"/><path d="M61.9,58.89L71.76,43.4L87.25,53.26L83.22,59.6L74.07,53.77L68.24,62.93Z" fill="#f48c8d"/><path d="M58.38,44.56L59.16,52.09L50.8,52.07L58.04,59.31L52.73,64.63L45.05,56.95L37.38,64.63L32.07,59.31L39.31,52.07L30.86,52.07L31.73,44.56L40.2,44.56C38.43,43.14,37.3,40.96,37.3,38.51C37.3,34.23,40.77,30.76,45.05,30.76C49.34,30.76,52.81,34.23,52.81,38.51C52.81,40.96,51.67,43.14,49.9,44.56L58.38,44.56Z" fill="#f2f2f2"/><path d="M45.05,30.76L45.05,56.96L37.38,64.63L32.07,59.31L39.31,52.07L30.86,52.07L31.73,44.56L40.2,44.56C38.43,43.14,37.3,40.96,37.3,38.52C37.3,34.23,40.77,30.76,45.05,30.76Z" fill="#fff"/><path d="M84.28,38.68L85.94,46L78.55,47.68L87.22,53.14L83.21,59.5L74.03,53.71L68.25,62.89L61.89,58.89L67.35,50.22L59.96,51.9L58.3,44.58L66.56,42.7C64.52,41.71,62.93,39.83,62.39,37.45C61.44,33.27,64.06,29.12,68.24,28.17C72.41,27.22,76.57,29.84,77.52,34.02C78.06,36.4,77.43,38.78,76.02,40.56L84.28,38.69Z" fill="#f2f2f2"/><path d="M5.75,38.69L14.01,40.56C12.6,38.78,11.97,36.4,12.51,34.02C13.46,29.84,17.62,27.22,21.79,28.17C25.97,29.12,28.59,33.27,27.64,37.45C27.1,39.83,25.51,41.71,23.47,42.7L31.73,44.58L30.07,51.9L22.68,50.22L28.14,58.89L21.78,62.89L16,53.71L6.82,59.5L2.81,53.14L11.48,47.68L4.09,46L5.75,38.68Z" fill="#fff"/><path d="M68.25,28.17L74.04,53.72L68.25,62.9L61.9,58.89L67.36,50.23L59.16,52.09L58.31,44.58L66.57,42.71C64.53,41.71,62.94,39.84,62.4,37.45C61.45,33.28,64.07,29.12,68.25,28.17Z" fill="#fff"/><path d="M21.79,28.17C25.97,29.12,28.59,33.28,27.64,37.45C27.1,39.84,25.51,41.71,23.47,42.71L31.73,44.58L30.86,52.07L22.68,50.22L28.14,58.89L21.78,62.9L16,53.72L21.79,28.17Z" fill="#f2f2f2"/></svg>