<svg xmlns="http://www.w3.org/2000/svg" viewBox="0 0 90 90"><path d="M0.55,75.22C0.55,83.04,6.95,89.45,14.77,89.45L75.21,89.45C83.36,89.07,89.81,82.6,89.44,75.22L89.44,14.78C89.44,6.95,83.04,0.56,75.21,0.56L14.77,0.56C6.95,0.56,0.55,6.96,0.55,14.78L0.55,75.22Z" fill="#d2d3d6"/><path d="M73.72,6.81C78.94,6.81,83.19,11.05,83.19,16.27L83.19,73.73C83.19,78.95,78.94,83.19,73.72,83.19L16.26,83.19C11.04,83.19,6.8,78.95,6.8,73.73L6.8,16.27C6.8,11.05,11.04,6.81,16.26,6.81L73.72,6.81Z" fill="#bdbcb8"/><path d="M30.9,24.66C30.9,24.66,12.18,22.65,7.74,21.46C7.74,21.46,7.4,26.64,12.1,29.15C14.25,30.3,18.37,30.77,22.21,30.94C22.28,31.68,22.4,32.41,22.57,33.13C15.78,33.35,7.56,33.72,7.56,33.72C7.56,33.72,8.72,38.85,13.85,39.86C16.36,40.35,20.76,39.4,24.61,38.29C25.03,39.04,25.5,39.77,26.01,40.47C20.27,43.14,14.04,46.12,14.04,46.12C14.04,46.12,16.92,50.55,21.95,49.53C24.11,49.09,25.88,47.9,28.7,45.7C29.36,46.28,30.06,46.82,30.77,47.34C26.7,51.16,23.65,54.48,23.65,54.48C23.65,54.48,27.15,57.49,31.06,55.26C32.3,54.56,33.74,52.95,35.13,51.09C37.34,40.3,30.89,24.66,30.89,24.66Z" fill="#000000"/><path d="M54.87,51.09C56.26,52.95,57.7,54.56,58.94,55.26C62.85,57.49,66.35,54.48,66.35,54.48C66.35,54.48,63.3,51.16,59.23,47.34C59.94,46.82,60.63,46.28,61.3,45.7C64.12,47.9,65.89,49.09,68.05,49.53C73.08,50.55,75.96,46.12,75.96,46.12C75.96,46.12,69.73,43.14,63.99,40.47C64.5,39.77,64.96,39.04,65.39,38.29C69.23,39.4,73.64,40.35,76.15,39.86C81.28,38.85,82.43,33.72,82.43,33.72C82.43,33.72,74.22,33.35,67.43,33.13C67.59,32.41,67.72,31.68,67.79,30.94C71.63,30.77,75.75,30.3,77.89,29.15C82.59,26.64,82.26,21.46,82.26,21.46C77.82,22.65,59.1,24.66,59.1,24.66C59.1,24.66,52.66,40.3,54.87,51.09Z" fill="#000000"/><path d="M56.58,54.07C48.89,50.1,41.21,50.1,33.53,54.07C38.15,57.09,39.65,60.12,38.01,63.14C37.23,64.58,52.74,64.46,51.99,62.95C50.52,59.99,52.05,57.03,56.58,54.07Z" fill="#d2d3d6"/><path d="M50.07,57.44L39.93,57.44C34.19,57.44,29.42,53.01,28.99,47.28L27.21,23.34C27.14,22.4,27.88,21.6,28.82,21.6L61.18,21.6C62.12,21.6,62.86,22.4,62.79,23.34L61.01,47.28C60.59,53.01,55.81,57.44,50.07,57.44Z" fill="#f2f2f3"/><path d="M45,35.66L45,26.11C45,25.49,44.59,24.97,44.03,24.8L30.9,24.8C30.7,24.8,30.54,24.97,30.55,25.16L32.18,47.04C32.27,48.16,32.59,49.2,33.09,50.14C33.32,50.57,33.83,50.77,34.29,50.61C40.52,48.5,45,42.61,45,35.66Z" fill="#fff"/><path d="M54.32,24.8C54.31,24.74,54.24,24.74,54.23,24.8C53.89,27.69,51.59,29.99,48.69,30.33C48.64,30.34,48.64,30.42,48.69,30.42C51.59,30.76,53.89,33.06,54.23,35.96C54.24,36.02,54.31,36.02,54.32,35.96C54.66,33.06,56.96,30.76,59.86,30.42C59.92,30.42,59.92,30.34,59.86,30.33C56.96,29.99,54.66,27.69,54.32,24.8Z" fill="#fff"/><path d="M60.5,60.92L29.5,60.92C28.16,60.92,27.08,62.01,27.08,63.35L27.08,66.87C27.08,67.72,27.77,68.4,28.61,68.4L61.39,68.4C62.24,68.4,62.92,67.72,62.92,66.87L62.92,63.35C62.92,62.01,61.84,60.92,60.5,60.92Z" fill="#f2f2f3"/></svg>