<svg xmlns="http://www.w3.org/2000/svg" viewBox="0 0 90 90"><path d="M75.22,89.44L14.78,89.44C6.96,89.44,0.56,83.04,0.56,75.22L0.56,14.78C0.56,6.96,6.96,0.56,14.78,0.56L75.22,0.56C83.04,0.56,89.44,6.96,89.44,14.78L89.44,75.22C89.44,83.04,83.04,89.44,75.22,89.44Z" fill="#93d8d5"/><path d="M6.81,16.27L6.81,73.73C6.81,78.95,11.05,83.19,16.27,83.19L73.73,83.19C78.95,83.19,83.19,78.95,83.19,73.73L83.19,16.27C83.19,11.05,78.95,6.81,73.73,6.81L16.27,6.81C11.05,6.81,6.81,11.05,6.81,16.27Z" fill="#555b88"/><path d="M27.77,32.56C27.77,36.53,24.55,39.75,20.58,39.75C16.61,39.75,13.39,36.53,13.39,32.56C13.39,28.59,16.61,25.37,20.58,25.37C24.55,25.37,27.77,28.59,27.77,32.56Z" fill="#e3183c"/><path d="M76.61,32.56C76.61,36.53,73.39,39.75,69.42,39.75C65.45,39.75,62.23,36.53,62.23,32.56C62.23,28.59,65.45,25.37,69.42,25.37C73.39,25.37,76.61,28.59,76.61,32.56Z" fill="#1eaea7"/><path d="M51.8,17.49C51.8,21.46,48.58,24.68,44.61,24.68C40.64,24.68,37.42,21.46,37.42,17.49C37.42,13.52,40.64,10.3,44.61,10.3C48.58,10.3,51.8,13.52,51.8,17.49Z" fill="#0098c8"/><path d="M60.38,80.44C59.69,72.56,53.07,66.37,45,66.37C36.93,66.37,30.31,72.56,29.62,80.44L60.38,80.44Z" fill="#1eaea7"/><path d="M20.7,78.21C14.21,71.72,10.64,63.09,10.64,53.91C10.64,51.74,12.4,49.98,14.57,49.98C16.74,49.98,18.5,51.74,18.5,53.91C18.5,68.52,30.39,80.41,45,80.41C59.61,80.41,71.5,68.52,71.5,53.91C71.5,51.74,73.26,49.98,75.43,49.98C77.6,49.98,79.36,51.74,79.36,53.91C79.36,63.09,75.79,71.72,69.3,78.21C62.81,84.7,54.18,88.27,45,88.27C35.82,88.27,27.19,84.7,20.7,78.21Z" fill="#1eaea7"/><path d="M66.07,58.88C66.07,61.13,64.25,62.94,62.01,62.94C59.77,62.94,57.95,61.13,57.95,58.88C57.95,56.64,59.77,54.82,62.01,54.82C64.25,54.82,66.07,56.64,66.07,58.88Z" fill="#f7cf64"/><path d="M32.05,58.88C32.05,61.13,30.23,62.94,27.99,62.94C25.75,62.94,23.93,61.13,23.93,58.88C23.93,56.64,25.75,54.82,27.99,54.82C30.23,54.82,32.05,56.64,32.05,58.88Z" fill="#f7cf64"/><path d="M78.87,59.75C79.19,57.84,79.36,55.89,79.36,53.91C79.36,51.74,77.6,49.98,75.43,49.98C73.26,49.98,71.5,51.74,71.5,53.91C71.5,55.92,71.27,57.87,70.85,59.75L78.87,59.75Z" fill="#fff"/><path d="M18.5,53.91C18.5,51.74,16.74,49.98,14.57,49.98C12.4,49.98,10.64,51.74,10.64,53.91C10.64,55.89,10.81,57.84,11.13,59.75L19.15,59.75C18.73,57.87,18.5,55.92,18.5,53.91Z" fill="#fff"/><path d="M62.51,58.17C62.51,67.85,54.67,75.69,45,75.69C35.33,75.69,27.49,67.85,27.49,58.17C27.49,48.5,35.33,40.66,45,40.66C54.67,40.66,62.51,48.5,62.51,58.17Z" fill="#f7cf64"/><path d="M61.07,57.03C61.07,65.91,53.88,73.1,45,73.1C36.12,73.1,28.93,65.91,28.93,57.03C28.93,48.16,36.12,40.96,45,40.96C53.88,40.96,61.07,48.16,61.07,57.03Z" fill="#fff"/><path d="M45.72,68.52C44.34,68.52,43.22,67.4,43.22,66.02C43.22,64.64,44.34,63.52,45.72,63.52C49.19,63.52,51.76,62.2,53.78,59.35C54.58,58.22,56.14,57.96,57.27,58.76C58.39,59.56,58.66,61.12,57.86,62.25C54.9,66.41,50.81,68.52,45.72,68.52Z" fill="#007296"/><path d="M49.18,55.06C49.18,57.37,47.31,59.24,45,59.24C42.69,59.24,40.82,57.37,40.82,55.06C40.82,52.75,42.69,50.87,45,50.87C47.31,50.87,49.18,52.75,49.18,55.06Z" fill="#e3183c"/><path d="M52.29,48.38L52.29,48.38L53.97,52.53L52.29,54.21L50.61,50.06Z" fill="#007296"/><path d="M37.71,48.38L37.71,48.38L39.39,52.53L37.71,54.21L36.03,50.06Z" fill="#007296"/><path d="M47.87,43.63C45.28,43.63,43.07,42.98,43.07,42.98L47.87,33.39L52.66,42.98C52.66,42.98,50.46,43.63,47.87,43.63Z" fill="#0098c8"/><path d="M47.1,30.73L48.64,30.73L48.64,36.38L47.1,36.38Z" fill="#e3183c"/><path d="M45.06,34.31L45.06,32.77L50.68,32.77L50.68,34.31Z" fill="#e3183c"/><path d="M45.52,32.2L46.53,31.2L50.22,34.88L49.21,35.89Z" fill="#e3183c"/><path d="M46.52,35.91L45.51,34.9L49.21,31.2L50.23,32.21Z" fill="#e3183c"/></svg>