<svg xmlns="http://www.w3.org/2000/svg" viewBox="0 0 90 90"><path d="M89.44,75.22C89.44,83.04,83.04,89.44,75.22,89.44L14.78,89.44C6.96,89.44,0.56,83.04,0.56,75.22L0.56,14.78C0.56,6.96,6.96,0.56,14.78,0.56L75.22,0.56C83.04,0.56,89.44,6.96,89.44,14.78L89.44,75.22Z" fill="#7ed3f7"/><path d="M16.27,6.81L73.73,6.81C78.95,6.81,83.19,11.05,83.19,16.27L83.19,73.73C83.19,78.95,78.95,83.19,73.73,83.19L16.27,83.19C11.05,83.19,6.81,78.95,6.81,73.73L6.81,16.27C6.81,11.05,11.05,6.81,16.27,6.81Z" fill="#0098c8"/><path d="M78.1,50.55C78.1,53.01,76.1,55.01,73.63,55.01C71.16,55.01,69.16,53.01,69.16,50.55C69.16,48.08,71.16,46.08,73.63,46.08C76.1,46.08,78.1,48.08,78.1,50.55Z" fill="#555b88"/><path d="M79.79,58.64C79.79,61.11,77.79,63.11,75.32,63.11C72.85,63.11,70.85,61.11,70.85,58.64C70.85,56.18,72.85,54.18,75.32,54.18C77.79,54.18,79.79,56.18,79.79,58.64Z" fill="#555b88"/><path d="M53.7,56.68C53.7,59.15,51.7,61.15,49.23,61.15C46.77,61.15,44.76,59.15,44.76,56.68C44.76,54.22,46.77,52.21,49.23,52.21C51.7,52.21,53.7,54.22,53.7,56.68Z" fill="#555b88"/><path d="M75.9,35.6L75.92,35.6L75.92,68.87L47.8,68.87L47.8,35.6L47.81,35.6L47.81,35.05C47.81,30.53,50.73,27.96,54.34,27.96L54.34,27.96C55.09,27.96,55.8,28.05,56.47,28.21C58.5,26.58,61.48,25.55,64.81,25.55L64.81,25.55C70.81,25.55,75.9,30.28,75.9,35.6Z" fill="#555b88"/><path d="M77.42,71.45L46.3,71.45L46.3,66.05C46.3,60.88,53.26,56.68,61.86,56.68L61.86,56.68C70.45,56.68,77.42,60.88,77.42,66.05Z" fill="#7ed3f7"/><path d="M66.44,55.13L66.44,56.24C66.44,56.39,66.43,56.54,66.42,56.68C66.43,56.83,66.44,56.98,66.44,57.13L66.44,58.24C66.44,60.77,64.39,62.82,61.86,62.82L61.86,62.82C59.33,62.82,57.27,60.77,57.27,58.24L57.27,57.13C57.27,56.98,57.28,56.83,57.3,56.68C57.28,56.54,57.27,56.39,57.27,56.24L57.27,55.13C57.27,52.6,59.33,50.55,61.86,50.55L61.86,50.55C64.39,50.55,66.44,52.6,66.44,55.13Z" fill="#f3ac24"/><path d="M68.06,35.52C69.65,35.52,70.95,36.82,70.95,38.41L70.95,44.71L52.77,44.71L52.77,38.41C52.77,36.82,54.06,35.52,55.66,35.52Z" fill="#f7cf64"/><path d="M57.39,33.79L66.33,33.79C69.61,33.79,72.27,36.45,72.27,39.72L72.27,44.31L51.45,44.31L51.45,39.72C51.45,36.45,54.11,33.79,57.39,33.79Z" fill="#f7cf64"/><path d="M57.39,35.68L66.33,35.68C69.61,35.68,72.27,38.34,72.27,41.61L72.27,46.2L51.45,46.2L51.45,41.61C51.45,38.34,54.11,35.68,57.39,35.68Z" fill="#f7cf64"/><path d="M48.78,71.45L12.66,71.45C12.61,71.13,12.58,70.8,12.58,70.45L12.58,64.1C12.58,58.07,20.7,53.18,30.72,53.18L30.72,53.18C40.74,53.18,48.86,58.07,48.86,64.1L48.86,70.45C48.86,70.8,48.83,71.13,48.78,71.45Z" fill="#555b88"/><path d="M36.06,51.37L36.06,52.66C36.06,52.84,36.05,53.01,36.04,53.18C36.05,53.36,36.06,53.53,36.06,53.71L36.06,55C36.06,57.95,33.67,60.34,30.72,60.34L30.72,60.34C27.77,60.34,25.38,57.95,25.38,55L25.38,53.71C25.38,53.53,25.39,53.36,25.4,53.18C25.39,53.01,25.38,52.84,25.38,52.66L25.38,51.37C25.38,48.42,27.77,46.03,30.72,46.03L30.72,46.03C33.67,46.03,36.06,48.42,36.06,51.37Z" fill="#f3ac24"/><path d="M30.72,26.71L30.72,26.71C37.43,26.71,42.88,32.15,42.88,38.87L42.88,41.8C42.88,48.51,37.43,53.96,30.72,53.96L30.72,53.96C24.01,53.96,18.56,48.51,18.56,41.8L18.56,38.86C18.56,32.15,24.01,26.71,30.72,26.71Z" fill="#f7cf64"/><path d="M17.21,23.23L44.24,23.23L44.24,33.87L17.21,33.87Z" fill="#555b88"/><path d="M37.95,28.52C39.81,28.52,41.32,30.03,41.32,31.89L41.32,39.23L20.12,39.23L20.12,31.89C20.12,30.03,21.63,28.52,23.49,28.52Z" fill="#f7cf64"/><path d="M37.95,26.5C39.81,26.5,41.32,28.01,41.32,29.86L41.32,37.21L20.12,37.21L20.12,29.86C20.12,28.01,21.63,26.5,23.49,26.5Z" fill="#f7cf64"/><path d="M14.18,41.97C14.18,41.08,14.54,40.23,15.17,39.6C15.8,38.97,16.65,38.62,17.54,38.62L20.67,38.62C22.51,38.62,24.02,40.13,24.02,41.97L24.02,41.97C24.02,43.82,22.51,45.33,20.67,45.33L17.54,45.33C16.65,45.33,15.8,44.98,15.17,44.35C14.54,43.72,14.18,42.86,14.18,41.97Z" fill="#f7cf64"/><path d="M37.42,41.97C37.42,41.08,37.77,40.23,38.4,39.6C39.03,38.97,39.88,38.61,40.77,38.61L43.9,38.61C45.74,38.61,47.26,40.13,47.26,41.97L47.26,41.97C47.26,43.82,45.74,45.33,43.9,45.33L40.77,45.33C38.93,45.33,37.42,43.82,37.42,41.97Z" fill="#f7cf64"/><path d="M17.21,25.13L20.15,25.13L20.15,39.66L17.21,39.66Z" fill="#555b88"/><path d="M41.29,25.13L44.24,25.13L44.24,39.66L41.29,39.66Z" fill="#555b88"/><path d="M49.23,26.21L19.53,26.21C22.84,21.57,28.25,18.55,34.38,18.55C40.51,18.55,45.93,21.57,49.23,26.21Z" fill="#555b88"/><path d="M49.23,26.21C45.93,30.85,40.51,33.87,34.38,33.87C28.25,33.87,22.84,30.85,19.53,26.21L49.23,26.21Z" fill="#555b88"/><path d="M75.92,52.9L75.92,54.05C75.92,54.2,75.91,54.36,75.89,54.51C75.91,54.66,75.92,54.82,75.92,54.97L75.92,56.12C75.92,58.73,73.8,60.85,71.18,60.85L71.18,60.85C68.56,60.85,66.44,58.73,66.44,56.12L66.44,54.97C66.44,54.82,66.45,54.66,66.46,54.51C66.45,54.36,66.44,54.2,66.44,54.05L66.44,52.9C66.44,50.29,68.56,48.17,71.18,48.17L71.18,48.17C73.8,48.17,75.92,50.29,75.92,52.9Z" fill="#555b88"/><path d="M75.92,54.03L75.92,55.18C75.92,55.33,75.91,55.49,75.89,55.64C75.91,55.79,75.92,55.95,75.92,56.1L75.92,57.25C75.92,59.86,73.8,61.98,71.18,61.98L71.18,61.98C68.56,61.98,66.44,59.86,66.44,57.25L66.44,56.1C66.44,55.95,66.45,55.79,66.46,55.64C66.45,55.49,66.44,55.33,66.44,55.18L66.44,54.03C66.44,51.42,68.56,49.29,71.18,49.29L71.18,49.29C73.8,49.29,75.92,51.42,75.92,54.03Z" fill="#555b88"/><path d="M70.95,53.88L75.92,53.88L75.92,61.98L70.95,61.98Z" fill="#555b88"/><path d="M61.86,33.97C67.62,33.97,72.29,38.64,72.29,44.4L72.29,46.92C72.29,52.67,67.62,57.35,61.86,57.35L61.86,57.35C56.1,57.35,51.43,52.67,51.43,46.92L51.43,44.4C51.43,38.64,56.1,33.97,61.86,33.97Z" fill="#f7cf64"/><path d="M48.4,47.62C48.4,46.89,48.69,46.2,49.2,45.68C49.71,45.17,50.41,44.88,51.13,44.88L53.67,44.88C54.4,44.88,55.09,45.17,55.61,45.68C56.12,46.2,56.41,46.89,56.41,47.62L56.41,47.62C56.41,48.34,56.12,49.04,55.61,49.55C55.09,50.06,54.4,50.35,53.67,50.35L51.13,50.35C50.41,50.35,49.71,50.06,49.2,49.55C48.69,49.04,48.4,48.34,48.4,47.62Z" fill="#f7cf64"/><path d="M67.31,47.62C67.31,46.89,67.6,46.2,68.11,45.68C68.62,45.17,69.32,44.88,70.04,44.88L72.58,44.88C73.31,44.88,74,45.17,74.52,45.68C75.03,46.2,75.32,46.89,75.32,47.62L75.32,47.62C75.32,48.34,75.03,49.04,74.52,49.55C74,50.06,73.31,50.35,72.58,50.35L70.04,50.35C69.32,50.35,68.62,50.06,68.11,49.55C67.6,49.04,67.31,48.34,67.31,47.62Z" fill="#f7cf64"/><path d="M65.5,37.82C61.82,37.82,58.57,36.01,56.58,33.22L74.41,33.22C72.43,36.01,69.17,37.82,65.5,37.82Z" fill="#555b88"/></svg>