<svg xmlns="http://www.w3.org/2000/svg" viewBox="0 0 90 90"><path d="M89.44,75.22C89.44,83.04,83.04,89.44,75.22,89.44L14.78,89.44C6.96,89.44,0.56,83.04,0.56,75.22L0.56,14.78C0.56,6.96,6.96,0.56,14.78,0.56L75.22,0.56C83.04,0.56,89.45,6.96,89.45,14.78L89.45,75.22Z" fill="#7f6939"/><path d="M6.81,16.27L6.81,73.73C6.81,78.95,11.05,83.19,16.27,83.19L73.73,83.19C78.95,83.19,83.2,78.95,83.2,73.73L83.2,16.27C83.2,11.05,78.95,6.81,73.73,6.81L16.27,6.81C11.05,6.81,6.81,11.05,6.81,16.27Z" fill="#a68b46"/><path d="M67.86,73.06C67.86,75.29,57.62,77.1,45,77.1C32.38,77.1,22.14,75.29,22.14,73.06C22.14,70.83,32.38,69.02,45,69.02C57.62,69.02,67.86,70.83,67.86,73.06Z" fill="#7f6939"/><path d="M30.36,16.88L34.25,16.88L34.25,73.12L30.36,73.12Z" fill="#40351d"/><path d="M55.94,16.88L59.83,16.88L59.83,73.12L55.94,73.12Z" fill="#40351d"/><path d="M59.31,66.36L32.89,50.6L31.56,53.26L57.98,69.02Z" fill="#40351d"/><path d="M31.56,66.36L57.98,50.6L59.31,53.26L32.89,69.02Z" fill="#40351d"/><path d="M26.07,20.38L63.93,20.38L63.93,36.96L26.07,36.96Z" fill="#f7cf64"/><path d="M26.34,46.99C38.5,50.73,51.5,50.73,63.66,46.99C64.04,48.23,64.42,49.47,64.8,50.71C51.9,54.68,38.1,54.68,25.2,50.71C25.58,49.47,25.96,48.23,26.34,46.99Z" fill="#f7cf64"/><path d="M46.68,26.91L50.43,27.45L47.72,30.1L48.36,33.84L45,32.08L41.64,33.84L42.28,30.1L39.57,27.45L43.32,26.91L45,23.51Z" fill="#7f6939"/></svg>