<svg xmlns="http://www.w3.org/2000/svg" viewBox="0 0 90 90"><path d="M0.55,75.22C0.55,83.04,6.95,89.45,14.77,89.45L75.21,89.45C83.36,89.07,89.81,82.6,89.44,75.22L89.44,14.78C89.44,6.95,83.04,0.56,75.21,0.56L14.77,0.56C6.95,0.56,0.55,6.96,0.55,14.78L0.55,75.22Z" fill="#585858"/><path d="M73.72,6.81C78.94,6.81,83.19,11.05,83.19,16.27L83.19,73.73C83.19,78.95,78.94,83.19,73.72,83.19L16.26,83.19C11.04,83.19,6.8,78.95,6.8,73.73L6.8,16.27C6.8,11.05,11.04,6.81,16.26,6.81L73.72,6.81Z" fill="#afafaf"/><path d="M36.83,14.3L36.5,14.3C35.41,14.3,34.32,15.29,34.03,16.55L33.45,19.31C32.92,20.56,32.04,21.45,30.6,22.64C29.01,23.95,28.51,25.25,28.17,26.11L28.11,26.28C27.75,27.2,27.48,28,27.24,28.71C26.67,30.43,26.22,31.79,24.8,33.85L20.14,40.41C18.7,42.21,18.86,44.71,20.51,46.12C22.19,47.55,26.27,48.63,27.68,48.63C27.95,48.63,28.36,48.6,28.64,48.32C29.27,47.72,29.71,47.04,30.13,46.38C31.05,44.94,31.71,43.9,34.1,43.89C37.59,43.88,40.61,40.71,42.06,39.19L42.08,39.17L42.09,39.16L42.96,38.15C43.55,39.08,44.22,40.6,43.76,42.19C43.57,42.86,43.27,43.49,42.85,44.11C42.02,45.31,40.82,46.36,39.64,47.32L39.56,47.38C36.55,49.82,31.58,53.84,30.72,59.5C25.39,60.96,25.4,64.67,25.41,68.95L25.41,69.6C25.41,69.6,25.41,70.4,25.41,70.4L66.05,70.4L66.05,68.95C66.07,64.68,66.08,60.96,60.74,59.5C60.9,58.86,61.14,58.04,61.4,57.14C62.45,53.44,63.89,48.37,63.89,45.05C63.89,37.23,61.42,30.66,56.73,26.06C52.87,22.26,47.65,19.93,42.03,19.48L37.07,14.53L36.83,14.3L36.83,14.3Z" fill="#585858"/><path d="M14.99,58.05L74.99,58.05L74.99,62.25L14.99,62.25Z" fill="#cfcfcf"/><path d="M14.99,58.05L19.49,58.05L19.49,70.4L14.99,70.4Z" fill="#cfcfcf"/><path d="M70.49,58.05L74.99,58.05L74.99,70.4L70.49,70.4Z" fill="#cfcfcf"/><path d="M36.71,52.42C32.78,52.42,29.22,53.98,26.59,56.49L46.83,56.49C44.2,53.98,40.64,52.42,36.71,52.42Z" fill="#fff"/><path d="M53.29,52.42C49.37,52.42,45.8,53.98,43.17,56.49L63.41,56.49C60.79,53.98,57.22,52.42,53.29,52.42Z" fill="#fff"/><path d="M53.29,54.63C50.28,54.63,47.48,55.54,45.16,57.11L61.43,57.11C59.11,55.54,56.31,54.63,53.29,54.63Z" fill="#cfcfcf"/><path d="M36.56,54.63C33.55,54.63,30.75,55.54,28.43,57.11L44.7,57.11C42.38,55.54,39.58,54.63,36.56,54.63Z" fill="#cfcfcf"/><path d="M24.62,56.49L65.39,56.49L65.39,58.06L24.62,58.06Z" fill="#8a8886"/></svg>