<svg xmlns="http://www.w3.org/2000/svg" viewBox="0 0 90 90"><path d="M0.55,75.22C0.55,83.04,6.95,89.45,14.77,89.45L75.21,89.45C83.36,89.07,89.81,82.6,89.44,75.22L89.44,14.78C89.44,6.95,83.04,0.56,75.21,0.56L14.77,0.56C6.95,0.56,0.55,6.96,0.55,14.78L0.55,75.22Z" fill="#f3ac24"/><path d="M73.72,6.81C78.94,6.81,83.19,11.05,83.19,16.27L83.19,73.73C83.19,78.95,78.94,83.19,73.72,83.19L16.26,83.19C11.04,83.19,6.8,78.95,6.8,73.73L6.8,16.27C6.8,11.05,11.04,6.81,16.26,6.81L73.72,6.81Z" fill="#f7cf64"/><path d="M13.98,33.14L77.11,33.14L77.11,70.65L13.98,70.65Z" fill="#f3ac24"/><path d="M42.65,67.59L48.45,67.59L48.45,71.04L42.65,71.04Z" fill="#f3ac24"/><path d="M15.65,33.98L75.44,33.98L75.44,69L15.65,69Z" fill="#fcecc1"/><path d="M15.76,68.11L15.76,31.81C25.59,29.84,35.69,29.84,45.52,31.81L45.52,68.11C35.69,66.15,25.59,66.15,15.76,68.11Z" fill="#fdf5e0"/><path d="M45.68,68.11L45.68,31.81C55.51,29.84,65.61,29.84,75.44,31.81L75.44,68.11C65.61,66.15,55.51,66.15,45.68,68.11Z" fill="#fff"/><path d="M51.03,35.82L71.32,35.82L71.32,37.1L51.03,37.1Z" fill="#fcecc1"/><path d="M51.03,39.9L71.32,39.9L71.32,41.18L51.03,41.18Z" fill="#fcecc1"/><path d="M51.03,43.99L71.32,43.99L71.32,45.26L51.03,45.26Z" fill="#fcecc1"/><path d="M19.39,35.95L39.81,35.95L39.81,56.36L19.39,56.36Z" fill="#fcecc1"/><path d="M24.53,51.24L29.66,51.24L29.66,56.38L24.53,56.38Z" fill="#fdf5e0"/><path d="M34.8,51.24L39.93,51.24L39.93,56.38L34.8,56.38Z" fill="#fdf5e0"/><path d="M19.39,46.14L24.53,46.14L24.53,51.27L19.39,51.27Z" fill="#fdf5e0"/><path d="M29.66,46.14L34.8,46.14L34.8,51.27L29.66,51.27Z" fill="#fdf5e0"/><path d="M24.53,41.04L29.66,41.04L29.66,46.17L24.53,46.17Z" fill="#fdf5e0"/><path d="M34.8,41.04L39.93,41.04L39.93,46.17L34.8,46.17Z" fill="#fdf5e0"/><path d="M19.39,35.93L24.53,35.93L24.53,41.07L19.39,41.07Z" fill="#fdf5e0"/><path d="M29.66,35.93L34.8,35.93L34.8,41.07L29.66,41.07Z" fill="#fdf5e0"/><path d="M45.1,2.78C51.55,6.39,57.99,3.61,64.44,7.22C57.99,6.57,51.55,12.32,45.1,11.67Z" fill="#b23330"/><path d="M44.99,17C43.06,17,40.44,17.36,40.33,17.37L39.69,17.46L39.58,18.1L38.31,25.57L36.17,25.57L33.88,19.06L33.68,18.47L33.05,18.47C30.72,18.47,28.5,19.02,26.48,20.11L25.97,20.38L26.02,20.96L26.75,29.86L26.75,29.88L26.75,29.9C27.19,33.09,28.82,35.07,32.02,36.25C31.58,40.04,29.49,57.84,28.95,62.06C22.54,63.57,22.56,67.78,22.57,72.62L22.57,73.34C22.57,73.34,22.57,74.22,22.57,74.22L67.42,74.22L67.42,72.62C67.43,67.78,67.44,63.57,61.04,62.06C60.5,57.84,58.41,40.04,57.97,36.25C61.17,35.07,62.81,33.09,63.24,29.9L63.24,29.88L63.24,29.86L63.97,20.96L64.02,20.38L63.51,20.11C61.49,19.02,59.27,18.47,56.94,18.47L56.31,18.47L56.11,19.06L53.82,25.57L51.68,25.57L50.41,18.1L50.3,17.46L49.66,17.37C49.55,17.36,46.92,17,45,17L45,17Z" fill="#f3ac24"/></svg>