<svg xmlns="http://www.w3.org/2000/svg" viewBox="0 0 90 90"><path d="M89.44,75.48C89.44,83.3,83.04,89.71,74.53,89.15L14.08,89.15C6.96,89.71,0.56,83.3,0.56,75.48L0.56,15.04C0.56,7.22,6.96,0.82,14.78,0.82L75.22,0.82C83.04,0.82,89.44,7.22,89.44,15.04L89.44,75.48Z" fill="#b33430"/><path d="M6.81,16.53L6.81,73.99C6.81,79.21,11.05,83.45,16.27,83.45L73.73,83.45C78.95,83.45,83.19,79.21,83.19,73.99L83.19,16.53C83.19,11.31,78.95,7.07,73.73,7.07L16.27,7.07C11.05,7.07,6.81,11.31,6.81,16.53Z" fill="#f26655"/><path d="M71.42,23.05L18.58,23.05C15.57,23.05,13.12,25.49,13.12,28.51L13.12,62.01C13.12,65.03,15.57,67.47,18.58,67.47L71.42,67.47C74.43,67.47,76.88,65.03,76.88,62.01L76.88,28.51C76.88,25.49,74.44,23.05,71.42,23.05Z" fill="#ededed"/><path d="M42.39,67.81L45,65.19L47.61,67.81L45,70.42Z" fill="#f26655"/><path d="M42.39,22.72L45,20.1L47.61,22.72L45,25.33Z" fill="#f26655"/><path d="M21.86,37.35L35.38,37.35L35.38,53.01L21.86,53.01Z" fill="#f26655"/><path d="M42.39,39.6L67.58,39.6" fill="none" stroke="#000000" stroke-width="2" stroke-linecap="butt" stroke-linejoin="miter"/><path d="M42.39,50.47L58.83,50.47" fill="none" stroke="#000000" stroke-width="2" stroke-linecap="butt" stroke-linejoin="miter"/></svg>