<svg xmlns="http://www.w3.org/2000/svg" viewBox="0 0 90 90"><path d="M75.22,89.44L14.78,89.44C6.96,89.44,0.56,83.04,0.56,75.22L0.56,14.78C0.56,6.96,6.96,0.56,14.78,0.56L75.22,0.56C83.04,0.56,89.44,6.96,89.44,14.78L89.44,75.22C89.44,83.04,83.05,89.44,75.22,89.44Z" fill="#f3ac24"/><path d="M6.81,16.27L6.81,73.73C6.81,78.95,11.05,83.19,16.27,83.19L73.73,83.19C78.95,83.19,83.2,78.95,83.2,73.73L83.2,16.27C83.2,11.05,78.95,6.81,73.73,6.81L16.27,6.81C11.05,6.81,6.81,11.05,6.81,16.27Z" fill="#f05a29"/><path d="M6.81,16.27L6.81,73.73C6.81,78.95,11.05,83.19,16.27,83.19L73.73,83.19C78.95,83.19,83.19,78.95,83.19,73.73L83.19,16.27C83.19,11.05,78.95,6.81,73.73,6.81L16.27,6.81C11.05,6.81,6.81,11.05,6.81,16.27Z" fill="none" stroke="#ffffff" stroke-width="1" stroke-linecap="butt" stroke-linejoin="miter"/><path d="M41.36,53.59C43.48,55.33,46.52,55.33,48.64,53.59C57.82,46.08,64.06,31.51,64.15,14.75L25.85,14.75C25.94,31.51,32.18,46.07,41.36,53.59Z" fill="#f3ac24"/><path d="M34.13,50.42C31.38,48.84,29.22,47.39,27.36,45.86C25.12,44.01,23.33,42.05,21.86,39.87C20.24,37.44,19.06,34.78,18.24,31.73C17.38,28.52,16.95,24.97,16.93,20.88L16.92,18.97L53.24,18.97L53.23,20.88C53.21,24.97,52.78,28.52,51.92,31.73C51.1,34.78,49.92,37.44,48.3,39.87C46.83,42.06,45.04,44.01,42.8,45.86C40.94,47.39,38.78,48.84,36.03,50.42L35.08,50.96ZM35.08,46.57C43.71,41.45,48.86,35.63,49.38,22.78L20.78,22.78C21.3,35.63,26.45,41.45,35.08,46.57Z" fill="#f3ac24"/><path d="M49.48,56.18C49.48,55.2,48.54,54.35,47.15,53.91L47.15,31.53L42.85,31.53L42.85,53.91C41.46,54.35,40.52,55.2,40.52,56.18C40.52,56.53,40.64,56.87,40.87,57.18C42.15,58.94,42.85,60.1,42.85,62.28L42.85,65.15L47.15,65.15L47.15,62.28C47.15,60.1,47.85,58.95,49.13,57.18C49.36,56.87,49.48,56.54,49.48,56.18Z" fill="#f3ac24"/><path d="M39.27,63.19L50.73,63.19C51.74,63.19,52.56,64.01,52.56,65.01L52.56,67.21L37.45,67.21L37.45,65.01C37.45,64.01,38.26,63.19,39.27,63.19Z" fill="#f3ac24"/><path d="M41.03,61.6L48.97,61.6C49.67,61.6,50.23,62.17,50.23,62.87L50.23,64.39L39.77,64.39L39.77,62.87C39.77,62.17,40.33,61.6,41.03,61.6Z" fill="#f3ac24"/><path d="M34.18,65.95L55.82,65.95C57.72,65.95,59.26,67.49,59.26,69.39L59.26,76.86L30.75,76.86L30.75,69.39C30.75,67.49,32.29,65.95,34.19,65.95Z" fill="#f3ac24"/><path d="M53.98,50.42C51.22,48.84,49.06,47.39,47.2,45.86C44.97,44.01,43.17,42.05,41.71,39.87C40.09,37.44,38.9,34.78,38.08,31.73C37.22,28.52,36.79,24.97,36.77,20.88L36.76,18.97L73.08,18.97L73.07,20.88C73.05,24.97,72.62,28.52,71.76,31.73C70.94,34.78,69.76,37.44,68.14,39.87C66.68,42.06,64.88,44.01,62.64,45.86C60.78,47.39,58.63,48.84,55.87,50.42L54.92,50.96ZM54.92,46.57C63.55,41.45,68.7,35.63,69.22,22.78L40.62,22.78C41.14,35.63,46.29,41.45,54.92,46.57Z" fill="#f3ac24"/><path d="M72.09,35.85L67.9,32.99C66.98,32.36,65.72,32.6,65.1,33.52L65.1,33.52C64.47,34.44,64.71,35.7,65.63,36.32L69.81,39.18L72.09,35.85Z" fill="#f7cf64"/><path d="M69.86,39.12L65.67,36.26C64.75,35.63,63.5,35.86,62.87,36.78L62.87,36.78C62.24,37.7,62.48,38.96,63.4,39.59L67.59,42.45L69.86,39.12Z" fill="#f7cf64"/><path d="M67.66,42.34L63.47,39.48C62.55,38.86,61.29,39.09,60.66,40.01C60.04,40.93,60.27,42.19,61.19,42.82L65.38,45.68L67.66,42.34Z" fill="#f7cf64"/><path d="M83.28,46.95L74.87,41.21C72.38,39.51,68.99,40.15,67.29,42.64C65.59,45.13,66.23,48.53,68.72,50.23L83.28,60.3L83.28,46.95Z" fill="#f7cf64"/><path d="M65.43,45.61L61.24,42.75C60.32,42.12,59.06,42.36,58.43,43.28C57.81,44.2,58.04,45.45,58.96,46.08L63.15,48.94L65.43,45.61Z" fill="#f7cf64"/><path d="M61.74,47.98L70.68,34.89L72.95,36.44C76.03,38.54,75.8,42.04,73.7,45.11L72.36,47.07C70.26,50.14,67.09,51.63,64.02,49.53Z" fill="#f7cf64"/><path d="M18,35.85L22.19,32.99C23.11,32.36,24.36,32.6,24.99,33.52L24.99,33.52C25.62,34.44,25.38,35.7,24.46,36.32L20.27,39.18L18,35.85Z" fill="#f7cf64"/><path d="M20.22,39.12L24.41,36.26C25.33,35.63,26.59,35.86,27.22,36.78L27.22,36.78C27.84,37.7,27.61,38.96,26.69,39.59L22.5,42.45L20.22,39.12Z" fill="#f7cf64"/><path d="M22.43,42.34L26.62,39.48C27.54,38.86,28.79,39.09,29.42,40.01C30.05,40.93,29.81,42.19,28.89,42.82L24.7,45.68L22.43,42.34Z" fill="#f7cf64"/><path d="M6.81,46.95L15.21,41.21C17.7,39.51,21.1,40.15,22.8,42.64C24.5,45.13,23.85,48.53,21.37,50.23L6.81,60.3L6.81,46.95Z" fill="#f7cf64"/><path d="M24.66,45.61L28.85,42.75C29.77,42.12,31.02,42.36,31.65,43.28C32.28,44.2,32.04,45.45,31.12,46.08L26.93,48.94L24.66,45.61Z" fill="#f7cf64"/><path d="M28.34,47.98L19.4,34.89L17.13,36.44C14.06,38.54,14.29,42.04,16.39,45.11L17.72,47.07C19.82,50.14,22.99,51.63,26.07,49.53Z" fill="#f7cf64"/></svg>