<svg xmlns="http://www.w3.org/2000/svg" viewBox="0 0 90 90"><path d="M89.44,75.22C89.44,83.04,83.04,89.44,75.22,89.44L14.78,89.44C6.96,89.44,0.56,83.04,0.56,75.22L0.56,14.78C0.56,6.96,6.96,0.56,14.78,0.56L75.22,0.56C83.04,0.56,89.44,6.96,89.44,14.78L89.44,75.22Z" fill="#e3183c"/><path d="M16.28,6.81L73.74,6.81C78.96,6.81,83.2,11.05,83.2,16.27L83.2,73.73C83.2,78.95,78.96,83.19,73.74,83.19L16.28,83.19C11.06,83.19,6.81,78.95,6.81,73.73L6.81,16.27C6.81,11.05,11.06,6.81,16.28,6.81Z" fill="#e6bc4c"/><path d="M68.54,74.09L59.38,74.09C58.98,73.36,58.75,72.52,58.75,71.62C58.75,68.75,61.08,66.42,63.96,66.42C66.83,66.42,69.16,68.75,69.16,71.62C69.16,72.52,68.94,73.36,68.54,74.09Z" fill="#fae2a2"/><path d="M61.25,28.37C65.05,28.37,68.13,31.44,68.13,35.24C68.13,39.04,65.05,42.11,61.25,42.11C59.93,42.11,58.69,41.74,57.64,41.09C57.71,41.09,57.78,41.09,57.85,41.09C60.58,41.09,62.8,38.88,62.8,36.14C62.8,33.41,60.58,31.19,57.85,31.19C55.11,31.19,52.9,33.41,52.9,36.14C52.9,37.3,53.29,38.36,53.96,39.21C52.72,41.22,50.5,42.56,47.96,42.56C47.15,42.56,46.38,42.42,45.65,42.17C43.51,42.08,41.62,41.02,40.41,39.41C40.08,39.78,39.72,40.11,39.33,40.4C38.25,42.36,36.17,43.68,33.77,43.68C31.71,43.68,29.88,42.7,28.72,41.18C30.58,40.7,32.04,39.21,32.48,37.33C31.71,36.42,31.25,35.25,31.25,33.96C31.25,31.09,33.58,28.76,36.45,28.76C38.18,28.76,39.71,29.61,40.66,30.9C41.57,28.95,43.56,27.6,45.85,27.6C46.21,27.6,46.55,27.63,46.89,27.69C46.08,25.86,44.25,24.58,42.13,24.58C40.22,24.58,38.55,25.62,37.64,27.15C36.73,25.64,35.07,24.63,33.18,24.63C30.31,24.63,27.98,26.96,27.98,29.83C27.98,30.23,28.02,30.61,28.11,30.99C27.88,30.95,27.65,30.94,27.42,30.94C24.54,30.94,22.21,33.27,22.21,36.14C22.21,39.01,24.54,41.34,27.42,41.34C27.49,41.34,27.55,41.34,27.62,41.34C26.91,41.59,26.14,41.72,25.34,41.72C21.51,41.72,18.4,38.62,18.4,34.78C18.4,30.95,21.51,27.84,25.34,27.84C25.67,27.84,25.99,27.87,26.3,27.91C26.26,27.62,26.24,27.32,26.24,27.02C26.24,23.19,29.35,20.08,33.18,20.08C34.65,20.08,36.01,20.54,37.13,21.32C37.83,18.22,40.6,15.91,43.9,15.91C47.06,15.91,49.71,18.01,50.56,20.88C51.53,20.37,52.63,20.08,53.8,20.08C57.63,20.08,60.74,23.19,60.74,27.02C60.74,27.5,60.69,27.96,60.6,28.4C60.81,28.38,61.03,28.37,61.25,28.37Z" fill="#fae2a2"/><path d="M62.8,36.14C62.8,38.88,60.58,41.1,57.84,41.1C57.78,41.1,57.71,41.09,57.64,41.09C56.15,41.03,54.83,40.31,53.96,39.21C53.29,38.36,52.89,37.3,52.89,36.14C52.89,33.41,55.11,31.19,57.84,31.19C60.58,31.19,62.8,33.41,62.8,36.14Z" fill="#f7cf64"/><path d="M32.48,37.32C32.04,39.21,30.58,40.7,28.72,41.18C28.36,41.27,28,41.32,27.62,41.34C27.55,41.34,27.48,41.34,27.41,41.34C24.54,41.34,22.21,39.01,22.21,36.14C22.21,33.27,24.54,30.94,27.41,30.94C27.65,30.94,27.88,30.96,28.11,30.99C28.02,30.61,27.98,30.23,27.98,29.83C27.98,26.96,30.31,24.63,33.18,24.63C35.07,24.63,36.73,25.64,37.64,27.15C38.54,25.62,40.21,24.58,42.13,24.58C44.25,24.58,46.08,25.86,46.89,27.69C46.55,27.63,46.21,27.6,45.85,27.6C43.55,27.6,41.57,28.95,40.66,30.9C39.71,29.61,38.18,28.76,36.45,28.76C33.58,28.76,31.25,31.09,31.25,33.96C31.25,35.25,31.71,36.42,32.48,37.33Z" fill="#f7cf64"/><path d="M34.73,74.09L34.73,34.99L68.15,34.99L64.08,74.09Z" fill="#e94663"/><path d="M22.5,74.09L18.43,34.99L51.85,34.99L51.85,74.09Z" fill="#e3183c"/><path d="M25.74,74.09L18.04,74.09C17.7,73.47,17.51,72.77,17.51,72.02C17.51,69.6,19.47,67.64,21.89,67.64C24.3,67.64,26.26,69.6,26.26,72.02C26.26,72.77,26.07,73.47,25.74,74.09Z" fill="#fae2a2"/><path d="M34.57,74.09L29.99,74.09C29.79,73.72,29.68,73.3,29.68,72.86C29.68,71.42,30.85,70.26,32.28,70.26C33.72,70.26,34.89,71.42,34.89,72.86C34.89,73.3,34.77,73.73,34.57,74.09Z" fill="#fae2a2"/><path d="M72.19,74.09L67.61,74.09C67.41,73.72,67.3,73.3,67.3,72.86C67.3,71.42,68.47,70.26,69.9,70.26C71.34,70.26,72.51,71.42,72.51,72.86C72.51,73.3,72.39,73.73,72.2,74.09Z" fill="#fae2a2"/><path d="M67.43,42.52L67.38,42.52L67.43,42.08Z" fill="#f7cf64"/><path d="M51.88,38.58L67.82,38.58L67.38,42.52L51.88,42.52Z" fill="#f7cf64"/><path d="M34.66,38.58L34.66,42.52L19.15,42.52L18.74,38.58Z" fill="#e6bc4c"/><path d="M34.66,38.58L51.88,38.58L51.88,42.52L34.66,42.52Z" fill="#e6bc4c"/><path d="M51.88,50.9L51.88,46.95L66.91,46.95L66.5,50.9Z" fill="#f7cf64"/><path d="M34.66,46.95L34.66,50.9L20.04,50.9L19.62,46.95Z" fill="#e6bc4c"/><path d="M34.66,46.95L51.88,46.95L51.88,50.9L34.66,50.9Z" fill="#e6bc4c"/><path d="M51.88,59.27L51.88,55.33L66.03,55.33L65.61,59.27Z" fill="#f7cf64"/><path d="M34.66,55.33L34.66,59.27L20.92,59.27L20.5,55.33Z" fill="#e6bc4c"/><path d="M34.66,55.33L51.88,55.33L51.88,59.27L34.66,59.27Z" fill="#e6bc4c"/><path d="M51.88,67.64L51.88,63.7L65.15,63.7L64.73,67.64Z" fill="#f7cf64"/><path d="M34.66,63.7L34.66,67.64L21.8,67.64L21.39,63.7Z" fill="#e6bc4c"/><path d="M34.66,63.7L51.88,63.7L51.88,67.64L34.66,67.64Z" fill="#e6bc4c"/><path d="M17.51,33.86L68.63,33.86L68.63,34.93L17.51,34.93Z" fill="#ffe9c5"/><path d="M53.24,53.67C53.24,59.29,48.69,63.85,43.07,63.85C37.45,63.85,32.9,59.29,32.9,53.67C32.9,48.06,37.45,43.5,43.07,43.5C48.69,43.5,53.24,48.06,53.24,53.67Z" fill="#fae2a2"/></svg>