<svg xmlns="http://www.w3.org/2000/svg" viewBox="0 0 90 90"><path d="M75.22,89.44L14.78,89.44C6.96,89.44,0.56,83.04,0.56,75.22L0.56,14.78C0.56,6.96,6.96,0.56,14.78,0.56L75.22,0.56C83.04,0.56,89.44,6.96,89.44,14.78L89.44,75.22C89.44,83.04,83.05,89.44,75.22,89.44Z" fill="#f3ac24"/><path d="M6.81,16.27L6.81,73.73C6.81,78.95,11.05,83.19,16.27,83.19L73.73,83.19C78.95,83.19,83.19,78.95,83.19,73.73L83.19,16.27C83.19,11.05,78.95,6.81,73.73,6.81L16.27,6.81C11.05,6.81,6.81,11.05,6.81,16.27Z" fill="#ee4552"/><path d="M80.27,118.68L30.98,56.11L55.08,37.12L104.37,99.7Z" fill="#f3ac24"/><path d="M71.55,57.51C71.55,57.51,70.8,60.62,68.91,61.52C67.02,62.41,55.56,68.67,55.56,68.67L46.52,75.85L42.43,70.48L40.83,68.62L48.73,61.42L55.9,57.51L71.55,57.51Z" fill="#e4a222"/><path d="M-14.37,99.69L34.92,37.12L59.02,56.11L9.73,118.68Z" fill="#f7cf64"/><path d="M34.23,27.87C27.59,29.91,23.86,36.95,25.9,43.58L30.12,57.3C32.15,63.93,39.19,67.66,45.82,65.62L57.67,61.98C58.06,61.86,64.83,59.76,65.21,59.62L55.94,25.47Z" fill="#f7cf64"/><path d="M69.41,58.61C71.82,58.12,73.38,55.76,72.88,53.35L72.88,53.35C72.39,50.93,70.03,49.38,67.62,49.87L62.9,50.98C60.49,51.47,58.93,53.83,59.42,56.25L59.42,56.25C59.92,58.66,62.28,60.22,64.69,59.72Z" fill="#f7cf64"/><path d="M70.27,49.87C72.68,49.38,74.24,47.02,73.75,44.6L73.75,44.6C73.25,42.19,70.89,40.63,68.48,41.13L59.57,42.85C57.15,43.34,55.6,45.7,56.09,48.11L56.09,48.11C56.58,50.53,58.94,52.08,61.36,51.59Z" fill="#f7cf64"/><path d="M68.48,41.12L55.55,43.77L50.28,40.29L66.69,32.38L71.96,35.86Z" fill="#f7cf64"/><path d="M66.69,32.38L53.76,35.03L48.5,31.55L64.91,23.64L70.17,27.12Z" fill="#f7cf64"/><path d="M18.08,58.61C15.66,58.12,14.11,55.76,14.6,53.35L14.6,53.35C15.09,50.93,17.45,49.38,19.87,49.87L24.58,50.98C27,51.47,28.55,53.83,28.06,56.25L28.06,56.25C27.57,58.66,25.21,60.22,22.79,59.72Z" fill="#f3ac24"/><path d="M17.22,49.87C14.8,49.38,13.25,47.02,13.74,44.6L13.74,44.6C14.23,42.19,16.59,40.63,19,41.13L27.92,42.85C30.33,43.34,31.89,45.7,31.39,48.11L31.39,48.11C30.9,50.53,28.54,52.08,26.13,51.59Z" fill="#f3ac24"/><path d="M57.09,21.02L49.35,18.3C46.67,20.98,43.99,23.66,41.31,26.34C41.72,26.65,42.18,26.9,42.68,27.08L53.5,30.89C56.23,31.88,59.24,30.47,60.23,27.75C61.22,25.02,59.81,22.01,57.09,21.02Z" fill="#f7cf64"/><path d="M20.79,32.38L33.73,35.03L37.2,40.29L19,41.13L15.53,35.86Z" fill="#f3ac24"/><path d="M22.58,23.64L35.51,26.28L38.99,31.55L20.79,32.38L17.31,27.12Z" fill="#f3ac24"/><path d="M49.98,18.3L46.33,22.53L46.22,27.5L55.94,25.47Z" fill="#f3ac24"/><path d="M46.67,27.4C49.75,26.77,51.73,23.77,51.1,20.7L51.1,20.7C50.47,17.63,47.47,15.65,44.4,16.28L32.28,18.89C29.21,19.52,27.23,22.52,27.85,25.59L27.85,25.59C28.48,28.66,31.48,30.64,34.55,30.01Z" fill="#f3ac24"/><path d="M38.71,29.12C38.71,29.12,34.19,34.81,29.2,28.25C29.2,28.25,31.36,31.7,38.71,29.12Z" fill="#e4a222"/></svg>