<svg xmlns="http://www.w3.org/2000/svg" viewBox="0 0 90 90"><path d="M75.22,89.44L14.78,89.44C6.96,89.44,0.56,83.04,0.56,75.22L0.56,14.78C0.56,6.96,6.96,0.56,14.78,0.56L75.22,0.56C83.05,0.56,89.44,6.96,89.44,14.78L89.44,75.22C89.44,83.04,83.05,89.44,75.22,89.44Z" fill="#f26655"/><path d="M16.27,6.81L73.73,6.81C78.95,6.81,83.19,11.05,83.19,16.27L83.19,73.73C83.19,78.95,78.95,83.19,73.73,83.19L16.27,83.19C11.05,83.19,6.81,78.95,6.81,73.73L6.81,16.27C6.81,11.05,11.05,6.81,16.27,6.81Z" fill="#e3183c"/><path d="M75.73,63.68C75.73,64.59,74.98,65.34,74.07,65.34L15.93,65.34C15.02,65.34,14.27,64.59,14.27,63.68L14.27,26.32C14.27,25.41,15.02,24.66,15.93,24.66L74.07,24.66C74.98,24.66,75.73,25.41,75.73,26.32Z" fill="#312e2b"/><path d="M72.4,27.99L72.4,62.01L17.6,62.01L17.6,27.99Z" fill="#838280"/><path d="M53.57,51.37C53.84,51.37,54.07,51.6,54.07,51.87L54.07,83.19L35.93,83.19L35.93,51.87C35.93,51.6,36.16,51.37,36.43,51.37Z" fill="#312e2b"/><path d="M49.74,76.27C49.74,78.9,47.61,81.04,44.97,81.04C42.34,81.04,40.2,78.9,40.2,76.27C40.2,73.63,42.34,71.5,44.97,71.5C47.61,71.5,49.74,73.63,49.74,76.27Z" fill="#838280"/><path d="M39.38,55.7L50.49,55.7L50.49,57.49L39.38,57.49Z" fill="#e3183c"/><path d="M39.38,59.42L50.49,59.42L50.49,61.21L39.38,61.21Z" fill="#838280"/><path d="M39.38,63.15L50.49,63.15L50.49,64.94L39.38,64.94Z" fill="#838280"/><path d="M39.38,66.79L42.3,66.79L42.3,68.58L39.38,68.58Z" fill="#838280"/><path d="M47.57,66.79L50.49,66.79L50.49,68.58L47.57,68.58Z" fill="#838280"/></svg>