<svg xmlns="http://www.w3.org/2000/svg" viewBox="0 0 90 90"><path d="M75.22,89.44L14.78,89.44C6.96,89.44,0.56,83.04,0.56,75.22L0.56,14.78C0.56,6.96,6.96,0.56,14.78,0.56L75.22,0.56C83.05,0.56,89.44,6.96,89.44,14.78L89.44,75.22C89.44,83.04,83.05,89.44,75.22,89.44Z" fill="#d0a879"/><path d="M6.81,16.27L6.81,73.73C6.81,78.95,11.05,83.19,16.27,83.19L73.73,83.19C78.95,83.19,83.19,78.95,83.19,73.73L83.19,16.27C83.19,11.05,78.95,6.81,73.73,6.81L16.27,6.81C11.05,6.81,6.81,11.05,6.81,16.27Z" fill="#a58065"/><path d="M55.37,29.53L67.45,29.53C67.45,29.53,67.45,35.67,67.45,35.67C67.45,38.44,66.33,40.96,64.02,43.37C62.18,45.29,59.61,47.1,56.37,48.78L55.37,48.33L55.37,29.53M50.57,24.73L50.57,51.45C50.57,51.45,56.47,54.07,56.47,54.07C64.8,50.21,72.25,44.38,72.25,35.67L72.25,26.11C72.25,25.35,71.63,24.73,70.87,24.73L50.57,24.73Z" fill="none" stroke="#b7906e" stroke-width="2" stroke-linecap="butt" stroke-linejoin="miter"/><path d="M34.63,29.53L34.63,48.33L33.63,48.78C30.39,47.1,27.82,45.29,25.98,43.37C23.67,40.96,22.55,38.44,22.55,35.67L22.55,29.53L34.63,29.53M39.43,24.73L19.13,24.73C18.37,24.73,17.75,25.35,17.75,26.11L17.75,35.66C17.75,44.38,25.2,50.21,33.53,54.07L39.43,51.45L39.43,24.73L39.43,24.73Z" fill="none" stroke="#b7906e" stroke-width="2" stroke-linecap="butt" stroke-linejoin="miter"/><path d="M56.58,54.07C48.89,50.1,41.21,50.1,33.53,54.07C38.15,57.09,39.65,60.12,38.01,63.14C37.23,64.58,52.74,64.46,51.99,62.95C50.52,59.99,52.05,57.03,56.58,54.07Z" fill="#b7906e"/><path d="M50.07,57.44L39.93,57.44C34.19,57.44,29.42,53.01,28.99,47.28L27.21,23.34C27.14,22.4,27.88,21.6,28.82,21.6L61.18,21.6C62.12,21.6,62.86,22.4,62.79,23.34L61.01,47.28C60.59,53.01,55.81,57.44,50.07,57.44Z" fill="#d0a879"/><path d="M45,35.66L45,26.11C45,25.49,44.59,24.97,44.03,24.8L30.9,24.8C30.7,24.8,30.54,24.97,30.55,25.16L32.18,47.04C32.27,48.16,32.59,49.2,33.09,50.14C33.32,50.57,33.83,50.77,34.29,50.61C40.52,48.5,45,42.61,45,35.66Z" fill="#ddb887"/><path d="M53.13,53.64C53.13,53.64,54.07,53.4,55.18,52.45C55.73,51.97,58.23,45.03,58.23,45.03C58.95,40.12,58.9,38.11,58.9,38.11C58.9,38.11,56.19,49.42,53.13,53.64Z" fill="#c9a073"/><path d="M45.62,54.09C46.77,53.21,56.53,38.6,58.42,24.41L57.35,24.41C54.97,39.75,46.68,50.9,44.02,54.09Z" fill="#c9a073"/><path d="M50.2,54C51.26,52.48,54.17,47.47,55.27,44.11C56.24,41.15,58.51,36.29,59.17,32.93L59.48,28.37C59.48,28.37,53.83,47.57,48.44,54.09Z" fill="#c9a073"/><path d="M60.5,60.92L29.5,60.92C28.16,60.92,27.08,62.01,27.08,63.35L27.08,66.87C27.08,67.72,27.77,68.4,28.61,68.4L61.39,68.4C62.24,68.4,62.92,67.72,62.92,66.87L62.92,63.35C62.92,62.01,61.84,60.92,60.5,60.92Z" fill="#d0a879"/></svg>