<svg xmlns="http://www.w3.org/2000/svg" viewBox="0 0 90 90"><path d="M75.22,89.44L14.78,89.44C6.96,89.44,0.56,83.04,0.56,75.22L0.56,14.78C0.56,6.96,6.96,0.56,14.78,0.56L75.22,0.56C83.04,0.56,89.44,6.96,89.44,14.78L89.44,75.22C89.44,83.04,83.04,89.44,75.22,89.44Z" fill="#0c354d"/><path d="M6.81,16.27L6.81,73.73C6.81,78.95,11.05,83.19,16.27,83.19L73.73,83.19C78.95,83.19,83.19,78.95,83.19,73.73L83.19,16.27C83.19,11.05,78.95,6.81,73.73,6.81L16.27,6.81C11.05,6.81,6.81,11.05,6.81,16.27Z" fill="#0d5887"/><path d="M63.56,61.06L25.59,61.06L25.59,83.27L67.59,83.27Z" fill="#7d7d7a"/><path d="M64.42,61.06L26.45,61.06L22.42,83.27L64.42,83.27Z" fill="#7d7d7a"/><path d="M43.14,8.56L46.87,8.56L46.87,21.11L43.14,21.11Z" fill="#0c354d"/><path d="M16.88,34.54L73.01,34.54L73.87,52.02L16.88,52.88L16.02,35.4Z" fill="#a7a6a2"/><path d="M70.88,43.88C70.88,29.58,59.3,18,45.01,18C30.71,18,19.13,29.58,19.13,43.88C19.13,54.58,25.62,63.76,34.89,67.7L34.89,67.7C36.05,68.2,37.26,68.61,38.5,68.93C38.5,68.93,38.5,68.93,38.51,68.93C38.71,68.98,38.91,69.03,39.11,69.08C39.12,69.08,39.13,69.08,39.13,69.09C39.33,69.13,39.53,69.17,39.72,69.21C39.74,69.22,39.75,69.22,39.77,69.22C39.95,69.26,40.15,69.3,40.34,69.33C40.36,69.34,40.38,69.34,40.4,69.35C40.59,69.38,40.77,69.41,40.96,69.44C40.99,69.44,41.02,69.45,41.05,69.45C41.23,69.48,41.4,69.5,41.58,69.53C41.62,69.53,41.66,69.54,41.7,69.54C41.87,69.57,42.04,69.59,42.21,69.6C42.26,69.61,42.3,69.61,42.35,69.62C42.51,69.64,42.68,69.65,42.85,69.66C42.9,69.67,42.95,69.67,43.01,69.68C43.16,69.69,43.33,69.7,43.49,69.71C43.55,69.71,43.61,69.72,43.67,69.72C43.83,69.73,43.99,69.73,44.15,69.74C44.21,69.74,44.27,69.74,44.33,69.75C44.55,69.75,44.78,69.75,45,69.75C45,69.75,45,69.75,45,69.75L45,69.75C45.23,69.75,45.45,69.75,45.67,69.75C45.73,69.74,45.79,69.74,45.85,69.74C46.01,69.73,46.18,69.73,46.34,69.72C46.4,69.72,46.46,69.71,46.52,69.71C46.68,69.7,46.84,69.69,47,69.68C47.05,69.67,47.1,69.67,47.16,69.66C47.32,69.65,47.49,69.64,47.66,69.62C47.7,69.62,47.75,69.61,47.79,69.6C47.97,69.59,48.14,69.57,48.31,69.54C48.35,69.54,48.39,69.53,48.42,69.53C48.6,69.51,48.78,69.48,48.96,69.45C48.99,69.45,49.02,69.44,49.05,69.44C49.24,69.41,49.42,69.38,49.6,69.35C49.63,69.34,49.65,69.34,49.67,69.33C49.86,69.3,50.05,69.26,50.24,69.22C50.26,69.22,50.27,69.22,50.29,69.21C50.48,69.17,50.68,69.13,50.88,69.09C50.88,69.08,50.89,69.08,50.9,69.08C51.1,69.03,51.3,68.98,51.5,68.93C51.51,68.93,51.51,68.93,51.52,68.93C51.72,68.88,51.92,68.82,52.12,68.76C52.12,68.76,52.13,68.76,52.13,68.76C53.15,68.47,54.15,68.11,55.12,67.7C55.12,67.7,55.12,67.7,55.12,67.7L55.12,67.7C64.39,63.76,70.88,54.58,70.88,43.88Z" fill="#a7a6a2"/><path d="M64.17,63.97L45.75,63.97C45.32,63.97,44.97,63.62,44.97,63.19L44.97,59.71C44.97,59.32,45.27,58.98,45.66,58.94L64.08,56.82C64.54,56.77,64.94,57.13,64.94,57.59L64.94,63.19C64.94,63.62,64.59,63.97,64.17,63.97Z" fill="#a7a6a2"/><path d="M42.87,61.86L42.87,56.91L62.84,54.62L62.84,61.86Z" fill="#fff"/><path d="M49.41,7.02C49.41,9.45,47.44,11.42,45.01,11.42C42.57,11.42,40.6,9.45,40.6,7.02C40.6,4.59,42.57,2.61,45.01,2.61C47.44,2.61,49.41,4.59,49.41,7.02Z" fill="#97bd4d"/><path d="M31.46,74.32L59.01,74.32L59.01,83.27L31.46,83.27Z" fill="#a7a6a2"/><path d="M59.91,49.62C63.9,48.09,66.34,44.28,66.33,40.24L47.12,44.33C49.28,49.19,54.89,51.56,59.91,49.62Z" fill="#fff"/><path d="M23,40.24C23,44.28,25.44,48.09,29.43,49.62C34.45,51.56,40.06,49.19,42.22,44.33L23,40.24Z" fill="#fff"/></svg>