<svg xmlns="http://www.w3.org/2000/svg" viewBox="0 0 90 90"><path d="M89.44,75.22C89.44,83.04,83.04,89.44,75.22,89.44L14.78,89.44C6.96,89.44,0.56,83.04,0.56,75.22L0.56,14.78C0.56,6.96,6.96,0.56,14.78,0.56L75.22,0.56C83.04,0.56,89.44,6.96,89.44,14.78L89.44,75.22Z" fill="#65625f"/><path d="M6.77,16.27L6.77,73.73C6.77,78.95,11.02,83.19,16.24,83.19L73.7,83.19C78.92,83.19,83.16,78.95,83.16,73.73L83.16,16.27C83.16,11.05,78.92,6.81,73.7,6.81L16.24,6.81C11.02,6.81,6.77,11.05,6.77,16.27Z" fill="#7ed3f7"/><path d="M77.27,7.53L13.96,70.85C11.78,73.02,9.61,75.19,7.44,77.36C8.87,80.78,12.25,83.19,16.18,83.19L73.64,83.19C78.86,83.19,83.1,78.95,83.1,73.73L83.1,16.27C83.1,12.34,80.69,8.96,77.27,7.53Z" fill="#69c1e6"/><path d="M76.7,53.73L72.55,53.73L72.55,38L76.7,38Z" fill="#f7cf64"/><path d="M75.96,55.13L73.47,55.13L73.47,39.4L75.96,39.4Z" fill="#f7cf64"/><path d="M40.33,41.32L40.33,48.91L49.67,48.91L49.67,41.32L54.65,6.81L35.35,6.81Z" fill="#333130"/><path d="M73.37,63.61L80.28,63.61L80.28,70.52L73.37,70.52Z" fill="#f3ac24"/><path d="M81.4,50.2L76.43,65.04L77.77,73.81L79.96,77.1L91.49,91.11L91.38,58.88Z" fill="#f7cf64"/><path d="M77.69,47.66L77.69,54.46L48.72,54.46C46.9,54.46,45.43,52.99,45.43,51.18L45.43,50.94C45.43,49.13,46.9,47.65,48.72,47.65L77.69,47.65L77.69,47.65Z" fill="#f3ac24"/><path d="M81.77,54.46L81.77,61.27L61.56,61.27L61.56,54.46Z" fill="#f3ac24"/><path d="M81.77,61.27L81.77,68.08L61.56,68.08L61.56,61.27Z" fill="#f3ac24"/><path d="M68.79,64.68C68.79,66.56,67.26,68.08,65.38,68.08L60.71,68.08C59.17,68.08,57.92,66.83,57.92,65.29L57.92,64.07C57.92,62.52,59.17,61.27,60.71,61.27L65.38,61.27C67.26,61.27,68.79,62.8,68.79,64.68Z" fill="#f7cf64"/><path d="M53.85,54.46C51.97,54.46,50.45,55.99,50.45,57.87C50.45,59.75,51.97,61.27,53.85,61.27L71.24,61.27C73.12,61.27,74.64,59.75,74.64,57.87L74.64,57.87C74.64,55.99,73.12,54.46,71.24,54.46Z" fill="#f3ac24"/><path d="M50.82,56.32L70.37,56.32C72.01,56.32,73.47,55.7,74.58,54.72L52.66,54.72C51.61,55,51.01,55.91,50.82,56.32Z" fill="#b6811b"/><path d="M68.11,32.66L21.89,32.66C18.94,32.66,16.37,34.69,15.71,37.56L13.48,47.16C12.55,51.14,15.57,54.94,19.66,54.94L70.35,54.94C74.43,54.94,77.45,51.14,76.52,47.16L74.29,37.56C73.63,34.69,71.07,32.66,68.12,32.66Z" fill="#65625f"/><path d="M15.78,51.67C14.84,50.48,14.5,48.95,14.84,47.48L17.07,37.88C17.59,35.63,19.57,34.06,21.88,34.06L68.11,34.06C70.43,34.06,72.41,35.63,72.93,37.88L75.16,47.48C75.5,48.95,75.16,50.48,74.21,51.67C73.27,52.86,71.86,53.54,70.34,53.54L19.66,53.54C18.14,53.54,16.73,52.86,15.78,51.67Z" fill="#cbedfc"/><path d="M76.76,38C80.39,38,83.34,40.95,83.35,44.58L76.7,44.58L76.7,38C76.72,38,76.74,38,76.76,38Z" fill="#f7cf64"/><path d="M79.96,77.1C76.33,77.1,73.38,74.15,73.37,70.52L80.02,70.52L80.02,77.1C80,77.1,79.98,77.1,79.96,77.1Z" fill="#f3ac24"/><path d="M82.18,43.8L75.9,45.98L75.9,69.24C76.01,69.28,76.11,69.32,76.21,69.36C76.26,69.37,76.3,69.39,76.35,69.4C77.7,69.86,79.11,70.43,80.3,71.28L91.38,58.88Z" fill="#f7cf64"/><path d="M82.97,42.4L76.7,44.58L76.7,67.84C76.8,67.88,76.91,67.92,77.01,67.96C77.06,67.97,77.1,67.99,77.15,68C78.49,68.46,90.31,76.57,91.49,77.42L91.38,58.88Z" fill="#f7cf64"/><path d="M68.78,64.68C68.78,62.8,67.26,61.27,65.38,61.27L64.8,61.27C62.92,61.27,61.4,62.8,61.4,64.68L61.4,64.68C61.4,66.56,62.92,68.08,64.8,68.08L65.38,68.08C67.26,68.08,68.78,66.56,68.78,64.68Z" fill="#f7cf64"/><path d="M78.18,44.52L77.28,42.53C77.05,42.04,76.86,41.53,76.66,41.03C76.29,40.1,75.55,39.4,74.66,39.05L76.3,46.1C76.42,46.63,76.48,47.15,76.47,47.66C76.93,47.19,77.4,46.73,77.86,46.27C78.32,45.81,78.45,45.11,78.18,44.52Z" fill="#f3ac24"/><path d="M73.78,39.14C72.98,37.39,71.4,36.09,69.5,36.56L69.5,36.56C67.61,37.03,66.45,38.94,66.92,40.84L67.94,44.94C67.95,45.06,67.98,45.17,68.01,45.29L70.53,55.5L79.93,52.78L73.78,39.14Z" fill="#f7cf64"/><path d="M80.28,71.8C80.25,71.8,80.22,71.8,80.19,71.8C74.79,71.8,70.41,67.42,70.4,62.02L80.28,62.02L80.28,71.8Z" fill="#f7cf64"/><path d="M70.4,48.43L80.28,48.43L80.28,62.02L70.4,62.02Z" fill="#f7cf64"/><path d="M25.97,53.54L31.27,53.54L50.79,34.03L45.45,34.06Z" fill="#e0f4fd"/><path d="M35.46,53.54L40.77,53.54L60.29,34.03L54.95,34.06Z" fill="#e0f4fd"/><path d="M41.12,54.94L48.88,54.94L48.88,56.66L41.12,56.66Z" fill="#333130"/></svg>