<svg xmlns="http://www.w3.org/2000/svg" viewBox="0 0 90 90"><path d="M89.44,75.22C89.44,83.04,83.04,89.44,75.22,89.44L14.78,89.44C6.96,89.44,0.56,83.04,0.56,75.22L0.56,14.78C0.56,6.96,6.96,0.56,14.78,0.56L75.22,0.56C83.04,0.56,89.44,6.96,89.44,14.78L89.44,75.22Z" fill="#5c8cb1"/><path d="M16.27,6.81L73.73,6.81C78.95,6.81,83.2,11.05,83.2,16.27L83.2,73.73C83.2,78.95,78.95,83.19,73.73,83.19L16.27,83.19C11.05,83.19,6.81,78.95,6.81,73.73L6.81,16.27C6.81,11.05,11.05,6.81,16.27,6.81Z" fill="#b9d0e1"/><path d="M18.39,18.39L31.66,18.39L31.66,31.66L18.39,31.66Z" fill="#5c8cb1"/><path d="M58.34,58.34L71.61,58.34L71.61,71.6L58.34,71.6Z" fill="#5c8cb1"/><path d="M18.39,71.6L18.39,58.34L31.66,58.34L31.66,71.6Z" fill="#5c8cb1"/><path d="M58.34,31.66L58.34,18.39L71.61,18.39L71.61,31.66Z" fill="#5c8cb1"/><path d="M37.95,62.01L27.99,62.01L27.99,52.05L20.94,45L27.99,37.95L27.99,27.99L37.95,27.99L45,20.94L52.05,27.99L62.01,27.99L62.01,37.95L69.06,45L62.01,52.05L62.01,62.01L52.05,62.01L45,69.06ZM41.04,54.57L45,58.53L48.96,54.57L54.57,54.57L54.57,48.96L58.53,45L54.57,41.04L54.57,35.43L48.96,35.43L45,31.47L41.04,35.43L35.43,35.43L35.43,41.04L31.47,45L35.43,48.96L35.43,54.57ZM45,50.3L41.25,54.04L41.25,48.75L35.94,48.75L39.7,44.99L35.97,41.25L41.25,41.25L41.25,35.96L45,39.7L48.75,35.96L48.75,41.25L54.04,41.25L50.3,44.99L54.07,48.75L48.75,48.75L48.75,54.04Z" fill="#52b1dc"/><path d="M45,82.62L35.62,73.24L45,63.86L54.38,73.24Z" fill="#52b1dc"/><path d="M45,26.14L35.62,16.76L45,7.37L54.38,16.76Z" fill="#52b1dc"/><path d="M82.63,45L73.24,54.38L63.86,45L73.24,35.62Z" fill="#52b1dc"/><path d="M26.14,45L16.76,54.38L7.37,45L16.76,35.62Z" fill="#52b1dc"/></svg>