<svg xmlns="http://www.w3.org/2000/svg" viewBox="0 0 90 90"><path d="M0,0L90,0L90,90L0,90Z" fill="#000000"/><path d="M75.22,89.44L14.78,89.44C6.96,89.44,0.55,83.04,0.55,75.22L0.55,14.78C0.56,6.96,6.96,0.56,14.78,0.56L75.22,0.56C83.04,0.56,89.44,6.96,89.44,14.78L89.44,75.22C89.44,83.04,83.04,89.44,75.22,89.44Z" fill="#86272f"/><path d="M6.81,16.27L6.81,73.73C6.81,78.95,11.05,83.19,16.27,83.19L73.73,83.19C78.95,83.19,83.19,78.95,83.19,73.73L83.19,16.27C83.19,11.05,78.95,6.81,73.73,6.81L16.27,6.81C11.05,6.81,6.81,11.05,6.81,16.27Z" fill="#ee4552"/><path d="M63.39,52.89C63.39,47,68.16,42.23,74.04,42.23C75,42.23,75.93,42.36,76.81,42.6L76.81,26.78C76.81,24.69,75.11,23,73.02,23L55.63,23C55.79,22.27,55.88,21.51,55.88,20.73C55.88,14.85,51.11,10.08,45.22,10.08C39.34,10.08,34.57,14.85,34.57,20.73C34.57,21.51,34.66,22.27,34.81,23L17.43,23C15.33,23,13.64,24.69,13.64,26.78L13.64,42.22C14.41,42.05,15.22,41.95,16.04,41.95C21.93,41.95,26.7,46.72,26.7,52.6C26.7,58.48,21.93,63.25,16.04,63.25C15.22,63.25,14.41,63.16,13.64,62.98L13.64,74.46C13.64,76.55,15.33,78.25,17.43,78.25L34.91,78.25C34.69,77.39,34.57,76.49,34.57,75.56C34.57,69.68,39.34,64.91,45.22,64.91C51.11,64.91,55.88,69.68,55.88,75.56C55.88,76.49,55.76,77.39,55.53,78.25L73.02,78.25C75.11,78.25,76.81,76.55,76.81,74.46L76.81,63.17C75.93,63.41,75,63.54,74.04,63.54C68.16,63.54,63.39,58.77,63.39,52.88Z" fill="#f7cf64"/><path d="M45.22,59.01C38.61,59.01,33.23,53.64,33.23,47.03C33.23,46.11,33.98,45.36,34.9,45.36L55.54,45.36C56.46,45.36,57.21,46.11,57.21,47.03C57.21,53.64,51.83,59.01,45.22,59.01Z" fill="#86272f"/><path d="M55.54,47.03C55.54,52.73,50.92,57.35,45.22,57.35C39.52,57.35,34.9,52.73,34.9,47.03L55.54,47.03Z" fill="#86272f"/><path d="M38.07,36.34C35.42,34.39,33.2,36.42,33.2,36.42" fill="none" stroke="#000000" stroke-width="2" stroke-linecap="butt" stroke-linejoin="miter"/><path d="M57.24,36.34C54.59,34.39,52.38,36.42,52.38,36.42" fill="none" stroke="#000000" stroke-width="2" stroke-linecap="butt" stroke-linejoin="miter"/><path d="M52.26,50.62C52.26,50.62,52.26,50.62,52.26,50.62C51.29,49.66,49.72,49.64,48.76,50.6C47.87,51.5,47.32,52.72,47.32,54.08L47.32,56.7C47.32,59.42,49.54,61.64,52.26,61.64L52.26,61.64C54.97,61.64,57.19,59.42,57.19,56.7L57.19,54.08C57.19,52.72,56.64,51.5,55.75,50.6C54.79,49.64,53.22,49.66,52.26,50.62Z" fill="#ee4552"/></svg>