<svg xmlns="http://www.w3.org/2000/svg" viewBox="0 0 90 90"><path d="M34.13,-42.41C34.42,-42.94,34.57,-43.52,34.58,-44.08C34.68,-43.55,34.66,-42.99,34.5,-42.44C33.95,-40.46,31.89,-39.3,29.91,-39.85L24.76,-41.29C24.84,-40.46,25.2,-39.65,25.84,-39.01C27.29,-37.55,29.65,-37.55,31.11,-39.01C29.65,-37.55,29.65,-35.2,31.11,-33.74C32.56,-32.29,34.92,-32.29,36.37,-33.74C34.92,-32.29,34.92,-29.93,36.37,-28.47L36.37,-28.47C37.83,-27.02,40.19,-27.02,41.64,-28.47C40.19,-27.02,40.19,-24.66,41.64,-23.21L41.64,-23.21C43.1,-21.75,45.46,-21.75,46.91,-23.21L38.19,-14.48C38.19,-14.48,38.19,-14.48,38.19,-14.48C36.17,-12.88,33.61,-12.07,31.01,-12.25L30.04,-12.32L7.47,10.18L-12.87,-10.15L9.74,-32.83L9.67,-33.8C9.49,-36.4,10.3,-38.96,11.91,-40.98C12.15,-41.28,15.83,-45,16.11,-45.27L21.07,-50.24C21.12,-50.29,21.17,-50.33,21.22,-50.38C21.05,-50.18,20.9,-49.97,20.77,-49.73L20.77,-49.73C19.78,-47.93,20.44,-45.66,22.25,-44.67L29.07,-40.94C30.87,-39.95,33.14,-40.61,34.13,-42.41L34.13,-42.41Z" fill="#f3ac24"/><path d="M75.22,89.44L14.78,89.44C6.96,89.44,0.56,83.04,0.56,75.22L0.56,14.78C0.56,6.96,6.96,0.56,14.78,0.56L75.22,0.56C83.04,0.56,89.44,6.96,89.44,14.78L89.44,75.22C89.44,83.04,83.04,89.44,75.22,89.44Z" fill="#4e7838"/><path d="M16.27,6.81L73.73,6.81C78.95,6.81,83.19,11.05,83.19,16.27L83.19,73.73C83.19,78.95,78.95,83.19,73.73,83.19L16.27,83.19C11.05,83.19,6.81,78.95,6.81,73.73L6.81,16.27C6.81,11.05,11.05,6.81,16.27,6.81Z" fill="#97bd4d"/><path d="M16.16,6.7L73.62,6.7C78.84,6.7,83.09,10.94,83.09,16.16L83.09,73.62C83.09,78.84,78.84,83.08,73.62,83.08L16.16,83.08C10.94,83.08,6.7,78.84,6.7,73.62L6.7,16.16C6.7,10.94,10.94,6.7,16.16,6.7Z" fill="#97bd4d"/><path d="M37.67,57.43L43.56,57.43L43.56,79.97L37.67,79.97Z" fill="#312e2b"/><path d="M48.14,57.43L54.02,57.43L54.02,79.97L48.14,79.97Z" fill="#312e2b"/><path d="M55.87,80.19L46.29,80.19C46.64,77.86,48.65,76.08,51.08,76.08C53.51,76.08,55.52,77.86,55.87,80.19Z" fill="#312e2b"/><path d="M43.56,80.19L33.98,80.19C34.33,77.86,36.34,76.08,38.77,76.08C41.2,76.08,43.2,77.86,43.56,80.19Z" fill="#312e2b"/><path d="M52.23,11.39L52.23,12.18C52.23,15.83,49.26,18.79,45.61,18.79L45.22,18.79L45.22,11.39L45.22,11.39Z" fill="#312e2b"/><path d="M51.91,18.3C51.91,22.12,48.82,25.21,45,25.21C41.19,25.21,38.09,22.12,38.09,18.3C38.09,14.49,41.19,11.39,45,11.39C48.82,11.39,51.91,14.49,51.91,18.3Z" fill="#312e2b"/><path d="M42.09,22.01L47.91,22.01L47.91,29.24L42.09,29.24Z" fill="#312e2b"/><path d="M79.55,56.82C79.55,58.41,78.91,59.95,77.78,61.07C76.65,62.2,75.12,62.84,73.52,62.84L16.48,62.84C14.88,62.84,13.35,62.2,12.22,61.07C11.09,59.95,10.45,58.41,10.45,56.82L10.45,27.62C10.45,26.02,11.09,24.49,12.22,23.36C13.35,22.23,14.88,21.6,16.48,21.6L73.52,21.6C75.12,21.6,76.65,22.23,77.78,23.36C78.91,24.49,79.55,26.02,79.55,27.62Z" fill="#4e7838"/><path d="M77.88,56.82C77.88,57.97,77.42,59.08,76.61,59.9C75.79,60.71,74.68,61.17,73.52,61.17L16.48,61.17C15.32,61.17,14.21,60.71,13.39,59.9C12.58,59.08,12.12,57.97,12.12,56.82L12.12,27.62C12.12,26.47,12.58,25.36,13.39,24.54C14.21,23.72,15.32,23.26,16.48,23.26L73.52,23.26C75.91,23.26,77.88,25.23,77.88,27.62Z" fill="#4e7838"/><path d="M73.52,24.86C74.26,24.86,74.96,25.15,75.48,25.67C76,26.19,76.29,26.89,76.29,27.62L76.29,56.82C76.29,57.55,76,58.25,75.48,58.77C74.96,59.29,74.26,59.58,73.52,59.58L16.48,59.58C14.96,59.58,13.71,58.33,13.71,56.82L13.71,27.62C13.71,26.11,14.96,24.86,16.48,24.86Z" fill="#a7c56a"/><path d="M51.99,47.1C53.83,48.5,54.88,50.88,54.88,53.61C54.88,55.4,51.52,56.3,44.9,56.3C38.28,56.3,34.92,55.4,34.92,53.61C34.92,52.86,35,52.12,35.16,51.42L35.12,51.4L35.4,50.57C35.4,50.55,35.41,50.52,35.42,50.49L35.48,50.36C35.97,49.02,36.77,47.9,37.81,47.1C41.03,44.65,41.47,42.51,41.52,41.12L41.52,41.07L39.15,41.07L38.88,40.58C38.47,39.81,38.28,39.11,38.28,38.29L38.28,37.79L40.86,36.09C40.07,35.15,39.62,33.95,39.62,32.7C39.62,29.79,41.99,27.42,44.9,27.42C45.44,27.42,45.97,27.5,46.48,27.66L46.54,27.63L46.92,27.82C48.9,28.63,50.18,30.55,50.18,32.7C50.18,33.95,49.73,35.15,48.94,36.09L51.52,37.79L51.52,38.29C51.52,39.11,51.33,39.81,50.92,40.58L50.65,41.07L48.27,41.07C48.32,42.44,48.71,44.61,51.99,47.1Z" fill="#4e7838"/><path d="M44.74,49.4C44.2,51.84,41.82,51.69,40.54,51.69C38.53,51.69,37.23,51.4,36.26,50.93C36.68,49.65,37.4,48.59,38.38,47.85C41.98,45.1,42.41,42.64,42.46,41.12C43.56,41.28,46.26,41.6,45.93,43.38C45.66,44.8,45.23,47.17,44.74,49.4Z" fill="#6c9d41"/><path d="M46.63,40.14L39.7,40.14C39.38,39.54,39.21,38.98,39.21,38.29L42.35,36.22C41.26,35.43,40.55,34.15,40.55,32.7C40.55,30.3,42.5,28.35,44.9,28.35C45.48,28.35,46.03,28.47,46.54,28.67C46.54,28.67,46.54,28.67,46.54,28.67C47.58,29.47,48.25,30.72,48.25,32.13C48.25,33.9,47.12,35.42,45.23,36.22L47,38.29C47,38.29,47.06,39.03,46.63,40.14Z" fill="#6c9d41"/><path d="M42.34,32.4C41.24,32.27,42.3,28.87,44.65,29.24C47.16,29.63,43.5,32.54,42.34,32.4Z" fill="#94bb48"/><path d="M52.13,47.5C50.61,47.5,49.37,47.06,48.44,46.19C48.28,46.54,47.99,46.82,47.63,46.98C46.79,47.32,45.85,47.5,44.85,47.5C43.58,47.5,42.51,47.17,41.66,46.52C41.41,47.04,40.88,47.39,40.26,47.39L35.37,47.39C35.07,47.39,34.79,47.31,34.54,47.16C34.3,47.31,34.01,47.39,33.72,47.39L29.15,47.39C28.43,47.39,27.82,46.9,27.65,46.23C27.47,46.91,26.85,47.39,26.14,47.39L24.23,47.39C23.59,47.39,23.03,47.01,22.79,46.44C22.55,47.01,21.99,47.39,21.35,47.39L19.45,47.39C18.73,47.39,18.11,46.91,17.94,46.22L15.92,38.3C15.8,37.83,15.9,37.34,16.2,36.96C16.49,36.58,16.94,36.36,17.43,36.36L19.08,36.36C19.74,36.36,20.32,36.77,20.54,37.38C20.76,36.77,21.34,36.36,22,36.36L23.59,36.36C24.24,36.36,24.82,36.77,25.05,37.37C25.27,36.77,25.84,36.36,26.5,36.36L28.16,36.36C28.33,36.36,28.49,36.39,28.66,36.44C28.82,36.39,28.98,36.36,29.15,36.36L33.72,36.36C34.02,36.36,34.3,36.44,34.54,36.6C34.79,36.44,35.07,36.36,35.37,36.36L37.05,36.36C37.91,36.36,38.61,37.06,38.61,37.92L38.61,42.9L39.79,42.9C39.75,42.57,39.73,42.24,39.73,41.89C39.73,40.83,39.94,39.88,40.34,39.05C40.77,38.15,41.41,37.44,42.24,36.96C43.04,36.48,43.97,36.25,45.01,36.25C46.04,36.25,47.01,36.48,48,36.96C48.23,37.07,48.42,37.23,48.57,37.42C49.49,36.63,50.69,36.24,52.15,36.24C53.77,36.24,55.06,36.73,56.01,37.71C56.11,36.95,56.76,36.36,57.55,36.36L59.84,36.36C60.52,36.36,61.12,36.8,61.32,37.46L61.77,38.9L62.25,37.43C62.46,36.79,63.06,36.36,63.73,36.36L66.02,36.36C66.39,36.36,66.74,36.49,67.02,36.72C67.29,36.49,67.65,36.36,68.01,36.36L72.58,36.36C73.43,36.36,74.13,37.06,74.13,37.92L74.13,39.29C74.13,39.67,74,40.03,73.76,40.31C73.87,40.53,73.93,40.78,73.93,41.03L73.93,42.41C73.93,42.74,73.83,43.06,73.64,43.32C73.95,43.6,74.13,44.01,74.13,44.45L74.13,45.84C74.13,46.7,73.44,47.4,72.58,47.4L68.01,47.4C67.64,47.4,67.29,47.27,67.02,47.03C66.74,47.27,66.39,47.4,66.02,47.4L64.45,47.4C64.08,47.4,63.73,47.26,63.45,47.03C63.17,47.26,62.82,47.4,62.44,47.4L60.9,47.4C60.57,47.4,60.24,47.29,59.98,47.09C59.71,47.29,59.39,47.4,59.05,47.4L57.55,47.4C56.75,47.4,56.09,46.8,56,46.02C55.06,47.01,53.75,47.51,52.13,47.51Z" fill="#4e7838"/><path d="M73.73,39.29C73.73,39.69,73.53,40.04,73.23,40.24C73.42,40.45,73.53,40.73,73.53,41.03L73.53,42.4C73.53,42.81,73.32,43.17,73.01,43.37C73.43,43.54,73.73,43.96,73.73,44.45L73.73,45.84C73.73,46.47,73.22,46.99,72.58,46.99L68.01,46.99C67.59,46.99,67.22,46.76,67.02,46.42C66.82,46.76,66.45,46.99,66.02,46.99L64.45,46.99C64.02,46.99,63.65,46.76,63.45,46.41C63.25,46.76,62.87,46.99,62.44,46.99L60.9,46.99C60.53,46.99,60.19,46.81,59.98,46.53C59.77,46.81,59.43,46.99,59.05,46.99L57.55,46.99C56.91,46.99,56.39,46.47,56.39,45.84L56.39,44.81C56.22,45.13,56.02,45.41,55.78,45.67C54.9,46.62,53.68,47.1,52.13,47.1C50.59,47.1,49.36,46.62,48.49,45.67C48.38,45.55,48.28,45.43,48.18,45.3L48.18,45.54C48.18,46,47.9,46.43,47.47,46.6C46.68,46.93,45.8,47.1,44.85,47.1C43.4,47.1,42.25,46.64,41.42,45.75L41.42,45.84C41.42,46.48,40.9,46.99,40.26,46.99L35.37,46.99C35.05,46.99,34.75,46.86,34.54,46.64C34.33,46.86,34.04,46.99,33.72,46.99L29.15,46.99C28.52,46.99,28,46.47,28,45.84L28,43.22L27.26,46.12C27.13,46.63,26.67,46.99,26.14,46.99L24.23,46.99C23.7,46.99,23.24,46.64,23.11,46.13L22.79,44.89L22.47,46.13C22.34,46.64,21.88,46.99,21.36,46.99L19.45,46.99C18.92,46.99,18.46,46.63,18.33,46.12L16.31,38.2C16.22,37.85,16.3,37.49,16.51,37.21C16.73,36.92,17.07,36.76,17.43,36.76L19.08,36.76C19.62,36.76,20.08,37.13,20.2,37.65L20.52,39.01L20.88,37.62C21.01,37.11,21.47,36.76,22,36.76L23.59,36.76C24.11,36.76,24.57,37.11,24.71,37.62L25.06,39L25.38,37.65C25.5,37.13,25.97,36.76,26.5,36.76L28.16,36.76C28.33,36.76,28.5,36.8,28.66,36.87C28.81,36.8,28.97,36.76,29.15,36.76L33.72,36.76C34.04,36.76,34.33,36.89,34.54,37.11C34.75,36.89,35.05,36.76,35.37,36.76L37.05,36.76C37.69,36.76,38.21,37.28,38.21,37.91L38.21,43.29L40.25,43.29C40.17,42.86,40.13,42.39,40.13,41.89C40.13,40.89,40.32,39.99,40.7,39.22C41.1,38.39,41.69,37.75,42.45,37.3C43.18,36.87,44.07,36.64,45.01,36.64C45.95,36.64,46.9,36.87,47.83,37.32C48.15,37.47,48.37,37.76,48.45,38.09C48.47,38.08,48.48,38.06,48.5,38.04C49.37,37.11,50.6,36.63,52.14,36.63C53.69,36.63,54.92,37.11,55.79,38.06C56.02,38.31,56.22,38.6,56.39,38.9L56.39,37.91C56.39,37.27,56.91,36.76,57.55,36.76L59.83,36.76C60.34,36.76,60.79,37.09,60.94,37.57L61.76,40.22L62.63,37.55C62.79,37.08,63.23,36.76,63.73,36.76L66.02,36.76C66.44,36.76,66.81,36.99,67.01,37.33C67.21,36.99,67.59,36.76,68.01,36.76L72.57,36.76C73.21,36.76,73.73,37.28,73.73,37.91L73.73,39.29Z" fill="#4e7838"/><path d="M26.14,45.84L24.23,45.84L23.15,41.68C23.11,41.53,23.05,41.22,22.95,40.76C22.86,40.29,22.8,39.98,22.79,39.82C22.76,40.02,22.71,40.33,22.62,40.76C22.54,41.19,22.47,41.5,22.42,41.69L21.36,45.84L19.45,45.84L17.43,37.91L19.08,37.91L20.09,42.24C20.27,43.04,20.4,43.73,20.48,44.31C20.5,44.11,20.55,43.79,20.63,43.36C20.7,42.93,20.78,42.59,20.85,42.35L22,37.91L23.59,37.91L24.74,42.35C24.79,42.55,24.86,42.85,24.93,43.26C25.01,43.67,25.07,44.02,25.11,44.31C25.14,44.03,25.2,43.68,25.28,43.26C25.36,42.84,25.43,42.5,25.5,42.24L26.5,37.91L28.16,37.91L26.14,45.84Z" fill="#6c9d41"/><path d="M33.72,45.84L29.15,45.84L29.15,37.91L33.72,37.91L33.72,39.29L30.83,39.29L30.83,41.03L33.52,41.03L33.52,42.41L30.83,42.41L30.83,44.45L33.72,44.45L33.72,45.84Z" fill="#6c9d41"/><path d="M35.37,37.91L37.05,37.91L37.05,44.45L40.26,44.45L40.26,45.84L35.37,45.84Z" fill="#6c9d41"/><path d="M45.01,39.2C44.37,39.2,43.88,39.44,43.54,39.91C43.19,40.39,43.02,41.05,43.02,41.9C43.02,43.66,43.68,44.55,45.01,44.55C45.56,44.55,46.24,44.41,47.03,44.13L47.03,45.54C46.38,45.81,45.65,45.95,44.85,45.95C43.7,45.95,42.81,45.6,42.2,44.9C41.59,44.2,41.29,43.19,41.29,41.89C41.29,41.06,41.44,40.34,41.74,39.72C42.04,39.1,42.47,38.63,43.03,38.29C43.59,37.96,44.25,37.8,45.01,37.8C45.76,37.8,46.55,37.99,47.33,38.36L46.78,39.72C46.49,39.58,46.19,39.46,45.89,39.35C45.59,39.25,45.29,39.2,45.01,39.2Z" fill="#6c9d41"/><path d="M55.9,41.86C55.9,43.18,55.58,44.18,54.93,44.89C54.28,45.59,53.35,45.95,52.13,45.95C50.92,45.95,49.99,45.59,49.34,44.89C48.69,44.18,48.36,43.17,48.36,41.85C48.36,40.54,48.69,39.53,49.34,38.83C49.99,38.14,50.92,37.79,52.14,37.79C53.36,37.79,54.29,38.14,54.94,38.84C55.58,39.54,55.9,40.55,55.9,41.87ZM50.12,41.86C50.12,42.75,50.29,43.42,50.63,43.86C50.96,44.31,51.46,44.54,52.13,44.54C53.47,44.54,54.14,43.65,54.14,41.86C54.14,40.08,53.48,39.19,52.14,39.19C51.48,39.19,50.97,39.41,50.63,39.86C50.29,40.31,50.12,40.98,50.12,41.86Z" fill="#6c9d41"/><path d="M60.9,45.84L58.99,39.62L58.94,39.62C59.01,40.89,59.05,41.73,59.05,42.15L59.05,45.84L57.55,45.84L57.55,37.91L59.83,37.91L61.71,43.97L61.74,43.97L63.73,37.91L66.02,37.91L66.02,45.84L64.45,45.84L64.45,42.09C64.45,41.91,64.45,41.71,64.46,41.48C64.46,41.24,64.49,40.63,64.53,39.63L64.48,39.63L62.44,45.84L60.9,45.84Z" fill="#6c9d41"/><path d="M72.57,45.84L68.01,45.84L68.01,37.91L72.57,37.91L72.57,39.29L69.69,39.29L69.69,41.03L72.37,41.03L72.37,42.41L69.69,42.41L69.69,44.45L72.57,44.45L72.57,45.84Z" fill="#6c9d41"/><path d="M82,43.48C82,45.26,80.56,46.7,78.78,46.7C77,46.7,75.56,45.26,75.56,43.48C75.56,41.71,77,40.27,78.78,40.27C80.56,40.27,82,41.71,82,43.48Z" fill="#312e2b"/><path d="M14.44,43.46C14.44,45.23,13,46.67,11.22,46.67C9.44,46.67,8,45.23,8,43.46C8,41.68,9.44,40.24,11.22,40.24C13,40.24,14.44,41.68,14.44,43.46Z" fill="#312e2b"/></svg>