<svg xmlns="http://www.w3.org/2000/svg" viewBox="0 0 90 90"><path d="M75.22,89.44L14.78,89.44C6.96,89.44,0.56,83.04,0.56,75.22L0.56,14.78C0.56,6.96,6.96,0.56,14.78,0.56L75.22,0.56C83.04,0.56,89.44,6.96,89.44,14.78L89.44,75.22C89.44,83.04,83.04,89.44,75.22,89.44Z" fill="#68923d"/><path d="M6.81,16.27L6.81,73.73C6.81,78.95,11.05,83.19,16.27,83.19L73.73,83.19C78.95,83.19,83.19,78.95,83.19,73.73L83.19,16.27C83.19,11.05,78.95,6.81,73.73,6.81L16.27,6.81C11.05,6.81,6.81,11.05,6.81,16.27Z" fill="#cfdee7"/><path d="M45,17.73L9.31,34.8L45,51.87L80.69,34.8Z" fill="#4e7838"/><path d="M45,15.07L9.31,32.14L9.31,34.8L45,17.73L80.69,34.8L80.69,34.8L80.69,32.14Z" fill="#68923d"/><path d="M45,15.07L45,17.73L80.69,34.8L80.69,32.14Z" fill="#97bd4d"/><path d="M44.06,30.96C33.03,30.96,24.08,34.74,24.08,39.42L24.08,46.1C24.08,50.77,33.03,54.56,44.06,54.56C55.09,54.56,64.04,50.77,64.04,46.1L64.04,39.42C64.04,34.74,55.09,30.96,44.06,30.96Z" fill="#97bd4d"/><path d="M24.8,27.66L24.8,32.84L26.86,32.84L26.86,27.66C26.86,27.2,26.91,26.76,27,26.33L24.8,27.39C24.8,27.48,24.8,27.57,24.8,27.66Z" fill="#68923d"/><path d="M25.46,24.41L35.97,19.38L33.07,19.38C29.66,19.38,26.72,21.46,25.46,24.41Z" fill="#68923d"/><path d="M30.38,22.06C30.38,22.06,30.38,22.06,30.38,22.06L25.46,24.41C25.07,25.33,24.84,26.34,24.8,27.39L27,26.34C27.41,24.45,28.68,22.88,30.38,22.06C30.38,22.06,30.38,22.06,30.38,22.06Z" fill="#68923d"/><path d="M27.48,32.82C27.48,33.75,26.72,34.51,25.78,34.51C24.84,34.51,24.08,33.75,24.08,32.82C24.08,31.88,24.84,31.12,25.78,31.12C26.72,31.12,27.48,31.88,27.48,32.82Z" fill="#f7cf64"/><path d="M25.78,33.81L25.78,33.81C26.94,33.81,27.89,34.76,27.89,35.92L27.89,41.88L23.67,41.88L23.67,35.92C23.67,34.76,24.62,33.81,25.78,33.81Z" fill="#f7cf64"/><path d="M24.2,47.08C25.28,51.32,33.76,54.63,44.06,54.63C54.36,54.63,62.84,51.32,63.92,47.08C62.84,42.84,54.36,39.54,44.06,39.54C33.76,39.54,25.28,42.84,24.2,47.08Z" fill="#68923d"/><path d="M27.81,47.99C27.53,47.77,27.38,47.44,27.38,47.08C27.38,46.73,27.53,46.4,27.81,46.18C31.03,43.61,37.26,42.01,44.06,42.01C50.86,42.01,57.09,43.61,60.31,46.18C60.58,46.4,60.74,46.73,60.74,47.08C60.74,47.44,60.58,47.77,60.31,47.99C57.09,50.56,50.86,52.16,44.06,52.16C37.26,52.16,31.03,50.56,27.81,47.99Z" fill="#4e7838"/><path d="M13.04,51.37L76.97,51.37L76.97,71.11L13.04,71.11Z" fill="#fff"/><path d="M45.01,74.2L41.2,75.54L41.2,61.87L48.81,61.87L48.81,75.54Z" fill="#68923d"/><path d="M52.25,62.05C52.25,66.05,49.01,69.29,45.01,69.29C41.01,69.29,37.76,66.05,37.76,62.05C37.76,58.05,41.01,54.8,45.01,54.8C49.01,54.8,52.25,58.05,52.25,62.05Z" fill="#e6912c"/><path d="M47.19,59.46C47.19,60.67,46.22,61.65,45.01,61.65C43.8,61.65,42.82,60.67,42.82,59.46C42.82,58.26,43.8,57.28,45.01,57.28C46.22,57.28,47.19,58.26,47.19,59.46Z" fill="#f7cf64"/><path d="M42.76,61.28L47.26,61.28L47.26,62.47L42.76,62.47Z" fill="#f7cf64"/><path d="M42.6,64.61L47.41,64.61L47.41,65.87L42.6,65.87Z" fill="#f7cf64"/><path d="M41.93,65.24L48.09,65.24C48.49,65.24,48.81,65.56,48.81,65.96L48.81,66.82L41.2,66.82L41.2,65.96C41.2,65.56,41.53,65.24,41.93,65.24Z" fill="#f7cf64"/><path d="M43.4,61.87L46.61,61.87L46.61,66.3L43.4,66.3Z" fill="#f7cf64"/></svg>