<svg xmlns="http://www.w3.org/2000/svg" viewBox="0 0 90 90"><path d="M75.22,89.44L14.78,89.44C6.96,89.44,0.56,83.04,0.56,75.22L0.56,14.78C0.56,6.96,6.96,0.56,14.78,0.56L75.22,0.56C83.04,0.56,89.44,6.96,89.44,14.78L89.44,75.22C89.44,83.04,83.04,89.44,75.22,89.44Z" fill="#1eaea7"/><path d="M6.81,16.29L6.81,73.75C6.81,78.97,11.05,83.21,16.27,83.21L73.73,83.21C78.95,83.21,83.19,78.97,83.19,73.75L83.19,16.29C83.19,11.07,78.95,6.82,73.73,6.82L16.27,6.82C11.05,6.82,6.81,11.07,6.81,16.29Z" fill="#aedada"/><path d="M55.06,31.83L22.81,55.44C24.33,54.53,26.31,54.26,28.47,54.84C33.24,56.12,37.11,61.02,37.11,65.79C37.11,67.94,36.32,69.7,35.02,70.86L35.02,70.86C35.02,70.86,67.21,47.3,67.21,47.3C69.05,46.21,70.22,44.18,70.22,41.56C70.22,36.79,66.35,31.88,61.58,30.61C58.97,29.91,56.64,30.44,55.06,31.83Z" fill="#1eaea7"/><path d="M37.11,65.79C37.11,61.02,33.24,56.12,28.47,54.84C26.31,54.26,24.33,54.52,22.81,55.43C20.99,56.53,19.84,58.56,19.84,61.16C19.84,65.93,23.7,70.83,28.47,72.11C31.09,72.81,33.44,72.28,35.02,70.86C36.32,69.69,37.11,67.94,37.11,65.79ZM21.28,61.55C21.28,57.58,24.51,55.22,28.47,56.28C32.44,57.34,35.67,61.43,35.67,65.4C35.67,69.37,32.44,71.73,28.47,70.67C24.51,69.61,21.28,65.51,21.28,61.55Z" fill="#aedada"/><path d="M21.28,61.55C21.28,65.52,24.51,69.61,28.47,70.67C32.44,71.73,35.67,69.37,35.67,65.4C35.67,61.44,32.44,57.34,28.47,56.28C24.51,55.22,21.28,57.58,21.28,61.55ZM29.8,65.61L28.65,66.45L28.65,66.45C28.25,66.81,27.66,66.95,26.99,66.77C25.78,66.44,24.8,65.2,24.8,63.99C24.8,63.34,25.09,62.82,25.55,62.55L26.72,61.69C27.12,61.34,27.71,61.2,28.37,61.38C29.58,61.71,30.56,62.95,30.56,64.16C30.56,64.82,30.27,65.34,29.8,65.61Z" fill="#fff"/><path d="M28.37,61.38C27.71,61.2,27.12,61.34,26.72,61.69L25.55,62.55C25.94,62.31,26.44,62.24,26.99,62.39C28.2,62.72,29.18,63.96,29.18,65.17C29.18,65.71,28.98,66.16,28.65,66.45L28.65,66.45C28.65,66.45,29.8,65.61,29.8,65.61C30.26,65.34,30.56,64.82,30.56,64.16C30.56,62.95,29.58,61.71,28.37,61.38Z" fill="#797776"/><path d="M25.55,62.55C25.09,62.83,24.8,63.34,24.8,63.99C24.8,65.2,25.78,66.44,26.99,66.77C27.66,66.95,28.25,66.81,28.65,66.45C28.98,66.16,29.18,65.71,29.18,65.17C29.18,63.96,28.2,62.72,26.99,62.39C26.44,62.24,25.94,62.31,25.55,62.55Z" fill="#afadad"/><path d="M47.55,78.29C45.3,75.65,44.01,72.48,43.89,69.34L43.89,69.28L43.85,57.83C43.64,54.73,40.88,51.42,37.79,50.6C37.32,50.47,36.87,50.41,36.45,50.41C35.81,50.41,35.26,50.55,34.81,50.82L30.97,45.05L38.71,39.39C39.12,39.04,39.56,38.73,40.03,38.46L44.35,35.29C46.08,33.82,48.36,33.01,50.79,33.01C51.82,33.01,52.87,33.15,53.93,33.43C56.88,34.22,59.64,36.07,61.72,38.63C63.8,41.2,65.01,44.27,65.12,47.27L65.12,47.33L65.16,58.78C65.26,60.29,65.98,61.93,67.15,63.31L69.55,66.14L49.63,80.74L47.55,78.29Z" fill="#fff"/><path d="M49.26,74.82L63.59,64.33C63.34,63.95,63.11,63.56,62.91,63.17L48.58,73.66C48.78,74.06,49.01,74.44,49.26,74.82Z" fill="#797776"/><path d="M53.94,66.25L47.57,70.91C47.67,71.37,47.8,71.83,47.97,72.28L54.28,67.66C54.14,67.2,54.03,66.73,53.95,66.26C53.95,66.26,53.95,66.25,53.94,66.25Z" fill="#797776"/><path d="M53.74,63.01L53.74,62.99C53.74,62.99,47.35,67.67,47.35,67.67L47.35,69.21C47.35,69.25,47.36,69.28,47.36,69.31L53.75,64.63C53.75,64.56,53.75,64.49,53.74,64.42L53.74,64.36Z" fill="#797776"/><path d="M47.34,65.93L53.74,61.24L53.73,59.59L47.33,64.28Z" fill="#797776"/><path d="M47.32,60.89L47.33,62.54L61.67,52.04L61.67,50.39Z" fill="#797776"/><path d="M61.66,47.4C61.65,47.27,61.64,47.14,61.63,47.01L47.29,57.51C47.3,57.54,47.3,57.57,47.3,57.6L47.31,57.71L47.31,59.15L61.66,48.64L61.66,47.4Z" fill="#797776"/><path d="M60.95,44.1L46.62,54.6C46.79,55.04,46.93,55.48,47.04,55.94L61.38,45.44C61.27,44.99,61.12,44.55,60.95,44.1Z" fill="#797776"/><path d="M61.9,60.42C61.8,59.95,61.73,59.48,61.7,59.01L61.69,58.9L61.69,58.82C61.69,58.82,61.69,53.78,61.69,53.78L55.33,58.43L55.3,61.84C55.3,61.84,55.37,65.26,55.91,66.45L62.29,61.78C62.13,61.33,62,60.88,61.9,60.42Z" fill="#1eaea7"/><path d="M61.9,60.42C61.66,59.83,61.69,58.82,61.69,58.82L61.69,53.78L55.33,58.43L55.3,61.84C55.3,61.84,55.2,64.87,55.91,66.45L62.29,61.78C62.13,61.33,62,60.88,61.9,60.42Z" fill="#78c2c1"/><path d="M60.35,42.79C60.05,41.83,58.3,39.98,57.87,39.56L43.54,50.05C43.86,50.36,44.17,50.68,44.46,51.02C44.46,51.02,44.89,51.53,45.32,52.15C45.58,52.52,45.81,52.9,46.01,53.29L60.35,42.79Z" fill="#78c2c1"/><path d="M50.93,33.11C48.51,33.11,46.23,33.93,44.49,35.4L40.17,38.56C39.7,38.84,39.26,39.15,38.85,39.5L34.59,42.62C36.23,44.63,37.25,47.12,37.25,49.57C37.25,49.91,37.23,50.24,37.19,50.55C37.43,50.59,37.68,50.63,37.93,50.7C38.5,50.85,39.06,51.09,39.59,51.4L59.79,36.61C58.09,35.15,56.12,34.09,54.07,33.54C53.01,33.26,51.96,33.11,50.93,33.11Z" fill="#dfdede"/><path d="M55.06,14.5L22.81,38.1C24.33,37.19,26.31,36.92,28.47,37.5C33.24,38.78,37.11,43.68,37.11,48.45C37.11,50.6,36.32,52.36,35.02,53.52L35.02,53.52C35.02,53.52,36.34,52.56,36.34,52.56L36.34,52.56C36.34,52.56,37.25,51.89,37.25,51.89L37.25,51.89C37.25,51.89,67.21,29.97,67.21,29.97C69.05,28.88,70.22,26.84,70.22,24.22C70.22,19.45,66.35,14.55,61.58,13.27C58.97,12.57,56.64,13.1,55.06,14.5Z" fill="#1eaea7"/><path d="M37.11,48.45C37.11,43.68,33.24,38.78,28.47,37.5C26.31,36.92,24.33,37.19,22.81,38.1C20.99,39.19,19.84,41.22,19.84,43.83C19.84,48.6,23.7,53.5,28.47,54.78C31.09,55.48,33.44,54.94,35.02,53.52C36.32,52.36,37.11,50.6,37.11,48.45ZM21.28,44.21C21.28,40.24,24.51,37.88,28.47,38.94C32.44,40.01,35.67,44.1,35.67,48.07C35.67,52.04,32.44,54.4,28.47,53.34C24.51,52.27,21.28,48.18,21.28,44.21Z" fill="#aedada"/><path d="M21.28,44.21C21.28,48.18,24.51,52.27,28.47,53.34C32.44,54.4,35.67,52.04,35.67,48.07C35.67,44.1,32.44,40.01,28.47,38.94C24.51,37.88,21.28,40.24,21.28,44.21ZM29.8,48.28L28.65,49.12L28.65,49.12C28.25,49.48,27.66,49.61,26.99,49.43C25.78,49.11,24.8,47.87,24.8,46.66C24.8,46,25.09,45.49,25.55,45.21L26.72,44.36C27.12,44,27.71,43.87,28.37,44.05C29.58,44.37,30.56,45.61,30.56,46.82C30.56,47.49,30.27,48,29.8,48.28Z" fill="#fff"/><path d="M28.37,44.05C27.71,43.87,27.12,44,26.72,44.36L25.55,45.21C25.94,44.98,26.44,44.91,26.99,45.06C28.2,45.38,29.18,46.62,29.18,47.83C29.18,48.38,28.98,48.82,28.65,49.12L28.65,49.12C28.65,49.12,29.8,48.28,29.8,48.28C30.26,48,30.56,47.49,30.56,46.82C30.56,45.61,29.58,44.37,28.37,44.05Z" fill="#797776"/><path d="M25.55,45.21C25.09,45.49,24.8,46,24.8,46.66C24.8,47.87,25.78,49.11,26.99,49.43C27.66,49.61,28.25,49.48,28.65,49.12C28.98,48.82,29.18,48.38,29.18,47.83C29.18,46.62,28.2,45.38,26.99,45.06C26.44,44.91,25.94,44.98,25.55,45.21Z" fill="#afadad"/><path d="M53.74,58.43L55.33,58.43L55.33,63.88L53.74,63.88Z" fill="#fff"/><path d="M20.89,55.5L20.89,52.71L26.23,52.71L28.79,55.5Z" fill="#aedada"/></svg>