<svg xmlns="http://www.w3.org/2000/svg" viewBox="0 0 90 90"><path d="M75.22,89.44L14.78,89.44C6.96,89.44,0.56,83.04,0.56,75.22L0.56,14.78C0.56,6.96,6.96,0.56,14.78,0.56L75.22,0.56C83.05,0.56,89.44,6.96,89.44,14.78L89.44,75.22C89.44,83.04,83.05,89.44,75.22,89.44Z" fill="#f3ac24"/><path d="M16.27,6.82L73.73,6.82C78.95,6.82,83.19,11.07,83.19,16.29L83.19,73.75C83.19,78.97,78.95,83.21,73.73,83.21L16.27,83.21C11.05,83.21,6.81,78.97,6.81,73.75L6.81,16.29C6.81,11.07,11.05,6.82,16.27,6.82Z" fill="#0d5887"/><path d="M71.18,21.91L66.99,24.2L64.7,28.39L62.41,24.2L58.22,21.91L62.41,19.62L64.7,15.43L66.99,19.62Z" fill="#f7cf64"/><path d="M16.87,51.32C16.86,51.42,16.85,51.51,16.84,51.61C16.85,51.51,16.86,51.42,16.87,51.32Z" fill="#0098c8"/><path d="M23.19,68.8C23.19,68.8,23.19,68.8,23.19,68.8L23.19,68.81C22.58,68.2,21.99,67.56,21.44,66.88C18.77,63.56,17.28,59.86,16.84,56.12C16.71,55,16.68,53.88,16.74,52.77C16.68,53.88,16.71,54.99,16.85,56.11C17.29,59.85,18.77,63.55,21.44,66.87C21.99,67.56,22.58,68.2,23.19,68.8Z" fill="#0098c8"/><path d="M16.82,51.74C16.79,52.08,16.76,52.42,16.74,52.76C16.76,52.42,16.79,52.08,16.82,51.74Z" fill="#0098c8"/><path d="M16.74,52.76C16.74,52.77,16.74,52.77,16.74,52.77C16.74,52.77,16.74,52.77,16.74,52.76Z" fill="#7ed3f7"/><path d="M16.89,51.16C16.88,51.21,16.88,51.27,16.87,51.32C16.88,51.27,16.88,51.21,16.89,51.16Z" fill="#7ed3f7"/><path d="M16.84,51.61C16.83,51.65,16.83,51.69,16.82,51.74C16.83,51.69,16.83,51.65,16.84,51.61Z" fill="#7ed3f7"/><path d="M48.19,36.51L48.19,36.51L48.19,36.51Z" fill="#7ed3f7"/><path d="M65.94,58.61L65.94,58.61L65.94,58.61Z" fill="#33add3"/><path d="M33.67,52.14C33.76,52.24,33.86,52.34,33.95,52.43C33.95,52.43,30.93,60.85,30.93,60.85L30.93,60.85L23.2,68.8C22.58,68.2,22,67.56,21.45,66.87C18.78,63.55,17.29,59.85,16.85,56.11C16.72,54.99,16.68,53.88,16.74,52.77C16.74,52.77,16.74,52.77,16.74,52.76C16.76,52.42,16.79,52.08,16.82,51.74C16.83,51.69,16.83,51.65,16.84,51.61C16.85,51.51,16.86,51.42,16.87,51.32C16.88,51.27,16.89,51.21,16.89,51.16C16.91,51.02,16.93,50.88,16.96,50.74C16.97,50.66,16.98,50.59,16.99,50.51C17,50.44,17.02,50.37,17.03,50.31C17.05,50.21,17.07,50.11,17.09,50.01C17.1,49.96,17.1,49.91,17.11,49.86C17.14,49.72,17.17,49.59,17.2,49.45C17.21,49.41,17.23,49.36,17.24,49.32C17.26,49.2,17.29,49.08,17.32,48.96C17.33,48.93,17.34,48.9,17.35,48.87C17.39,48.72,17.43,48.57,17.47,48.42C17.47,48.4,17.48,48.39,17.48,48.38C17.52,48.23,17.57,48.09,17.61,47.95C17.61,47.94,17.62,47.93,17.62,47.92C17.61,47.94,17.6,47.97,17.6,47.99L20.31,39.26C21.81,34.47,25.11,30.3,29.69,27.66L34.03,25.16L32.62,33.13L39.39,41.74L33.09,45.35C32.36,45.78,31.69,46.28,31.09,46.85C31.09,46.85,31.09,46.85,31.09,46.85C31.05,46.89,31,46.94,30.96,46.98C30.96,47.01,30.97,47.05,30.98,47.08C31,47.19,31.02,47.3,31.05,47.41C31.06,47.46,31.08,47.51,31.09,47.57C31.12,47.67,31.15,47.78,31.18,47.89C31.2,47.94,31.21,47.99,31.22,48.04C31.24,48.08,31.25,48.11,31.26,48.15C31.29,48.23,31.32,48.32,31.35,48.4C31.36,48.44,31.37,48.48,31.39,48.51C31.42,48.61,31.46,48.7,31.5,48.8C31.51,48.82,31.51,48.84,31.52,48.87C31.57,48.98,31.62,49.1,31.67,49.21C31.68,49.24,31.7,49.26,31.71,49.29C31.75,49.38,31.79,49.47,31.84,49.56C31.85,49.59,31.87,49.62,31.88,49.65C31.94,49.76,32,49.87,32.06,49.98C32.07,49.99,32.08,50.01,32.09,50.03C32.14,50.12,32.2,50.21,32.25,50.31C32.27,50.34,32.29,50.37,32.31,50.4C32.37,50.5,32.44,50.61,32.51,50.71C32.52,50.72,32.52,50.72,32.52,50.72C32.59,50.82,32.66,50.93,32.74,51.03C32.76,51.06,32.78,51.09,32.8,51.12C32.88,51.22,32.96,51.32,33.04,51.42C33.12,51.53,33.21,51.64,33.3,51.74C33.33,51.77,33.36,51.8,33.38,51.83C33.45,51.91,33.52,51.98,33.59,52.06C33.62,52.09,33.64,52.12,33.67,52.14Z" fill="#6e9bb7"/><path d="M58.45,65.11L53.5,69.41C47.59,74.92,38.85,76.69,31.03,73.78C28.15,72.71,25.46,71.04,23.19,68.81L23.19,68.81L23.19,68.8C23.19,68.8,30.92,60.85,30.92,60.85L30.92,60.85L33.95,52.44C33.95,52.44,33.96,52.45,33.97,52.45C34.06,52.54,34.15,52.63,34.24,52.71C34.27,52.74,34.29,52.76,34.32,52.78C34.4,52.86,34.49,52.93,34.58,53.01C34.59,53.02,34.61,53.03,34.62,53.04C34.72,53.13,34.82,53.21,34.92,53.29C34.95,53.31,34.97,53.33,35,53.35C35.08,53.41,35.17,53.47,35.25,53.53C35.28,53.55,35.3,53.57,35.32,53.58C35.43,53.66,35.53,53.73,35.64,53.8C35.66,53.81,35.68,53.83,35.71,53.84C35.79,53.9,35.88,53.95,35.96,54C36,54.02,36.03,54.04,36.07,54.06C36.16,54.12,36.25,54.17,36.34,54.22C36.36,54.23,36.38,54.24,36.41,54.26C36.52,54.32,36.63,54.37,36.74,54.43C36.77,54.45,36.8,54.46,36.83,54.47C36.91,54.51,36.99,54.55,37.06,54.58C37.18,54.63,37.29,54.68,37.4,54.73C37.44,54.74,37.47,54.76,37.51,54.77C37.66,54.83,37.81,54.89,37.96,54.94C38.04,54.97,38.12,55,38.21,55.03C38.25,55.04,38.29,55.06,38.33,55.07C38.46,55.11,38.59,55.15,38.72,55.18C38.8,55.2,38.88,55.22,38.96,55.24C39.05,55.27,39.14,55.29,39.23,55.31C39.27,55.32,39.31,55.33,39.35,55.33C39.48,55.36,39.61,55.39,39.74,55.41C39.75,55.41,39.76,55.41,39.77,55.41C39.89,55.43,40.01,55.45,40.13,55.47C40.17,55.47,40.21,55.48,40.25,55.48C40.34,55.49,40.43,55.5,40.52,55.51C40.56,55.51,40.61,55.52,40.65,55.52C40.74,55.53,40.84,55.53,40.93,55.54C40.97,55.54,41.01,55.54,41.05,55.55C41.17,55.55,41.3,55.56,41.43,55.56C41.44,55.56,41.44,55.56,41.45,55.56C41.58,55.56,41.71,55.56,41.83,55.55C41.87,55.55,41.92,55.55,41.96,55.55C42.05,55.54,42.15,55.54,42.25,55.53C42.29,55.53,42.33,55.53,42.37,55.52C42.51,55.51,42.65,55.5,42.79,55.48C42.8,55.48,42.81,55.48,42.83,55.48C42.95,55.46,43.08,55.44,43.21,55.42C43.24,55.42,43.28,55.41,43.32,55.4C43.47,55.38,43.63,55.35,43.78,55.31C43.8,55.31,43.81,55.31,43.82,55.3C43.97,55.27,44.11,55.24,44.26,55.2C44.29,55.19,44.33,55.18,44.36,55.17C44.42,55.15,44.47,55.14,44.52,55.12C44.58,55.11,44.63,55.09,44.68,55.08C44.74,55.06,44.79,55.04,44.84,55.02C44.9,55.01,44.95,54.99,45,54.97C45.05,54.95,45.11,54.93,45.16,54.91C45.21,54.9,45.26,54.88,45.31,54.86C45.37,54.84,45.42,54.82,45.47,54.8C45.52,54.78,45.57,54.76,45.61,54.74C45.74,54.68,45.87,54.63,46,54.57C46.01,54.56,46.03,54.55,46.05,54.54C46.16,54.49,46.27,54.44,46.38,54.38C46.41,54.36,46.45,54.35,46.48,54.33C46.59,54.27,46.7,54.21,46.81,54.15C46.82,54.14,46.84,54.13,46.85,54.12C46.97,54.05,47.09,53.98,47.21,53.91C47.24,53.89,47.27,53.86,47.3,53.84C47.4,53.78,47.49,53.72,47.58,53.66C47.61,53.64,47.64,53.62,47.66,53.6C47.78,53.52,47.89,53.44,48,53.35C48.02,53.33,48.05,53.31,48.07,53.3C48.16,53.23,48.25,53.15,48.34,53.08C48.37,53.05,48.4,53.03,48.43,53C48.53,52.91,48.64,52.82,48.74,52.72L52.69,49.14L51.36,56.45L58.46,65.1Z" fill="#ee4552"/><path d="M68.66,49.88L68.66,49.88L68.66,49.88L65.94,58.61L65.94,58.61L65.94,58.61L65.94,58.61L65.94,58.61L58.46,65.1L51.36,56.45L52.69,49.14L61.78,41.32L66.54,47.24Z" fill="#9f9f9f"/><path d="M50.9,27.78L49.97,30.77L48.19,36.51L48.19,36.51L48.19,36.51L48.18,36.51L48.18,36.51L39.39,41.74L32.62,33.13L34.03,25.16L44.02,19.22Z" fill="#9f9f9f"/><path d="M16.95,50.74C16.93,50.88,16.91,51.02,16.89,51.16C16.91,51.02,16.93,50.88,16.95,50.74Z" fill="#0098c8"/><path d="M16.87,51.32C16.86,51.42,16.85,51.51,16.84,51.61C16.85,51.51,16.86,51.42,16.87,51.32Z" fill="#0098c8"/><path d="M17.11,49.86C17.1,49.91,17.09,49.96,17.09,50C17.1,49.96,17.1,49.91,17.11,49.86Z" fill="#0098c8"/><path d="M17.48,48.38C17.48,48.39,17.47,48.4,17.47,48.42C17.47,48.4,17.48,48.39,17.48,48.38Z" fill="#0098c8"/><path d="M17.35,48.87C17.34,48.9,17.33,48.93,17.32,48.96C17.33,48.93,17.34,48.9,17.35,48.87Z" fill="#0098c8"/><path d="M17.03,50.31C17.02,50.37,17,50.44,16.99,50.51C17,50.44,17.02,50.37,17.03,50.31Z" fill="#0098c8"/><path d="M23.19,68.8C23.19,68.8,23.19,68.8,23.19,68.8L23.19,68.81C22.58,68.2,21.99,67.56,21.44,66.88C18.77,63.56,17.28,59.86,16.84,56.12C16.71,55,16.68,53.88,16.74,52.77C16.68,53.88,16.71,54.99,16.85,56.11C17.29,59.85,18.77,63.55,21.44,66.87C21.99,67.56,22.58,68.2,23.19,68.8Z" fill="#0098c8"/><path d="M17.23,49.32C17.22,49.36,17.21,49.41,17.2,49.45C17.21,49.41,17.22,49.36,17.23,49.32Z" fill="#0098c8"/><path d="M16.82,51.74C16.79,52.08,16.76,52.42,16.74,52.76C16.76,52.42,16.79,52.08,16.82,51.74Z" fill="#0098c8"/><path d="M33.59,52.06C33.62,52.09,33.64,52.12,33.67,52.15C33.76,52.25,33.86,52.34,33.95,52.44L30.93,60.85C30.72,60.63,30.51,60.4,30.32,60.15C28.84,58.31,28.1,56.16,28.06,54.02C28,51.28,29.14,48.71,31.09,46.85C31.09,46.85,31.09,46.85,31.09,46.85C31.05,46.89,31,46.94,30.96,46.98C30.96,47.01,30.97,47.05,30.98,47.08C31,47.19,31.02,47.3,31.05,47.41C31.06,47.46,31.08,47.51,31.09,47.57C31.12,47.67,31.15,47.78,31.18,47.89C31.2,47.94,31.21,47.99,31.22,48.04C31.24,48.08,31.25,48.11,31.26,48.15C31.29,48.23,31.32,48.32,31.35,48.4C31.36,48.44,31.37,48.48,31.39,48.51C31.42,48.61,31.46,48.7,31.5,48.8C31.51,48.82,31.51,48.84,31.52,48.87C31.57,48.98,31.62,49.1,31.67,49.21C31.68,49.24,31.7,49.26,31.71,49.29C31.75,49.38,31.79,49.47,31.84,49.56C31.85,49.59,31.87,49.62,31.88,49.65C31.94,49.76,32,49.87,32.06,49.98C32.07,49.99,32.08,50.01,32.09,50.03C32.14,50.12,32.2,50.21,32.25,50.31C32.27,50.34,32.29,50.37,32.31,50.4C32.37,50.5,32.44,50.61,32.51,50.71C32.52,50.72,32.52,50.72,32.52,50.72C32.59,50.82,32.66,50.93,32.74,51.03C32.76,51.06,32.78,51.09,32.8,51.12C32.88,51.22,32.96,51.32,33.04,51.42C33.12,51.53,33.21,51.64,33.3,51.74C33.33,51.77,33.36,51.8,33.38,51.83C33.45,51.91,33.52,51.98,33.59,52.06Z" fill="#3d799f"/><path d="M17.09,50C17.07,50.1,17.05,50.2,17.03,50.3C17.05,50.2,17.07,50.1,17.09,50Z" fill="#7ed3f7"/><path d="M17.2,49.45C17.17,49.59,17.14,49.72,17.11,49.86C17.14,49.72,17.17,49.59,17.2,49.45Z" fill="#7ed3f7"/><path d="M16.74,52.76C16.74,52.77,16.74,52.77,16.74,52.77C16.74,52.77,16.74,52.77,16.74,52.76Z" fill="#7ed3f7"/><path d="M16.89,51.16C16.88,51.21,16.88,51.27,16.87,51.32C16.88,51.27,16.88,51.21,16.89,51.16Z" fill="#7ed3f7"/><path d="M16.99,50.51C16.98,50.59,16.97,50.66,16.95,50.74C16.97,50.66,16.98,50.59,16.99,50.51Z" fill="#7ed3f7"/><path d="M16.84,51.61C16.83,51.65,16.83,51.69,16.82,51.74C16.83,51.69,16.83,51.65,16.84,51.61Z" fill="#7ed3f7"/><path d="M48.19,36.51L48.19,36.51L48.19,36.51Z" fill="#7ed3f7"/><path d="M17.61,47.95C17.57,48.09,17.52,48.23,17.48,48.38C17.52,48.23,17.57,48.09,17.61,47.95Z" fill="#7ed3f7"/><path d="M17.47,48.42C17.43,48.57,17.38,48.72,17.35,48.87C17.39,48.72,17.43,48.57,17.47,48.42Z" fill="#7ed3f7"/><path d="M17.32,48.96C17.29,49.08,17.26,49.2,17.24,49.32C17.26,49.2,17.29,49.08,17.32,48.96Z" fill="#7ed3f7"/><path d="M53.5,69.41C47.6,74.92,38.85,76.69,31.03,73.78C28.15,72.71,25.47,71.04,23.19,68.81L23.19,68.8L23.19,68.8C25.47,71.04,28.16,72.71,31.04,73.78C38.85,76.68,47.6,74.91,53.5,69.41C53.5,69.41,65.94,58.61,65.94,58.61L65.94,58.61L53.5,69.41Z" fill="#33add3"/><path d="M65.94,58.61L65.94,58.61L65.94,58.61Z" fill="#33add3"/><path d="M18.05,46.7C18.06,46.68,18.07,46.65,18.08,46.63C18.08,46.62,18.08,46.62,18.08,46.61C18.09,46.6,18.09,46.59,18.09,46.58C18.09,46.59,18.09,46.6,18.08,46.61C19.74,42.41,22.83,38.78,26.98,36.39L32.62,33.13L32.62,33.13L34.03,25.16L29.69,27.66C25.11,30.3,21.81,34.47,20.32,39.26L17.6,47.99C17.6,47.96,17.61,47.94,17.62,47.91C17.62,47.92,17.62,47.93,17.61,47.95C17.75,47.5,17.91,47.06,18.08,46.63C18.07,46.65,18.06,46.68,18.05,46.7ZM17.76,47.5C17.74,47.54,17.73,47.58,17.72,47.62C17.73,47.58,17.74,47.54,17.76,47.5ZM17.9,47.1C17.9,47.1,17.89,47.1,17.89,47.11C17.89,47.11,17.9,47.1,17.9,47.1Z" fill="#3d799f"/><path d="M18.08,46.63C18.08,46.62,18.08,46.62,18.08,46.61C18.08,46.61,18.08,46.62,18.08,46.63Z" fill="#7ed3f7"/><path d="M33.09,45.35C29.94,47.16,27.99,50.44,28.06,54.02C28.1,56.15,28.84,58.31,30.32,60.15C30.52,60.39,30.72,60.63,30.93,60.85L30.93,60.85L23.2,68.8C22.58,68.2,22,67.56,21.45,66.87C18.78,63.55,17.29,59.85,16.85,56.11C16.72,54.99,16.68,53.87,16.74,52.77C16.74,52.77,16.74,52.77,16.74,52.76C16.76,52.42,16.79,52.08,16.82,51.74C16.83,51.69,16.83,51.65,16.84,51.61C16.85,51.51,16.86,51.42,16.87,51.32C16.88,51.27,16.89,51.21,16.89,51.16C16.91,51.02,16.93,50.88,16.96,50.74C16.97,50.66,16.98,50.59,16.99,50.51C17,50.44,17.02,50.37,17.03,50.3C17.05,50.2,17.07,50.1,17.09,50C17.1,49.96,17.1,49.91,17.11,49.86C17.14,49.72,17.17,49.59,17.2,49.45C17.21,49.41,17.23,49.36,17.24,49.32C17.26,49.2,17.29,49.08,17.32,48.96C17.33,48.93,17.34,48.9,17.35,48.87C17.39,48.72,17.43,48.57,17.47,48.42C17.47,48.4,17.48,48.39,17.48,48.38C17.52,48.23,17.57,48.09,17.61,47.95C17.75,47.5,17.91,47.06,18.08,46.63C18.08,46.62,18.08,46.62,18.08,46.61C19.74,42.41,22.83,38.78,26.98,36.39L32.62,33.13L39.39,41.74L39.39,41.74L33.09,45.35Z" fill="#6e9bb7"/><path d="M32.62,33.13L32.62,33.13L34.03,25.16L44.02,19.22L50.9,27.78L48.19,36.51L41.31,27.95Z" fill="#b2b2b2"/><path d="M48.19,36.51L48.19,36.51L39.39,41.74L39.39,41.74L32.62,33.13L41.31,27.95Z" fill="#c2c2c2"/><path d="M46.02,61.45C43.39,63.91,39.59,64.89,36,63.91C34.13,63.4,32.38,62.39,30.92,60.85L33.95,52.44C33.95,52.44,33.96,52.45,33.97,52.45C34.06,52.54,34.15,52.63,34.24,52.71C34.27,52.74,34.29,52.76,34.32,52.78C34.4,52.86,34.49,52.93,34.58,53.01C34.59,53.02,34.61,53.03,34.62,53.04C34.72,53.13,34.82,53.21,34.92,53.29C34.95,53.31,34.97,53.33,35,53.35C35.08,53.41,35.17,53.47,35.25,53.53C35.28,53.55,35.3,53.57,35.32,53.58C35.43,53.66,35.53,53.73,35.64,53.8C35.66,53.81,35.68,53.83,35.71,53.84C35.79,53.9,35.88,53.95,35.96,54C36,54.02,36.03,54.04,36.07,54.06C36.16,54.12,36.25,54.17,36.34,54.22C36.36,54.23,36.38,54.24,36.41,54.26C36.52,54.32,36.63,54.37,36.74,54.43C36.77,54.45,36.8,54.46,36.83,54.47C36.91,54.51,36.99,54.55,37.06,54.58C37.18,54.63,37.29,54.68,37.4,54.73C37.44,54.74,37.47,54.76,37.51,54.77C37.66,54.83,37.81,54.89,37.96,54.94C38.04,54.97,38.12,55,38.21,55.03C38.25,55.04,38.29,55.06,38.33,55.07C38.46,55.11,38.59,55.15,38.72,55.18C38.8,55.2,38.88,55.22,38.96,55.24C39.05,55.27,39.14,55.29,39.23,55.31C39.27,55.32,39.31,55.33,39.35,55.33C39.48,55.36,39.61,55.39,39.74,55.41C39.75,55.41,39.76,55.41,39.77,55.41C39.89,55.43,40.01,55.45,40.13,55.47C40.17,55.47,40.21,55.48,40.25,55.48C40.34,55.49,40.43,55.5,40.52,55.51C40.56,55.51,40.61,55.52,40.65,55.52C40.74,55.53,40.84,55.53,40.93,55.54C40.97,55.54,41.01,55.54,41.05,55.55C41.17,55.55,41.3,55.56,41.43,55.56C41.44,55.56,41.44,55.56,41.45,55.56C41.58,55.56,41.71,55.56,41.83,55.55C41.87,55.55,41.92,55.55,41.96,55.55C42.05,55.54,42.15,55.54,42.25,55.53C42.29,55.53,42.33,55.53,42.37,55.52C42.51,55.51,42.65,55.5,42.79,55.48C42.8,55.48,42.81,55.48,42.83,55.48C42.95,55.46,43.08,55.44,43.21,55.42C43.24,55.42,43.28,55.41,43.32,55.4C43.47,55.38,43.63,55.35,43.78,55.31C43.8,55.31,43.81,55.31,43.82,55.3C43.97,55.27,44.11,55.24,44.26,55.2C44.29,55.19,44.33,55.18,44.36,55.17C44.42,55.15,44.47,55.14,44.52,55.12C44.58,55.11,44.63,55.09,44.68,55.08C44.74,55.06,44.79,55.04,44.84,55.02C44.9,55.01,44.95,54.99,45,54.97C45.05,54.95,45.11,54.93,45.16,54.91C45.21,54.9,45.26,54.88,45.31,54.86C45.37,54.84,45.42,54.82,45.47,54.8C45.52,54.78,45.57,54.76,45.61,54.74C45.74,54.68,45.87,54.63,46,54.57C46.01,54.56,46.03,54.55,46.05,54.54C46.16,54.49,46.27,54.44,46.38,54.38C46.41,54.36,46.45,54.35,46.48,54.33C46.59,54.27,46.7,54.21,46.81,54.15C46.82,54.14,46.84,54.13,46.85,54.12C46.97,54.05,47.09,53.98,47.21,53.91C47.24,53.89,47.27,53.86,47.3,53.84C47.4,53.78,47.49,53.72,47.58,53.66C47.61,53.64,47.64,53.62,47.66,53.6C47.78,53.52,47.89,53.44,48,53.35C48.02,53.33,48.05,53.31,48.07,53.3C48.16,53.23,48.25,53.15,48.34,53.08C48.37,53.05,48.4,53.03,48.43,53C48.53,52.91,48.64,52.82,48.74,52.72L52.69,49.14L51.36,56.45L46.03,61.45Z" fill="#b3343e"/><path d="M51.36,56.45L58.73,64.53L58.73,64.53L53.5,69.4C47.6,74.91,38.85,76.68,31.04,73.78C28.16,72.7,25.47,71.03,23.19,68.8C23.19,68.8,30.93,60.85,30.93,60.85L30.93,60.85C32.38,62.39,34.13,63.4,36,63.91C39.59,64.89,43.4,63.91,46.03,61.45L51.36,56.45L51.36,56.45Z" fill="#ee4552"/><path d="M59.06,50.04L51.36,56.45L52.69,49.14L61.78,41.32L68.66,49.88L65.94,58.61Z" fill="#b2b2b2"/><path d="M65.94,58.61L65.94,58.61L58.73,64.53L58.73,64.53L51.36,56.45L51.36,56.45L59.06,50.04Z" fill="#c2c2c2"/><path d="M61.78,41.32L68.66,49.88L65.94,58.61L59.06,50.05Z" fill="#9f9f9f"/><path d="M44.02,19.22L50.9,27.78L48.18,36.51L41.3,27.95Z" fill="#9f9f9f"/><path d="M60.01,38L57.21,39.53L55.68,42.33L54.15,39.53L51.35,38L54.15,36.47L55.68,33.67L57.21,36.47Z" fill="#f7cf64"/><path d="M73.29,33.67L70.16,35.38L68.45,38.5L66.74,35.38L63.61,33.67L66.74,31.96L68.45,28.83L70.16,31.96Z" fill="#f3ac24"/></svg>