<svg xmlns="http://www.w3.org/2000/svg" viewBox="0 0 90 90"><path d="M89.44,75.22C89.44,83.04,83.04,89.44,75.22,89.44L14.78,89.44C6.96,89.44,0.56,83.04,0.56,75.22L0.56,14.78C0.56,6.96,6.96,0.56,14.78,0.56L75.22,0.56C83.04,0.56,89.45,6.96,89.45,14.78L89.45,75.22Z" fill="#e3183c"/><path d="M16.27,6.8L73.73,6.8C78.95,6.8,83.2,11.05,83.2,16.27L83.2,73.73C83.2,78.95,78.95,83.19,73.73,83.19L16.27,83.19C11.05,83.19,6.81,78.95,6.81,73.73L6.81,16.27C6.81,11.05,11.05,6.8,16.27,6.8Z" fill="#f48c8d"/><path d="M18.34,41.36L19.87,22.32L70.13,22.32L71.66,41.36Z" fill="#ee4552"/><path d="M19.87,46.52L70.13,46.52L70.13,73.32L19.87,73.32Z" fill="#aa122d"/><path d="M18.34,41.36L71.66,41.36L71.66,48.04L18.34,48.04Z" fill="#e3183c"/><path d="M30.34,29.14L60.02,29.14L60.02,31.16L30.34,31.16Z" fill="#aa122d"/><path d="M34.97,16.68L55.03,16.68L55.03,31.16L34.97,31.16Z" fill="#fff"/></svg>