<svg xmlns="http://www.w3.org/2000/svg" viewBox="0 0 90 90"><path d="M75.22,89.44L14.78,89.44C6.96,89.44,0.56,83.04,0.56,75.22L0.56,14.78C0.56,6.96,6.96,0.56,14.78,0.56L75.22,0.56C83.05,0.56,89.44,6.96,89.44,14.78L89.44,75.22C89.44,83.04,83.04,89.44,75.22,89.44Z" fill="#7b7ba3"/><path d="M16.27,6.81L73.73,6.81C78.95,6.81,83.2,11.05,83.2,16.27L83.2,73.73C83.2,78.95,78.95,83.19,73.73,83.19L16.27,83.19C11.05,83.19,6.81,78.95,6.81,73.73L6.81,16.27C6.81,11.05,11.05,6.81,16.27,6.81Z" fill="#555b88"/><path d="M43.36,45.03C44.82,46.48,44.82,48.84,43.36,50.29L43.08,50.57C44.54,49.12,46.9,49.12,48.35,50.57L48.35,50.57C49.8,52.03,49.8,54.39,48.35,55.84L47.65,56.54C47.65,56.54,47.65,56.54,47.65,56.55C49.11,55.15,51.42,55.17,52.86,56.6L52.86,56.6C54.31,58.06,54.31,60.41,52.86,61.87L47.96,66.76C47.83,66.96,47.68,67.14,47.51,67.31L39.01,75.81C38.74,76.08,38.45,76.34,38.14,76.58C36.13,78.19,33.57,79,30.97,78.82L29.99,78.75L23.14,85.54L2.8,65.2L9.69,58.24L9.63,57.27C9.44,54.67,10.25,52.11,11.86,50.09C12.1,49.79,15.79,46.07,16.06,45.79L21.03,40.83C21.07,40.78,21.12,40.73,21.17,40.69C22.29,39.39,24.21,39,25.78,39.86L30.26,42.32L32.82,39.76C34.28,38.3,36.64,38.3,38.09,39.76C39.55,41.21,39.55,43.57,38.09,45.02C39.55,43.57,41.9,43.57,43.36,45.02Z" fill="#f3ac24"/><path d="M63.55,4.46L83.88,24.79L77.14,31.59L77.21,32.57C77.39,35.17,76.58,37.73,74.98,39.75C74.73,40.05,74.48,40.34,74.2,40.62L61.44,53.38C61.29,53.53,61.12,53.66,60.95,53.78L61.15,53.57C59.7,55.02,57.34,55.02,55.89,53.57L55.89,53.57C54.45,52.13,54.43,49.82,55.83,48.36C55.83,48.36,55.82,48.36,55.82,48.36L55.13,49.06C53.67,50.51,51.31,50.51,49.86,49.06L49.86,49.06C48.4,47.61,48.4,45.25,49.86,43.79L49.58,44.07C48.12,45.53,45.77,45.53,44.31,44.07C42.86,42.62,42.86,40.26,44.31,38.8C42.86,40.26,40.5,40.26,39.04,38.8C37.59,37.35,37.59,34.99,39.04,33.54L39.54,33.04C39.54,33.04,39.54,33.04,39.54,33.04L40.23,32.35C40.23,32.35,40.23,32.35,40.23,32.35L40.71,31.87L38.26,27.38C37.39,25.81,37.78,23.9,39.09,22.77C39.13,22.72,39.18,22.68,39.22,22.63L44.19,17.66C44.46,17.39,45.05,16.84,45.35,16.59C47.37,14.99,49.93,14.18,52.53,14.36L53.5,14.43L63.55,4.46Z" fill="#f3ac24"/><path d="M47.65,56.54C47.63,56.56,47.61,56.58,47.59,56.6L47.65,56.54C47.65,56.54,47.65,56.54,47.65,56.54Z" fill="#f3ac24"/><path d="M38.09,39.75C39.54,41.21,39.54,43.57,38.09,45.02C39.54,43.57,41.9,43.57,43.36,45.02L43.36,45.02C44.81,46.48,44.81,48.84,43.36,50.29L43.08,50.57C44.53,49.11,46.89,49.11,48.35,50.57L48.35,50.57C49.8,52.02,49.8,54.38,48.35,55.84L47.65,56.54L47.59,56.6C47.61,56.58,47.63,56.56,47.65,56.54C49.1,55.14,51.42,55.16,52.86,56.6L52.86,56.6C54.31,58.05,54.31,60.41,52.86,61.86L51.34,63.38L48.37,66.35L47.96,66.76L46.86,67.86C45.41,69.31,43.05,69.31,41.6,67.86L41.6,67.86C40.14,66.4,40.14,64.04,41.6,62.59C40.14,64.04,37.78,64.04,36.33,62.59L36.33,62.59C34.87,61.13,34.87,58.78,36.33,57.32C34.87,58.78,32.51,58.78,31.06,57.32L31.06,57.32C29.61,55.87,29.61,53.51,31.06,52.05C29.61,53.51,27.25,53.51,25.79,52.05C25.15,51.42,24.8,50.61,24.72,49.77L29.87,51.21C31.85,51.76,33.9,50.61,34.46,48.63C34.61,48.07,34.63,47.51,34.54,46.98C34.52,47.55,34.37,48.12,34.08,48.65L34.08,48.65C33.09,50.46,30.83,51.12,29.02,50.13L22.2,46.39C20.4,45.4,19.74,43.14,20.72,41.33L20.72,41.33C20.85,41.1,21,40.88,21.17,40.69C22.29,39.39,24.21,39,25.78,39.86L30.26,42.31L31.29,41.29L31.01,41.57L32.82,39.76C34.28,38.3,36.64,38.3,38.09,39.76Z" fill="#f7cf64"/><path d="M39.53,33.05L40.23,32.35C40.23,32.35,40.23,32.35,40.23,32.35L40.17,32.41C40.06,32.52,39.64,32.94,39.54,33.04C39.54,33.04,39.54,33.04,39.54,33.04Z" fill="#f7cf64"/><path d="M61.75,52.96L60.95,53.77C60.95,53.77,60.95,53.77,60.95,53.77L61.15,53.56C59.7,55.02,57.34,55.02,55.88,53.56L55.88,53.56C54.45,52.13,54.43,49.81,55.83,48.35C55.83,48.36,55.82,48.36,55.82,48.36L55.12,49.06C53.67,50.51,51.31,50.51,49.86,49.06L49.86,49.06C48.4,47.6,48.4,45.24,49.86,43.79L49.58,44.07C48.12,45.52,45.76,45.52,44.31,44.07L44.31,44.07C42.86,42.61,42.86,40.25,44.31,38.8C42.86,40.25,40.5,40.25,39.04,38.8C37.59,37.34,37.59,34.99,39.04,33.53L40.23,32.35C39.27,33.31,39.27,34.86,40.23,35.82L42.02,37.61C42.94,38.54,44.41,38.57,45.38,37.72L45.39,37.73C44.54,38.7,44.57,40.17,45.5,41.09L47.29,42.88C48.21,43.8,49.68,43.84,50.65,42.99L50.67,43.01C49.94,43.98,50.01,45.36,50.89,46.24L52.68,48.03C53.56,48.91,54.94,48.98,55.9,48.25L56.02,48.36C55.57,49.28,55.73,50.42,56.49,51.18L58.28,52.97C59.24,53.93,60.8,53.93,61.76,52.97Z" fill="#f3ac24"/><path d="M34.13,48.7C34.42,48.17,34.57,47.6,34.59,47.03C34.68,47.56,34.66,48.12,34.5,48.67C33.95,50.66,31.9,51.81,29.91,51.26L24.77,49.82C24.85,50.65,25.2,51.46,25.84,52.1C27.3,53.56,29.65,53.56,31.11,52.1C29.65,53.56,29.65,55.92,31.11,57.37C32.56,58.82,34.92,58.82,36.38,57.37C34.92,58.82,34.92,61.18,36.38,62.64L36.38,62.64C37.83,64.09,40.19,64.09,41.64,62.64C40.19,64.09,40.19,66.45,41.64,67.91L41.64,67.91C43.1,69.36,45.46,69.36,46.91,67.91L38.19,76.63C38.19,76.63,38.19,76.63,38.19,76.63C36.17,78.24,33.61,79.04,31.01,78.86L30.04,78.79L7.47,101.3L-12.87,80.96L9.74,58.28L9.67,57.31C9.49,54.71,10.3,52.15,11.91,50.13C12.15,49.83,15.83,46.11,16.11,45.84L21.07,40.87C21.12,40.82,21.17,40.78,21.22,40.74C21.05,40.93,20.9,41.15,20.77,41.38L20.77,41.38C19.78,43.18,20.44,45.45,22.25,46.44L29.07,50.17C30.87,51.16,33.14,50.5,34.13,48.7L34.13,48.7Z" fill="#f3ac24"/><path d="M53.5,14.43L73.72,-5.7L94.05,14.63L77.15,31.6L77.21,32.57C77.4,35.17,76.59,37.73,74.98,39.75L65.71,49.12L61.76,52.97C60.8,53.93,59.24,53.93,58.28,52.97L56.49,51.18C56.24,50.93,56.06,50.65,55.94,50.34L54.35,48.75C53.74,48.73,53.14,48.49,52.68,48.03L50.89,46.24C50.43,45.78,50.19,45.18,50.17,44.57L49.2,43.6C48.51,43.64,47.81,43.41,47.29,42.88L45.5,41.09C44.98,40.57,44.74,39.87,44.79,39.19L43.93,38.33C43.24,38.38,42.54,38.14,42.02,37.62L40.23,35.83C39.27,34.87,39.27,33.31,40.23,32.35L40.71,31.87L38.26,27.38C37.39,25.81,37.78,23.9,39.09,22.77C39.13,22.73,39.18,22.68,39.22,22.63L44.19,17.67C44.46,17.39,45.05,16.84,45.35,16.6C47.37,14.99,49.93,14.18,52.53,14.36L53.5,14.43Z" fill="#f7cf64"/><path d="M37.8,25.45C40.82,28.47,45.59,23.37,45.59,26.99L40.71,31.87L38.25,27.39C37.92,26.77,37.77,26.1,37.8,25.45Z" fill="#f3ac24"/><path d="M20.72,22.99L32.98,22.99L29.47,26.19L17.5,37.11L17.2,36.85L24.31,26.84L12.27,26.84L14.74,23.66L23.96,11.77L31.51,11.77Z" fill="#f7cf64"/></svg>