<svg xmlns="http://www.w3.org/2000/svg" viewBox="0 0 90 90"><path d="M0.55,75.22L0.55,14.78C0.55,6.96,6.95,0.56,14.77,0.56L75.21,0.56C83.04,0.56,89.44,6.95,89.44,14.78L89.44,75.22C89.81,82.6,83.36,89.07,75.21,89.45L14.77,89.45C6.95,89.45,0.55,83.04,0.55,75.22Z" fill="#fcd157"/><path d="M73.72,6.81C78.94,6.81,83.19,11.05,83.19,16.27L83.19,73.73C83.19,78.95,78.94,83.19,73.72,83.19L16.26,83.19C11.04,83.19,6.8,78.95,6.8,73.73L6.8,16.27C6.8,11.05,11.04,6.81,16.26,6.81L73.72,6.81Z" fill="#a68b46"/><path d="M55.44,29.53L67.53,29.53C67.53,29.53,67.53,35.67,67.53,35.67C67.53,38.44,66.4,40.96,64.09,43.37C62.25,45.29,59.68,47.1,56.45,48.78L55.44,48.33L55.44,29.53M50.64,24.73L50.64,51.45C50.64,51.45,56.54,54.07,56.54,54.07C64.87,50.21,72.33,44.38,72.33,35.67L72.33,26.11C72.33,25.35,71.71,24.73,70.94,24.73L50.64,24.73Z" fill="none" stroke="#e2b129" stroke-width="1" stroke-linecap="butt" stroke-linejoin="miter"/><path d="M58.78,47.53C58.9,47.52,59,47.62,58.99,47.75C58.91,48.54,60.56,49.83,58.78,51.74C58.69,51.83,59.86,52.59,59.99,52.6C62.58,52.79,64.7,54.49,65.3,55.02C65.4,55.1,65.39,55.24,65.29,55.33C64.65,55.85,62.31,57.61,59.55,57.56C56.79,57.51,54.51,55.67,53.89,55.11C53.8,55.03,53.73,54.86,53.74,54.73C53.82,53.9,54.24,51.01,56.23,49.09C58.21,47.18,57.95,47.58,58.78,47.53Z" fill="#efc029"/><path d="M56.38,54.12C64.71,50.26,72.17,44.43,72.17,35.72L72.17,26.16" fill="none" stroke="#efc029" stroke-width="1.3333333333333333" stroke-linecap="butt" stroke-linejoin="miter"/><path d="M70.13,44.49C70.02,44.52,69.86,44.47,69.78,44.39C69.28,43.91,67.74,42.28,67.52,40.16C67.3,38.05,68.47,36.13,68.86,35.57C68.92,35.47,69.05,35.46,69.13,35.54C69.6,35.99,71.02,37.5,71.34,39.47C71.36,39.59,71.43,39.61,71.51,39.52C72.85,38.05,74.87,37.56,75.51,37.44C75.62,37.42,75.72,37.49,75.72,37.61C75.73,38.3,75.67,40.54,74.33,42.19C72.99,43.84,70.81,44.37,70.13,44.5Z" fill="#efc029"/><path d="M71.75,36.43C71.22,36.09,69.64,34.98,69.09,33.23C68.53,31.49,69.16,29.66,69.4,29.08C69.44,28.97,69.56,28.93,69.65,29C70.16,29.31,71.6,30.34,72.22,31.93C72.26,32.03,72.34,32.04,72.4,31.94C73.27,30.47,74.86,29.7,75.41,29.47C75.52,29.43,75.63,29.48,75.65,29.6C75.79,30.21,76.12,32.12,75.28,33.74C74.44,35.37,72.7,36.22,72.12,36.46C72.02,36.51,71.85,36.49,71.75,36.43Z" fill="#efc029"/><path d="M71.94,29.68C71.41,29.14,70.06,27.6,70.07,25.74C70.08,23.89,71.45,22.3,71.99,21.74C72.1,21.62,72.3,21.62,72.41,21.73C72.95,22.27,74.3,23.81,74.28,25.66C74.27,27.51,72.91,29.11,72.37,29.67C72.26,29.79,72.06,29.79,71.94,29.68Z" fill="#efc029"/><path d="M34.7,29.53L34.7,48.33L33.7,48.78C30.46,47.1,27.89,45.29,26.05,43.37C23.74,40.96,22.62,38.44,22.62,35.67L22.62,29.53L34.7,29.53M39.5,24.73L19.2,24.73C18.44,24.73,17.82,25.35,17.82,26.11L17.82,35.66C17.82,44.38,25.27,50.21,33.6,54.07L39.5,51.45L39.5,24.73L39.5,24.73Z" fill="none" stroke="#e2b129" stroke-width="1" stroke-linecap="butt" stroke-linejoin="miter"/><path d="M17.82,26.11L17.82,35.66C17.82,44.38,25.27,50.21,33.6,54.07" fill="none" stroke="#efc029" stroke-width="1.3333333333333333" stroke-linecap="butt" stroke-linejoin="miter"/><path d="M33.76,49.04C35.74,50.95,36.16,53.85,36.24,54.68C36.25,54.81,36.19,54.98,36.09,55.06C35.47,55.62,33.19,57.45,30.43,57.5C27.68,57.56,25.33,55.8,24.69,55.27C24.59,55.19,24.59,55.05,24.68,54.97C25.28,54.44,27.4,52.74,30,52.55C30.12,52.54,31.29,51.78,31.2,51.68C29.43,49.78,31.07,48.49,30.99,47.7C30.98,47.57,31.08,47.47,31.2,47.48C32.04,47.53,31.77,47.13,33.76,49.04Z" fill="#efc029"/><path d="M27.39,50.69C27.36,50.8,27.24,50.92,27.14,50.96C26.46,51.2,24.12,51.89,21.97,51.06C19.82,50.23,18.55,48.14,18.2,47.51C18.15,47.41,18.2,47.29,18.3,47.26C18.95,47.03,21.12,46.39,23.19,47.06C23.3,47.09,23.35,47.04,23.31,46.93C22.54,44.9,23.07,42.7,23.27,42.05C23.3,41.94,23.42,41.88,23.52,41.93C24.17,42.25,26.31,43.41,27.25,45.52C28.18,47.63,27.6,50,27.39,50.69Z" fill="#efc029"/><path d="M19.85,44.45C19.18,44.32,16.99,43.79,15.65,42.14C14.32,40.49,14.25,38.25,14.26,37.56C14.26,37.44,14.36,37.37,14.47,37.39C15.12,37.51,17.13,38,18.48,39.47C18.55,39.56,18.62,39.54,18.64,39.42C18.96,37.45,20.38,35.94,20.85,35.49C20.94,35.41,21.06,35.42,21.13,35.52C21.51,36.08,22.68,38,22.46,40.11C22.24,42.23,20.7,43.86,20.21,44.34C20.13,44.42,19.96,44.47,19.85,44.44Z" fill="#efc029"/><path d="M18.23,36.38C18.13,36.44,17.97,36.46,17.86,36.41C17.28,36.17,15.54,35.32,14.71,33.69C13.87,32.07,14.19,30.16,14.33,29.55C14.35,29.43,14.47,29.38,14.57,29.42C15.12,29.65,16.71,30.42,17.59,31.89C17.65,31.99,17.72,31.98,17.76,31.88C18.38,30.29,19.83,29.26,20.33,28.95C20.43,28.88,20.55,28.92,20.59,29.03C20.83,29.61,21.46,31.44,20.9,33.18C20.34,34.93,18.76,36.04,18.23,36.38Z" fill="#efc029"/><path d="M56.65,54.07C52.12,57.03,50.59,59.99,52.06,62.95C52.81,64.46,37.31,64.58,38.09,63.14C39.72,60.12,38.23,57.09,33.6,54.07C41.28,50.1,48.96,50.1,56.65,54.07Z" fill="#e2b129"/><path d="M50.14,57.44L40,57.44C34.26,57.44,29.49,53.01,29.06,47.28L27.28,23.34C27.21,22.4,27.95,21.6,28.9,21.6L61.25,21.6C62.19,21.6,62.93,22.4,62.86,23.34L61.08,47.28C60.66,53.01,55.89,57.44,50.14,57.44Z" fill="#fcd157"/><path d="M59.93,30.33C59.99,30.34,59.99,30.42,59.93,30.42C57.03,30.76,54.73,33.06,54.39,35.96C54.39,36.02,54.31,36.02,54.31,35.96C53.96,33.06,51.66,30.76,48.77,30.42C48.71,30.42,48.71,30.34,48.77,30.33C51.67,29.99,53.96,27.69,54.31,24.8C54.31,24.74,54.39,24.74,54.39,24.8C54.74,27.69,57.03,29.99,59.93,30.33Z" fill="#fbe28b"/><path d="M60.57,60.92C61.91,60.92,62.99,62.01,62.99,63.35L62.99,66.87C62.99,67.72,62.31,68.4,61.46,68.4L28.68,68.4C27.84,68.4,27.15,67.72,27.15,66.87L27.15,63.35C27.15,62.01,28.24,60.92,29.57,60.92L60.57,60.92Z" fill="#fcd157"/><path d="M45.07,35.66C45.07,42.61,40.59,48.5,34.36,50.61C33.9,50.77,33.39,50.57,33.16,50.14C32.66,49.2,32.34,48.16,32.25,47.04L30.63,25.16C30.61,24.97,30.77,24.8,30.97,24.8L44.1,24.8C44.66,24.97,45.07,25.49,45.07,26.11L45.07,35.66Z" fill="#fbe28b"/><path d="M18.04,29.63C17.93,29.74,17.73,29.74,17.61,29.62C17.07,29.06,15.71,27.46,15.7,25.61C15.69,23.76,17.04,22.22,17.57,21.68C17.68,21.57,17.88,21.57,18,21.69C18.54,22.25,19.9,23.84,19.91,25.69C19.92,27.55,18.58,29.09,18.04,29.63Z" fill="#efc029"/><path d="M62.59,50.74C62.38,50.05,61.81,47.68,62.74,45.57C63.67,43.46,65.82,42.3,66.47,41.98C66.57,41.93,66.68,41.99,66.72,42.1C66.91,42.76,67.44,44.95,66.68,46.99C66.64,47.09,66.69,47.15,66.8,47.11C68.86,46.44,71.03,47.08,71.68,47.31C71.79,47.34,71.83,47.46,71.78,47.56C71.44,48.19,70.17,50.28,68.02,51.11C65.87,51.94,63.53,51.25,62.85,51.01C62.74,50.97,62.62,50.85,62.59,50.74Z" fill="#efc029"/></svg>