<svg xmlns="http://www.w3.org/2000/svg" viewBox="0 0 90 90"><path d="M89.44,75.22C89.44,83.04,83.04,89.44,75.22,89.44L14.78,89.44C6.96,89.44,0.56,83.04,0.56,75.22L0.56,14.78C0.56,6.96,6.96,0.56,14.78,0.56L75.22,0.56C83.04,0.56,89.44,6.96,89.44,14.78L89.44,75.22Z" fill="#4e7838"/><path d="M16.27,6.81L73.73,6.81C78.95,6.81,83.19,11.05,83.19,16.27L83.19,73.73C83.19,78.95,78.95,83.19,73.73,83.19L16.27,83.19C11.05,83.19,6.81,78.95,6.81,73.73L6.81,16.27C6.81,11.05,11.05,6.81,16.27,6.81Z" fill="#95bb4a"/><path d="M58.28,20.25L60.47,21.44L58.28,22.64L57.08,24.83L55.89,22.64L53.7,21.44L55.89,20.25L57.08,18.06Z" fill="#fcecc1"/><path d="M33.87,20.25L36.06,21.44L33.87,22.64L32.67,24.83L31.48,22.64L29.29,21.44L31.48,20.25L32.67,18.06Z" fill="#fcecc1"/><path d="M46.7,19.62L50.04,21.44L46.7,23.27L44.88,26.61L43.05,23.27L39.71,21.44L43.05,19.62L44.88,16.28Z" fill="#fcecc1"/><path d="M8.93,63.88L16.64,49.72L8.93,33.92L30.87,33.92L30.87,63.88Z" fill="#4e7838"/><path d="M59.13,63.88L59.13,33.92L81.07,33.92L73.36,49.72L81.07,63.88Z" fill="#4e7838"/><path d="M17.9,29L71.86,29L71.86,58.96L17.9,58.96Z" fill="#6c9d41"/><path d="M51.57,68.84C53.27,70.13,54.25,72.33,54.25,74.87C54.25,76.52,51.14,77.36,45,77.36C38.86,77.36,35.75,76.52,35.75,74.87C35.75,74.17,35.82,73.49,35.97,72.84L35.93,72.82L36.19,72.05C36.2,72.03,36.2,72,36.21,71.97L36.26,71.85C36.72,70.61,37.46,69.57,38.43,68.84C41.41,66.56,41.82,64.58,41.87,63.29L41.87,63.25L39.66,63.25L39.42,62.79C39.03,62.08,38.86,61.42,38.86,60.67L38.86,60.2L41.25,58.63C40.52,57.76,40.1,56.64,40.1,55.49C40.1,52.79,42.3,50.59,45,50.59C45.5,50.59,45.99,50.67,46.46,50.81L46.52,50.79L46.87,50.96C48.71,51.72,49.89,53.49,49.89,55.49C49.89,56.64,49.48,57.76,48.75,58.63L51.13,60.2L51.13,60.67C51.13,61.42,50.96,62.08,50.58,62.79L50.33,63.25L48.13,63.25C48.17,64.51,48.53,66.52,51.57,68.84Z" fill="#4e7838"/><path d="M44.85,70.96C44.35,73.23,42.15,73.08,40.96,73.08C39.1,73.08,37.9,72.82,36.99,72.38C37.38,71.19,38.05,70.21,38.95,69.52C42.3,66.98,42.69,64.69,42.74,63.29C43.76,63.44,46.26,63.73,45.95,65.38C45.71,66.7,45.31,68.9,44.85,70.96Z" fill="#6c9d41"/><path d="M46.6,62.39L40.18,62.39C39.88,61.83,39.73,61.31,39.73,60.67L42.64,58.75C41.63,58.02,40.97,56.83,40.97,55.49C40.97,53.26,42.77,51.46,45,51.46C45.54,51.46,46.05,51.56,46.52,51.75C46.52,51.75,46.52,51.75,46.52,51.75C47.49,52.49,48.11,53.65,48.11,54.96C48.11,56.6,47.05,58,45.3,58.75L46.95,60.67C46.95,60.67,47,61.36,46.61,62.38Z" fill="#6c9d41"/><path d="M42.63,55.21C41.61,55.09,42.59,51.94,44.77,52.28C47.09,52.64,43.7,55.34,42.63,55.21Z" fill="#94bb48"/></svg>