<svg xmlns="http://www.w3.org/2000/svg" viewBox="0 0 90 90"><path d="M75.22,89.44L14.78,89.44C6.96,89.44,0.56,83.04,0.56,75.22L0.56,14.78C0.56,6.96,6.96,0.56,14.78,0.56L75.22,0.56C83.04,0.56,89.44,6.96,89.44,14.78L89.44,75.22C89.44,83.04,83.05,89.44,75.22,89.44Z" fill="#f3ac24"/><path d="M16.27,6.81L73.73,6.81C78.95,6.81,83.19,11.05,83.19,16.27L83.19,73.73C83.19,78.95,78.95,83.19,73.73,83.19L16.27,83.19C11.05,83.19,6.81,78.95,6.81,73.73L6.81,16.27C6.81,11.05,11.05,6.81,16.27,6.81Z" fill="#ee4552"/><path d="M80.27,118.68L30.98,56.11L55.08,37.12L104.37,99.7Z" fill="#f3ac24"/><path d="M71.55,57.51C71.55,57.51,70.8,60.62,68.91,61.52C67.02,62.41,55.56,68.67,55.56,68.67L46.52,75.85L42.43,70.48L40.83,68.62L48.73,61.42L55.9,57.51L71.55,57.51Z" fill="#e4a222"/><path d="M-14.37,99.69L34.92,37.12L59.02,56.11L9.73,118.68Z" fill="#f7cf64"/><path d="M55.94,25.47L65.21,59.62C64.83,59.76,58.06,61.86,57.67,61.98L45.82,65.62C39.19,67.66,32.15,63.93,30.12,57.3L25.9,43.58C23.86,36.95,27.59,29.91,34.23,27.87Z" fill="#f7cf64"/><path d="M64.69,59.72C62.28,60.22,59.92,58.66,59.42,56.25L59.42,56.25C58.93,53.83,60.49,51.47,62.9,50.98L67.62,49.87C70.03,49.38,72.39,50.93,72.88,53.35L72.88,53.35C73.38,55.76,71.82,58.12,69.41,58.61Z" fill="#f7cf64"/><path d="M61.36,51.59C58.94,52.08,56.58,50.53,56.09,48.11L56.09,48.11C55.6,45.7,57.15,43.34,59.57,42.85L68.48,41.13C70.89,40.63,73.25,42.19,73.75,44.6L73.75,44.6C74.24,47.02,72.68,49.38,70.27,49.87Z" fill="#f7cf64"/><path d="M55.55,43.77C53.15,44.26,50.77,42.69,50.28,40.29L50.28,40.29C49.79,37.89,51.36,35.51,53.76,35.02L66.69,32.38C69.09,31.89,71.47,33.46,71.96,35.86L71.96,35.86C72.45,38.26,70.88,40.63,68.48,41.12Z" fill="#f7cf64"/><path d="M53.76,35.03C51.36,35.52,48.99,33.95,48.5,31.55L48.5,31.55C48.01,29.15,49.58,26.77,51.97,26.28L64.91,23.64C67.31,23.15,69.68,24.72,70.17,27.12L70.17,27.12C70.41,28.28,70.18,29.48,69.52,30.47C68.87,31.46,67.85,32.15,66.69,32.38Z" fill="#f7cf64"/><path d="M18.08,58.61C15.66,58.12,14.11,55.76,14.6,53.35L14.6,53.35C15.09,50.93,17.45,49.38,19.87,49.87L24.58,50.98C27,51.47,28.55,53.83,28.06,56.25L28.06,56.25C27.57,58.66,25.21,60.22,22.79,59.72Z" fill="#f3ac24"/><path d="M17.22,49.87C14.8,49.38,13.25,47.02,13.74,44.6L13.74,44.6C14.23,42.19,16.59,40.63,19,41.13L27.92,42.85C30.33,43.34,31.89,45.7,31.39,48.11L31.39,48.11C30.9,50.53,28.54,52.08,26.13,51.59Z" fill="#f3ac24"/><path d="M57.09,21.02C59.81,22.01,61.22,25.02,60.23,27.75C59.24,30.47,56.23,31.88,53.5,30.89L42.68,27.08C42.18,26.9,41.72,26.65,41.31,26.34C43.99,23.66,46.67,20.98,49.35,18.3L57.09,21.02Z" fill="#f7cf64"/><path d="M33.73,35.03C36.12,35.52,37.69,37.89,37.2,40.29L37.2,40.29C36.71,42.69,34.34,44.26,31.94,43.77L19,41.13C17.85,40.89,16.83,40.2,16.18,39.21C15.52,38.23,15.29,37.02,15.53,35.86L15.53,35.86C16.02,33.46,18.39,31.89,20.79,32.38Z" fill="#f3ac24"/><path d="M35.51,26.28C37.91,26.77,39.48,29.15,38.99,31.55L38.99,31.55C38.5,33.95,36.12,35.52,33.73,35.03L20.79,32.38C18.39,31.89,16.82,29.52,17.31,27.12L17.31,27.12C17.8,24.72,20.18,23.15,22.58,23.64Z" fill="#f3ac24"/><path d="M55.94,25.47L46.22,27.5L46.33,22.53L49.98,18.3Z" fill="#f3ac24"/><path d="M34.55,30.01C31.48,30.64,28.48,28.66,27.85,25.59L27.85,25.59C27.23,22.52,29.21,19.52,32.28,18.89L44.4,16.28C47.47,15.65,50.47,17.63,51.1,20.7L51.1,20.7C51.73,23.77,49.75,26.77,46.67,27.4Z" fill="#f3ac24"/><path d="M38.71,29.12C38.71,29.12,34.19,34.81,29.2,28.25C29.2,28.25,31.36,31.7,38.71,29.12Z" fill="#e4a222"/></svg>