<svg xmlns="http://www.w3.org/2000/svg" viewBox="0 0 90 90"><path d="M89.44,75.22C89.44,83.04,83.04,89.44,75.22,89.44L14.78,89.44C6.96,89.44,0.56,83.04,0.56,75.22L0.56,14.78C0.56,6.96,6.96,0.56,14.78,0.56L75.22,0.56C83.04,0.56,89.45,6.96,89.45,14.78L89.45,75.22Z" fill="#a7a6a2"/><path d="M16.27,6.81L73.73,6.81C78.95,6.81,83.2,11.05,83.2,16.27L83.2,73.73C83.2,78.95,78.95,83.19,73.73,83.19L16.27,83.19C11.05,83.19,6.81,78.95,6.81,73.73L6.81,16.27C6.81,11.05,11.05,6.81,16.27,6.81Z" fill="#65625f"/><path d="M62.35,45C62.35,54.58,54.58,62.35,45,62.35C35.42,62.35,27.65,54.58,27.65,45C27.65,35.42,35.42,27.65,45,27.65C54.58,27.65,62.35,35.42,62.35,45Z" fill="#4b4847"/><path d="M16.88,45C16.88,60.53,29.47,73.12,45,73.12C60.53,73.12,73.12,60.53,73.12,45C73.12,29.47,60.53,16.88,45,16.88C29.47,16.88,16.88,29.47,16.88,45ZM22.42,38.12C23.46,34.92,26.42,32.77,29.79,32.77C30.6,32.77,31.41,32.89,32.19,33.15C36.25,34.47,38.48,38.85,37.16,42.92C36.12,46.12,33.16,48.27,29.79,48.27C28.98,48.27,28.17,48.15,27.4,47.89C25.43,47.25,23.82,45.88,22.88,44.04C21.94,42.19,21.78,40.09,22.42,38.12ZM41.87,62.96C40.42,64.96,38.07,66.15,35.59,66.15C33.95,66.15,32.38,65.64,31.04,64.67C29.37,63.46,28.27,61.66,27.94,59.61C27.62,57.57,28.11,55.52,29.33,53.84C30.78,51.84,33.13,50.65,35.6,50.65C37.25,50.65,38.82,51.16,40.16,52.13C41.83,53.35,42.93,55.14,43.26,57.19C43.58,59.23,43.09,61.28,41.87,62.96ZM37.25,29.47C37.25,25.2,40.73,21.72,45,21.72C49.27,21.72,52.75,25.2,52.75,29.47C52.75,33.74,49.27,37.22,45,37.22C40.73,37.22,37.25,33.74,37.25,29.47ZM54.4,66.15C51.93,66.15,49.58,64.96,48.13,62.96C46.91,61.28,46.42,59.23,46.74,57.19C47.07,55.14,48.17,53.35,49.84,52.13C51.18,51.16,52.75,50.65,54.39,50.65C56.87,50.65,59.22,51.84,60.67,53.85C63.18,57.3,62.41,62.16,58.96,64.67C57.62,65.64,56.05,66.15,54.4,66.15ZM62.6,47.89C61.83,48.15,61.02,48.27,60.21,48.27C56.84,48.27,53.88,46.12,52.84,42.92C51.52,38.85,53.75,34.47,57.81,33.15C58.59,32.9,59.4,32.77,60.21,32.77C63.58,32.77,66.54,34.92,67.58,38.13C68.22,40.09,68.06,42.19,67.12,44.04C66.18,45.88,64.57,47.25,62.6,47.89Z" fill="#a7a6a2"/></svg>