<svg xmlns="http://www.w3.org/2000/svg" viewBox="0 0 90 90"><path d="M75.22,89.44L14.78,89.44C6.96,89.44,0.56,83.04,0.56,75.22L0.56,14.78C0.56,6.96,6.96,0.56,14.78,0.56L75.22,0.56C83.04,0.56,89.44,6.96,89.44,14.78L89.44,75.22C89.44,83.04,83.04,89.44,75.22,89.44Z" fill="#0098c8"/><path d="M16.19,6.81L73.64,6.81C78.86,6.81,83.11,11.05,83.11,16.27L83.11,73.73C83.11,78.95,78.86,83.19,73.64,83.19L16.19,83.19C10.97,83.19,6.72,78.95,6.72,73.73L6.72,16.27C6.72,11.05,10.97,6.81,16.19,6.81Z" fill="#7ed3f7"/><path d="M33.03,39.28C30.92,40.41,28.31,39.28,27.7,36.97L24,23.19C23.75,22.23,23.88,21.24,24.38,20.38C24.88,19.53,25.68,18.92,26.63,18.66C26.94,18.58,27.26,18.54,27.58,18.54C29.25,18.54,30.72,19.67,31.15,21.29L34.85,35.08C35.28,36.73,34.53,38.47,33.03,39.28L33.03,39.28Z" fill="#e3183c"/><path d="M43.98,38.11C41.84,38.26,40.01,36.57,40.01,34.42L40.01,18.1C40.01,16.03,41.73,14.35,43.82,14.41C45.84,14.47,47.41,16.17,47.41,18.18L47.41,34.42C47.41,36.36,45.91,37.97,43.98,38.11L43.98,38.11Z" fill="#97bd4d"/><path d="M53.78,40.67C52.25,39.87,51.48,38.12,51.92,36.45L56.06,21.7C56.49,20.08,57.96,18.94,59.63,18.94C59.95,18.94,60.27,18.99,60.58,19.07C62.55,19.59,63.73,21.62,63.21,23.59L59.07,38.34C58.46,40.64,55.88,41.77,53.78,40.67Z" fill="#0098c8"/><path d="M75.6,36.22C75.73,37.2,75.48,38.17,74.88,38.96L70.83,44.11L70.83,52.09C70.83,52.69,70.34,53.18,69.74,53.18C69.14,53.18,68.65,52.69,68.65,52.09L68.65,48.36C68.65,47.76,68.17,47.27,67.57,47.27C66.96,47.27,66.48,47.76,66.48,48.36L66.48,49.11C66.48,49.71,65.99,50.2,65.39,50.2C64.79,50.2,64.3,49.71,64.3,49.11L64.3,48.14C63.72,47.91,63.19,47.53,62.77,47C61.71,45.68,61.69,43.81,62.71,42.46L68.98,34.5C69.68,33.58,70.78,33.03,71.94,33.03C72.09,33.03,72.25,33.04,72.4,33.06C73.04,33.14,73.65,33.39,74.16,33.78C74.95,34.37,75.46,35.24,75.6,36.22Z" fill="#555b88"/><path d="M20.66,45.64L26.55,51.43C27.73,52.64,27.94,54.5,27.06,55.95L27.06,55.95C25.8,58.01,22.93,58.33,21.24,56.59L15.36,50.8C14.67,50.09,14.3,49.16,14.31,48.17C14.32,47.19,14.72,46.26,15.43,45.57C15.89,45.12,16.47,44.8,17.09,44.64C17.24,44.6,17.39,44.57,17.54,44.55C18.69,44.41,19.85,44.81,20.66,45.64Z" fill="#f7cf64"/><path d="M47.41,41.61C56.21,43.49,61.97,48.71,61.94,52.75L61.96,52.76L61.96,57.52C61.96,58.12,61.47,58.61,60.87,58.61C60.27,58.61,59.78,58.12,59.78,57.52L59.78,57.72C59.78,57.12,59.29,56.64,58.69,56.64C58.09,56.64,57.61,57.12,57.61,57.72L57.61,67.77C57.61,68.37,57.12,68.86,56.52,68.86C55.92,68.86,55.43,68.37,55.43,67.77L55.43,64.04C55.43,63.44,54.95,62.95,54.35,62.95C53.75,62.95,53.26,63.44,53.26,64.04L53.26,64.79C53.26,65.39,52.77,65.88,52.17,65.88C51.57,65.88,51.09,65.39,51.09,64.79L51.09,60.62C49.8,60.08,48.48,59.03,47.18,57.29C40.02,48.4,34.32,53.69,32.5,47.7C31.57,43.44,38.99,39.8,47.41,41.6Z" fill="#0098c8"/><path d="M43.71,56.15C49.3,61.28,49.96,67.55,47.22,70.3C45.79,71.73,43.37,71.89,40.66,70.99L40.66,79.91C40.66,80.51,40.18,81,39.58,81C38.98,81,38.49,80.51,38.49,79.91L38.49,72.82C38.49,72.22,38,71.74,37.4,71.74C36.8,71.74,36.32,72.22,36.32,72.82L36.32,74.21C36.32,74.81,35.83,75.29,35.23,75.29C34.63,75.29,34.14,74.81,34.14,74.21L34.14,63.66C34.14,63.06,33.66,62.57,33.06,62.57C32.45,62.57,31.97,63.06,31.97,63.66L31.97,64.14C31.97,64.74,31.48,65.23,30.88,65.23C30.28,65.23,29.79,64.74,29.79,64.14L29.79,58.61L29.8,58.61C29.82,57.32,30.22,56.13,31.13,55.22C33.87,52.48,40.01,52.75,43.71,56.15Z" fill="#f7cf64"/><path d="M56.69,72.32C57.29,72.32,57.77,72.81,57.77,73.41L57.77,74.21C57.77,74.81,57.29,75.29,56.69,75.29C56.09,75.29,55.6,74.81,55.6,74.21L55.6,73.41C55.6,72.81,56.09,72.32,56.69,72.32Z" fill="#0098c8"/><path d="M31.33,69.85C31.93,69.85,32.42,70.33,32.42,70.93L32.42,71.74C32.42,72.34,31.93,72.82,31.33,72.82C30.73,72.82,30.25,72.34,30.25,71.74L30.25,70.93C30.25,70.33,30.73,69.85,31.33,69.85Z" fill="#f7cf64"/></svg>