<svg xmlns="http://www.w3.org/2000/svg" viewBox="0 0 90 90"><path d="M75.22,89.44L14.78,89.44C6.96,89.44,0.56,83.04,0.56,75.22L0.56,14.78C0.56,6.96,6.96,0.56,14.78,0.56L75.22,0.56C83.05,0.56,89.44,6.96,89.44,14.78L89.44,75.22C89.44,83.04,83.05,89.44,75.22,89.44Z" fill="#4e7838"/><path d="M16.27,6.81L73.73,6.81C78.95,6.81,83.19,11.05,83.19,16.27L83.19,73.73C83.19,78.95,78.95,83.19,73.73,83.19L16.27,83.19C11.05,83.19,6.81,78.95,6.81,73.73L6.81,16.27C6.81,11.05,11.05,6.81,16.27,6.81Z" fill="#6c9d41"/><path d="M69.94,22.74C71.48,22.74,72.75,24.01,72.75,25.55L72.75,68.54C72.75,70.08,71.48,71.35,69.94,71.35L24.15,71.35C22.61,71.35,21.34,70.08,21.34,68.54L21.34,25.55C21.34,24.01,22.61,22.74,24.15,22.74Z" fill="#4e7838"/><path d="M67.89,20.69C69.43,20.69,70.7,21.96,70.7,23.5L70.7,66.49C70.7,68.04,69.43,69.3,67.89,69.3L22.11,69.3C20.57,69.3,19.3,68.04,19.3,66.49L19.3,23.5C19.3,21.96,20.57,20.69,22.11,20.69Z" fill="#ededed"/><path d="M36.45,26.38C36.45,28.29,34.9,29.84,32.98,29.84C31.07,29.84,29.52,28.29,29.52,26.38C29.52,24.46,31.07,22.91,32.98,22.91C34.9,22.91,36.45,24.46,36.45,26.38Z" fill="#68923d"/><path d="M60.48,26.38C60.48,28.29,58.93,29.84,57.02,29.84C55.1,29.84,53.55,28.29,53.55,26.38C53.55,24.46,55.1,22.91,57.02,22.91C58.93,22.91,60.48,24.46,60.48,26.38Z" fill="#68923d"/><path d="M32.98,16.26C33.64,16.26,34.28,16.53,34.75,17C35.22,17.46,35.48,18.1,35.48,18.76L35.48,26.38C35.48,27.04,35.22,27.68,34.75,28.15C34.28,28.61,33.64,28.88,32.98,28.88L32.98,28.88C32.32,28.88,31.68,28.61,31.22,28.15C30.75,27.68,30.48,27.04,30.48,26.38L30.48,18.76C30.48,18.1,30.75,17.46,31.22,17C31.68,16.53,32.32,16.26,32.98,16.26Z" fill="#bdbcb8"/><path d="M57.02,16.26C57.68,16.26,58.32,16.53,58.78,17C59.25,17.46,59.52,18.1,59.52,18.76L59.52,26.38C59.52,27.04,59.25,27.68,58.78,28.15C58.32,28.61,57.68,28.88,57.02,28.88L57.02,28.88C55.65,28.88,54.52,27.75,54.52,26.38L54.52,18.76C54.52,17.39,55.65,16.26,57.02,16.26Z" fill="#bdbcb8"/><path d="M51.57,48.19C53.27,49.49,54.25,51.69,54.25,54.23C54.25,55.88,51.14,56.72,45,56.72C38.86,56.72,35.75,55.88,35.75,54.23C35.75,53.53,35.82,52.84,35.97,52.2L35.93,52.18L36.19,51.41C36.2,51.39,36.2,51.36,36.21,51.33L36.26,51.21C36.72,49.97,37.46,48.93,38.43,48.19C41.41,45.92,41.82,43.94,41.87,42.65L41.87,42.61L39.66,42.61L39.42,42.15C39.03,41.44,38.86,40.78,38.86,40.02L38.86,39.56L41.25,37.99C40.52,37.11,40.1,36,40.1,34.84C40.1,32.14,42.3,29.95,45,29.95C45.5,29.95,45.99,30.02,46.46,30.17L46.52,30.14L46.87,30.32C48.71,31.08,49.89,32.85,49.89,34.84C49.89,36,49.48,37.11,48.75,37.99L51.13,39.56L51.13,40.02C51.13,40.78,50.96,41.44,50.58,42.15L50.33,42.61L48.13,42.61C48.17,43.87,48.53,45.88,51.57,48.19Z" fill="#4e7838"/><path d="M44.85,50.32C44.35,52.58,42.15,52.44,40.96,52.44C39.1,52.44,37.9,52.18,36.99,51.74C37.38,50.55,38.05,49.57,38.95,48.88C42.3,46.33,42.69,44.05,42.74,42.65C43.76,42.8,46.26,43.09,45.95,44.74C45.71,46.06,45.31,48.26,44.85,50.32Z" fill="#6c9d41"/><path d="M46.6,41.74L40.18,41.74C39.88,41.19,39.73,40.67,39.73,40.03L42.64,38.11C41.63,37.38,40.97,36.19,40.97,34.84C40.97,32.62,42.77,30.81,45,30.81C45.54,30.81,46.05,30.92,46.52,31.11C46.52,31.11,46.52,31.11,46.52,31.11C47.49,31.85,48.11,33.01,48.11,34.32C48.11,35.95,47.05,37.36,45.3,38.11L46.95,40.02C46.95,40.02,47,40.71,46.61,41.74Z" fill="#6c9d41"/><path d="M42.63,34.56C41.61,34.44,42.59,31.3,44.77,31.63C47.09,31.99,43.7,34.69,42.63,34.56Z" fill="#94bb48"/><path d="M52.71,63.33C52.71,63.33,52.71,60.16,55.78,59.43C56,59.38,56.22,59.53,56.23,59.76C56.3,60.7,56.11,62.95,52.71,63.33Z" fill="#6c9d41"/><path d="M58.93,64.36C59.08,64.53,59.03,64.8,58.83,64.92C54.5,67.36,52.71,63.33,52.71,63.33C56.11,61.63,58.22,63.53,58.93,64.36Z" fill="#6c9d41"/><path d="M57.81,61.96C57.81,61.96,56.45,59.19,58.79,57.1C58.92,56.99,59.11,57.03,59.19,57.17C59.66,58.01,60.78,60.6,57.8,61.96Z" fill="#6c9d41"/><path d="M57.81,61.96C57.81,61.96,59.88,59.32,63.34,59.78C63.52,59.8,63.62,60,63.54,60.16C63.03,61.17,61.2,64.04,57.8,61.96Z" fill="#6c9d41"/><path d="M62.51,57.65L61.52,58.21C61.52,58.21,59.3,56.3,60.21,53.48C60.26,53.34,60.42,53.27,60.55,53.34C61.25,53.68,63.18,54.87,62.51,57.65Z" fill="#6c9d41"/><path d="M65.16,53.36C65.3,53.31,65.46,53.39,65.49,53.53C65.73,54.59,66.27,58.38,61.52,58.21C61.52,58.21,61.75,54.72,65.16,53.36Z" fill="#6c9d41"/><path d="M63.29,47.32C63.41,47.15,63.65,47.13,63.79,47.29C67.04,51.11,62.86,53.11,62.86,53.11C61.79,50.09,62.8,48.06,63.29,47.32Z" fill="#6c9d41"/><path d="M59.66,49.47C59.67,49.29,59.82,49.16,59.99,49.17C64.34,49.5,62.86,53.11,62.86,53.11C59.86,52.21,59.63,50.24,59.66,49.47Z" fill="#6c9d41"/><path d="M37.29,63.33C33.89,62.95,33.7,60.7,33.77,59.76C33.78,59.53,34,59.38,34.22,59.43C37.29,60.16,37.29,63.33,37.29,63.33Z" fill="#6c9d41"/><path d="M37.29,63.33C37.29,63.33,35.5,67.36,31.17,64.92C30.97,64.8,30.92,64.53,31.07,64.36C31.78,63.53,33.89,61.63,37.29,63.33Z" fill="#6c9d41"/><path d="M32.2,61.96C29.22,60.6,30.34,58.01,30.81,57.17C30.89,57.03,31.08,56.99,31.21,57.1C33.55,59.19,32.19,61.96,32.19,61.96Z" fill="#6c9d41"/><path d="M32.2,61.96C28.8,64.04,26.97,61.17,26.46,60.16C26.38,60,26.48,59.8,26.66,59.78C30.12,59.32,32.19,61.96,32.19,61.96Z" fill="#6c9d41"/><path d="M27.49,57.65C26.82,54.87,28.75,53.68,29.45,53.34C29.58,53.27,29.74,53.34,29.79,53.48C30.7,56.3,28.48,58.21,28.48,58.21L27.49,57.65Z" fill="#6c9d41"/><path d="M28.48,58.21C23.73,58.38,24.27,54.59,24.51,53.53C24.54,53.39,24.7,53.31,24.84,53.36C28.25,54.72,28.48,58.21,28.48,58.21Z" fill="#6c9d41"/><path d="M26.71,47.32C27.2,48.06,28.2,50.09,27.13,53.11C27.13,53.11,22.96,51.11,26.21,47.29C26.35,47.13,26.59,47.15,26.71,47.32Z" fill="#6c9d41"/><path d="M30.34,49.47C30.37,50.24,30.14,52.21,27.14,53.11C27.14,53.11,25.66,49.5,30.01,49.17C30.18,49.16,30.33,49.29,30.34,49.47Z" fill="#6c9d41"/></svg>