<svg xmlns="http://www.w3.org/2000/svg" viewBox="0 0 90 90"><path d="M89.44,75.22C89.44,83.04,83.04,89.44,75.22,89.44L14.78,89.44C6.96,89.44,0.56,83.04,0.56,75.22L0.56,14.78C0.56,6.96,6.96,0.56,14.78,0.56L75.22,0.56C83.04,0.56,89.44,6.96,89.44,14.78L89.44,75.22Z" fill="#65625f"/><path d="M16.24,6.81L73.7,6.81C78.92,6.81,83.16,11.05,83.16,16.27L83.16,73.73C83.16,78.95,78.92,83.19,73.7,83.19L16.24,83.19C11.02,83.19,6.77,78.95,6.77,73.73L6.77,16.27C6.77,11.05,11.02,6.81,16.24,6.81Z" fill="#7ed3f7"/><path d="M77.27,7.53C80.69,8.96,83.1,12.34,83.1,16.27L83.1,73.73C83.1,78.95,78.86,83.19,73.64,83.19L16.18,83.19C12.25,83.19,8.87,80.78,7.44,77.36C9.61,75.19,11.78,73.02,13.96,70.85L77.27,7.53Z" fill="#69c1e6"/><path d="M76.7,53.73L72.55,53.73L72.55,38L76.7,38Z" fill="#f7cf64"/><path d="M75.96,55.13L73.47,55.13L73.47,39.4L75.96,39.4Z" fill="#f7cf64"/><path d="M35.35,6.81L54.65,6.81L49.67,41.32L49.67,48.91L40.33,48.91L40.33,41.32Z" fill="#333130"/><path d="M73.37,63.61L80.28,63.61L80.28,70.52L73.37,70.52Z" fill="#f3ac24"/><path d="M91.38,58.88L91.49,91.11L79.96,77.1L77.77,73.81L76.43,65.04L81.4,50.2Z" fill="#f7cf64"/><path d="M77.69,47.66L77.69,54.46L48.72,54.46C46.9,54.46,45.43,52.99,45.43,51.18L45.43,50.94C45.43,49.13,46.9,47.65,48.72,47.65L77.69,47.65L77.69,47.65Z" fill="#f3ac24"/><path d="M81.77,54.46L81.77,61.27L61.56,61.27L61.56,54.46Z" fill="#f3ac24"/><path d="M81.77,61.27L81.77,68.08L61.56,68.08L61.56,61.27Z" fill="#f3ac24"/><path d="M68.79,64.68C68.79,66.56,67.26,68.08,65.38,68.08L60.71,68.08C59.17,68.08,57.92,66.83,57.92,65.29L57.92,64.07C57.92,62.52,59.17,61.27,60.71,61.27L65.38,61.27C67.26,61.27,68.79,62.8,68.79,64.68Z" fill="#f7cf64"/><path d="M71.24,54.46C73.12,54.46,74.64,55.99,74.64,57.87L74.64,57.87C74.64,59.75,73.12,61.27,71.24,61.27L53.85,61.27C51.97,61.27,50.45,59.75,50.45,57.87C50.45,55.99,51.97,54.46,53.85,54.46Z" fill="#f3ac24"/><path d="M52.66,54.72L74.58,54.72C73.47,55.7,72.01,56.32,70.37,56.32L50.82,56.32C51.01,55.91,51.61,55,52.66,54.72Z" fill="#b6811b"/><path d="M68.12,32.66C71.07,32.66,73.63,34.69,74.29,37.56L76.52,47.16C77.45,51.14,74.43,54.94,70.35,54.94L19.66,54.94C15.57,54.94,12.55,51.14,13.48,47.16L15.71,37.56C16.37,34.69,18.94,32.66,21.89,32.66L68.11,32.66Z" fill="#65625f"/><path d="M15.78,51.67C14.84,50.48,14.5,48.95,14.84,47.48L17.07,37.88C17.59,35.63,19.57,34.06,21.88,34.06L68.11,34.06C70.43,34.06,72.41,35.63,72.93,37.88L75.16,47.48C75.5,48.95,75.16,50.48,74.21,51.67C73.27,52.86,71.86,53.54,70.34,53.54L19.66,53.54C18.14,53.54,16.73,52.86,15.78,51.67Z" fill="#cbedfc"/><path d="M76.76,38C80.39,38,83.34,40.95,83.35,44.58L76.7,44.58L76.7,38C76.72,38,76.74,38,76.76,38Z" fill="#f7cf64"/><path d="M79.96,77.1C76.33,77.1,73.38,74.15,73.37,70.52L80.02,70.52L80.02,77.1C80,77.1,79.98,77.1,79.96,77.1Z" fill="#f3ac24"/><path d="M91.38,58.88L80.3,71.28C79.11,70.43,77.7,69.86,76.35,69.4C76.3,69.39,76.26,69.37,76.21,69.36C76.11,69.32,76.01,69.28,75.9,69.24L75.9,45.98L82.18,43.8Z" fill="#f7cf64"/><path d="M91.38,58.88L91.49,77.42C90.31,76.57,78.49,68.46,77.15,68C77.1,67.99,77.06,67.97,77.01,67.96C76.91,67.92,76.8,67.88,76.7,67.84L76.7,44.58L82.97,42.4Z" fill="#f7cf64"/><path d="M68.78,64.68C68.78,66.56,67.26,68.08,65.38,68.08L64.8,68.08C62.92,68.08,61.4,66.56,61.4,64.68L61.4,64.68C61.4,62.8,62.92,61.27,64.8,61.27L65.38,61.27C67.26,61.27,68.78,62.8,68.78,64.68Z" fill="#f7cf64"/><path d="M78.18,44.52C78.45,45.11,78.32,45.81,77.86,46.27C77.4,46.73,76.93,47.19,76.47,47.66C76.48,47.15,76.42,46.63,76.3,46.1L74.66,39.05C75.55,39.4,76.29,40.1,76.66,41.03C76.86,41.53,77.05,42.04,77.28,42.53L78.18,44.52Z" fill="#f3ac24"/><path d="M73.78,39.14L79.93,52.78L70.53,55.5L68.01,45.29C67.98,45.17,67.95,45.06,67.94,44.94L66.92,40.84C66.45,38.94,67.61,37.03,69.5,36.56L69.5,36.56C71.4,36.09,72.98,37.39,73.78,39.14Z" fill="#f7cf64"/><path d="M80.28,71.8C80.25,71.8,80.22,71.8,80.19,71.8C74.79,71.8,70.41,67.42,70.4,62.02L80.28,62.02L80.28,71.8Z" fill="#f7cf64"/><path d="M70.4,48.43L80.28,48.43L80.28,62.02L70.4,62.02Z" fill="#f7cf64"/><path d="M45.45,34.06L50.79,34.03L31.27,53.54L25.97,53.54Z" fill="#e0f4fd"/><path d="M54.95,34.06L60.29,34.03L40.77,53.54L35.46,53.54Z" fill="#e0f4fd"/><path d="M41.12,54.94L48.88,54.94L48.88,56.66L41.12,56.66Z" fill="#333130"/></svg>