<svg xmlns="http://www.w3.org/2000/svg" viewBox="0 0 90 90"><path d="M75.22,89.44L14.78,89.44C6.96,89.44,0.56,83.04,0.56,75.22L0.56,14.78C0.56,6.96,6.96,0.56,14.78,0.56L75.22,0.56C83.05,0.56,89.44,6.96,89.44,14.78L89.44,75.22C89.44,83.04,83.04,89.44,75.22,89.44Z" fill="#5b3a34"/><path d="M16.27,6.81L73.73,6.81C78.95,6.81,83.2,11.05,83.2,16.27L83.2,73.73C83.2,78.95,78.95,83.19,73.73,83.19L16.27,83.19C11.05,83.19,6.81,78.95,6.81,73.73L6.81,16.27C6.81,11.05,11.05,6.81,16.27,6.81Z" fill="#e0c170"/><path d="M69.47,45C69.47,58.52,58.52,69.47,45,69.47C31.48,69.47,20.53,58.52,20.53,45C20.53,31.48,31.48,20.53,45,20.53C58.52,20.53,69.47,31.48,69.47,45Z" fill="#0098c8"/><path d="M47.4,43.86L80.38,76.84L76.35,80.88L43.36,47.89Z" fill="#0098c8"/><path d="M67.89,61.79L86.47,80.37L79.87,86.97L61.29,68.39Z" fill="#5b3a34"/><path d="M62.3,62.31C52.75,71.86,37.25,71.86,27.69,62.31L62.3,27.7C71.86,37.25,71.86,52.75,62.3,62.31Z" fill="#33add3"/><path d="M63.23,45C63.23,55.07,55.07,63.23,45,63.23C34.93,63.23,26.77,55.07,26.77,45C26.77,34.93,34.93,26.76,45,26.76C55.07,26.76,63.23,34.93,63.23,45Z" fill="#c9e7e6"/><path d="M57.06,31.22C60.91,34.56,63.35,39.49,63.35,45C63.35,55.07,55.19,63.23,45.12,63.23C39.61,63.23,34.68,60.79,31.34,56.94C34.54,59.71,38.71,61.39,43.28,61.39C53.35,61.39,61.51,53.23,61.51,43.16C61.51,38.59,59.83,34.42,57.06,31.22Z" fill="#a8ccce"/><path d="M59.68,50.51C59.68,56.51,55.78,61.38,50.96,61.38C46.14,61.38,42.24,56.51,42.24,50.51C42.24,44.51,46.14,39.64,50.96,39.64C55.78,39.64,59.68,44.51,59.68,50.51Z" fill="#5b3a34"/><path d="M33.64,42.99C33.47,42.99,33.3,42.96,33.14,42.9C32.34,42.63,31.92,41.76,32.2,40.96C33.09,38.42,34.66,36.17,36.74,34.46C38.87,32.7,41.46,31.58,44.22,31.24C45.06,31.13,45.82,31.72,45.93,32.56C46.03,33.39,45.44,34.16,44.61,34.26C40.2,34.82,36.55,37.77,35.08,41.97C34.86,42.6,34.27,42.99,33.64,42.99Z" fill="#fff"/><path d="M31.5,47.62C31.44,47.13,31.4,46.66,31.39,46.21C31.37,45.37,32.04,44.67,32.88,44.65C33.72,44.63,34.42,45.29,34.44,46.13C34.45,46.48,34.48,46.85,34.53,47.24C34.63,48.07,34.04,48.83,33.21,48.94C33.14,48.95,33.08,48.95,33.01,48.95C32.26,48.95,31.6,48.39,31.5,47.62Z" fill="#fff"/><path d="M50.1,44.98C50.1,47.79,47.83,50.06,45.02,50.06C42.21,50.06,39.93,47.79,39.93,44.98C39.93,42.17,42.21,39.89,45.02,39.89C47.83,39.89,50.1,42.17,50.1,44.98Z" fill="#c9e7e6"/></svg>