<svg xmlns="http://www.w3.org/2000/svg" viewBox="0 0 90 90"><path d="M0.55,75.22L0.55,14.78C0.55,6.96,6.95,0.56,14.77,0.56L75.21,0.56C83.04,0.56,89.44,6.95,89.44,14.78L89.44,75.22C89.81,82.6,83.36,89.07,75.21,89.45L14.77,89.45C6.95,89.45,0.55,83.04,0.55,75.22Z" fill="#41769e"/><path d="M73.72,6.81C78.94,6.81,83.19,11.05,83.19,16.27L83.19,73.73C83.19,78.95,78.94,83.19,73.72,83.19L16.26,83.19C11.04,83.19,6.8,78.95,6.8,73.73L6.8,16.27C6.8,11.05,11.04,6.81,16.26,6.81L73.72,6.81Z" fill="#7eacc7"/><path d="M44.99,2.17L71.87,22.47L44.99,42.77L18.11,22.47Z" fill="#7eacc7"/><path d="M44.99,4.65L71.87,24.95L44.99,45.25L18.11,24.95Z" fill="#5c8cb1"/><path d="M58.77,32.9C54.29,32.9,51.33,34.21,49.7,35.23L48.58,30.3L53.07,30.3L53.07,23.37L48.46,23.37L48.46,18.75L41.53,18.75L41.53,23.37L36.91,23.37L36.91,30.3L41.41,30.3L40.28,35.23C38.66,34.21,35.69,32.9,31.22,32.9C27.76,32.9,24.61,34.16,22.37,36.46C20.11,38.78,18.87,42.04,18.87,45.64C18.87,50.88,22.21,54.21,25.44,57.43C27.43,59.41,29.47,61.46,30.8,63.97C25.44,65.33,25.45,68.96,25.46,73.12L25.46,73.74C25.46,73.74,25.46,74.51,25.46,74.51L64.53,74.51L64.53,73.12C64.54,68.96,64.55,65.33,59.18,63.97C60.51,61.46,62.56,59.41,64.55,57.43C67.78,54.21,71.12,50.88,71.12,45.64C71.12,42.04,69.88,38.78,67.62,36.46C65.37,34.16,62.23,32.9,58.77,32.9ZM53.22,54.77C51.99,54.69,51.23,54.63,50.19,54.58L50.19,45C50.19,45,53.26,42.8,55.74,42.8C55.74,42.8,60.25,42.96,59.67,47C59.32,49.47,55.67,51.65,53.22,54.77ZM39.82,45L39.82,54.58C38.78,54.63,38.03,54.69,36.8,54.77C34.35,51.65,30.7,49.47,30.34,47C29.77,42.96,34.27,42.8,34.27,42.8C36.75,42.8,39.82,45,39.82,45Z" fill="#b9d0e1"/><path d="M57.32,28.59L57.32,11.11L58.88,12.36L58.88,28.59Z" fill="#41769e"/><path d="M57.33,30.5L57.33,24.09L58.87,24.09L59.83,30.5Z" fill="#41769e"/><path d="M56.37,30.5L57.33,24.09L58.87,24.09L58.87,30.5Z" fill="#41769e"/><path d="M59.7,24.03C59.7,24.92,58.97,25.64,58.08,25.64C57.19,25.64,56.47,24.92,56.47,24.03C56.47,23.14,57.19,22.41,58.08,22.41C58.97,22.41,59.7,23.14,59.7,24.03Z" fill="#41769e"/></svg>