<svg xmlns="http://www.w3.org/2000/svg" viewBox="0 0 90 90"><path d="M89.44,75.22C89.44,83.04,83.04,89.44,75.22,89.44L14.78,89.44C6.96,89.44,0.56,83.04,0.56,75.22L0.56,14.78C0.56,6.96,6.96,0.56,14.78,0.56L75.22,0.56C83.05,0.56,89.45,6.96,89.45,14.78L89.45,75.22Z" fill="#7ed3f7"/><path d="M16.27,6.81L73.73,6.81C78.95,6.81,83.19,11.05,83.19,16.27L83.19,73.73C83.19,78.95,78.95,83.19,73.73,83.19L16.27,83.19C11.05,83.19,6.81,78.95,6.81,73.73L6.81,16.27C6.81,11.05,11.05,6.81,16.27,6.81Z" fill="#0d5887"/><path d="M13.47,17.49L46.69,17.49L46.69,43.46L13.47,43.46Z" fill="#e0e0e0"/><path d="M13.47,22.31L13.47,17.49L46.69,17.49L46.51,23.43L30.08,35.17Z" fill="#ededed"/><path d="M43.31,48.77L76.53,48.77L76.53,74.74L43.31,74.74Z" fill="#e0e0e0"/><path d="M43.31,53.59L43.31,48.77L76.53,48.77L76.35,54.7L59.92,66.44Z" fill="#ededed"/><path d="M51.98,27.63L51.98,22.74C58.71,22.74,64.92,26.4,68.19,32.29L63.92,34.66C61.51,30.32,56.93,27.63,51.98,27.63Z" fill="#97bd4d"/><path d="M59.91,33.6L70.63,30.38L68.07,41.28Z" fill="#97bd4d"/><path d="M21.81,59.94L26.08,57.57C28.49,61.91,33.07,64.6,38.02,64.6L38.02,69.49C31.29,69.49,25.08,65.83,21.81,59.94Z" fill="#7ed3f7"/><path d="M30.09,58.63L19.37,61.85L21.93,50.95Z" fill="#7ed3f7"/></svg>