<svg xmlns="http://www.w3.org/2000/svg" viewBox="0 0 90 90"><path d="M75.22,89.44L14.78,89.44C6.96,89.44,0.56,83.04,0.56,75.22L0.56,14.78C0.56,6.96,6.96,0.56,14.78,0.56L75.22,0.56C83.04,0.56,89.44,6.96,89.44,14.78L89.44,75.22C89.44,83.04,83.05,89.44,75.22,89.44Z" fill="#ee4552"/><path d="M16.27,6.81L73.73,6.81C78.95,6.81,83.19,11.05,83.19,16.27L83.19,73.73C83.19,78.95,78.95,83.19,73.73,83.19L16.27,83.19C11.05,83.19,6.81,78.95,6.81,73.73L6.81,16.27C6.81,11.05,11.05,6.81,16.27,6.81Z" fill="#a7a6a2"/><path d="M67.29,77.99L22.24,77.99C22.18,77.6,22.14,77.18,22.14,76.75L22.14,68.83C22.14,61.31,32.27,55.21,44.77,55.21L44.77,55.21C57.26,55.21,67.4,61.31,67.4,68.83L67.4,76.75C67.4,77.18,67.36,77.6,67.29,77.99Z" fill="#312e2b"/><path d="M51.43,52.95L51.43,54.56C51.43,54.78,51.42,54.99,51.4,55.21C51.42,55.42,51.43,55.64,51.43,55.86L51.43,57.47C51.43,61.15,48.45,64.13,44.77,64.13L44.77,64.13C41.09,64.13,38.1,61.15,38.1,57.47L38.1,55.86C38.1,55.64,38.11,55.42,38.14,55.21C38.11,54.99,38.1,54.78,38.1,54.56L38.1,52.95C38.1,49.27,41.09,46.28,44.77,46.28L44.77,46.28C48.45,46.28,51.43,49.27,51.43,52.95Z" fill="#f3ac24"/><path d="M44.77,22.18C53.09,22.18,59.93,29.03,59.93,37.35L59.93,41.01C59.93,49.33,53.09,56.18,44.77,56.18L44.77,56.18C36.45,56.18,29.6,49.33,29.6,41.01L29.6,37.35C29.6,29.03,36.45,22.18,44.77,22.18Z" fill="#f7cf64"/><path d="M27.91,17.84L61.63,17.84L61.63,31.12L27.91,31.12Z" fill="#312e2b"/><path d="M53.78,24.44C56.1,24.44,57.98,26.32,57.98,28.64L57.98,37.8L31.55,37.8L31.55,28.64C31.55,26.32,33.43,24.44,35.75,24.44Z" fill="#f7cf64"/><path d="M53.78,21.92C56.1,21.92,57.98,23.8,57.98,26.12L57.98,35.28L31.55,35.28L31.55,26.12C31.55,23.8,33.43,21.92,35.75,21.92Z" fill="#f7cf64"/><path d="M24.14,41.23C24.14,38.93,26.03,37.04,28.33,37.04L32.23,37.04C34.52,37.04,36.42,38.93,36.42,41.23L36.42,41.23C36.42,43.52,34.52,45.41,32.23,45.41L28.33,45.41C26.03,45.41,24.14,43.52,24.14,41.23Z" fill="#f7cf64"/><path d="M53.12,41.23C53.12,40.12,53.56,39.05,54.35,38.26C55.13,37.48,56.2,37.04,57.31,37.04L61.21,37.04C62.32,37.04,63.38,37.48,64.17,38.26C64.96,39.05,65.4,40.12,65.4,41.23L65.4,41.23C65.4,42.34,64.96,43.4,64.17,44.19C63.38,44.97,62.32,45.41,61.21,45.41L57.31,45.41C56.2,45.41,55.13,44.97,54.35,44.19C53.56,43.4,53.12,42.34,53.12,41.23Z" fill="#f7cf64"/><path d="M27.91,20.22L31.58,20.22L31.58,38.34L27.91,38.34Z" fill="#312e2b"/><path d="M57.96,20.22L61.63,20.22L61.63,38.34L57.96,38.34Z" fill="#312e2b"/><path d="M67.86,21.56L30.81,21.56C34.93,15.78,41.69,12.01,49.34,12.01C56.98,12.01,63.74,15.78,67.86,21.56Z" fill="#312e2b"/><path d="M67.86,21.56C63.74,27.35,56.98,31.12,49.34,31.12C41.69,31.12,34.93,27.35,30.81,21.56L67.86,21.56Z" fill="#312e2b"/><path d="M86.54,71.1C86.54,79.99,79.33,87.19,70.44,87.19C61.55,87.19,54.35,79.99,54.35,71.1C54.35,62.21,61.55,55,70.44,55C79.33,55,86.54,62.21,86.54,71.1Z" fill="#ee4552"/></svg>