<svg xmlns="http://www.w3.org/2000/svg" viewBox="0 0 90 90"><path d="M89.44,75.22C89.44,83.04,83.04,89.45,75.22,89.45L14.78,89.45C6.96,89.45,0.56,83.04,0.56,75.22L0.56,14.78C0.56,6.96,6.96,0.56,14.78,0.56L75.22,0.56C83.04,0.56,89.44,6.96,89.44,14.78L89.44,75.22Z" fill="#585858"/><path d="M16.27,6.81L73.73,6.81C78.95,6.81,83.2,11.05,83.2,16.27L83.2,73.73C83.2,78.95,78.95,83.19,73.73,83.19L16.27,83.19C11.05,83.19,6.81,78.95,6.81,73.73L6.81,16.27C6.81,11.05,11.05,6.81,16.27,6.81Z" fill="#afafaf"/><path d="M53.33,33.77C53.41,34,53.62,34.15,53.86,34.15L78.32,34.4C78.86,34.41,79.08,35.09,78.65,35.42L59.01,49.99C58.81,50.14,58.73,50.39,58.8,50.62L66.13,73.96C66.29,74.47,65.7,74.9,65.26,74.58L45.33,60.41C45.13,60.27,44.87,60.27,44.67,60.41L24.74,74.58C24.3,74.9,23.71,74.47,23.87,73.96L31.2,50.62C31.27,50.39,31.19,50.14,30.99,49.99L11.35,35.42C10.92,35.09,11.14,34.4,11.68,34.4L36.14,34.15C36.38,34.15,36.59,34,36.67,33.77L44.47,10.58C44.64,10.07,45.36,10.07,45.53,10.58Z" fill="#fff"/><path d="M78.32,34.4C78.86,34.41,79.08,35.1,78.65,35.42L59.01,50C58.81,50.14,58.73,50.39,58.8,50.62L66.13,73.96C66.29,74.47,65.7,74.9,65.26,74.59L45.33,60.41C45.13,60.27,44.87,60.27,44.67,60.41L24.74,74.59C24.3,74.9,23.71,74.47,23.87,73.96L28.14,60.37C42.22,57.77,51.76,47.48,54.35,34.16L78.32,34.4Z" fill="#f2f2f2"/></svg>