<svg xmlns="http://www.w3.org/2000/svg" viewBox="0 0 90 90"><path d="M89.44,75.22C89.44,83.04,83.05,89.44,75.22,89.44L14.78,89.44C6.96,89.44,0.56,83.04,0.56,75.22L0.56,14.78C0.56,6.96,6.96,0.56,14.78,0.56L75.22,0.56C83.05,0.56,89.44,6.96,89.44,14.78L89.44,75.22Z" fill="#e3183c"/><path d="M16.27,6.81L73.73,6.81C78.95,6.81,83.19,11.05,83.19,16.27L83.19,73.73C83.19,78.95,78.95,83.19,73.73,83.19L16.27,83.19C11.05,83.19,6.81,78.95,6.81,73.73L6.81,16.27C6.81,11.05,11.05,6.81,16.27,6.81Z" fill="#f48c8d"/><path d="M51.41,79.48L41.09,56.74L57.74,49.18L68.06,71.92L58.37,72.69Z" fill="#e3183c"/><path d="M31.63,72.69L21.94,71.92L32.26,49.18L48.91,56.74L38.59,79.48Z" fill="#e3183c"/><path d="M65.75,46.11C65.75,57.57,56.46,66.86,45,66.86C33.54,66.86,24.25,57.57,24.25,46.11C24.25,34.65,33.54,25.36,45,25.36C56.46,25.36,65.75,34.65,65.75,46.11Z" fill="#f7cf64"/><path d="M61.64,46.11C61.64,55.3,54.19,62.75,45,62.75C35.81,62.75,28.36,55.3,28.36,46.11C28.36,36.92,35.81,29.47,45,29.47C54.19,29.47,61.64,36.92,61.64,46.11Z" fill="#f3ac24"/><path d="M49.49,39.69C49.49,42.18,47.47,44.2,44.98,44.2C42.48,44.2,40.46,42.18,40.46,39.69C40.46,37.19,42.48,35.17,44.98,35.17C47.47,35.17,49.49,37.19,49.49,39.69Z" fill="#f7cf64"/><path d="M40.32,43.43L49.63,43.43L49.63,45.89L40.32,45.89Z" fill="#f7cf64"/><path d="M40.01,50.31L49.94,50.31L49.94,52.93L40.01,52.93Z" fill="#f7cf64"/><path d="M38.62,51.62L51.33,51.62C52.16,51.62,52.83,52.29,52.83,53.11L52.83,54.88L37.12,54.88L37.12,53.11C37.12,52.29,37.79,51.62,38.62,51.62Z" fill="#f7cf64"/><path d="M41.66,44.66L48.29,44.66L48.29,53.8L41.66,53.8Z" fill="#f7cf64"/><path d="M43.33,12.41L46.67,12.41L46.67,19.67L43.33,19.67Z" fill="#f7cf64"/><path d="M21.7,22.76L23.88,20.24L29.38,24.99L27.2,27.51Z" fill="#f7cf64"/><path d="M60.62,24.98L66.12,20.24L68.3,22.76L62.8,27.5Z" fill="#f7cf64"/></svg>