<svg xmlns="http://www.w3.org/2000/svg" viewBox="0 0 90 90"><path d="M89.44,75.22C89.44,83.04,83.04,89.44,75.22,89.44L14.78,89.44C6.96,89.44,0.56,83.04,0.56,75.22L0.56,14.78C0.56,6.96,6.96,0.56,14.78,0.56L75.22,0.56C83.04,0.56,89.44,6.96,89.44,14.78L89.44,75.22Z" fill="#009187"/><path d="M16.27,6.81L73.73,6.81C78.95,6.81,83.19,11.05,83.19,16.27L83.19,73.73C83.19,78.95,78.95,83.19,73.73,83.19L16.27,83.19C11.05,83.19,6.8,78.95,6.8,73.73L6.8,16.27C6.8,11.05,11.05,6.81,16.27,6.81Z" fill="#555b88"/><path d="M34.67,15.58C39.41,15.58,43.3,19.25,43.67,23.9L43.7,23.9L43.7,64.57L43.68,64.57C43.69,64.75,43.7,64.93,43.7,65.11C43.7,70.25,39.36,74.42,34.4,74.42C29.44,74.42,25.39,70.53,25.11,65.64C20.08,63.65,16.52,58.74,16.52,53C16.52,50.12,17.42,47.45,18.95,45.25C17.42,43.05,16.52,40.37,16.52,37.49C16.52,31.55,19.96,26.23,25.26,24.38C25.26,24.36,25.26,24.35,25.26,24.34C25.26,19.35,29.68,15.58,34.67,15.58Z" fill="#78c2c1"/><path d="M55.33,15.58C60.32,15.58,64.74,19.35,64.74,24.34C64.74,24.35,64.74,24.36,64.74,24.38C70.04,26.23,73.47,31.55,73.47,37.49C73.47,40.37,72.58,43.05,71.04,45.25C72.58,47.45,73.47,50.12,73.47,53C73.47,58.74,69.91,63.65,64.88,65.64C64.61,70.53,60.56,74.42,55.6,74.42C50.46,74.42,46.3,70.25,46.3,65.11C46.3,64.93,46.3,64.75,46.31,64.57L46.3,64.57L46.3,23.9L46.33,23.9C46.69,19.25,50.58,15.58,55.33,15.58Z" fill="#78c2c1"/><path d="M57.48,45C57.48,45.96,56.71,46.74,55.75,46.74C54.79,46.74,54.01,45.96,54.01,45C54.01,44.04,54.79,43.26,55.75,43.26C56.71,43.26,57.48,44.04,57.48,45Z" fill="#555b88"/><path d="M53.18,45C53.18,43.58,54.33,42.43,55.75,42.43C57.16,42.43,58.32,43.58,58.32,45C58.32,46.42,57.16,47.57,55.75,47.57C54.33,47.57,53.18,46.42,53.18,45ZM54.85,45C54.85,45.5,55.25,45.9,55.75,45.9C56.25,45.9,56.65,45.5,56.65,45C56.65,44.5,56.25,44.1,55.75,44.1C55.25,44.1,54.85,44.5,54.85,45Z" fill="#555b88"/><path d="M57.48,44.17L74.03,44.17L74.03,45.83L57.48,45.83Z" fill="#555b88"/><path d="M59.94,60.85C59.94,59.44,61.09,58.28,62.51,58.28C63.93,58.28,65.08,59.44,65.08,60.85C65.08,62.27,63.93,63.42,62.51,63.42C61.09,63.42,59.94,62.27,59.94,60.85ZM61.61,60.85C61.61,61.35,62.01,61.76,62.51,61.76C63.01,61.76,63.41,61.35,63.41,60.85C63.41,60.36,63.01,59.95,62.51,59.95C62.01,59.95,61.61,60.36,61.61,60.85Z" fill="#555b88"/><path d="M45.76,60.02L60.78,60.02L60.78,61.69L45.76,61.69Z" fill="#555b88"/><path d="M57.38,67.26C57.38,68.22,56.6,69,55.64,69C54.69,69,53.91,68.22,53.91,67.26C53.91,66.3,54.69,65.53,55.64,65.53C56.6,65.53,57.38,66.3,57.38,67.26Z" fill="#555b88"/><path d="M55.65,69.83C55.49,69.83,55.33,69.82,55.18,69.79C54.5,69.66,53.92,69.28,53.53,68.72C52.73,67.55,53.02,65.95,54.19,65.15C55.36,64.34,56.96,64.64,57.76,65.81C58.56,66.97,58.27,68.58,57.1,69.38C56.67,69.68,56.16,69.83,55.65,69.83ZM55.13,66.52C54.93,66.66,54.8,66.86,54.76,67.1C54.71,67.33,54.76,67.57,54.9,67.77C55.18,68.18,55.75,68.29,56.16,68.01C56.57,67.72,56.67,67.16,56.39,66.75C56.21,66.5,55.93,66.36,55.64,66.36C55.47,66.36,55.29,66.41,55.13,66.52Z" fill="#555b88"/><path d="M50.42,61.13L51.79,60.18L55.35,65.35L53.98,66.3Z" fill="#555b88"/><path d="M52.06,25.67C51.4,25.67,50.74,25.42,50.24,24.92L50.24,24.92C49.24,23.92,49.24,22.29,50.24,21.29C51.24,20.29,52.87,20.29,53.87,21.29C54.87,22.29,54.87,23.92,53.87,24.92C53.37,25.42,52.71,25.67,52.05,25.67ZM52.69,23.74C53.05,23.39,53.05,22.82,52.69,22.47C52.34,22.11,51.77,22.11,51.42,22.47C51.07,22.82,51.07,23.39,51.42,23.74L51.42,23.74C51.77,24.09,52.34,24.09,52.69,23.74Z" fill="#555b88"/><path d="M44.85,29.13L50.24,23.74L51.42,24.92L46.03,30.31Z" fill="#555b88"/><path d="M48.26,53.74C48.26,52.32,49.41,51.17,50.83,51.17C52.25,51.17,53.4,52.32,53.4,53.74C53.4,55.16,52.25,56.31,50.83,56.31C49.41,56.31,48.26,55.16,48.26,53.74ZM49.93,53.74C49.93,54.24,50.33,54.64,50.83,54.64C51.33,54.64,51.73,54.24,51.73,53.74C51.73,53.24,51.33,52.84,50.83,52.84C50.33,52.84,49.93,53.24,49.93,53.74Z" fill="#555b88"/><path d="M52.56,54.58L52.56,52.91L65.87,52.91L69.49,44.66L71.02,45.34L66.95,54.58Z" fill="#555b88"/><path d="M58.17,30.14C58.17,31.1,57.39,31.87,56.44,31.87C55.48,31.87,54.7,31.1,54.7,30.14C54.7,29.18,55.48,28.4,56.44,28.4C57.39,28.4,58.17,29.18,58.17,30.14Z" fill="#555b88"/><path d="M53.87,30.14C53.87,28.72,55.02,27.57,56.44,27.57C57.85,27.57,59,28.72,59,30.14C59,31.56,57.85,32.71,56.44,32.71C55.02,32.71,53.87,31.56,53.87,30.14ZM55.53,30.14C55.53,30.64,55.94,31.04,56.44,31.04C56.93,31.04,57.34,30.64,57.34,30.14C57.34,29.64,56.93,29.24,56.44,29.24C55.94,29.24,55.53,29.64,55.53,30.14Z" fill="#555b88"/><path d="M58.17,30.97L58.17,29.31L61.37,29.31L64.99,21.06L66.52,21.73L62.46,30.97Z" fill="#555b88"/><path d="M60.86,37.02C60.86,35.61,62.01,34.45,63.43,34.45C64.85,34.45,66,35.61,66,37.02C66,38.44,64.85,39.59,63.43,39.59C62.01,39.59,60.86,38.44,60.86,37.02ZM62.53,37.02C62.53,37.52,62.93,37.93,63.43,37.93C63.93,37.93,64.33,37.52,64.33,37.02C64.33,36.53,63.93,36.12,63.43,36.12C62.93,36.12,62.53,36.53,62.53,37.02Z" fill="#555b88"/><path d="M45.44,46.6L45.44,44.93L48.36,44.93L52.21,36.19L61.7,36.19L61.7,37.86L53.29,37.86L49.45,46.6Z" fill="#555b88"/><path d="M35.99,45C35.99,45.96,35.21,46.74,34.25,46.74C33.29,46.74,32.51,45.96,32.51,45C32.51,44.04,33.29,43.26,34.25,43.26C35.21,43.26,35.99,44.04,35.99,45Z" fill="#555b88"/><path d="M31.68,45C31.68,43.58,32.83,42.43,34.25,42.43C35.67,42.43,36.82,43.58,36.82,45C36.82,46.42,35.67,47.57,34.25,47.57C32.83,47.57,31.68,46.42,31.68,45ZM33.35,45C33.35,45.5,33.75,45.9,34.25,45.9C34.75,45.9,35.15,45.5,35.15,45C35.15,44.5,34.75,44.1,34.25,44.1C33.75,44.1,33.35,44.5,33.35,45Z" fill="#555b88"/><path d="M15.97,44.17L32.51,44.17L32.51,45.83L15.97,45.83Z" fill="#555b88"/><path d="M24.92,60.85C24.92,59.44,26.07,58.28,27.49,58.28C28.9,58.28,30.06,59.44,30.06,60.85C30.06,62.27,28.9,63.42,27.49,63.42C26.07,63.42,24.92,62.27,24.92,60.85ZM26.59,60.85C26.59,61.35,26.99,61.76,27.49,61.76C27.99,61.76,28.39,61.35,28.39,60.85C28.39,60.36,27.99,59.95,27.49,59.95C26.99,59.95,26.59,60.36,26.59,60.85Z" fill="#555b88"/><path d="M29.22,60.02L44.24,60.02L44.24,61.69L29.22,61.69Z" fill="#555b88"/><path d="M36.09,67.26C36.09,68.22,35.31,69,34.35,69C33.39,69,32.62,68.22,32.62,67.26C32.62,66.3,33.39,65.53,34.35,65.53C35.31,65.53,36.09,66.3,36.09,67.26Z" fill="#555b88"/><path d="M34.35,69.83C33.85,69.83,33.34,69.68,32.9,69.38C32.33,68.99,31.95,68.4,31.83,67.73C31.7,67.05,31.85,66.37,32.24,65.81C33.04,64.64,34.64,64.34,35.81,65.14L35.81,65.14C36.98,65.95,37.27,67.55,36.47,68.72C35.97,69.44,35.17,69.83,34.35,69.83ZM33.61,66.75C33.33,67.16,33.43,67.72,33.84,68.01C34.04,68.14,34.28,68.19,34.52,68.15C34.75,68.11,34.96,67.97,35.1,67.77C35.38,67.36,35.27,66.8,34.86,66.52L34.86,66.52C34.71,66.41,34.53,66.36,34.35,66.36C34.07,66.36,33.78,66.5,33.61,66.75Z" fill="#555b88"/><path d="M34.65,65.36L38.2,60.19L39.58,61.14L36.02,66.31Z" fill="#555b88"/><path d="M37.94,25.67C37.26,25.67,36.61,25.4,36.13,24.92C35.12,23.92,35.12,22.29,36.13,21.29C37.13,20.29,38.76,20.29,39.76,21.29C40.76,22.29,40.76,23.92,39.76,24.92L39.76,24.92C39.27,25.4,38.63,25.67,37.94,25.67ZM37.3,22.47C36.95,22.82,36.95,23.39,37.3,23.74C37.47,23.91,37.7,24.01,37.94,24.01C38.18,24.01,38.41,23.91,38.58,23.74L38.58,23.74C38.93,23.39,38.93,22.82,38.58,22.47C38.4,22.29,38.17,22.2,37.94,22.2C37.71,22.2,37.48,22.29,37.3,22.47Z" fill="#555b88"/><path d="M38.58,24.92L39.76,23.74L45.14,29.13L43.97,30.3Z" fill="#555b88"/><path d="M36.6,53.74C36.6,52.32,37.75,51.17,39.17,51.17C40.59,51.17,41.74,52.32,41.74,53.74C41.74,55.16,40.59,56.31,39.17,56.31C37.75,56.31,36.6,55.16,36.6,53.74ZM38.27,53.74C38.27,54.24,38.67,54.64,39.17,54.64C39.67,54.64,40.07,54.24,40.07,53.74C40.07,53.24,39.67,52.84,39.17,52.84C38.67,52.84,38.27,53.24,38.27,53.74Z" fill="#555b88"/><path d="M23.04,54.58L18.98,45.34L20.51,44.66L24.13,52.91L37.43,52.91L37.43,54.58Z" fill="#555b88"/><path d="M35.3,30.14C35.3,31.1,34.52,31.87,33.56,31.87C32.6,31.87,31.83,31.1,31.83,30.14C31.83,29.18,32.6,28.4,33.56,28.4C34.52,28.4,35.3,29.18,35.3,30.14Z" fill="#555b88"/><path d="M30.99,30.14C30.99,28.72,32.15,27.57,33.56,27.57C34.98,27.57,36.13,28.72,36.13,30.14C36.13,31.56,34.98,32.71,33.56,32.71C32.15,32.71,30.99,31.56,30.99,30.14ZM32.66,30.14C32.66,30.64,33.06,31.04,33.56,31.04C34.06,31.04,34.46,30.64,34.46,30.14C34.46,29.64,34.06,29.24,33.56,29.24C33.06,29.24,32.66,29.64,32.66,30.14Z" fill="#555b88"/><path d="M27.54,30.97L23.48,21.73L25,21.06L28.63,29.31L31.83,29.31L31.83,30.97Z" fill="#555b88"/><path d="M24,37.02C24,35.61,25.15,34.45,26.57,34.45C27.98,34.45,29.13,35.61,29.13,37.02C29.13,38.44,27.98,39.59,26.57,39.59C25.15,39.59,24,38.44,24,37.02ZM25.66,37.02C25.66,37.52,26.07,37.93,26.57,37.93C27.06,37.93,27.47,37.52,27.47,37.02C27.47,36.53,27.06,36.12,26.57,36.12C26.07,36.12,25.66,36.53,25.66,37.02Z" fill="#555b88"/><path d="M40.55,46.6L36.7,37.86L28.3,37.86L28.3,36.19L37.79,36.19L41.63,44.93L44.55,44.93L44.55,46.6Z" fill="#555b88"/></svg>