<svg xmlns="http://www.w3.org/2000/svg" viewBox="0 0 90 90"><path d="M89.44,75.22C89.44,83.04,83.04,89.44,75.22,89.44L14.78,89.44C6.96,89.44,0.56,83.04,0.56,75.22L0.56,14.78C0.56,6.96,6.96,0.56,14.78,0.56L75.22,0.56C83.04,0.56,89.45,6.96,89.45,14.78L89.45,75.22Z" fill="#b3b0ae"/><path d="M16.27,6.81L73.73,6.81C78.95,6.81,83.19,11.05,83.19,16.27L83.19,73.73C83.19,78.95,78.95,83.19,73.73,83.19L16.27,83.19C11.05,83.19,6.8,78.95,6.8,73.73L6.8,16.27C6.8,11.05,11.05,6.81,16.27,6.81Z" fill="#7d7d7a"/><path d="M55.37,29.53L67.45,29.53C67.45,29.53,67.45,35.67,67.45,35.67C67.45,38.44,66.33,40.96,64.02,43.37C62.18,45.29,59.61,47.1,56.37,48.78L55.37,48.33L55.37,29.53M50.57,24.73L50.57,51.45C50.57,51.45,56.47,54.07,56.47,54.07C64.8,50.21,72.25,44.38,72.25,35.67L72.25,26.11C72.25,25.35,71.63,24.73,70.87,24.73L50.57,24.73Z" fill="none" stroke="#a5a3a2" stroke-width="1" stroke-linecap="butt" stroke-linejoin="miter"/><path d="M34.63,29.53L34.63,48.33L33.63,48.78C30.39,47.1,27.82,45.29,25.98,43.37C23.67,40.96,22.55,38.44,22.55,35.67L22.55,29.53L34.63,29.53M39.43,24.73L19.13,24.73C18.37,24.73,17.75,25.35,17.75,26.11L17.75,35.66C17.75,44.38,25.2,50.21,33.53,54.07L39.43,51.45L39.43,24.73L39.43,24.73Z" fill="none" stroke="#a5a3a2" stroke-width="1" stroke-linecap="butt" stroke-linejoin="miter"/><path d="M56.58,54.07C52.05,57.03,50.52,59.99,51.99,62.95C52.74,64.46,37.23,64.58,38.01,63.14C39.65,60.12,38.15,57.09,33.53,54.07C41.21,50.1,48.89,50.1,56.58,54.07Z" fill="#a5a3a2"/><path d="M50.07,57.44L39.93,57.44C34.19,57.44,29.42,53.01,28.99,47.28L27.21,23.34C27.14,22.4,27.88,21.6,28.82,21.6L61.18,21.6C62.12,21.6,62.86,22.4,62.79,23.34L61.01,47.28C60.59,53.01,55.81,57.44,50.07,57.44Z" fill="#b3b0ae"/><path d="M45,35.66C45,42.61,40.52,48.5,34.29,50.61C33.83,50.77,33.32,50.57,33.09,50.14C32.59,49.2,32.27,48.16,32.18,47.04L30.55,25.16C30.54,24.97,30.7,24.8,30.9,24.8L44.03,24.8C44.59,24.97,45,25.49,45,26.11L45,35.66Z" fill="#c1bebb"/><path d="M55.12,50.37C55.12,51.29,54.37,52.04,53.45,52.04C52.53,52.04,51.79,51.29,51.79,50.37C51.79,49.46,52.53,48.71,53.45,48.71C54.37,48.71,55.12,49.46,55.12,50.37Z" fill="#c1bebb"/><path d="M58.36,26.46C58.36,27.38,57.61,28.13,56.69,28.13C55.77,28.13,55.03,27.38,55.03,26.46C55.03,25.54,55.77,24.8,56.69,24.8C57.61,24.8,58.36,25.54,58.36,26.46Z" fill="#c1bebb"/><path d="M56.45,46.57C56.45,47.16,55.97,47.64,55.38,47.64C54.78,47.64,54.3,47.16,54.3,46.57C54.3,45.97,54.78,45.49,55.38,45.49C55.97,45.49,56.45,45.97,56.45,46.57Z" fill="#c1bebb"/><path d="M53.43,25.87C53.43,26.47,52.95,26.95,52.35,26.95C51.76,26.95,51.28,26.47,51.28,25.87C51.28,25.28,51.76,24.8,52.35,24.8C52.95,24.8,53.43,25.28,53.43,25.87Z" fill="#c1bebb"/><path d="M50.72,52.3C50.72,52.89,50.24,53.37,49.65,53.37C49.05,53.37,48.57,52.89,48.57,52.3C48.57,51.7,49.05,51.22,49.65,51.22C50.24,51.22,50.72,51.7,50.72,52.3Z" fill="#c1bebb"/><path d="M60.5,60.92C61.84,60.92,62.92,62.01,62.92,63.35L62.92,66.87C62.92,67.72,62.24,68.4,61.39,68.4L28.61,68.4C27.77,68.4,27.08,67.72,27.08,66.87L27.08,63.35C27.08,62.01,28.16,60.92,29.5,60.92L60.5,60.92Z" fill="#b3b0ae"/></svg>