<svg xmlns="http://www.w3.org/2000/svg" viewBox="0 0 90 90"><path d="M89.44,75.22C89.44,83.04,83.05,89.44,75.22,89.44L14.78,89.44C6.96,89.44,0.56,83.04,0.56,75.22L0.56,14.78C0.56,6.96,6.96,0.56,14.78,0.56L75.22,0.56C83.04,0.56,89.44,6.96,89.44,14.78L89.44,75.22Z" fill="#7b7ba3"/><path d="M16.27,6.81L73.73,6.81C78.95,6.81,83.19,11.05,83.19,16.27L83.19,73.73C83.19,78.95,78.95,83.19,73.73,83.19L16.27,83.19C11.05,83.19,6.81,78.95,6.81,73.73L6.81,16.27C6.81,11.05,11.05,6.81,16.27,6.81Z" fill="#555b88"/><path d="M66.73,83.12L38.95,83.12L38.95,54.62C38.95,46.95,45.17,40.73,52.84,40.73C60.51,40.73,66.73,46.95,66.73,54.62Z" fill="#f3ac24"/><path d="M61.49,57.72C61.14,57.72,60.79,57.68,60.44,57.59C58.27,57.01,56.97,54.77,57.54,52.59L63.35,30.69C63.83,28.9,65.45,27.65,67.3,27.65C67.65,27.65,68,27.7,68.35,27.79C70.52,28.37,71.83,30.61,71.25,32.79L65.44,54.69C64.96,56.48,63.34,57.72,61.49,57.72Z" fill="#f3ac24"/><path d="M47.25,57.69C45.4,57.69,43.78,56.44,43.3,54.65L37.49,32.75C36.92,30.57,38.22,28.33,40.39,27.75C40.74,27.66,41.09,27.62,41.44,27.62C43.29,27.62,44.91,28.86,45.39,30.65L51.2,52.55C51.77,54.73,50.47,56.97,48.3,57.55C47.95,57.64,47.6,57.69,47.25,57.69Z" fill="#f3ac24"/><path d="M47.81,67.84C46.36,68.02,44.92,67.41,44.04,66.25L30.38,48.18C29.72,47.31,29.44,46.23,29.59,45.15C29.74,44.07,30.3,43.12,31.17,42.46C31.74,42.03,32.42,41.75,33.13,41.66C34.57,41.48,36.01,42.09,36.89,43.25L50.56,61.32C51.92,63.12,51.56,65.69,49.77,67.04C49.19,67.48,48.52,67.75,47.81,67.84Z" fill="#f3ac24"/><path d="M51.09,77.6C49.36,75.86,49.36,73.01,51.09,71.27L71.41,50.95C73.15,49.22,76.01,49.22,77.74,50.95L77.74,50.95C79.48,52.69,79.48,55.54,77.74,57.28L57.42,77.6C55.69,79.33,52.83,79.33,51.09,77.6Z" fill="#f3ac24"/><path d="M54.31,54.85C52.05,54.85,50.22,53.02,50.22,50.77L50.22,28.11C50.22,25.86,52.05,24.02,54.31,24.02C56.56,24.02,58.39,25.86,58.39,28.11L58.39,50.77C58.39,53.02,56.56,54.85,54.31,54.85Z" fill="#f3ac24"/><path d="M51.05,83.12L23.27,83.12L23.27,54.62C23.27,46.95,29.49,40.73,37.16,40.73C44.83,40.73,51.05,46.95,51.05,54.62Z" fill="#f7cf64"/><path d="M28.51,57.72C26.66,57.72,25.04,56.48,24.56,54.69L18.75,32.79C18.17,30.61,19.48,28.37,21.65,27.79C22,27.7,22.35,27.65,22.7,27.65C24.55,27.65,26.17,28.9,26.65,30.69L32.46,52.59C33.03,54.77,31.73,57.01,29.56,57.59C29.21,57.68,28.86,57.72,28.51,57.72Z" fill="#f7cf64"/><path d="M42.75,57.69C42.4,57.69,42.05,57.64,41.7,57.55C39.53,56.97,38.23,54.73,38.8,52.55L44.61,30.65C45.09,28.86,46.71,27.62,48.56,27.62C48.91,27.62,49.26,27.66,49.61,27.75C51.78,28.33,53.08,30.57,52.51,32.75L46.7,54.65C46.22,56.44,44.6,57.69,42.75,57.69Z" fill="#f7cf64"/><path d="M41.73,65.55C39.94,64.19,39.58,61.62,40.94,59.83L54.61,41.76C55.48,40.6,56.93,39.99,58.37,40.17C59.08,40.26,59.75,40.53,60.33,40.96C61.2,41.62,61.76,42.58,61.91,43.66C62.06,44.74,61.78,45.81,61.12,46.68L47.45,64.76C46.57,65.92,45.13,66.52,43.69,66.34C42.98,66.26,42.3,65.98,41.73,65.55Z" fill="#f7cf64"/><path d="M12.26,50.95C13.99,49.22,16.85,49.22,18.59,50.95L38.91,71.27C40.64,73.01,40.64,75.86,38.91,77.6L38.91,77.6C37.17,79.34,34.31,79.34,32.58,77.6L12.26,57.28C10.52,55.54,10.52,52.69,12.26,50.95Z" fill="#f7cf64"/><path d="M31.61,50.77L31.61,28.11C31.61,25.86,33.44,24.02,35.69,24.02C37.95,24.02,39.78,25.86,39.78,28.11L39.78,50.77C39.78,53.02,37.95,54.85,35.69,54.85C33.44,54.85,31.61,53.02,31.61,50.77Z" fill="#f7cf64"/><path d="M43.59,9.92L46.41,9.92L46.41,15L43.59,15Z" fill="#f7cf64"/><path d="M28.53,17.34L30.37,15.21L34.22,18.53L32.38,20.67Z" fill="#f7cf64"/><path d="M55.78,18.53L59.63,15.21L61.47,17.34L57.62,20.66Z" fill="#f7cf64"/></svg>