<svg xmlns="http://www.w3.org/2000/svg" viewBox="0 0 90 90"><path d="M0,0L90,0L90,90L0,90Z" fill="none" stroke="#ffffff" stroke-width="1" stroke-linecap="butt" stroke-linejoin="miter"/><path d="M75.22,89.44L14.78,89.44C6.96,89.44,0.55,83.04,0.55,75.22L0.55,14.78C0.56,6.96,6.96,0.56,14.78,0.56L75.22,0.56C83.04,0.56,89.44,6.96,89.44,14.78L89.44,75.22C89.44,83.04,83.04,89.44,75.22,89.44Z" fill="#f05a29"/><path d="M16.27,6.81L73.73,6.81C78.95,6.81,83.19,11.05,83.19,16.27L83.19,73.73C83.19,78.95,78.95,83.19,73.73,83.19L16.27,83.19C11.05,83.19,6.81,78.95,6.81,73.73L6.81,16.27C6.81,11.05,11.05,6.81,16.27,6.81Z" fill="#e6912c"/><path d="M62.94,53.03C62.94,58.91,67.71,63.68,73.59,63.68C74.55,63.68,75.48,63.55,76.36,63.31L76.36,74.6C76.36,76.69,74.67,78.39,72.58,78.39L55.09,78.39C55.31,77.53,55.43,76.63,55.43,75.7C55.43,69.82,50.66,65.05,44.78,65.05C38.9,65.05,34.13,69.82,34.13,75.7C34.13,76.63,34.25,77.53,34.47,78.39L16.98,78.39C14.89,78.39,13.19,76.69,13.19,74.6L13.19,63.12C13.97,63.3,14.77,63.4,15.6,63.4C21.48,63.4,26.25,58.63,26.25,52.74C26.25,46.86,21.48,42.09,15.6,42.09C14.77,42.09,13.97,42.19,13.19,42.37L13.19,26.93C13.19,24.83,14.89,23.14,16.98,23.14L34.37,23.14C34.21,22.41,34.13,21.65,34.13,20.87C34.13,14.99,38.9,10.22,44.78,10.22C50.66,10.22,55.43,14.99,55.43,20.87C55.43,21.65,55.35,22.41,55.19,23.14L72.58,23.14C74.67,23.14,76.36,24.83,76.36,26.93L76.36,42.74C75.48,42.5,74.55,42.37,73.59,42.37C67.71,42.37,62.94,47.14,62.94,53.03Z" fill="#f7cf64"/><path d="M32.92,40.91L32.92,38.74C32.92,37.51,33.91,36.51,35.14,36.51C36.37,36.51,37.36,37.51,37.36,38.74L37.36,40.91C37.36,42.14,36.37,43.14,35.14,43.14C33.91,43.14,32.92,42.14,32.92,40.91Z" fill="#f05a29"/><path d="M52.19,40.91L52.19,38.74C52.19,37.51,53.19,36.51,54.42,36.51C55.64,36.51,56.64,37.51,56.64,38.74L56.64,40.91C56.64,42.14,55.64,43.14,54.42,43.14C53.19,43.14,52.19,42.14,52.19,40.91Z" fill="#f05a29"/><path d="M50.53,39.86C49.68,39.86,48.91,39.69,48.23,39.42C47.13,39,46.81,37.59,47.63,36.74L47.69,36.67C48.15,36.2,48.84,36.04,49.46,36.26C50.26,36.54,51.48,36.66,52.78,35.6C55.5,33.39,58.7,31.5,61.84,34.31C62.53,34.92,62.59,35.97,61.97,36.66C61.36,37.35,60.31,37.4,59.62,36.79C58.95,36.19,58.18,35.51,54.89,38.18C53.37,39.42,51.86,39.86,50.53,39.86Z" fill="#e6912c"/><path d="M28.91,36.85C28.81,36.85,28.7,36.84,28.59,36.81C27.68,36.64,27.1,35.76,27.28,34.86C27.31,34.7,27.61,33.28,28.68,31.86C29.71,30.51,31.63,28.89,34.98,28.89C38.64,28.89,40.89,30.87,42.06,32.74C42.66,33.7,42.17,34.97,41.07,35.25L41.07,35.25C40.36,35.44,39.61,35.13,39.22,34.51C39.09,34.29,38.93,34.06,38.74,33.84C37.82,32.77,36.55,32.23,34.98,32.23C33.41,32.23,32.17,32.78,31.34,33.87C30.74,34.67,30.55,35.5,30.55,35.5C30.39,36.3,29.69,36.85,28.91,36.85Z" fill="#e6912c"/><path d="M44.78,59.01C38.17,59.01,32.79,53.64,32.79,47.03C32.79,46.11,33.54,45.36,34.46,45.36L55.1,45.36C56.02,45.36,56.77,46.11,56.77,47.03C56.77,53.64,51.39,59.01,44.78,59.01Z" fill="#fff"/><path d="M55.1,47.03C55.1,52.73,50.48,57.35,44.78,57.35C39.08,57.35,34.46,52.73,34.46,47.03L55.1,47.03Z" fill="#fff"/></svg>