<svg xmlns="http://www.w3.org/2000/svg" viewBox="0 0 90 90"><path d="M89.44,75.22C89.44,83.04,83.04,89.44,75.22,89.44L14.78,89.44C6.96,89.44,0.56,83.04,0.56,75.22L0.56,14.78C0.56,6.96,6.96,0.56,14.78,0.56L75.22,0.56C83.04,0.56,89.45,6.96,89.45,14.78L89.45,75.22Z" fill="#009187"/><path d="M16.27,6.8L73.73,6.8C78.95,6.8,83.2,11.05,83.2,16.27L83.2,73.73C83.2,78.95,78.95,83.19,73.73,83.19L16.27,83.19C11.05,83.19,6.81,78.95,6.81,73.73L6.81,16.27C6.81,11.05,11.05,6.8,16.27,6.8Z" fill="#78ceca"/><path d="M56.8,53.89C57.7,53.89,58.45,54.64,58.45,55.55L58.45,55.55C58.45,56.45,57.7,57.2,56.8,57.2L46.79,57.2C45.89,57.2,45.14,56.45,45.14,55.55L45.14,55.55C45.14,54.64,45.89,53.89,46.79,53.89Z" fill="#009187"/><path d="M37.77,53.89L37.77,57.2L31.49,57.2C30.58,57.2,29.84,56.46,29.84,55.55C29.84,54.63,30.58,53.89,31.49,53.89L37.77,53.89Z" fill="#009187"/><path d="M61.87,67.4C61.87,71.04,58.92,74,55.27,74C51.63,74,48.67,71.04,48.67,67.4C48.67,63.75,51.63,60.8,55.27,60.8C58.92,60.8,61.87,63.75,61.87,67.4Z" fill="#009187"/><path d="M59.28,67.4C59.28,69.61,57.48,71.4,55.27,71.4C53.06,71.4,51.27,69.61,51.27,67.4C51.27,65.19,53.06,63.4,55.27,63.4C57.48,63.4,59.28,65.19,59.28,67.4Z" fill="#78ceca"/><path d="M51.86,60.1C52.13,60.45,52.26,60.89,52.21,61.32C52.15,61.76,51.93,62.16,51.59,62.43L51.59,62.43C50.87,62.99,49.83,62.87,49.26,62.15L43.07,54.3C42.51,53.59,42.63,52.54,43.35,51.98L43.35,51.97C43.69,51.7,44.13,51.58,44.57,51.63C45,51.68,45.4,51.91,45.67,52.25Z" fill="#009187"/><path d="M42.12,67.4C42.12,71.04,39.17,74,35.52,74C31.88,74,28.92,71.04,28.92,67.4C28.92,63.75,31.88,60.8,35.52,60.8C39.17,60.8,42.12,63.75,42.12,67.4Z" fill="#009187"/><path d="M39.52,67.4C39.52,69.61,37.73,71.4,35.52,71.4C33.31,71.4,31.52,69.61,31.52,67.4C31.52,65.19,33.31,63.4,35.52,63.4C37.73,63.4,39.52,65.19,39.52,67.4Z" fill="#78ceca"/><path d="M56.19,65.6C56.76,66.31,56.63,67.36,55.92,67.92L55.92,67.92C55.2,68.48,54.16,68.36,53.59,67.65L47.4,59.79C46.84,59.08,46.96,58.03,47.68,57.47L47.68,57.47C48.39,56.91,49.44,57.03,50,57.74Z" fill="#009187"/><path d="M24.97,61.43C23.44,63.4,22.91,66.07,23.8,68.59" fill="none" stroke="#009187" stroke-width="1.8900000000000001" stroke-linecap="round" stroke-linejoin="round"/><path d="M21.63,61.62C20.73,63.07,20.33,64.82,20.54,66.55" fill="none" stroke="#009187" stroke-width="1.8900000000000001" stroke-linecap="round" stroke-linejoin="round"/><path d="M47.88,55.05C48.44,55.76,48.32,56.81,47.6,57.37L47.6,57.37C46.89,57.93,45.84,57.81,45.28,57.1L39.09,49.24C38.52,48.53,38.65,47.48,39.36,46.92L39.36,46.92C40.08,46.36,41.12,46.48,41.69,47.19Z" fill="#f48c8d"/><path d="M39.48,55.7C40.04,56.41,39.91,57.46,39.2,58.02L39.2,58.02C38.49,58.59,37.44,58.46,36.88,57.75L30.68,49.89C30.12,49.18,30.25,48.13,30.96,47.57L30.96,47.57C31.67,47.01,32.72,47.13,33.28,47.85Z" fill="#f48c8d"/><path d="M42.62,59.69C43.18,60.4,43.06,61.45,42.34,62.01L42.34,62.01C41.63,62.57,40.58,62.45,40.02,61.74L33.83,53.88C33.27,53.17,33.39,52.12,34.1,51.56L34.1,51.56C34.82,51,35.87,51.12,36.43,51.83Z" fill="#fde8e8"/><path d="M36.95,67.94C36.33,68.6,35.28,68.64,34.61,68.01L34.61,68.01C33.95,67.39,33.91,66.34,34.54,65.67L40.09,59.64C40.72,58.98,41.77,58.94,42.43,59.57L42.43,59.57C43.1,60.2,43.13,61.24,42.5,61.91Z" fill="#fde8e8"/><path d="M44.52,56.2L46.83,53.9L47.72,54.78L45.41,57.09Z" fill="#fde8e8"/><path d="M79.92,43.1C79.92,48.74,75.57,53.35,70.05,53.79L70.05,53.82L21.76,53.82L21.76,53.8C21.55,53.82,21.34,53.82,21.12,53.82C15.02,53.82,10.08,48.67,10.08,42.78C10.08,36.89,14.69,32.08,20.49,31.76C22.86,25.79,28.69,21.56,35.5,21.56C38.92,21.56,42.1,22.63,44.71,24.45C47.32,22.63,50.49,21.56,53.92,21.56C60.96,21.56,67.29,25.64,69.48,31.93C69.5,31.93,69.52,31.93,69.53,31.93C75.45,31.93,79.92,37.18,79.92,43.1Z" fill="#f48c8d"/><path d="M60.9,45.07C60.9,48.78,57.89,51.79,54.18,51.79C50.47,51.79,47.46,48.78,47.46,45.07C47.46,41.36,50.47,38.35,54.18,38.35C57.89,38.35,60.9,41.36,60.9,45.07Z" fill="#fff"/><path d="M73.52,45.07C73.52,48.78,70.52,51.79,66.81,51.79C63.1,51.79,60.09,48.78,60.09,45.07C60.09,41.36,63.1,38.35,66.81,38.35C70.52,38.35,73.52,41.36,73.52,45.07Z" fill="#fff"/><path d="M56.55,45.89C56.55,47.71,55.07,49.19,53.25,49.19C51.43,49.19,49.96,47.71,49.96,45.89C49.96,44.07,51.43,42.6,53.25,42.6C55.07,42.6,56.55,44.07,56.55,45.89Z" fill="#65625f"/><path d="M68.85,45.89C68.85,47.71,67.38,49.19,65.56,49.19C63.74,49.19,62.27,47.71,62.27,45.89C62.27,44.07,63.74,42.6,65.56,42.6C67.38,42.6,68.85,44.07,68.85,45.89Z" fill="#65625f"/><path d="M57.64,46.86C57.64,47.81,56.86,48.59,55.91,48.59C54.96,48.59,54.18,47.81,54.18,46.86C54.18,45.9,54.96,45.13,55.91,45.13C56.86,45.13,57.64,45.9,57.64,46.86Z" fill="#fff"/><path d="M70.24,46.86C70.24,47.81,69.46,48.59,68.51,48.59C67.55,48.59,66.78,47.81,66.78,46.86C66.78,45.9,67.55,45.13,68.51,45.13C69.46,45.13,70.24,45.9,70.24,46.86Z" fill="#fff"/><path d="M19.17,27.21L69.49,27.21L69.49,31.93L19.17,31.93Z" fill="#fde8e8"/><path d="M69.49,27.21L42.54,27.21C44.54,21.71,49.82,17.77,56.02,17.77C62.21,17.77,67.49,21.71,69.49,27.21Z" fill="#f48c8d"/><path d="M46.12,27.21L19.17,27.21C21.17,21.71,26.45,17.77,32.65,17.77C38.84,17.77,44.12,21.71,46.12,27.21Z" fill="#f48c8d"/></svg>