<svg xmlns="http://www.w3.org/2000/svg" viewBox="0 0 90 90"><path d="M89.44,75.22C89.44,83.04,83.04,89.44,75.22,89.44L14.78,89.44C6.96,89.44,0.56,83.04,0.56,75.22L0.56,14.78C0.56,6.96,6.96,0.56,14.78,0.56L75.22,0.56C83.04,0.56,89.44,6.96,89.44,14.78L89.44,75.22Z" fill="#1eaea7"/><path d="M16.27,6.81L73.73,6.81C78.95,6.81,83.19,11.05,83.19,16.27L83.19,73.73C83.19,78.95,78.95,83.19,73.73,83.19L16.27,83.19C11.05,83.19,6.81,78.95,6.81,73.73L6.81,16.27C6.81,11.05,11.05,6.81,16.27,6.81Z" fill="#555b88"/><path d="M68.44,18.52C69.38,18.52,70.27,18.89,70.94,19.56C71.6,20.22,71.97,21.11,71.97,22.05L71.97,61.82C71.97,62.75,71.6,63.65,70.94,64.31C70.27,64.97,69.38,65.34,68.44,65.34L21.56,65.34C20.62,65.34,19.73,64.97,19.06,64.31C18.4,63.65,18.03,62.75,18.03,61.82L18.03,22.05C18.03,21.11,18.4,20.22,19.06,19.56C19.73,18.89,20.62,18.52,21.56,18.52Z" fill="#1eaea7"/><path d="M45,52.92L50.78,64.96L45,75.27L39.22,64.96Z" fill="#1eaea7"/><path d="M47.21,26.23L51.32,26.83L48.34,29.73L49.05,33.83L45.37,31.89L41.68,33.83L42.39,29.73L39.41,26.83L43.52,26.23L45.37,22.5Z" fill="#555b88"/><path d="M39.63,40.04L33.31,58.62L29.61,58.62L23.35,40.04L27.52,40.04L31.5,54.12L31.55,54.12L35.59,40.04Z" fill="#fff"/><path d="M43.33,58.62L43.33,40.04L47.21,40.04L47.21,58.62Z" fill="#fff"/><path d="M56.27,58.62L52.39,58.62L52.39,40.04L60.88,40.04C61.77,40.04,62.58,40.18,63.3,40.45C64.01,40.73,64.62,41.13,65.11,41.64C65.6,42.16,65.98,42.79,66.25,43.52C66.52,44.25,66.65,45.08,66.65,45.99C66.65,46.41,66.58,46.95,66.43,47.62C66.28,48.29,65.99,48.95,65.56,49.59C65.13,50.23,64.53,50.77,63.75,51.23C62.97,51.69,61.97,51.92,60.72,51.92L56.27,51.92L56.27,58.62ZM61.54,48.37C61.93,48.15,62.21,47.88,62.39,47.57C62.57,47.26,62.68,46.94,62.72,46.61C62.75,46.28,62.77,46.02,62.77,45.81C62.77,44.9,62.5,44.24,61.97,43.84C61.43,43.45,60.56,43.25,59.35,43.25L56.27,43.25L56.27,48.71L59.87,48.71C60.59,48.71,61.15,48.6,61.54,48.37Z" fill="#fff"/></svg>